<svg id="Layer_1" data-name="Layer 1" xmlns="http://www.w3.org/2000/svg" viewBox="0 0 500 500"><defs><style>.cls-1{fill:#ced5db;}.cls-2{fill:none;stroke:#ddd;stroke-miterlimit:10;}.cls-3{fill:#f2f2f2;}.cls-4{fill:#e5e5e5;}.cls-5{fill:#d4d9dd;}.cls-6{fill:#cdd8e0;}</style></defs><title>comunicados_empty-state</title><path class="cls-1" d="M241.39,200.36l-7.82-18.24a.6.6,0,0,0-1.1,0l-7.82,18.24,0,.22v14.81h16.82V200.58ZM230.84,189h4.36l4.62,10.82h-13.6Zm9.39,25.24h-3.6v-.6a.61.61,0,0,0-1.21,0v.6H233V210a.6.6,0,1,0-1.2,0v4.2h-1.2V204a.61.61,0,0,0-1.21,0V214.2h-3.6V201h9.61v9a.61.61,0,0,0,1.21,0v-9h3.6Z"/><line class="cls-2" x1="365.68" y1="391.06" x2="418.43" y2="391.06"/><line class="cls-2" x1="390.1" y1="401.11" x2="422.15" y2="401.11"/><line class="cls-2" x1="91.96" y1="379.34" x2="126.52" y2="379.34"/><line class="cls-2" x1="80.24" y1="386.04" x2="114.8" y2="386.04"/><path class="cls-3" d="M71.31,336.67c-2,0-3.65,8.49-3.65,12C67.66,352,69.1,352,71,352v3.21h.61V352c1.89,0,3.39,0,3.39-3.33C75,345.16,73.32,336.67,71.31,336.67Z"/><polygon class="cls-4" points="161.68 355.47 159.38 356.43 161.68 353.79 161.68 350.78 151.41 356.65 150.08 353.32 144.34 355.54 142.15 349.78 139.33 355.1 136.46 342.12 136.46 355.32 127.39 340.55 129.95 349.32 126.77 359.97 124.28 357.31 121.39 358.86 119.37 351.48 117.42 358.04 117.42 355.32 114.86 358.64 117.62 350 110.9 358.97 110.9 354.21 107.4 357.1 107.4 355.54 103.39 358.04 103.39 348.89 97.67 357.76 94.6 352.88 90.36 357.1 90.36 343.79 85.05 357.31 82.62 353.99 81.51 356.43 80.4 354.21 75.08 356.43 75.97 347.78 69.1 356.43 65.77 353.32 60 355.54 57.76 349.78 54.84 355.1 51.78 342.12 51.78 355.32 42.76 340.55 42.76 361.9 133.62 361.9 134.41 361.9 161.68 361.9 161.68 355.47"/><polygon class="cls-4" points="452.46 350 455.21 358.64 452.64 355.32 452.64 358.04 451 352.49 454.74 340.55 446.13 355.32 446.13 342.12 442.8 355.1 440.17 350.5 439.11 347.12 439.11 351.39 437.46 355.54 431.65 353.32 428.31 356.43 421.43 347.78 422.31 356.43 416.99 354.21 415.88 356.43 414.77 353.99 412.6 357.31 407.54 343.79 407.54 357.1 403.04 352.88 400.11 357.76 394.52 348.89 394.52 358.04 390.51 355.54 390.51 357.1 387 354.21 387 358.97 380.02 350 382.91 358.64 380.49 355.32 380.49 358.04 378.27 351.48 376.13 358.86 373.18 357.31 370.65 359.97 368.59 356.46 373.56 340.55 364.95 355.32 364.95 342.12 361.63 355.1 358.58 349.78 356.28 355.54 350.48 353.32 347.13 356.43 340.25 347.78 341.13 356.43 337.13 354.76 337.13 361.9 362.98 361.9 366.88 361.9 439.11 361.9 448.06 361.9 457.24 361.9 457.24 356.41 452.46 350"/><path class="cls-5" d="M186.78,394.64c-3.08.39-5.94.7-8.78,1.12a17.81,17.81,0,0,1-20.71-17.68c-.07-18.78,0-37.57,0-56.35q0-29.31,0-58.62c0-9.91,6.51-17.34,16.31-18.14,3.26-.27,6.61.64,9.92,1,1,.12,2,.32,3.28.53,0-.85,0-1.56,0-2.28.12-5-.27-10,.47-14.89a18.24,18.24,0,0,1,18.06-15.3c18.47-.11,36.94-.07,55.4,0a18.62,18.62,0,0,1,12.63,5.22l46.83,42.09,15.75,14.16a19.8,19.8,0,0,1,6.83,15.38q0,58.14,0,116.29c0,11.36-8.2,19.51-19.59,19.52q-58.33,0-116.67,0c-11.6,0-19.67-8.15-19.69-19.79C186.77,402.9,186.78,398.88,186.78,394.64Zm70.85-166.51H207.06c-4.39,0-6.16,1.79-6.16,6.22q0,86,0,172c0,4.4,1.79,6.19,6.19,6.19H322.41c4.53,0,6.26-1.74,6.26-6.29V291.59h-54.4c-10.1,0-16.64-6.58-16.64-16.72V228.13ZM186.69,380.19V261.07c-3.21-.57-6.36-1.12-9.5-1.69-4.37-.8-5.79.38-5.8,4.84q0,56.14,0,112.3a14.75,14.75,0,0,0,0,1.88,3.4,3.4,0,0,0,3.73,3.23C179,381.26,182.78,380.69,186.69,380.19ZM272.05,236.8a7.85,7.85,0,0,0-.16.92c0,12.54,0,25.09,0,37.63,0,1.83,1,2,2.4,2q20.5,0,41,0a13.58,13.58,0,0,0,1.62-.21Z"/><path class="cls-5" d="M267.21,377.1c9.45,0,18.91,0,28.36,0a7,7,0,0,1,2.84,13.51,9.38,9.38,0,0,1-3.49.63q-27.8.06-55.58,0c-4.54,0-7.62-3-7.59-7.13s3.13-7,7.67-7Q253.33,377.08,267.21,377.1Z"/><path class="cls-5" d="M245.94,346.51c2.27,0,4.54,0,6.8,0a7.11,7.11,0,1,1,.1,14.22c-4.66.08-9.32.09-14,0a7.1,7.1,0,1,1,.09-14.2C241.28,346.47,243.61,346.51,245.94,346.51Z"/><path class="cls-1" d="M127,160a3,3,0,0,0,4-1.31l9.39-18.38a1.08,1.08,0,0,0,.1-.35l.59-5.72a.93.93,0,0,0-1.54-.78l-4.29,3.83a.9.9,0,0,0-.21.27L125.71,156A3,3,0,0,0,127,160Zm11.5-24.33,1.47.75-.31,3-3.41-1.74Zm-2.81,2.76,1.37.7,2.33,1.19c-.9,1.76-4.31,8.46-6.72,13.16l-2.33-1.19-1.38-.7Zm-7.14,14,2.54,1.3,1.16.6-.51,1-1.17-.6-2.53-1.29Zm-.94,1.82,2.55,1.31,1.17.59c-.16.29-.29.54-.4.79l-1.17-.6L127.24,155Q127.42,154.69,127.63,154.25Zm-1.09,2.16c0-.09.13-.28.28-.55l2.54,1.3,1.16.59a6.09,6.09,0,0,1-.28.55,2.08,2.08,0,0,1-2.8.91,1.9,1.9,0,0,1-.52-.4h0l0,0a1.34,1.34,0,0,0-.11-.14,1.18,1.18,0,0,1-.13-.18l0,0a.93.93,0,0,1-.1-.2,1.57,1.57,0,0,1-.09-.23A2,2,0,0,1,126.54,156.41Z"/><path class="cls-1" d="M355.65,204.09l-19.25-6.71a1.54,1.54,0,0,1-.4-2,.35.35,0,0,1,0-.07l-.16-.07a1.44,1.44,0,0,1-1-2.09L341.18,175a1.43,1.43,0,0,1,2-1l11.57,4,.35.13c.12-.35.22-.67.34-1a2.3,2.3,0,0,1,4.35,1.52c-.11.33-.23.64-.34,1,.73.26,1.42.49,2.1.74a1.4,1.4,0,0,1,.88,1.79c-.05.13-.09.25-.13.37a4.79,4.79,0,0,1,.75.34,1.53,1.53,0,0,1,.62,1.25L357,203.46A1.77,1.77,0,0,1,355.65,204.09ZM336,193.88l18.65,6.5,6.49-18.63-5.25-1.83-1.63,4.69a.57.57,0,0,0,0,.18.59.59,0,0,0,.49.6.62.62,0,0,0,.69-.42l1.23-3.52a.67.67,0,0,1,.88-.47.66.66,0,0,1,.38.89c-.41,1.21-.82,2.41-1.26,3.61a1.76,1.76,0,0,1-1.12,1.12,1.93,1.93,0,0,1-2.5-2.49c.49-1.44,1-2.88,1.5-4.32l.11-.31-12.14-4.23Zm1.28,1.89c-.2.44-.2.44.19.58l17.93,6.25c.38.13.38.13.51-.24q3.12-9,6.25-17.93c.14-.42.13-.44-.35-.5l-.11.34q-2.85,8.16-5.69,16.33a1.42,1.42,0,0,1-2,1l-16.33-5.69Zm19.06-17.15,1.83.63c.12-.34.25-.66.34-1a1,1,0,0,0-.64-1.15,1,1,0,0,0-1.19.54C356.59,178,356.49,178.28,356.37,178.62Z"/><path class="cls-1" d="M347,179.48a1.37,1.37,0,0,1-.37.32c-1.33.66-2.67,1.3-4,1.94a.67.67,0,1,1-.57-1.2l4-1.94a.68.68,0,0,1,.79.08A.69.69,0,0,1,347,179.48Z"/><path class="cls-1" d="M341.6,184.05a2.55,2.55,0,0,1-.37-.58.58.58,0,0,1,.26-.66,1.73,1.73,0,0,1,.27-.15l3.76-1.82a2.37,2.37,0,0,1,.34-.13.68.68,0,0,1,.74.35.67.67,0,0,1-.18.8,1.31,1.31,0,0,1-.28.17c-1.28.62-2.56,1.25-3.85,1.85A3.48,3.48,0,0,1,341.6,184.05Z"/><path class="cls-6" d="M255.12,136.31l-.81-9.08c-.14-1.49-.27-3-.4-4.49a1.44,1.44,0,0,1,1.38-1.64l6.24-.56h.17A1.83,1.83,0,0,1,265,119.4l.17-.07,3.76-1.69a1.45,1.45,0,0,1,2,.77q1.82,4,3.64,8.09a.62.62,0,0,1,0,.5q-1.33,3.5-2.66,7a.56.56,0,0,1-.32.35l-7.15,3.21a1.44,1.44,0,0,1-1.92-.62c-.06-.12-.14-.09-.22-.09-1.77.17-3.54.31-5.31.5a1.76,1.76,0,0,1-1.73-.6Zm16-2.53-.09-.2c-.5-1.12-1-2.25-1.52-3.37a1.45,1.45,0,0,1,.77-2l3.39-1.52.19-.09-.09-.18-3.44-7.67a.74.74,0,0,0-1.09-.42l-3.2,1.44-.7.31c0,1.12-.28,1.74-1.07,2.07a1.8,1.8,0,0,1-2.21-.59l-.17.07-3.74,1.68a.75.75,0,0,0-.41,1.1l5.43,12.06a.72.72,0,0,0,1.09.41l6.67-3Zm-10.51-12.39v0h-.13l-5.09.45a.72.72,0,0,0-.72.87l1.17,13.2a.73.73,0,0,0,.89.74l5.3-.48.2,0-.1-.22-5-11.22a1.45,1.45,0,0,1,.77-2.05l1.95-.88Zm13,6.08-.14.07-2.95,1.32a.72.72,0,0,0-.39,1l1.32,3,.07.13Zm-9.65-6a1.09,1.09,0,1,0-1.45-.55A1.1,1.1,0,0,0,264,121.46Z"/><path class="cls-6" d="M265.24,125.67l-4,1.8-.15.06a.36.36,0,0,1-.45-.2.37.37,0,0,1,.15-.46l.15-.07,8.05-3.61a.67.67,0,0,1,.15-.06.36.36,0,0,1,.29.65l-.15.07Z"/><path class="cls-6" d="M265.71,126.65l4-1.8.15-.07a.36.36,0,0,1,.45.2.37.37,0,0,1-.15.46l-.15.07-8,3.61-.15.07a.36.36,0,0,1-.29-.66.61.61,0,0,1,.14-.07Z"/><path class="cls-6" d="M266.45,128.31l4-1.81a.94.94,0,0,1,.15-.06.37.37,0,0,1,.45.18.36.36,0,0,1-.15.47l-.15.07-8,3.62a.94.94,0,0,1-.15.06.36.36,0,0,1-.45-.2.35.35,0,0,1,.15-.45l.15-.07Z"/><path class="cls-6" d="M261.54,125.34l-1.11.5a.37.37,0,1,1-.3-.66l2.22-1a.37.37,0,0,1,.52.15.36.36,0,0,1-.23.51Z"/><path class="cls-6" d="M264.6,133.52l-.63.28a.36.36,0,1,1-.3-.66l1.29-.58a.36.36,0,0,1,.5.18.36.36,0,0,1-.2.48C265,133.33,264.82,133.42,264.6,133.52Z"/><path class="cls-6" d="M204.55,89.81l-.17-.13-2.52-1.48a.35.35,0,0,0-.3,0l-3,.88a2.43,2.43,0,0,1-3-1.66c-.76-2.63-1.52-5.25-2.27-7.88a2.4,2.4,0,0,1,1.65-3l10.79-3.11a2.41,2.41,0,0,1,3,1.68q1.13,3.91,2.26,7.83a2.41,2.41,0,0,1-1.68,3l-3,.88A.34.34,0,0,0,206,87l-1.35,2.6Zm-.16-.55a1.59,1.59,0,0,1,.08-.22c.41-.78.81-1.57,1.22-2.36a.37.37,0,0,1,.24-.2l3.18-.91A2,2,0,0,0,210.53,83l-2.25-7.81a2,2,0,0,0-2.57-1.41l-10.64,3.07a2.32,2.32,0,0,0-.46.18,2,2,0,0,0-1,2.42c.74,2.6,1.49,5.19,2.24,7.79,0,.12.08.24.13.36a2,2,0,0,0,2.41,1.05l3.19-.92a.35.35,0,0,1,.33,0l2.3,1.35A1.41,1.41,0,0,1,204.39,89.26Z"/><path class="cls-6" d="M201.22,78.23a2.51,2.51,0,0,1,4-.62,2.45,2.45,0,0,1,.46,2.89c-.8,1.5-1.64,3-2.46,4.48l0,0-.1-.05-4.32-2.38A2.49,2.49,0,0,1,201,78.12Zm.16.58a4.29,4.29,0,0,0-.45-.26,2,2,0,0,0-2.26.19,2.08,2.08,0,0,0,.26,3.47l4,2.2.1,0,0-.06c.75-1.35,1.5-2.69,2.23-4a2.09,2.09,0,0,0-3.66-2C201.54,78.49,201.47,78.64,201.38,78.81Z"/><path class="cls-6" d="M351.13,102.83l-.79-.2a16.55,16.55,0,0,1-2.72-1.12l-2.95-1.46a5.66,5.66,0,0,0-1.82-.45,3.88,3.88,0,0,1-.11.49.63.63,0,0,1-.71.42l-3.48-.56a.65.65,0,0,1-.55-.79c.12-.77.25-1.54.37-2.3l.87-5.46a.68.68,0,0,1,.87-.63l3.21.51c.56.09.73.29.73.89.32-.15.64-.27.93-.44a5.37,5.37,0,0,0,2.32-2.44,6.2,6.2,0,0,0,.27-1,2,2,0,0,1,1.14-1.39,1.82,1.82,0,0,1,2.52,1.5,3.14,3.14,0,0,1,0,.81c-.15,1-.32,2-.48,3l0,.17.19,0c1.21.19,2.42.4,3.63.57a2.26,2.26,0,0,1,1.8,1.36,5.47,5.47,0,0,1,.47,2.25c0,.32,0,.64,0,1v.15l-.15,1a.61.61,0,0,0-.05.12c-.14.44-.26.88-.43,1.3a4.79,4.79,0,0,1-1.45,2.05,3.46,3.46,0,0,1-2.44.74l-.94-.06ZM343,98.63l1,.16a.79.79,0,0,1,.22,0c.49.2,1,.37,1.46.6,1.06.51,2.1,1,3.16,1.56a8.76,8.76,0,0,0,3.58,1,2.49,2.49,0,0,0,2.11-.95,5,5,0,0,0,.62-1,7.24,7.24,0,0,0,.71-3.58,4,4,0,0,0-.45-1.79,1.22,1.22,0,0,0-.95-.68c-1.41-.21-2.82-.44-4.23-.67-.43-.07-.58-.27-.51-.71.18-1.17.37-2.35.56-3.53a1.33,1.33,0,0,0,0-.74.85.85,0,0,0-.74-.59.77.77,0,0,0-.8.42,3.58,3.58,0,0,0-.19.55,8.67,8.67,0,0,1-.33,1,6.18,6.18,0,0,1-2.24,2.54,5,5,0,0,1-1.91.83.18.18,0,0,0-.17.17c-.27,1.73-.54,3.45-.82,5.17Zm0-6.39-2.83-.46L339,99l2.84.46Z"/><path class="cls-4" d="M432.45,305.15c-5.35,0-9.68,22.56-9.68,31.91,0,8.79,3.83,8.88,8.73,8.85v8.53h1.64v-8.53c5,0,9,.1,9-8.85C442.14,327.71,437.8,305.15,432.45,305.15Z"/><path class="cls-4" d="M63.39,325.14c-3.22,0-5.84,13.59-5.84,19.22,0,5.3,2.31,5.35,5.26,5.33v5.14h1v-5.14c3,0,5.42.06,5.42-5.33C69.22,338.73,66.61,325.14,63.39,325.14Z"/></svg>