<svg id="Layer_1" data-name="Layer 1" xmlns="http://www.w3.org/2000/svg" viewBox="0 0 50 50"><defs><style>.cls-1{fill:#fff;}</style></defs><title>icon_users-white</title><path class="cls-1" d="M7.73,41a.7.7,0,0,1-.08-.2,15.88,15.88,0,0,1,.35-5,3.5,3.5,0,0,1,2.27-2.4c1.34-.45,2.73-.76,4.08-1.17a9.76,9.76,0,0,0,1.76-.65c.82-.43.91-1,.54-1.84-.73-1.69-1.5-3.37-2.08-5.1a9.75,9.75,0,0,1-.21-5.83,6.79,6.79,0,0,1,6-5.16,8.06,8.06,0,0,1,4.73.8,6.73,6.73,0,0,1,3.65,5.45,14,14,0,0,1-1.29,7.26c-.33.84-.74,1.64-1.14,2.45-.5,1-.34,1.68.72,2.08s2.46.74,3.69,1.1c.53.16,1.07.29,1.59.47A4.09,4.09,0,0,1,35.18,37a2.77,2.77,0,0,0,.11.48V41Zm25.4-1.9v-2a2.08,2.08,0,0,0-1.56-1.93c-.54-.2-1.11-.27-1.66-.45a34.82,34.82,0,0,1-4.21-1.44,2.86,2.86,0,0,1-1.53-3.74l.12-.26a9.18,9.18,0,0,1,.48-1,15.49,15.49,0,0,0,2-7.67,5.05,5.05,0,0,0-1.36-3.4,5.44,5.44,0,0,0-5-1.47,4.65,4.65,0,0,0-4.09,3.66,11,11,0,0,0-.11,3.13,16.37,16.37,0,0,0,2,6,6.94,6.94,0,0,1,.55,1.32A2.67,2.67,0,0,1,17.64,33a20,20,0,0,1-3.25,1.34c-.9.31-1.85.45-2.78.7a2.13,2.13,0,0,0-1.7,1.5,18.47,18.47,0,0,0-.24,2.57Z"/><path class="cls-1" d="M18.28,28.54h0l.14.28Z"/><path class="cls-1" d="M42.3,32.39a4.1,4.1,0,0,0-2.85-3.71c-.53-.18-1.06-.31-1.59-.47-1.24-.36-2.5-.65-3.7-1.1-1-.4-1.22-1.07-.72-2.08.4-.81.82-1.61,1.15-2.45a14,14,0,0,0,1.28-7.26,6.67,6.67,0,0,0-3.65-5.45,8.11,8.11,0,0,0-4.72-.8,6.9,6.9,0,0,0-4.64,2.43,10.65,10.65,0,0,1,2.3.59,5,5,0,0,1,2.37-.94,5.42,5.42,0,0,1,5,1.47A5.11,5.11,0,0,1,33.88,16a15.49,15.49,0,0,1-2,7.67c-.16.33-.34.65-.48,1a2.88,2.88,0,0,0,1.17,3.89l.24.11A36.88,36.88,0,0,0,37,30.09c.54.18,1.11.26,1.65.45a2.09,2.09,0,0,1,1.57,1.93v2H36.77a7.92,7.92,0,0,1,.54,1.9h5.1v-3.5C42.37,32.71,42.33,32.55,42.3,32.39Z"/><path class="cls-1" d="M15.23,34l-.5.17h0Z"/><path class="cls-1" d="M29.9,34.68l-.53-.16.53.16.21.06Z"/></svg>