<svg id="Layer_1" data-name="Layer 1" xmlns="http://www.w3.org/2000/svg" viewBox="0 0 50 50"><defs><style>.cls-1{fill:#333;}</style></defs><title>icon_unblock-user</title><path class="cls-1" d="M32.8,16.8a5.7,5.7,0,0,0-.1-1.3,7.8,7.8,0,0,0-4.3-6.4A8.71,8.71,0,0,0,24,8h0a9.07,9.07,0,0,0-4.3,1,8.21,8.21,0,0,0-4.4,6.5,16.71,16.71,0,0,0,1.5,8.6A25.91,25.91,0,0,0,18.2,27c.6,1.2.4,2-.9,2.5s-2.9.9-4.4,1.3c-.6.2-1.3.4-1.9.6a4.81,4.81,0,0,0-3.5,4.4v4.8H24.1a10.08,10.08,0,0,1-1.2-2.3H10.1V35.9A2.44,2.44,0,0,1,12,33.6c2.7-.8,5.4-1.6,7-2.2a3.5,3.5,0,0,0,1.8-4.5l-.1-.3-.6-1.2a18.21,18.21,0,0,1-2.4-9.1,6,6,0,0,1,1.6-4,6.12,6.12,0,0,1,4.8-1.9,6.26,6.26,0,0,1,4.7,1.9,6,6,0,0,1,1.6,4v1A6,6,0,0,1,32.8,16.8Z"/><path class="cls-1" d="M34.9,33.74c0,.8-.65,2.85-1.45,2.85S32,34.54,32,33.74a1.45,1.45,0,1,1,2.9,0Z"/><path class="cls-1" d="M40.1,27.6h-11c0-2.4.2-3.7.6-4.4A3.86,3.86,0,0,1,33.4,21a3.64,3.64,0,0,1,3.14,1.43l2.15-1.14A6.2,6.2,0,0,0,33.5,18.6a6.09,6.09,0,0,0-5.6,3.3c-.7,1.1-.9,2.6-.9,5.6h-.4a2.36,2.36,0,0,0-2.1,2.2v6.2c0,.2.1.5.1.8A6.87,6.87,0,0,0,30,41.9l.8.1h5.4l.3-.1c.2,0,.5-.1.7-.1a6.89,6.89,0,0,0,5.1-5.4,5.7,5.7,0,0,0,.1-1.3V30.3A2.42,2.42,0,0,0,40.1,27.6Zm.4,7.5a4.83,4.83,0,0,1-3.6,4.7,2.92,2.92,0,0,1-.9.2H31a4.78,4.78,0,0,1-4.4-3.7,4.87,4.87,0,0,1-.1-1.2V30.2c0-.4.1-.6.6-.6H39.9c.5,0,.6.1.6.6Z"/></svg>