<?xml version="1.0" encoding="utf-8"?>
<!-- Generator: Adobe Illustrator 23.0.6, SVG Export Plug-In . SVG Version: 6.00 Build 0)  -->
<svg version="1.1" id="Layer_1" xmlns="http://www.w3.org/2000/svg" xmlns:xlink="http://www.w3.org/1999/xlink" x="0px" y="0px"
	 viewBox="0 0 50 50" style="enable-background:new 0 0 50 50;" xml:space="preserve">
<style type="text/css">
	.st0{fill:#333333;stroke:#333333;stroke-miterlimit:10;}
	.st1{fill:#333333;}
</style>
<title>icon_users</title>
<path class="st0" d="M18.3,28.5L18.3,28.5l0.1,0.3L18.3,28.5z"/>
<g>
	<path class="st1" d="M35.7,37c-0.1-1.9-1.4-3.6-3.2-4.2c-0.3-0.1-0.7-0.2-1-0.3c-0.2-0.1-0.4-0.1-0.6-0.2c-0.4-0.1-0.8-0.2-1.2-0.3
		c-0.9-0.2-1.8-0.5-2.5-0.8c-0.4-0.1-0.6-0.3-0.6-0.5c-0.1-0.2,0-0.5,0.2-0.9l0.2-0.3c0.3-0.7,0.7-1.4,1-2.1
		c1.1-2.3,1.6-4.9,1.3-7.5c-0.2-2.5-1.7-4.7-3.9-5.9c-1.6-0.8-3.3-1.1-5-0.9c-3.1,0.3-5.7,2.5-6.4,5.5c-0.6,2-0.5,4.1,0.2,6.1
		c0.5,1.4,1.1,2.9,1.7,4.3l0.4,0.9c0.3,0.7,0.2,0.9-0.3,1.2c-0.5,0.3-1.1,0.5-1.7,0.6c-0.6,0.2-1.1,0.3-1.7,0.5
		c-0.8,0.2-1.6,0.4-2.4,0.7c-1.3,0.4-2.2,1.4-2.6,2.8c-0.4,1.7-0.5,3.4-0.4,5.2c0,0.1,0.1,0.2,0.1,0.3l0.1,0.2h28.3v-4l0-0.2
		C35.7,37.2,35.7,37.1,35.7,37z M19.2,29.7c-0.1-0.5-0.3-1-0.6-1.4c-1-1.8-1.7-3.8-1.9-5.8c-0.1-1-0.1-2,0.1-3
		c0.4-1.8,1.8-3.1,3.7-3.3c0.4-0.1,0.7-0.1,1.1-0.1c1.3,0,2.5,0.5,3.5,1.4c0.8,0.8,1.2,1.9,1.2,3.1c0,2.6-0.7,5.2-1.9,7.4
		c-0.2,0.3-0.4,0.7-0.5,1l-0.1,0.3c-0.7,1.7,0.1,3.7,1.8,4.4c1.4,0.6,2.8,1.1,4.2,1.5c0.3,0.1,0.5,0.2,0.8,0.2
		c0.3,0.1,0.6,0.1,0.9,0.2c0.7,0.2,1.2,0.8,1.2,1.4v1.5l-22.4,0c0-0.7,0.1-1.3,0.2-1.9c0.2-0.6,0.7-1,1.4-1.2
		c0.4-0.1,0.7-0.2,1.1-0.3c0.6-0.1,1.2-0.3,1.7-0.5c1.1-0.4,2.3-0.8,3.4-1.4C19.2,32.6,19.7,31.1,19.2,29.7z"/>
	<path class="st1" d="M42.9,32.7c0-0.1-0.1-0.3-0.1-0.4c-0.1-1.9-1.4-3.5-3.2-4.1c-0.3-0.1-0.7-0.2-1-0.3c-0.2-0.1-0.4-0.1-0.6-0.2
		c-0.4-0.1-0.8-0.2-1.1-0.3c-0.8-0.2-1.7-0.5-2.5-0.8c-0.3-0.1-0.6-0.3-0.6-0.5c-0.1-0.2,0-0.5,0.2-0.9l0.2-0.5
		c0.3-0.7,0.7-1.3,0.9-2c1.1-2.3,1.6-4.9,1.3-7.5c-0.2-2.5-1.7-4.7-3.9-5.9c-1.6-0.8-3.3-1.1-5-0.9c-1.9,0.2-3.7,1.1-5,2.6l-0.6,0.7
		l0.9,0.1c0.7,0.1,1.5,0.3,2.2,0.6l0.3,0.1l0.2-0.2c0.6-0.5,1.4-0.8,2.2-0.9c1.7-0.4,3.3,0.1,4.5,1.3c0.8,0.8,1.2,1.9,1.2,3
		c0,2.6-0.7,5.2-2,7.4l-0.1,0.3C31.2,24,31,24.2,31,24.4c-0.9,1.6-0.3,3.7,1.4,4.6l0.3,0.1c1.4,0.6,2.8,1,4.2,1.4
		c0.3,0.1,0.5,0.2,0.8,0.2c0.3,0.1,0.5,0.1,0.9,0.2c0.7,0.2,1.2,0.8,1.2,1.4V34H36l0.3,0.7c0.2,0.6,0.4,1.2,0.5,1.8l0.1,0.4h6v-4
		L42.9,32.7z"/>
</g>
<path class="st0" d="M15.2,34l-0.5,0.2l0,0L15.2,34z"/>
<path class="st0" d="M29.9,34.7l-0.5-0.2L29.9,34.7l0.2,0.1L29.9,34.7z"/>
</svg>
