<?xml version="1.0" encoding="utf-8"?>
<!-- Generator: Adobe Illustrator 23.0.6, SVG Export Plug-In . SVG Version: 6.00 Build 0)  -->
<svg version="1.1" id="Layer_1" xmlns="http://www.w3.org/2000/svg" xmlns:xlink="http://www.w3.org/1999/xlink" x="0px" y="0px"
	 viewBox="0 0 128 128" style="enable-background:new 0 0 128 128;" xml:space="preserve">
<style type="text/css">
	.st0{fill:#444444;}
</style>
<title>icon_user</title>
<path class="st0" d="M0.7,127.3c-0.2-0.3-0.3-0.6-0.4-0.9c-0.7-7.7-0.1-15.5,1.6-23.1c1.4-5.2,5.4-9.4,10.5-11.1
	c6.2-2.1,12.6-3.5,18.9-5.4c2.8-0.8,5.5-1.8,8.1-3c3.8-2,4.2-4.6,2.5-8.5c-3.4-7.8-6.9-15.6-9.6-23.6c-3.1-8.7-3.4-18.1-1-26.9
	C34.5,11.8,45.6,2.2,59,1c7.5-1,15.1,0.3,21.9,3.7c9.6,4.9,16,14.4,16.9,25.2c1,11.5-1,23.1-6,33.5c-1.5,3.9-3.4,7.6-5.3,11.3
	c-2.3,4.6-1.6,7.8,3.3,9.6c4.9,1.8,11.4,3.4,17,5.1c2.4,0.7,4.9,1.3,7.3,2.2c7.6,2.4,12.9,9.3,13.3,17.3c0,0.7,0.4,1.5,0.5,2.2v16.3
	H0.7z M118,118.6c0-3.3,0-6.4,0-9.2c-0.2-4.2-3.1-7.8-7.2-8.9c-2.5-0.9-5.1-1.2-7.7-2.1c-6.6-1.8-13.1-4-19.5-6.7
	c-6.7-2.8-9.9-10.6-7.1-17.3c0.2-0.4,0.4-0.8,0.6-1.2c0.7-1.6,1.4-3.1,2.2-4.6c6.1-10.8,9.3-23,9.2-35.4c-0.1-5.8-2.3-11.4-6.3-15.7
	c-6-6.1-14.7-8.6-23.1-6.8c-9.3,0.9-17,7.8-18.9,16.9c-0.9,4.8-1,9.6-0.5,14.5c1.2,9.8,4.4,19.2,9.2,27.7c1.1,1.9,1.9,4,2.5,6.1
	c1.9,5.5-0.3,11.5-5.2,14.6c-4.8,2.5-9.8,4.6-15,6.2c-4.2,1.4-8.5,2.1-12.8,3.2c-3.7,0.6-6.8,3.3-7.9,6.9c-0.7,3.9-1,7.9-1.1,11.9
	L118,118.6z"/>
</svg>
