<svg id="Layer_1" data-name="Layer 1" xmlns="http://www.w3.org/2000/svg" viewBox="0 0 100 100"><defs><style>.cls-1{fill:#333;}</style></defs><title>icon_employee</title><path class="cls-1" d="M24.9,75.38c.08-.89.13-1.78.23-2.67a16.52,16.52,0,0,1,7.37-12.3A25,25,0,0,1,43,56.47a41.29,41.29,0,0,1,16.82.61,21.13,21.13,0,0,1,11.12,6.43A16.68,16.68,0,0,1,75,73.82c.07,1.28.08,2.56.1,3.84A2,2,0,0,1,72.81,80h-20c-8.45,0-16.9,0-25.35,0a2.5,2.5,0,0,1-2.59-1.42Zm46.31.73A15.2,15.2,0,0,0,70,69.05a14.17,14.17,0,0,0-7.79-7.12,29.33,29.33,0,0,0-10-2.11,35.49,35.49,0,0,0-12.83,1.46c-5.67,1.82-10.58,6-10.55,13.71v1.12Z"/><path class="cls-1" d="M64,34.67a18.54,18.54,0,0,1-4.11,12.06c-5.46,6.54-14.2,6.67-19.61.1-4.59-5.57-5.5-12-2.88-18.69,2-5.23,7-8.23,12.76-8.14A13.55,13.55,0,0,1,63.84,32.72C63.91,33.46,64,34.21,64,34.67Zm-24.09.22c0,.37,0,.73,0,1.09s.06.72.11,1.08a13.26,13.26,0,0,0,4.38,8.57,8.17,8.17,0,0,0,7.05,2,9.13,9.13,0,0,0,5.77-3.74,14.74,14.74,0,0,0,2.64-11.81,9.57,9.57,0,0,0-9.65-8.27,9.37,9.37,0,0,0-8.1,3.71A11.55,11.55,0,0,0,39.9,34.89Z"/></svg>