<?xml version="1.0" encoding="utf-8"?>
<!-- Generator: Adobe Illustrator 23.0.6, SVG Export Plug-In . SVG Version: 6.00 Build 0)  -->
<svg version="1.1" id="Layer_1" xmlns="http://www.w3.org/2000/svg" xmlns:xlink="http://www.w3.org/1999/xlink" x="0px" y="0px"
	 viewBox="0 0 50 50" style="enable-background:new 0 0 50 50;" xml:space="preserve">
<style type="text/css">
	.st0{fill:#333333;}
</style>
<title>icon_block-user</title>
<g>
	<path class="st0" d="M32.8,16.8c0-0.4,0-0.9-0.1-1.3c-0.2-2.8-1.9-5.2-4.3-6.4C27,8.3,25.5,8,24,8l0,0c-1.5,0-3,0.3-4.3,1
		c-2.5,1.3-4.1,3.7-4.4,6.5c-0.3,3,0.3,6,1.5,8.6c0.4,1,0.9,2,1.4,2.9c0.6,1.2,0.4,2-0.9,2.5c-1.3,0.5-2.9,0.9-4.4,1.3
		c-0.6,0.2-1.3,0.4-1.9,0.6c-2,0.6-3.4,2.3-3.5,4.4c0,0.2,0,4.8,0,4.8h16.6c-0.5-0.7-0.9-1.5-1.2-2.3H10.1c0-0.9,0-1.6,0-2.4
		c0-1.1,0.8-2,1.9-2.3c2.7-0.8,5.4-1.6,7-2.2c1.7-0.8,2.5-2.7,1.8-4.5l-0.1-0.3c-0.2-0.4-0.4-0.8-0.6-1.2c-1.6-2.8-2.4-5.9-2.4-9.1
		c0-1.5,0.6-2.9,1.6-4c1.2-1.3,3-2,4.8-1.9c1.8,0,3.5,0.6,4.7,1.9c1,1.1,1.6,2.5,1.6,4c0,0.3,0,0.7,0,1C31.1,17,31.9,16.8,32.8,16.8
		z"/>
	<g>
		<path class="st0" d="M40.2,27.5h-0.1c0-2.9-0.2-4.2-0.9-5.6c-1.1-2.1-3.2-3.5-5.6-3.4c-2.4-0.1-4.5,1.2-5.6,3.3
			c-0.7,1.1-0.9,2.6-0.9,5.6h-0.4c-1.1,0.1-2,1.1-2.1,2.2v6.2c0,0.2,0.1,0.5,0.1,0.8c0.6,2.7,2.7,4.7,5.4,5.2l0.8,0.1h5.4l0.3-0.1
			c0.2,0,0.5-0.1,0.7-0.1c2.6-0.7,4.6-2.8,5.1-5.4c0.1-0.4,0.1-0.9,0.1-1.3v-4.8c0.1-1.3-0.8-2.5-2.2-2.7
			C40.3,27.5,40.2,27.5,40.2,27.5z M29.1,27.5c0-2.4,0.2-3.7,0.6-4.4l0,0c0.7-1.4,2.1-2.3,3.7-2.2c1.6-0.1,3,0.8,3.6,2.2
			c0.5,0.9,0.6,1.8,0.7,4.4H29.1z M35,40h-4c-2.1-0.1-3.9-1.6-4.4-3.7c-0.1-0.4-0.1-0.8-0.1-1.2v-4.9c0-0.4,0.1-0.6,0.6-0.6H40
			c0.5,0,0.6,0.1,0.6,0.6V35c0,2.2-1.5,4.1-3.6,4.7c-0.3,0.1-0.6,0.2-0.9,0.2L35,40z"/>
		<path class="st0" d="M34.9,33.7c0,0.8-0.7,2.8-1.4,2.8c-0.8,0-1.4-2.1-1.4-2.8c0-0.8,0.6-1.4,1.4-1.4
			C34.3,32.2,34.9,32.9,34.9,33.7C34.9,33.7,34.9,33.7,34.9,33.7z"/>
	</g>
</g>
</svg>
