<svg id="Layer_1" data-name="Layer 1" xmlns="http://www.w3.org/2000/svg" viewBox="0 0 50 50"><defs><style>.cls-1{fill:#fff;}</style></defs><title>icon_user-white</title><path class="cls-1" d="M8.5,41.5a1.17,1.17,0,0,1-.09-.24,18.93,18.93,0,0,1,.42-6,4.21,4.21,0,0,1,2.73-2.89c1.61-.54,3.28-.91,4.91-1.4a12.28,12.28,0,0,0,2.12-.79c1-.51,1.09-1.2.65-2.21-.88-2-1.81-4.06-2.51-6.14a11.78,11.78,0,0,1-.25-7A8.16,8.16,0,0,1,23.7,8.59a9.6,9.6,0,0,1,5.69,1,8.09,8.09,0,0,1,4.4,6.56,16.87,16.87,0,0,1-1.56,8.74c-.39,1-.89,2-1.37,2.94-.6,1.21-.41,2,.87,2.51s3,.89,4.44,1.32c.64.19,1.29.35,1.91.57a4.93,4.93,0,0,1,3.46,4.5,2.77,2.77,0,0,0,.13.57v4.2Zm30.57-2.29v-2.4a2.52,2.52,0,0,0-1.88-2.33c-.65-.24-1.33-.32-2-.54a43.1,43.1,0,0,1-5.06-1.73,3.44,3.44,0,0,1-1.84-4.5l.14-.31A8.9,8.9,0,0,1,29,26.19,18.61,18.61,0,0,0,31.42,17a6.09,6.09,0,0,0-1.64-4.09,6.56,6.56,0,0,0-6-1.77,5.61,5.61,0,0,0-4.92,4.41,13.17,13.17,0,0,0-.13,3.76,19.68,19.68,0,0,0,2.4,7.22,8.51,8.51,0,0,1,.67,1.59,3.22,3.22,0,0,1-1.35,3.79,25.16,25.16,0,0,1-3.91,1.62c-1.09.37-2.23.54-3.35.84a2.56,2.56,0,0,0-2,1.8,21.4,21.4,0,0,0-.29,3.1Z"/></svg>