<svg id="Layer_1" data-name="Layer 1" xmlns="http://www.w3.org/2000/svg" viewBox="0 0 128 128"><defs><style>.cls-1{fill:#333;}</style></defs><title>icones-arquivos</title><path class="cls-1" d="M22.71,87.62H17.22a38.92,38.92,0,0,1,.48-4.19c.27-1.06,1.18-1.8,2.78-2.27l2.5-.62c1.33-.31,2.7-.64,4-1.05a33.6,33.6,0,0,0,6.13-2.63A6.63,6.63,0,0,0,36,69.1a16.39,16.39,0,0,0-1.2-2.88c-2.2-4.26-3.75-7.92-4.12-12a22.6,22.6,0,0,1,.21-6.2c.73-3.68,3.76-6.28,7.92-6.78a13.72,13.72,0,0,1,1.8-.12,13.41,13.41,0,0,1,3,.35l.23,0a1,1,0,0,0,.6-.19,18.94,18.94,0,0,1,4.57-2.49A1,1,0,0,0,49.21,37a15.84,15.84,0,0,0-6.33-1.94c-.64-.06-1.3-.09-1.94-.09a20.88,20.88,0,0,0-6.83,1.15c-5.38,2-8.62,6.2-9.66,12.46-.93,5.62.74,10.9,2.5,15.32.68,1.74,1.52,3.42,2.34,5l.31.61A2.51,2.51,0,0,1,30,71.44a2,2,0,0,1-1.27.93c-1.57.59-3.26,1-4.88,1.5-1,.26-1.94.53-2.91.83a40.82,40.82,0,0,0-4.72,1.68c-3.65,1.62-5.27,4.35-5.27,8.86v7.32a1,1,0,0,0,1,1h9.33a1,1,0,0,0,1-.83,12,12,0,0,1,1.29-3.57,1,1,0,0,0-.85-1.55Z"/><path class="cls-1" d="M83.86,85.68C82,85,80,84.52,78.13,84c-1.2-.32-2.44-.65-3.64-1a23.65,23.65,0,0,1-4-1.46c-1.41-.71-1.63-1.48-.85-3,.55-1,1.07-2.08,1.56-3.14a29.18,29.18,0,0,1-5.4-4.43c-.5,1.17-1,2.3-1.57,3.38a25.62,25.62,0,0,0-1.33,2.91A7.81,7.81,0,0,0,66.52,87a33.58,33.58,0,0,0,9.54,3.41l1,.24,1,.22a26,26,0,0,1,2.83.76l.08,0a3.9,3.9,0,0,1,2.93,3.61c0,1,0,2,0,3,0,.23,0,.46,0,.69H30.78a42.49,42.49,0,0,1,.56-4.93c.31-1.25,1.39-2.13,3.23-2.63.91-.24,1.87-.46,2.79-.67,1.54-.36,3.13-.72,4.67-1.23a39.47,39.47,0,0,0,6.92-3,7.33,7.33,0,0,0,3.23-8.65,18.83,18.83,0,0,0-1.37-3.25c-2.5-4.84-4.26-9-4.69-13.64A25,25,0,0,1,46.37,54c.83-4.27,4.33-7.27,9.13-7.81a22.34,22.34,0,0,1,2.24-.12l.51,0a28.24,28.24,0,0,1,2-6.72l-.26,0c-.69-.06-1.42-.1-2.15-.1h0a23.38,23.38,0,0,0-7.73,1.32c-6.07,2.21-9.73,6.94-10.88,14-1,6.38.84,12.31,2.79,17.27.66,1.58,1.42,3.1,2.15,4.56.31.62.62,1.23.91,1.84a3,3,0,0,1,.46,2.24A2.37,2.37,0,0,1,44,81.63c-1.76.66-3.66,1.19-5.5,1.69-1.1.31-2.25.62-3.36,1a43.36,43.36,0,0,0-5.34,1.87c-4.1,1.94-5.91,5-5.91,10v8.31a1,1,0,0,0,1,1h65a1,1,0,0,0,1-1V96.19C91.08,90.85,88.71,87.31,83.86,85.68Z"/><path class="cls-1" d="M99.63,76.81a28.73,28.73,0,0,1-11,3l2.06.52.77.19.93.21a23.1,23.1,0,0,1,2.39.65l.08,0a3.33,3.33,0,0,1,2.5,3.11c0,.87,0,1.75,0,2.68,0,.16,0,.32,0,.48H92.24a1,1,0,0,0-.87.49,1,1,0,0,0,0,1,11.37,11.37,0,0,1,1.28,3.61,1,1,0,0,0,1,.84h9.27a1,1,0,0,0,1-1V85.24C104,81.32,102.58,78.5,99.63,76.81Z"/><path class="cls-1" d="M89.78,32.64V47.46h14.09v5.75H89.78V68.07h-6.2V53.21h-14V47.46h14V32.64Z"/></svg>