<?xml version="1.0" encoding="utf-8"?>
<!-- Generator: Adobe Illustrator 23.0.6, SVG Export Plug-In . SVG Version: 6.00 Build 0)  -->
<svg version="1.1" id="Layer_1" xmlns="http://www.w3.org/2000/svg" xmlns:xlink="http://www.w3.org/1999/xlink" x="0px" y="0px"
	 viewBox="0 0 50 50" style="enable-background:new 0 0 50 50;" xml:space="preserve">
<style type="text/css">
	.st0{fill:#333333;}
</style>
<title>icon_group</title>
<path class="st0" d="M25.3,14.1c0.3,0.1,0.8,0.1,1.1,0.2c3,0.8,4.9,3.9,4,7.1c-0.8,3-3.9,4.9-7.1,4c-2.4-0.6-4.1-2.6-4.3-4.9
	c-0.3-3,1.8-5.8,4.8-6.3l0.6-0.1C24.5,14.1,25.3,14.1,25.3,14.1z M25.1,23.3c1.9,0,3.5-1.6,3.5-3.5s-1.6-3.5-3.5-3.5
	s-3.5,1.6-3.5,3.5l0,0C21.6,21.8,23.2,23.3,25.1,23.3z"/>
<path class="st0" d="M11.6,27.5c-3,0-5.5-2.6-5.5-5.6s2.6-5.5,5.6-5.5s5.5,2.6,5.5,5.6S14.8,27.5,11.6,27.5z M11.6,18.7
	c-1.8,0-3.3,1.5-3.3,3.3c0,1.8,1.5,3.3,3.3,3.3s3.3-1.5,3.3-3.3l0,0C14.9,20.2,13.5,18.7,11.6,18.7C11.7,18.7,11.7,18.7,11.6,18.7
	L11.6,18.7z"/>
<path class="st0" d="M32.9,22.3c0-3,2.5-5.5,5.5-5.5c3,0,5.5,2.5,5.5,5.5s-2.5,5.5-5.5,5.5l0,0C35.4,27.8,33,25.3,32.9,22.3
	L32.9,22.3z M38.4,19c-1.8,0-3.1,1.5-3.1,3.1c0,1.8,1.5,3.1,3.1,3.1c1.8,0,3.2-1.5,3.2-3.1l0,0C41.6,20.5,40.2,19,38.4,19L38.4,19z"
	/>
<path class="st0" d="M4.9,35.9V34c0-0.2,0-0.5,0-0.8c0.2-1.5,1.6-2.6,3.2-2.5h4.6c0.6,0,1-0.3,1.1-0.8c0.2-0.6-0.1-1.2-0.7-1.5
	c-0.1,0-0.3-0.1-0.4-0.1H8.1c-3-0.1-5.5,2.2-5.6,5.3c0,0.1,0,0.2,0,0.2v1.9L4.9,35.9z"/>
<path class="st0" d="M17.2,35.9c0-1.1,0-2.2,0-3.4c0-1.8,1.5-3.4,3.3-3.4h0.1c3,0,6,0,9,0c1.8,0,3.4,1.5,3.4,3.4l0,0
	c0,1.1,0,2.2,0,3.4h2.2c0-1.1,0-2.1,0-3.3c0-3.2-2.5-5.7-5.6-5.9c0,0,0,0-0.1,0c-2.9,0-5.8,0-8.9,0c-3.1,0-5.7,2.6-5.7,5.7
	c0,0,0,0,0,0.1c0,1.1,0,2.2,0,3.4h2.4V35.9z"/>
<path class="st0" d="M37.5,31H42c1.7-0.1,3.1,1.2,3.3,3v0.1v1.8h2.2v-2.1c0-0.1,0-0.2,0-0.3C47.3,31,45.4,29,43,28.7
	c-1.9-0.1-3.8-0.1-5.7-0.1c-0.6,0-0.9,0.4-0.9,1c-0.1,0.7,0.3,1.2,1,1.4C37.4,31,37.4,31,37.5,31z"/>
</svg>
