<svg id="Layer_1" data-name="Layer 1" xmlns="http://www.w3.org/2000/svg" viewBox="0 0 50 50"><defs><style>.cls-1{fill:#274297;}</style></defs><title>icon_breaking-news</title><path class="cls-1" d="M7.5,20c0-.11.09-.22.12-.33A2.38,2.38,0,0,1,9.86,18h4.6a1.17,1.17,0,1,1,0,2.33c-1.52,0-3,0-4.59,0V32h1.41a1.18,1.18,0,0,1,1.29,1.28v1.61l.25-.19,2.79-2.36a1.39,1.39,0,0,1,1-.34H27.7V20.33H18.46a1.17,1.17,0,0,1-1.25-1.09A1.15,1.15,0,0,1,18.41,18h9.23a2.36,2.36,0,0,1,2.41,2.42c0,3.83,0,7.67,0,11.5a2.35,2.35,0,0,1-2.42,2.41H17.17a.92.92,0,0,0-.52.19c-1.43,1.19-2.85,2.41-4.28,3.61-.22.18-.48.31-.72.47h-.52a1.35,1.35,0,0,1-.92-1.49c0-.74,0-1.49,0-2.23v-.56c-.15,0-.26,0-.36,0a2.39,2.39,0,0,1-2.24-1.61c0-.11-.08-.22-.12-.33Z"/><path class="cls-1" d="M42.5,25.78c0,.09-.07.17-.1.26a2.39,2.39,0,0,1-2.29,1.68h-.33v.88c0,.71,0,1.41,0,2.11a1.18,1.18,0,0,1-2,.94l-4.43-3.74a.86.86,0,0,0-.49-.18,1.18,1.18,0,0,1-1.25-1.19,1.16,1.16,0,0,1,1.26-1.15h.61a1.25,1.25,0,0,1,.92.33l3,2.51.08,0V26.65a1.17,1.17,0,0,1,1.25-1.26h1.45V13.74H22.28c0,.53,0,1,0,1.58a1.15,1.15,0,0,1-1,1.13,1.08,1.08,0,0,1-1.26-.9,9.27,9.27,0,0,1,.07-2.47,2.22,2.22,0,0,1,2.26-1.69H40.11a2.37,2.37,0,0,1,2.29,1.68c0,.09.07.18.1.26Z"/></svg>