<svg id="Layer_1" data-name="Layer 1" xmlns="http://www.w3.org/2000/svg" viewBox="0 0 128 128"><defs><style>.cls-1{fill:#ed3244;}</style></defs><title>icons-submenu-header</title><path class="cls-1" d="M100.49,42.53h-15V30.47a21.47,21.47,0,0,0-42.94,0V42.53h-15a21.47,21.47,0,0,0,0,42.94h15V97.53a21.47,21.47,0,0,0,42.94,0V85.47h15a21.47,21.47,0,1,0,0-42.94ZM48.54,30.47a15.46,15.46,0,1,1,30.92,0V64H48.54V30.47Zm-21,49a15.46,15.46,0,0,1,0-30.92h15V79.46Zm73,0h-15V48.54h15a15.46,15.46,0,1,1,0,30.92Z"/><path class="cls-1" d="M55.6,32a8.41,8.41,0,0,1,8.4-8.4V20.37A11.68,11.68,0,0,0,52.33,32v9H55.6Z"/></svg>