<?xml version="1.0" encoding="utf-8"?>
<!-- Generator: Adobe Illustrator 23.0.6, SVG Export Plug-In . SVG Version: 6.00 Build 0)  -->
<svg version="1.1" id="Layer_1" xmlns="http://www.w3.org/2000/svg" xmlns:xlink="http://www.w3.org/1999/xlink" x="0px" y="0px"
	 viewBox="0 0 50 50" style="enable-background:new 0 0 50 50;" xml:space="preserve">
<style type="text/css">
	.st0{fill:#CAF5FF;}
	.st1{fill:#FFC107;}
	.st2{fill:#20A8D8;}
</style>
<g>
	<path class="st0" d="M28.5,10.1H8.3c-1.1,0-2.1-0.9-2.1-2.1v0c0-1.1,0.9-2.1,2.1-2.1h20.2c1.1,0,2.1,0.9,2.1,2.1v0
		C30.6,9.1,29.7,10.1,28.5,10.1z"/>
	<path class="st0" d="M31,17H2.3C1.1,17,0,16,0,14.7v0c0-1.3,1.1-2.3,2.3-2.3H31c1.3,0,2.3,1.1,2.3,2.3v0C33.3,16,32.3,17,31,17z"/>
	<circle class="st0" cx="2.9" cy="8" r="2.1"/>
	<path class="st0" d="M25,11.2c0-0.6,0.5-1.1,1.1-1.1h0.1h0c0.1-0.1,0.2-0.2,0.3-0.3H11.1v0.1c0.1,0.1,0.1,0.1,0.2,0.2h0.2
		c0.6,0,1.1,0.5,1.1,1.1s-0.5,1.1-1.1,1.1h0c-0.1,0.2-0.2,0.4-0.4,0.5V13h15.4c-0.2-0.2-0.3-0.4-0.5-0.6C25.4,12.3,25,11.8,25,11.2z
		"/>
</g>
<g>
	<path class="st0" d="M41.1,37.9H17.6c-1.1,0-2.1-0.9-2.1-2.1v0c0-1.1,0.9-2.1,2.1-2.1h23.5c1.1,0,2.1,0.9,2.1,2.1v0
		C43.2,37,42.2,37.9,41.1,37.9z"/>
	<path class="st0" d="M42.5,44.1h-20c-1.1,0-1.9-0.9-1.9-1.9v-0.3c0-1.1,0.9-1.9,1.9-1.9h20c1.1,0,1.9,0.9,1.9,1.9v0.3
		C44.4,43.2,43.6,44.1,42.5,44.1z"/>
	<circle class="st0" cx="47.9" cy="42" r="2.1"/>
	<path class="st0" d="M35.8,38.9c0-0.6,0.5-1,1-1h0.1h0c0.1-0.1,0.2-0.2,0.3-0.3h-14v0.1c0.1,0.1,0.1,0.1,0.1,0.2h0.2
		c0.6,0,1,0.5,1,1c0,0.6-0.5,1-1,1h0c-0.1,0.2-0.2,0.3-0.3,0.5v0.1h14c-0.2-0.2-0.3-0.3-0.4-0.6C36.2,39.9,35.8,39.5,35.8,38.9z"/>
</g>
<g>
	<path class="st1" d="M9.1,28.6c0,0.1,0,0.2,0,0.3c0.1,1.1,1,2,2.2,1.9h2.4v-2.1h-2.1c-0.4,0-0.5-0.1-0.5-0.5V13.6
		c0-0.4,0.1-0.5,0.5-0.5h22.2c0.4,0,0.5,0.1,0.5,0.5v2.3h2.1v-2.8c0,0,0-0.1-0.1-0.1c-0.1-0.9-0.7-1.6-1.6-1.8
		c-0.3-0.1-0.5-0.1-0.8-0.1H11c0,0,0,0,0,0c-1.1,0.1-1.9,1-1.9,2.1V28.6z"/>
	<path class="st2" d="M40.3,15.6H16.5c-0.3,0-0.6,0-0.9,0.1c-1.1,0.2-2,1.1-2,2.1l-0.1,0.1v16.5l0,0.3c0,0.1,0.1,0.3,0.1,0.4
		c0.4,1.1,1.4,1.8,2.5,1.8h7.5c0.1,0,0.1,0,0.2,0.1c0.3,0.4,0.5,0.8,0.8,1.2c0.5,0.8,1,1.5,1.4,2.2c0.3,0.7,0.9,1.2,1.7,1.4l0.5,0
		l0.3-0.1c0.5-0.1,0.9-0.5,1.2-0.9c0.5-0.8,0.9-1.5,1.4-2.2c0.3-0.5,0.7-1.1,1-1.6c0.1-0.1,0.2-0.2,0.3-0.2l7.8,0
		c1.4-0.1,2.5-1.3,2.4-2.7V18.1C42.8,16.7,41.6,15.6,40.3,15.6z M28.1,37.9L28.1,38c0,0,0,0,0,0l0,0c0,0,0-0.1-0.1-0.1
		c-0.4-0.6-0.7-1.2-1.1-1.8c-0.3-0.5-0.7-1.1-1-1.6c-0.3-0.4-0.7-0.7-1.2-0.7h-8.1c0,0,0,0-0.1,0c0,0,0,0,0-0.1V18.6c0,0,0,0,0,0
		c0,0,0,0,0.1,0l23.1,0c0,0,0,0,0.1,0c0,0,0,0,0,0.1v15.1c0,0,0,0.1,0,0.1c0,0,0,0-0.1,0l-7.8,0c-0.8-0.1-1.5,0.3-1.8,1
		c-0.5,0.8-1,1.6-1.5,2.3L28.1,37.9z"/>
	<g>
		<path class="st2" d="M36.8,32.3H36c-0.2,0-0.4-0.2-0.4-0.4c0-0.2,0.2-0.4,0.4-0.4h0.8c0.2,0,0.3-0.1,0.4-0.2
			c0.1-0.2,0.4-0.3,0.6-0.2c0.2,0.1,0.3,0.4,0.2,0.6C37.7,32.1,37.3,32.3,36.8,32.3z M34.3,32.3h-0.5c-0.2,0-0.4-0.2-0.4-0.4
			c0-0.2,0.2-0.4,0.4-0.4h0.5c0.2,0,0.4,0.2,0.4,0.4C34.8,32.1,34.6,32.3,34.3,32.3z M18.6,31.5c-0.2,0-0.4-0.2-0.4-0.4v-1.7
			c0-0.2,0.2-0.4,0.4-0.4c0.2,0,0.4,0.2,0.4,0.4v1.7C19,31.3,18.8,31.5,18.6,31.5z M37.7,30.2c-0.2,0-0.4-0.2-0.4-0.4v-1.7
			c0-0.2,0.2-0.4,0.4-0.4s0.4,0.2,0.4,0.4v1.7C38.1,30,37.9,30.2,37.7,30.2z M18.6,28.1c-0.2,0-0.4-0.2-0.4-0.4V26
			c0-0.2,0.2-0.4,0.4-0.4c0.2,0,0.4,0.2,0.4,0.4v1.7C19,27.9,18.8,28.1,18.6,28.1z M37.7,26.8c-0.2,0-0.4-0.2-0.4-0.4v-1.7
			c0-0.2,0.2-0.4,0.4-0.4s0.4,0.2,0.4,0.4v1.7C38.1,26.6,37.9,26.8,37.7,26.8z M18.6,24.7c-0.2,0-0.4-0.2-0.4-0.4v-1.7
			c0-0.2,0.2-0.4,0.4-0.4c0.2,0,0.4,0.2,0.4,0.4v1.7C19,24.5,18.8,24.7,18.6,24.7z M37.7,23.4c-0.2,0-0.4-0.2-0.4-0.4v-1.7
			c0-0.2,0.2-0.4,0.4-0.4s0.4,0.2,0.4,0.4V23C38.1,23.2,37.9,23.4,37.7,23.4z M18.6,21.3C18.6,21.3,18.6,21.3,18.6,21.3
			c-0.3,0-0.4-0.2-0.4-0.5c0.1-0.7,0.6-1.2,1.3-1.2h0.4c0.2,0,0.4,0.2,0.4,0.4c0,0.2-0.2,0.4-0.4,0.4h-0.4c-0.2,0-0.4,0.2-0.4,0.4
			C19,21.2,18.8,21.3,18.6,21.3z M36.8,20.6h-1.7c-0.2,0-0.4-0.2-0.4-0.4c0-0.2,0.2-0.4,0.4-0.4h1.7c0.2,0,0.4,0.2,0.4,0.4
			C37.2,20.4,37,20.6,36.8,20.6z M33.4,20.6h-1.7c-0.2,0-0.4-0.2-0.4-0.4c0-0.2,0.2-0.4,0.4-0.4h1.7c0.2,0,0.4,0.2,0.4,0.4
			C33.8,20.4,33.6,20.6,33.4,20.6z M30,20.6h-1.7c-0.2,0-0.4-0.2-0.4-0.4c0-0.2,0.2-0.4,0.4-0.4H30c0.2,0,0.4,0.2,0.4,0.4
			C30.5,20.4,30.3,20.6,30,20.6z M26.6,20.6H25c-0.2,0-0.4-0.2-0.4-0.4c0-0.2,0.2-0.4,0.4-0.4h1.7c0.2,0,0.4,0.2,0.4,0.4
			C27.1,20.4,26.9,20.6,26.6,20.6z M23.3,20.6h-1.7c-0.2,0-0.4-0.2-0.4-0.4c0-0.2,0.2-0.4,0.4-0.4h1.7c0.2,0,0.4,0.2,0.4,0.4
			C23.7,20.4,23.5,20.6,23.3,20.6z"/>
	</g>
</g>
</svg>
