<svg id="Layer_1" data-name="Layer 1" xmlns="http://www.w3.org/2000/svg" viewBox="0 0 128 128"><defs><style>.cls-1{fill:#73818f;}</style></defs><title>icons-submenu-header</title><path class="cls-1" d="M27.17,123h73.48c4,0,6.07-1.5,7.26-5.36l.09-.2V34.33a2.8,2.8,0,0,1-.4-.32L79,5.4a2.91,2.91,0,0,1-.33-.4H25.57L25,5.18a10,10,0,0,0-1.31.48A6.32,6.32,0,0,0,20,11.35c0,.21,0,.43,0,.65V115.86C20,120.4,22.61,123,27.17,123Zm50.9-89V12.73l1.7,1.71,9.84,9.83,9,9L100.32,35H78.07ZM25.59,116.42V10.6H72.5v8.48c0,4.87,0,9.73,0,14.6a6.43,6.43,0,0,0,5,6.63,9.55,9.55,0,0,0,2.16.18h22.73v76.92H25.59Z"/><path class="cls-1" d="M57.23,68.21v5.45a1.65,1.65,0,0,0,1.64,1.64h6.91a1.65,1.65,0,0,0,1.65-1.64V68.21h5.44a1.63,1.63,0,0,0,1.64-1.64V59.66A1.63,1.63,0,0,0,72.87,58H67.43V52.57a1.65,1.65,0,0,0-1.65-1.64H58.87a1.65,1.65,0,0,0-1.64,1.64V58H51.79a1.63,1.63,0,0,0-1.64,1.64v6.91a1.63,1.63,0,0,0,1.64,1.64Zm-3.79-6.9h7.08V54.23h3.61v7.08h7.09v3.61H64.13V72H60.52V64.92H53.44Z"/><path class="cls-1" d="M62.33,83.22a20.1,20.1,0,1,0-20.1-20.1A20.13,20.13,0,0,0,62.33,83.22ZM46.52,63.12a15.81,15.81,0,1,1,15.81,15.8A15.82,15.82,0,0,1,46.52,63.12Z"/><path class="cls-1" d="M46.72,89.87H40.85a2.15,2.15,0,1,0,0,4.29h5.87a2.15,2.15,0,0,0,0-4.29Z"/><path class="cls-1" d="M52.69,92a2.15,2.15,0,0,0,2.15,2.14h29a2.15,2.15,0,0,0,0-4.29h-29A2.15,2.15,0,0,0,52.69,92Z"/><path class="cls-1" d="M46.72,98.1H40.85a2.15,2.15,0,1,0,0,4.29h5.87a2.15,2.15,0,0,0,0-4.29Z"/><path class="cls-1" d="M83.81,98.1h-29a2.15,2.15,0,1,0,0,4.29h29a2.15,2.15,0,0,0,0-4.29Z"/><path class="cls-1" d="M46.72,106.33H40.85a2.15,2.15,0,1,0,0,4.29h5.87a2.15,2.15,0,0,0,0-4.29Z"/><path class="cls-1" d="M83.81,106.33h-29a2.15,2.15,0,1,0,0,4.29h29a2.15,2.15,0,0,0,0-4.29Z"/></svg>