<svg id="Layer_1" data-name="Layer 1" xmlns="http://www.w3.org/2000/svg" viewBox="0 0 128 128"><defs><style>.cls-1{fill:#f58262;}</style></defs><title>icons-submenu-header</title><path class="cls-1" d="M85.32,17.41c-9.5,0-55.65,0-62.92,0-4.12,0-5.61,2.69-6.37,6.67-.65,3.39-1.43,8.19-1.94,11.57-.48,3.15,1.05,4.5,4.05,4.5H43.33c1.6,0,.62.56.09.72-4.05,1.27-16.41,9-19.18,26-.49,3-6.21,37.46-6.21,37.46a14.35,14.35,0,0,0-.27,2.15c-.13,3.3,1.79,4.08,3.07,4.08H33.44l1.16,0c4.95-.23,6.34-1.3,7.16-6.31,1.17-7.15,9.91-60.06,10.56-64.09H67.14c6.8,0,14.94-.46,18.61,4.33S88.56,54.6,87.3,62.35l-6.86,42a15.78,15.78,0,0,0-.27,2.15c-.13,3.3,1.79,4.08,3.07,4.08H95.86l1.15,0c4.95-.23,6.34-1.3,7.16-6.31.29-1.78,8.77-52.82,9.38-56.5C117.47,23.89,94.83,17.41,85.32,17.41Z"/></svg>