<svg id="Layer_1" data-name="Layer 1" xmlns="http://www.w3.org/2000/svg" viewBox="0 0 100 40"><defs><style>.cls-1{fill:#73818f;}</style></defs><title>menu-left-icon_vendas</title><path class="cls-1" d="M49.65,30.11a2.42,2.42,0,1,1-2.42,2.41,2.41,2.41,0,0,1,2.42-2.41m0-2a4.42,4.42,0,1,0,4.41,4.41,4.41,4.41,0,0,0-4.41-4.41Z"/><path class="cls-1" d="M62.74,30.11a2.42,2.42,0,1,1-2.42,2.41,2.41,2.41,0,0,1,2.42-2.41m0-2a4.42,4.42,0,1,0,4.41,4.41,4.41,4.41,0,0,0-4.41-4.41Z"/><path class="cls-1" d="M38.46,5.92l3.6,12.66,2.1,7.4a1.21,1.21,0,0,0,1.32,1c.27,0,.53,0,.8,0H66.72a2.08,2.08,0,0,1,.25-.21,1.14,1.14,0,0,0,.5-.85c.13-.87.25-1.75.38-2.62l1.59-11.12a1.37,1.37,0,0,0-.06-.57c-.21-.57-.56-.77-1.33-.77H65.41L63.47,6.92l-.69-1.39-.06-.13a2.52,2.52,0,0,0-.21-.4,1.18,1.18,0,0,0-.89-.54,1.43,1.43,0,0,0-.9.25L54.27,9.13l-2.12,1.59L52,10.8l0,0H46c-1.07,0-1.46.54-1.45,1.16s.39,1.15,1.43,1.15H66.4c.49,0,.62.14.57.64,0,.29-.08.58-.12.86l-1.35,9.4c-.08.53-.18.63-.72.63H46.94c-.63,0-.7-.06-.87-.67L40.44,4.2a1.3,1.3,0,0,0-1.52-1.14H32a2.94,2.94,0,0,0-.51,0,1.11,1.11,0,0,0-.07,2.19,2.3,2.3,0,0,0,.58.07h5.71C38.22,5.37,38.32,5.44,38.46,5.92Zm17.8,4.93,3.2-2.26L61,7.52l.57,1.15c.35.73.71,1.45,1.06,2.18Z"/></svg>