<svg id="Layer_1" data-name="Layer 1" xmlns="http://www.w3.org/2000/svg" viewBox="0 0 100 40"><defs><style>.cls-1{fill:#73818f;}</style></defs><title>menu-left-icon_comunicados</title><path class="cls-1" d="M68.41,5.77a2.36,2.36,0,0,0-2.24-2.49H39a3.69,3.69,0,0,0-.94.07,2.25,2.25,0,0,0-1.88,2.09.39.39,0,0,1-.06.15V8.93h2.49V6.25c0-.45.1-.54.56-.54H65.43c.48,0,.55.09.55.55V23.53c0,.48-.12.58-.57.58H62.94v2.43h2.89a2.43,2.43,0,0,0,2.58-2.27,1.6,1.6,0,0,0,0-.31Z"/><path class="cls-1" d="M47.93,36.73h-.39a2.46,2.46,0,0,1-1.6-1.35c-.82-1.35-1.69-2.66-2.53-4a.72.72,0,0,0-.66-.37H34.16a2.46,2.46,0,0,1-2.43-1.7c-.06-.19-.1-.39-.15-.59V10.05a.47.47,0,0,0,.06-.15,2.25,2.25,0,0,1,1.9-2.07,4.22,4.22,0,0,1,.94-.08H61.59a2.37,2.37,0,0,1,2.35,2.39.38.38,0,0,0,0,.1V28.46A2.41,2.41,0,0,1,61.66,31h-8.8a.85.85,0,0,0-.81.46c-.91,1.46-1.84,2.92-2.75,4.38a1.86,1.86,0,0,1-1.07.81Zm-.16-26.55H34.63c-.48,0-.56.09-.56.54V28c0,.48.09.55.55.55h9.2a1.21,1.21,0,0,1,1,.58c.8,1.28,1.62,2.55,2.43,3.83a.77.77,0,0,0,.26.32.54.54,0,0,0,.43,0c.12,0,.2-.2.27-.32.77-1.18,1.55-2.34,2.27-3.55a1.68,1.68,0,0,1,1.65-.91h8.83c.45,0,.57-.12.57-.58V10.75c0-.46-.09-.55-.56-.55Z"/></svg>