<svg id="Layer_1" data-name="Layer 1" xmlns="http://www.w3.org/2000/svg" viewBox="0 0 100 40"><defs><style>.cls-1{fill:#73818f;}</style></defs><title>menu-left-icon_dre</title><path class="cls-1" d="M63.94,36.5H39.25c-.16-.18-.39-.33-.47-.54-.19-.51.22-1,.82-1h9.63V20.77H35V33.3A1.49,1.49,0,0,0,36.56,35a.76.76,0,0,1,.68.56.77.77,0,0,1-.32.82l-.17.12h-.69a.59.59,0,0,0-.14-.06,3,3,0,0,1-2.42-3V6.58A3,3,0,0,1,36.58,3.5h26.9a3,3,0,0,1,3,2.39.85.85,0,0,0,.06.17V33.94c0,.06,0,.13-.07.2a3,3,0,0,1-2,2.21ZM49.23,19.24V5H36.68A1.5,1.5,0,0,0,35,6.67V19.24Zm15.77,0V6.63A1.49,1.49,0,0,0,63.37,5H50.77V19.24ZM50.76,35H63.37A1.49,1.49,0,0,0,65,33.37V20.78H50.76Z"/><path class="cls-1" d="M43.17,27.9c.35.33.69.65,1,1l1.41,1.41a.75.75,0,1,1-1.06,1.05l-2.41-2.41-.25.24-2.21,2.21a.74.74,0,0,1-.91.16.71.71,0,0,1-.37-.79,1.09,1.09,0,0,1,.3-.49c.7-.72,1.42-1.43,2.14-2.14.07-.07.17-.12.31-.23-.2-.18-.36-.31-.49-.44-.67-.66-1.33-1.33-2-2a.76.76,0,0,1-.07-1.13.77.77,0,0,1,1.13.08l2.15,2.14.28.26c.2-.21.39-.42.59-.61.59-.6,1.19-1.2,1.79-1.79a.75.75,0,1,1,1,1.06l-2.16,2.17C43.34,27.71,43.28,27.79,43.17,27.9Z"/><path class="cls-1" d="M42.11,11.38c1.1,0,2.19,0,3.28,0,.53,0,.86.28.86.73s-.32.76-.86.76c-2.19,0-4.37,0-6.56,0-.53,0-.88-.3-.86-.76a.75.75,0,0,1,.86-.73C39.93,11.37,41,11.38,42.11,11.38Z"/><path class="cls-1" d="M58.62,11.38c.87,0,1.69,0,2.51,0,.55,0,.88.28.87.75s-.33.74-.88.75H58.63V15c0,.16,0,.32,0,.47a.74.74,0,0,1-.76.77.72.72,0,0,1-.73-.76c0-.86,0-1.71,0-2.61H54.54a.75.75,0,1,1,0-1.49H57l.1,0V10.4c0-.55,0-1.11,0-1.66a.75.75,0,1,1,1.49,0C58.63,9.61,58.62,10.47,58.62,11.38Z"/><path class="cls-1" d="M57.85,26.75H54.47a.75.75,0,0,1-.21-1.47,1.05,1.05,0,0,1,.31,0h6.59a.75.75,0,1,1,0,1.5Z"/><path class="cls-1" d="M57.84,29h3.41a.73.73,0,0,1,.75.65.76.76,0,0,1-.56.83l-.19,0H54.48A.75.75,0,0,1,54.29,29a1.51,1.51,0,0,1,.31,0Z"/></svg>