<svg id="Layer_2" data-name="Layer 2" xmlns="http://www.w3.org/2000/svg" viewBox="0 0 100 40"><defs><style>.cls-1{fill:#73818f;}</style></defs><title>menu-left-icon_dias-especiais_dia-mulher</title><path class="cls-1" d="M48.72,40c-.76-.1-1.54-.17-2.3-.3a21.15,21.15,0,0,1-8.06-3.09.47.47,0,0,1-.19-.37,15,15,0,0,1,.27-1.9,2,2,0,0,1,1-1.35A6.12,6.12,0,0,1,41,32.47c1-.2,1.94-.28,2.91-.47a4.54,4.54,0,0,0,3.83-4.18.9.9,0,0,0-.52-1.06,9,9,0,0,1-3.59-4.3,4.34,4.34,0,0,1-.17-.4c-.79.16-1,.09-1.38-.58a1.5,1.5,0,0,0-.18-.24c-1.07-1-1.08-2.39-1-3.71,0-.86.43-1,1.26-.54-.12-.33-.23-.58-.33-.84a9.82,9.82,0,0,1,0-7.29,5.21,5.21,0,0,1,2.18-2.63.55.55,0,0,0,.2-.38A6.72,6.72,0,0,1,45.51,2,5.25,5.25,0,0,1,50.87.12,7.63,7.63,0,0,1,56,3.66,5.28,5.28,0,0,1,57,6.83a.47.47,0,0,0,.14.28c5,4.2,3.55,12.62,2,15.93-.53,1.14-.91,2.12-.08,3.09s-.26,2.72-1.5,3.38c-.48.34-1.63.74-1.58,1.38a1.23,1.23,0,0,1,.41-1.31c.24-.23.51-.42.75-.65a3.51,3.51,0,0,0,.54-.55,1.16,1.16,0,0,0-.22-1.68,6.51,6.51,0,0,0-.6-.43,2.4,2.4,0,0,1-1.06-2.51l0-.18,0,0-.22.34a8.31,8.31,0,0,1-3.13,3.07c-.26.13-.23.32-.21.52a4.63,4.63,0,0,0,4.15,4.61,24.39,24.39,0,0,1,2.84.48c.77.22,1.69.41,2,1.27a7.3,7.3,0,0,1,.43,1.86c0,.22.07.69.07.84l-.29.15a21.43,21.43,0,0,1-8.1,3c-.73.11-1.47.19-2.2.28ZM43.44,21.67c.05.12.1.21.13.3A9.41,9.41,0,0,0,49,27.56a2.3,2.3,0,0,0,1.69.06,9.08,9.08,0,0,0,3.56-2.27,9.52,9.52,0,0,0,2.53-4.92,4.19,4.19,0,0,0-2.69-4.64A11.83,11.83,0,0,0,50.51,15a10.07,10.07,0,0,1-4.6-1.6,2.6,2.6,0,0,1-1.36-2.15c-.63.58-1.25,1.07-1.78,1.65a2.29,2.29,0,0,0-.57,1.92c.09.66.19,1.32.27,2,.05.38.08.76.13,1.14l-.13.05a4.48,4.48,0,0,1-.32-.56.94.94,0,0,0-.74-.53c-.32,0-.36.3-.39.54a6.24,6.24,0,0,0,.44,3.11.64.64,0,0,0,.14.22l.76,1A.63.63,0,0,0,43.44,21.67Zm-2.11,11,.2.39A6.75,6.75,0,0,0,45,36a13,13,0,0,0,8.2.56,8.69,8.69,0,0,0,4.13-2.11,6.13,6.13,0,0,0,1.29-1.82l-2.29-.4a4.62,4.62,0,0,1-4.09-3.9c-.07-.37-.11-.74-.17-1.18a3.4,3.4,0,0,1-4.22,0c0,.19,0,.3,0,.41a4.59,4.59,0,0,1-3.7,4.56C43.24,32.33,42.31,32.46,41.33,32.64Z"/><path class="cls-1" d="M49.94,29.21c-1.55,0-4-1.51-5.19-2.81a13.58,13.58,0,0,1-2-3,1.1,1.1,0,0,1-.25,0c-.85-.08-1.27-1.13-1.66-2a5.61,5.61,0,0,1-.45-4,1.25,1.25,0,0,1,.63-.71,1.2,1.2,0,0,1,1,.07c.57.27.64,1,.53,1.08s-.5-.65-1-.33c-.33.19-.39,1.76.33,3.29A3.1,3.1,0,0,0,42.67,22c.19.15.64,0,.76-.17a13.83,13.83,0,0,0,2.28,3.53,7.93,7.93,0,0,0,4.23,2.32,7.23,7.23,0,0,0,3.55-1.65,10.13,10.13,0,0,0,2.61-3.33c.14-.28.3-.4.58-.26s.54.5.43.79a9.49,9.49,0,0,1-2.83,3.87C54.18,27.2,51.72,29.21,49.94,29.21Z"/><path class="cls-1" d="M43.85,33.5A7.44,7.44,0,0,0,47,32.15,5.56,5.56,0,0,0,49.24,28c0-.32-1.49-.62-1.51-.3A5.09,5.09,0,0,1,46,31a5.66,5.66,0,0,1-2.71,1.08c-.54.1-1.25.13-2,.31a.57.57,0,0,0-.41.72C41.23,34.16,43.32,33.6,43.85,33.5Z"/><path class="cls-1" d="M56.15,33.5A7.38,7.38,0,0,1,53,32.15,5.59,5.59,0,0,1,50.75,28c0-.32,1.5-.62,1.51-.3A5.07,5.07,0,0,0,54,31a5.63,5.63,0,0,0,2.7,1.08c.54.1,1.26.13,2.05.31a.56.56,0,0,1,.41.72C58.76,34.16,56.68,33.6,56.15,33.5Z"/></svg>