<svg id="Layer_1" data-name="Layer 1" xmlns="http://www.w3.org/2000/svg" viewBox="0 0 100 40"><defs><style>.cls-1{fill:#73818f;}</style></defs><title>menu-left-icon_dreams</title><path class="cls-1" d="M54.32,37.5,54,37.3a1.82,1.82,0,1,1,1.63,0l-.34.2Zm.47-1a.78.78,0,1,0,0-1.56.78.78,0,0,0,0,1.56Z"/><path class="cls-1" d="M50.49,26.83c-3.26,0-6.52,0-9.78,0A8.88,8.88,0,0,1,38.91,9.2a7.94,7.94,0,0,1,1.29-.13.66.66,0,0,0,.72-.56A8.42,8.42,0,0,1,56.1,6.45a.86.86,0,0,0,1,.47,5.54,5.54,0,0,1,6.18,4.41,1,1,0,0,0,.6.76,7.7,7.7,0,0,1-2.83,14.69c-3.52.11-7,0-10.56,0Zm0-2.09c3.42,0,6.83,0,10.25,0a5.57,5.57,0,0,0,5.53-4.82,5.69,5.69,0,0,0-3.85-6.23c-.89-.29-1-.46-1.07-1.41a3.5,3.5,0,0,0-4.67-3.15c-1.06.37-1.34.22-1.83-.76a6.42,6.42,0,0,0-11.72.07c-.39.82-.35.85.49,1.18a8.87,8.87,0,0,1,5.72,8.19,1.07,1.07,0,0,1-1,1.16,1.09,1.09,0,0,1-1.06-1.08c0-.26,0-.52,0-.78a6.84,6.84,0,1,0-6.79,7.63C43.78,24.76,47.12,24.75,50.47,24.74Z"/><path class="cls-1" d="M42.42,34.06a3.07,3.07,0,1,1,3-3.09A3.06,3.06,0,0,1,42.42,34.06Zm0-1.35A1.72,1.72,0,1,0,40.69,31,1.72,1.72,0,0,0,42.39,32.71Z"/><path class="cls-1" d="M49,31.26a2.44,2.44,0,1,1-2.42,2.47A2.45,2.45,0,0,1,49,31.26Zm1.22,2.45a1.2,1.2,0,0,0-2.39,0,1.2,1.2,0,1,0,2.39,0Z"/></svg>