<?xml version="1.0" encoding="utf-8"?>
<!-- Generator: Adobe Illustrator 23.0.6, SVG Export Plug-In . SVG Version: 6.00 Build 0)  -->
<svg version="1.1" id="Layer_1" xmlns="http://www.w3.org/2000/svg" xmlns:xlink="http://www.w3.org/1999/xlink" x="0px" y="0px"
	 viewBox="0 0 50 50" style="enable-background:new 0 0 50 50;" xml:space="preserve">
<style type="text/css">
	.st0{fill:#333333;}
</style>
<title>menu-top-icon_dreams</title>
<path class="st0" d="M28.6,38.5l-0.2-0.2c-0.7-0.4-1-1.2-0.6-1.9c0.3-0.6,1-0.9,1.7-0.7l0.2,0.1c0.7,0.4,1,1.2,0.6,1.9
	c-0.1,0.3-0.3,0.5-0.6,0.6l-0.3,0.2H28.6z M29,37.7c0.3,0,0.6-0.3,0.6-0.6l0,0c0-0.3-0.3-0.6-0.6-0.6c0,0,0,0,0,0
	c-0.3,0-0.6,0.3-0.6,0.6l0,0C28.3,37.5,28.6,37.7,29,37.7L29,37.7z"/>
<path class="st0" d="M25.6,30.3h-7.5c-3.8,0.4-7.1-2.4-7.5-6.2c-0.4-3.7,2.4-7.1,6.1-7.5c0.3-0.1,0.7-0.1,1-0.1
	c0.3,0,0.5-0.2,0.5-0.4c1-3.4,4.7-5.4,8.1-4.3c1.5,0.5,2.8,1.4,3.6,2.7c0.1,0.3,0.5,0.4,0.8,0.4c2.2-0.3,4.3,1.2,4.8,3.4
	c0,0.3,0.2,0.5,0.5,0.6c3,1.3,4.4,4.8,3.1,7.8c-0.9,2.1-3,3.5-5.2,3.6C31,30.3,28.4,30.2,25.6,30.3L25.6,30.3z M25.4,28.7h7.9
	c2.1,0,3.9-1.6,4.3-3.7c0.3-2.1-1-4.1-3-4.8c-0.7-0.2-0.8-0.4-0.8-1.1c0-1.5-1.3-2.6-2.8-2.6l0,0c-0.3,0-0.5,0.1-0.8,0.1
	c-0.8,0.3-1,0.2-1.4-0.6c-1.1-2.5-4.1-3.6-6.5-2.5c-1.1,0.5-2,1.4-2.5,2.5c-0.3,0.6-0.3,0.6,0.4,0.9c2.6,1,4.4,3.5,4.4,6.3
	c0.1,0.4-0.3,0.8-0.7,0.9c0,0,0,0,0,0l0,0c-0.4,0-0.8-0.4-0.8-0.8c0,0,0,0,0,0l0,0v-0.5c-0.3-2.9-3-5-5.8-4.6c-2.9,0.3-5,3-4.6,5.8
	c0.3,2.7,2.6,4.7,5.2,4.7h7.7L25.4,28.7z"/>
<path class="st0" d="M19.4,35.8c-1.3,0.1-2.4-1-2.5-2.3c-0.1-1.3,1-2.4,2.3-2.5c1.3-0.1,2.4,1,2.5,2.3l0,0
	C21.7,34.7,20.7,35.8,19.4,35.8C19.5,35.8,19.4,35.8,19.4,35.8L19.4,35.8z M19.1,34.8c0.7,0,1.3-0.6,1.3-1.3c0-0.6-0.5-1.2-1.1-1.3
	h-0.2c-0.7,0.1-1.2,0.8-1.2,1.5C18.1,34.3,18.5,34.8,19.1,34.8z"/>
<path class="st0" d="M24.5,33.7c1,0.1,1.8,1,1.7,2c-0.1,0.9-0.8,1.7-1.7,1.7c-1,0-1.9-0.8-1.9-1.9c0,0,0,0,0,0l0,0
	C22.5,34.6,23.4,33.7,24.5,33.7C24.4,33.7,24.4,33.7,24.5,33.7L24.5,33.7L24.5,33.7z M25.4,35.6c0-0.5-0.5-0.9-1-0.8s-0.9,0.5-0.8,1
	s0.5,0.9,1,0.8c0.4,0,0.8-0.4,0.8-0.8V35.6z"/>
</svg>
