<svg id="Layer_1" data-name="Layer 1" xmlns="http://www.w3.org/2000/svg" viewBox="0 0 100 40"><defs><style>.cls-1{fill:#73818f;}</style></defs><title>menu-left-icon_hora-a-hora</title><path class="cls-1" d="M49.36,23.39A2.17,2.17,0,0,1,47.13,21c.18-1.82.45-3.62.72-5.42.34-2.21.71-4.4,1.08-6.59a2.29,2.29,0,0,1,.34-.63,2.34,2.34,0,0,1,.38.66q.76,4.66,1.46,9.34c.09.59.27.88.92,1,2.86.44,5.7.95,8.55,1.46a3.13,3.13,0,0,1,.85.44,3.48,3.48,0,0,1-.83.39q-5.43.9-10.87,1.76Z"/><path class="cls-1" d="M50,2.5A17.5,17.5,0,1,0,67.5,20,17.49,17.49,0,0,0,50,2.5Zm0,2.56c8-.21,15,6.88,15,15A15.25,15.25,0,0,1,49.89,35,15.26,15.26,0,0,1,35,19.91C35,11.92,41.92,4.84,50,5.06Z"/></svg>