<svg id="Layer_1" data-name="Layer 1" xmlns="http://www.w3.org/2000/svg" viewBox="0 0 100 40"><defs><style>.cls-1{fill:#73818f;}</style></defs><title>menu-left-icon_informacoes</title><path class="cls-1" d="M49.28,18.6l.13.1c0,.2-.11.41-.17.61-.54,1.92-1.15,3.83-1.62,5.77a25.88,25.88,0,0,0-.69,4.09,1.65,1.65,0,0,0,2.12,1.73,4.19,4.19,0,0,0,.93-.29,16,16,0,0,0,4-3.15.64.64,0,0,0,.06-.62c-.52-1-1.07-1-1.88-.31-.41.36-.82.71-1.24,1a3,3,0,0,1-.41.28l-.13-.08c.32-1.31.63-2.62,1-3.92.6-2.21,1.25-4.41,1.83-6.62a1.24,1.24,0,0,0-1.12-1.68,4.83,4.83,0,0,0-2,.3A10.52,10.52,0,0,0,46,19a.52.52,0,0,0,.07.84c.15.13.32.23.46.37.41.38.74.3,1.12-.08S48.74,19.1,49.28,18.6Zm1-7.2A1.71,1.71,0,0,0,52,13.19a2.34,2.34,0,0,0,2.14-2.35A1.68,1.68,0,0,0,52.38,9.1,2.26,2.26,0,0,0,50.27,11.4Z"/><path class="cls-1" d="M49.28,18.6c-.54.5-1.1,1-1.61,1.5s-.71.46-1.12.08c-.14-.14-.31-.24-.46-.37A.52.52,0,0,1,46,19a10.52,10.52,0,0,1,4.1-3.11,4.83,4.83,0,0,1,2-.3,1.24,1.24,0,0,1,1.12,1.68c-.58,2.21-1.23,4.41-1.83,6.62-.35,1.3-.66,2.61-1,3.92l.13.08a3,3,0,0,0,.41-.28c.42-.34.83-.69,1.24-1,.81-.73,1.36-.66,1.88.31a.64.64,0,0,1-.06.62,16,16,0,0,1-4,3.15,4.19,4.19,0,0,1-.93.29,1.65,1.65,0,0,1-2.12-1.73,25.88,25.88,0,0,1,.69-4.09c.47-1.94,1.08-3.85,1.62-5.77.06-.2.12-.41.17-.61Z"/><path class="cls-1" d="M50.27,11.4a2.26,2.26,0,0,1,2.11-2.3,1.68,1.68,0,0,1,1.73,1.74A2.34,2.34,0,0,1,52,13.19,1.71,1.71,0,0,1,50.27,11.4Z"/><path class="cls-1" d="M50,3.2A16.8,16.8,0,1,1,33.2,20,16.82,16.82,0,0,1,50,3.2M50,0A20,20,0,1,0,70,20,20,20,0,0,0,50,0Z"/></svg>