<?xml version="1.0" encoding="utf-8"?>
<!-- Generator: Adobe Illustrator 23.0.6, SVG Export Plug-In . SVG Version: 6.00 Build 0)  -->
<svg version="1.1" id="Layer_1" xmlns="http://www.w3.org/2000/svg" xmlns:xlink="http://www.w3.org/1999/xlink" x="0px" y="0px"
	 viewBox="0 0 50 50" style="enable-background:new 0 0 50 50;" xml:space="preserve">
<style type="text/css">
	.st0{fill:#73818F;}
</style>
<g>
	<title>icon_dre</title>
	<path class="st0" d="M37.6,40H15.1c-0.1-0.2-0.3-0.3-0.4-0.5c-0.1-0.3,0.1-0.8,0.4-0.9c0.1,0,0.2,0,0.3,0h8.8V25.8H11.4v11.4
		c-0.1,0.8,0.4,1.4,1.2,1.5l0,0c0.1,0,0.2,0,0.2,0c0.3,0.1,0.6,0.4,0.5,0.8c0,0.2-0.1,0.3-0.2,0.4L13,40h-0.6h-0.1
		C11,39.8,10,38.6,10,37.3V12.8c0-1.5,1.2-2.8,2.7-2.8l0,0h24.6c1.3,0,2.5,0.9,2.7,2.1v0.1v25.4c0,0.1,0,0.1-0.1,0.2
		c-0.2,1-0.9,1.7-1.7,2L37.6,40z M24.2,24.2V11.4H12.9c-0.7-0.1-1.4,0.4-1.5,1.2l0,0c0,0.1,0,0.2,0,0.3v11.5L24.2,24.2z M38.7,24.2
		V12.8c0.1-0.8-0.4-1.4-1.2-1.5l0,0H25.8v13C25.8,24.3,38.7,24.3,38.7,24.2z M25.8,38.6h11.5c0.8,0.1,1.4-0.4,1.5-1.2
		c0-0.1,0-0.2,0-0.2V25.8h-13V38.6z"/>
	<path class="st0" d="M18.8,32.2c0.3,0.3,0.6,0.6,1,1l1.3,1.3c0.3,0.2,0.3,0.6,0.1,1c-0.2,0.3-0.6,0.3-1,0.1l-0.1-0.1l-2.2-2.2
		l-0.2,0.2l-2,2c-0.2,0.2-0.5,0.3-0.9,0.1c-0.2-0.1-0.4-0.4-0.3-0.8c0.1-0.2,0.1-0.3,0.3-0.4c0.7-0.6,1.3-1.3,1.9-1.9
		c0.1-0.1,0.1-0.1,0.3-0.2c-0.1-0.1-0.3-0.2-0.4-0.4c-0.6-0.6-1.2-1.2-1.8-1.8c-0.4-0.2-0.4-0.6-0.2-1l0,0l0,0c0.3-0.3,0.8-0.3,1,0
		l0,0l2.1,2l0.2,0.2c0.2-0.2,0.3-0.4,0.5-0.5l1.6-1.6c0.2-0.3,0.6-0.4,1-0.2l0,0c0.3,0.2,0.4,0.6,0.2,1l0,0C21,29.9,21,29.9,20.9,30
		L19,32C19,32,18.9,32.1,18.8,32.2z"/>
	<path class="st0" d="M17.8,17.2h3c0.4,0,0.8,0.2,0.8,0.6c0,0.4-0.3,0.8-0.6,0.8h-0.1h-6c-0.4,0-0.8-0.3-0.8-0.8
		c0-0.4,0.3-0.6,0.8-0.6H17.8L17.8,17.2z"/>
	<path class="st0" d="M32.8,17.2h2.2c0.5,0,0.8,0.2,0.8,0.6c0,0.4-0.3,0.6-0.9,0.6h-2.2v2.4c0,0.3-0.2,0.6-0.6,0.6l0,0l0,0
		c-0.3,0-0.6-0.3-0.6-0.6l0,0v-2.3h-2.4c-0.4,0-0.8-0.3-0.8-0.6s0.2-0.6,0.5-0.8h2.6v-2.4c0-0.3,0.2-0.8,0.6-0.8
		c0.3,0,0.7,0.2,0.7,0.6v0.1C32.8,15.6,32.8,16.3,32.8,17.2z"/>
	<path class="st0" d="M32.2,31.1h-3.1c-0.4,0-0.6-0.3-0.6-0.8c0-0.3,0.2-0.5,0.4-0.6c0.1,0,0.2,0,0.3,0h6c0.4,0,0.6,0.3,0.6,0.6
		c0,0.4-0.3,0.6-0.6,0.6l0,0L32.2,31.1z"/>
	<path class="st0" d="M32.2,33.1h3.1c0.3,0,0.6,0.2,0.6,0.5s-0.2,0.6-0.5,0.8h-6.3c-0.4,0-0.6-0.3-0.6-0.6c0-0.3,0.2-0.5,0.5-0.6
		c0.1,0,0.2,0,0.3,0C29.3,33.1,32.2,33.1,32.2,33.1z"/>
</g>
</svg>
