<svg id="Layer_1" data-name="Layer 1" xmlns="http://www.w3.org/2000/svg" viewBox="0 0 100 40"><defs><style>.cls-1{fill:#73818f;}</style></defs><title>menu-left-icon_criar-tag</title><path class="cls-1" d="M59.59,8.66A10.89,10.89,0,1,1,48.71,19.55,10.9,10.9,0,0,1,59.59,8.66m0-3A13.89,13.89,0,1,0,73.48,19.55,13.88,13.88,0,0,0,59.59,5.66Z"/><path class="cls-1" d="M56.76,32.34c-.35,0-.69-.11-1-.18L53.63,35l-.2-.13q-9.66-7.19-19.3-14.39a.84.84,0,0,1-.32-.47c-.55-3.59-1.08-7.19-1.62-10.79a1.31,1.31,0,0,0,0-.17,1.6,1.6,0,0,1,.27.16l1.14.84a1.92,1.92,0,0,1,.92,1.25A2.36,2.36,0,0,0,37.4,13a2.43,2.43,0,0,0-1-4.76.82.82,0,0,1-.55-.13c-.64-.44-1.26-.91-2-1.44L35,6.46,44.83,5a.9.9,0,0,1,.58.14c2.16,1.58,4.3,3.17,6.45,4.75a12.41,12.41,0,0,1,3.07-1.35L47.86,3.33c-.43-.31-.85-.63-1.27-1A1.82,1.82,0,0,0,45.12,2Q38.85,3,32.57,3.89a5.56,5.56,0,0,1-2,.22C30,4,29.51,3.38,29,3l-.07,0a1.45,1.45,0,1,0-1.73,2.32c.45.35.9.69,1.36,1a.83.83,0,0,1,.37.62c.7,4.73,1.41,9.46,2.1,14.19a1.84,1.84,0,0,0,.77,1.27q9.78,7.26,19.54,14.55A4.68,4.68,0,0,0,53.64,38l1-.14a3.93,3.93,0,0,0,1.5-1.18l3.19-4.31A12.62,12.62,0,0,1,56.76,32.34Z"/><path class="cls-1" d="M60.79,13.52v4.92h4.65v2.19H60.79v4.95H58.37V20.63H53.74V18.44h4.63V13.52Z"/></svg>