<svg id="Layer_1" data-name="Layer 1" xmlns="http://www.w3.org/2000/svg" viewBox="0 0 100 40"><defs><style>.cls-1{fill:#73818f;}</style></defs><title>menu-left-icon_directory</title><path class="cls-1" d="M67,13.33H64V11.67a2.1,2.1,0,0,0-2.1-2.1H50.71V8.66A3.67,3.67,0,0,0,47,5H35.62A3.7,3.7,0,0,0,32,8.73l0,22.71c0,.91,0,3.35,2,3.54l.15,0H65.7a2.35,2.35,0,0,0,2.35-2.35V14.4A1.07,1.07,0,0,0,67,13.33ZM38.14,30.61V15.47H65.91V32.65a.21.21,0,0,1-.21.21H38.06A17.07,17.07,0,0,0,38.14,30.61Zm-4-19.19V8.73a1.56,1.56,0,0,1,1.53-1.59H47a1.53,1.53,0,0,1,1.53,1.52v1a2.09,2.09,0,0,0,2.09,2.09h11.2v1.62H37.06A1.07,1.07,0,0,0,36,14.4V30.62c0,.27,0,.51,0,.74,0,.86,0,1.33-.28,1.71a1,1,0,0,1-.63.21.77.77,0,0,1-.58-.23,2.11,2.11,0,0,1-.39-1.6v0Z"/><path class="cls-1" d="M43.74,30.48H43a.39.39,0,0,1,0-.77h.78a.39.39,0,0,1,0,.77Z"/><path class="cls-1" d="M60.93,30.48H59.49a.39.39,0,0,1,0-.77h1.44a.39.39,0,0,1,0,.77Zm-2.87,0H56.63a.39.39,0,1,1,0-.77h1.43a.39.39,0,1,1,0,.77Zm-2.86,0H53.76a.39.39,0,0,1,0-.77H55.2a.39.39,0,0,1,0,.77Zm-2.87,0H50.9a.39.39,0,1,1,0-.77h1.43a.39.39,0,1,1,0,.77Zm-2.86,0H48a.39.39,0,0,1,0-.77h1.44a.39.39,0,0,1,0,.77Zm-2.87,0H45.17a.39.39,0,1,1,0-.77H46.6a.39.39,0,1,1,0,.77Z"/><path class="cls-1" d="M63.13,30.48h-.77a.39.39,0,1,1,0-.77h.38v-.39a.39.39,0,0,1,.78,0v.77A.39.39,0,0,1,63.13,30.48Z"/><path class="cls-1" d="M63.13,28.27a.39.39,0,0,1-.39-.38V26.45a.39.39,0,0,1,.78,0v1.44A.39.39,0,0,1,63.13,28.27Zm0-2.86a.39.39,0,0,1-.39-.39V23.59a.39.39,0,1,1,.78,0V25A.39.39,0,0,1,63.13,25.41Zm0-2.87a.39.39,0,0,1-.39-.38V20.73a.39.39,0,1,1,.78,0v1.43A.39.39,0,0,1,63.13,22.54Z"/><path class="cls-1" d="M63.13,19.68a.39.39,0,0,1-.39-.39v-.77a.39.39,0,0,1,.78,0v.77A.39.39,0,0,1,63.13,19.68Z"/></svg>