<?xml version="1.0" encoding="utf-8"?>
<!-- Generator: Adobe Illustrator 23.0.6, SVG Export Plug-In . SVG Version: 6.00 Build 0)  -->
<svg version="1.1" id="Layer_1" xmlns="http://www.w3.org/2000/svg" xmlns:xlink="http://www.w3.org/1999/xlink" x="0px" y="0px"
	 viewBox="0 0 50 50" style="enable-background:new 0 0 50 50;" xml:space="preserve">
<style type="text/css">
	.st0{fill:#73818F;}
</style>
<g>
	<title>icon_vendas</title>
	<path class="st0" d="M24.6,33.3c1.1,0,2,0.8,2,1.9c0,1.1-0.8,2-1.9,2s-2-0.8-2-1.9c0,0,0,0,0,0l0,0C22.7,34.3,23.6,33.4,24.6,33.3
		L24.6,33.3 M24.7,31.7c-2,0-3.6,1.6-3.6,3.6c0,2,1.6,3.6,3.6,3.6s3.6-1.6,3.6-3.6l0,0C28.3,33.3,26.7,31.7,24.7,31.7L24.7,31.7z"/>
	<path class="st0" d="M35.5,33.3c1.1,0,2,0.9,2,2c0,1.1-0.9,2-2,2c-1.1,0-2-0.9-2-2C33.4,34.2,34.3,33.3,35.5,33.3
		C35.4,33.3,35.4,33.3,35.5,33.3L35.5,33.3 M35.4,31.7c-2,0-3.6,1.6-3.6,3.6s1.6,3.6,3.6,3.6s3.6-1.6,3.6-3.6S37.5,31.7,35.4,31.7z"
		/>
	<path class="st0" d="M15.4,13.4l3,10.4c0.6,2,1.1,4.1,1.7,6.1c0.1,0.5,0.6,0.9,1.1,0.8h17.5l0.2-0.2c0.2-0.2,0.4-0.4,0.4-0.7
		c0.1-0.7,0.2-1.4,0.3-2.2c0.4-3.1,0.9-6.1,1.3-9.2c0-0.2,0-0.3-0.1-0.4c-0.2-0.5-0.5-0.6-1.1-0.6h-2.2l-1.6-3.2L35.5,13v-0.1
		c0-0.1-0.1-0.2-0.2-0.3c-0.2-0.3-0.4-0.4-0.7-0.4c-0.3,0-0.5,0.1-0.7,0.2L28.5,16l-1.8,1.3h-0.1h-5c-0.9,0-1.2,0.5-1.2,1
		c0,0.5,0.4,1,1.2,1h16.9c0.4,0,0.5,0.1,0.5,0.5c0,0.4,0,0.5-0.1,0.7c-0.4,2.6-0.8,5.2-1.1,7.8c-0.1,0.4-0.1,0.5-0.6,0.5H22.4
		c-0.5,0-0.6,0-0.7-0.6c-1.6-5.4-3.1-10.8-4.6-16.3c-0.1-0.6-0.6-1-1.2-0.9H9.8c-0.5,0.1-0.8,0.6-0.7,1.1c0.1,0.4,0.4,0.7,0.7,0.7
		h5.2C15.2,12.9,15.3,13,15.4,13.4z M30.1,17.4l2.7-1.8l1.3-0.9l0.5,0.9l0.9,1.8L30.1,17.4z"/>
</g>
</svg>
