<?xml version="1.0" encoding="utf-8"?>
<!-- Generator: Adobe Illustrator 23.0.6, SVG Export Plug-In . SVG Version: 6.00 Build 0)  -->
<svg version="1.1" id="Layer_1" xmlns="http://www.w3.org/2000/svg" xmlns:xlink="http://www.w3.org/1999/xlink" x="0px" y="0px"
	 viewBox="0 0 50 50" style="enable-background:new 0 0 50 50;" xml:space="preserve">
<style type="text/css">
	.st0{fill:#73818F;}
</style>
<title>icon_compras</title>
<path class="st0" d="M14.7,16.3H32c0.4-0.3,0.6-0.7,0.6-1.2c0-0.7,0-1.3-0.1-2c-0.3-1.6-1.6-2.7-3.2-2.7h-8.5
	c-1.8,0-3.3,1.4-3.3,3.2c0,0,0,0,0,0v1.5c-0.1,0.4,0.1,0.9,0.5,1.1L14.7,16.3z M19.2,15.2v-1.4c-0.1-0.9,0.5-1.6,1.4-1.7
	c0.1,0,0.2,0,0.4,0h8.2c0.9-0.1,1.7,0.5,1.8,1.4c0,0.1,0,0.2,0,0.3v1.3c-0.1,0.4,0.1,0.9,0.5,1.1H18.6C19,16.1,19.2,15.7,19.2,15.2
	L19.2,15.2z"/>
<path class="st0" d="M38.2,16.4c-0.3-0.6-0.9-0.9-1.5-0.8H13.2c-0.6,0-1.2,0.3-1.5,0.9c-1.2,2-1.3,4.4-0.3,6.5
	c0.1,0.3,0.2,0.6,0.4,0.9V25h0v5l0,0v5.3l0,0v1.5c-0.1,1.8,1.3,3.4,3.1,3.5c0,0,0,0,0,0h0.2h19.8c0.5-0.1,1-0.2,1.5-0.4
	c1.1-0.6,1.8-1.7,1.8-2.9v-1.8l0,0V23.9c0.4-0.8,0.7-1.7,0.9-2.6C39.4,19.6,39.1,17.9,38.2,16.4z M36.4,36.9
	c0.1,0.9-0.5,1.7-1.4,1.8c0,0,0,0,0,0c-0.1,0-0.2,0-0.3,0H15.3c-0.9,0.1-1.6-0.5-1.7-1.4c0-0.1,0-0.2,0-0.4V25.9
	c2.4,2,5.4,3.3,8.5,3.7v2c0,0.9,0.3,1.1,1.2,1.1h3.5c0.8,0,1.1-0.3,1.1-1.2v-1.9c3.1-0.4,6.1-1.6,8.6-3.7c0,0.1,0,0.2,0,0.3
	L36.4,36.9z M23.8,30.9V27h2.4v3.9H23.8z M36.4,23.3C35,25.1,33.1,26.4,31,27c-1,0.3-2,0.6-3.1,0.9v-1.5c0-0.8-0.3-1.1-1.1-1.1h-3.7
	c-0.8,0-1.1,0.3-1.1,1.1v1.5c-2.7-0.4-5.3-1.5-7.4-3.4c-1.3-1.1-2.1-2.7-2.2-4.3c0-0.8,0.2-1.7,0.6-2.4c0.1-0.2,0.3-0.4,0.6-0.3
	h22.8c0.2,0,0.5,0.1,0.6,0.3C37.9,19.5,37.7,21.7,36.4,23.3L36.4,23.3z"/>
</svg>
