<svg id="Layer_1" data-name="Layer 1" xmlns="http://www.w3.org/2000/svg" viewBox="0 0 100 40"><defs><style>.cls-1{fill:#73818f;}</style></defs><title>menu-left-icon_criar-pagina</title><path class="cls-1" d="M55.34,14.37A10.89,10.89,0,1,1,44.46,25.26,10.89,10.89,0,0,1,55.34,14.37m0-3A13.89,13.89,0,1,0,69.22,25.26,13.88,13.88,0,0,0,55.34,11.37Z"/><path class="cls-1" d="M56.53,19.23v4.92h4.66v2.19H56.53v4.95H54.12V26.34H49.49V24.15h4.63V19.23Z"/><path class="cls-1" d="M50.07.86H44.88a3.17,3.17,0,0,0-2.17.9L35.29,8.43l-3.31,3a3.4,3.4,0,0,0-1.2,2.7V34a3.25,3.25,0,0,0,3.39,3.39H52.75A12.68,12.68,0,0,1,45.34,35H34.24c-.73,0-1-.31-1-1V14.2h9.34a2.69,2.69,0,0,0,2.86-2.87c0-2.54,0-5.07,0-7.61V3.29h8.66c.8,0,1.09.3,1.09,1.1v7.88A12.58,12.58,0,0,1,57.6,13V6.42c0-.11,0-.22,0-.32,0-.68,0-1.37,0-2A3.22,3.22,0,0,0,54.4.87ZM39.66,11.75H35.55l-.35,0,7.74-7c0,.17,0,.27,0,.38q0,3.06,0,6.14c0,.44,0,.46-.46.46Z"/><path class="cls-1" d="M55.8,37a12.74,12.74,0,0,1-3,.38h1.37A3.51,3.51,0,0,0,55.8,37Z"/></svg>