<svg id="Layer_1" data-name="Layer 1" xmlns="http://www.w3.org/2000/svg" viewBox="0 0 100 40"><defs><style>.cls-1{fill:#73818f;}</style></defs><title>menu-left-icon_criar-grupo</title><path class="cls-1" d="M38.84,28l-.5.17h0Z"/><path class="cls-1" d="M53.51,28.7,53,28.54l.53.16a.83.83,0,0,0,.21.06A.83.83,0,0,1,53.51,28.7Z"/><path class="cls-1" d="M40.86,22.89h0l.16.31Z"/><path class="cls-1" d="M56.73,5.88A12.28,12.28,0,1,1,44.46,18.17h0A12.29,12.29,0,0,1,56.73,5.88m0-3.38A15.66,15.66,0,1,0,72.39,18.16,15.66,15.66,0,0,0,56.73,2.5Z"/><path class="cls-1" d="M59.29,32.91a14.75,14.75,0,0,1-2.35.3l-.53,0v1H31.11a18.27,18.27,0,0,1,.23-2.17,1.89,1.89,0,0,1,1.52-1.31c.4-.11.8-.19,1.2-.28A17.17,17.17,0,0,0,36,30a23.28,23.28,0,0,0,3.79-1.56,3.6,3.6,0,0,0,1.5-4.2,8.22,8.22,0,0,0-.67-1.6,17.55,17.55,0,0,1-2.18-6.55,12.12,12.12,0,0,1,.11-3.35A4.69,4.69,0,0,1,42.75,9a5.32,5.32,0,0,1,1.17-.12h.27l.16-.21a16.79,16.79,0,0,1,1.91-2L47.1,6,46,5.75a9.53,9.53,0,0,0-3.5-.21,8.21,8.21,0,0,0-7.26,6.23,11.52,11.52,0,0,0,.24,6.9c.55,1.64,1.26,3.25,1.94,4.8l.43,1c.36.81.19,1.06-.34,1.34a12,12,0,0,1-1.9.7l-1.92.54c-.89.24-1.81.48-2.7.78A4.54,4.54,0,0,0,28.09,31a18.51,18.51,0,0,0-.4,5.86,1.09,1.09,0,0,0,.18.43l.16.26H60V32.76Z"/><path class="cls-1" d="M58.08,11.36v5.55h5.24v2.47H58.08V25H55.35V19.38H50.13V16.91h5.22V11.36Z"/></svg>