<svg id="Layer_1" data-name="Layer 1" xmlns="http://www.w3.org/2000/svg" viewBox="0 0 40 40"><defs><style>.cls-1{fill:#fff;}</style></defs><title>menu-top-icon_dreams_w</title><path class="cls-1" d="M25,31.86l-.22-.13a1.24,1.24,0,0,1,.94-2.29l.17.08a1.23,1.23,0,0,1,.55,1.65,1.24,1.24,0,0,1-.55.56l-.23.13Zm.32-.68a.53.53,0,0,0,.53-.53h0a.53.53,0,0,0-1.06,0h0a.53.53,0,0,0,.5.53Z"/><path class="cls-1" d="M22.37,24.62H15.74a6,6,0,1,1-1.22-12,6.42,6.42,0,0,1,.87-.09.45.45,0,0,0,.49-.38,5.71,5.71,0,0,1,10.3-1.4.57.57,0,0,0,.67.32,3.76,3.76,0,0,1,4.2,3,.67.67,0,0,0,.4.52,5.22,5.22,0,0,1-1.92,10c-2.38.08-4.74,0-7.16,0Zm0-1.41h7a3.79,3.79,0,0,0,3.75-3.27,3.87,3.87,0,0,0-2.61-4.23c-.6-.19-.68-.31-.72-1a2.37,2.37,0,0,0-2.47-2.27h0a2.4,2.4,0,0,0-.7.13c-.72.25-.91.15-1.24-.52a4.35,4.35,0,0,0-7.95,0c-.26.56-.24.58.33.8a6,6,0,0,1,3.88,5.56.71.71,0,0,1-.63.78h0a.72.72,0,0,1-.71-.73V18a4.64,4.64,0,1,0-4.61,5.18h6.78Z"/><path class="cls-1" d="M16.9,29.53a2.09,2.09,0,1,1,2-2.18v0h0A2.07,2.07,0,0,1,16.9,29.53Zm-.21-.9a1.17,1.17,0,0,0,.21-2.33.74.74,0,0,0-.21,0,1.17,1.17,0,0,0,0,2.33Z"/><path class="cls-1" d="M21.36,27.63a1.66,1.66,0,1,1-1.64,1.68h0a1.65,1.65,0,0,1,1.63-1.67Zm.83,1.66a.82.82,0,1,0,0,.15Z"/></svg>