<svg id="Layer_1" data-name="Layer 1" xmlns="http://www.w3.org/2000/svg" viewBox="0 0 100 40"><defs><style>.cls-1{fill:#73818f;}</style></defs><title>menu-left-icon_notification</title><path class="cls-1" d="M49.47,2.5h1.08l.21.07a3.76,3.76,0,0,1,2.8,2.32A3.9,3.9,0,0,1,53.79,7l.26.1a11.61,11.61,0,0,1,3.48,2.16A10.84,10.84,0,0,1,60.87,17c.07,1.5.1,3,.21,4.51a13.36,13.36,0,0,0,.86,3.9,4.73,4.73,0,0,0,1.69,2.32,2.41,2.41,0,0,1,.7.79c.24.53.38,1.11.57,1.66v.2a3.29,3.29,0,0,1-.1.53,3.25,3.25,0,0,1-3.25,2.61H55.42a.38.38,0,0,0-.44.31h0a5.14,5.14,0,0,1-3.44,3.43c-.28.09-.57.15-.86.23H49.34a.37.37,0,0,0-.15-.06A5.15,5.15,0,0,1,45,33.78c-.08-.26-.2-.31-.44-.31H38.34a3.14,3.14,0,0,1-2.66-1.42,4.28,4.28,0,0,1-.58-1.66v-.27l.06-.15a3.22,3.22,0,0,1,1.5-2.45,3.39,3.39,0,0,0,.55-.52,7.1,7.1,0,0,0,1.27-2.81,29.09,29.09,0,0,0,.68-6.51,17.71,17.71,0,0,1,.2-2.52,10,10,0,0,1,5.31-7.5c.5-.27,1-.5,1.55-.74a3.76,3.76,0,0,1,1.72-3.81A9.21,9.21,0,0,1,49.47,2.5Zm11.17,25c-.2-.46-.41-.88-.57-1.31a20.85,20.85,0,0,1-1.14-6.6c0-1.13,0-2.27-.14-3.41a8.84,8.84,0,0,0-1.27-3.8,9.3,9.3,0,0,0-9-3.93,9.06,9.06,0,0,0-5.89,3.8,9.82,9.82,0,0,0-1.44,5.12c-.07,1.65-.12,3.3-.29,4.94a13.84,13.84,0,0,1-1.4,5,1.67,1.67,0,0,0-.08.2Zm-10.58,2H37.89a.58.58,0,0,0-.66.48.13.13,0,0,0,0,.06,1.18,1.18,0,0,0,.28,1.12,1.42,1.42,0,0,0,1.13.39h23a1.35,1.35,0,0,0,1.22-.94.79.79,0,0,0-.41-1,.78.78,0,0,0-.37-.06Zm2.85,4.11H47.08a3.27,3.27,0,0,0,3.09,1.93,3.15,3.15,0,0,0,2.74-2ZM51.77,6.39A1.6,1.6,0,0,0,51,4.81,1.83,1.83,0,0,0,48.19,6.4,10.5,10.5,0,0,1,51.77,6.39Z"/></svg>