<svg id="Layer_1" data-name="Layer 1" xmlns="http://www.w3.org/2000/svg" viewBox="0 0 100 40"><defs><style>.cls-1{fill:#73818f;}</style></defs><title>menu-left-icon_dias-especiais</title><path class="cls-1" d="M42.6,40c-.37,0-.75,0-1.13,0a16.86,16.86,0,0,1-7.06-1.52,4,4,0,0,1-.86-.59,2,2,0,0,1-.72-2,2,2,0,0,1,1.52-1.48,8.92,8.92,0,0,1,3.45-.2l.74.07L40.8,21.12c-.59-.19-1.16-.33-1.7-.56a6.6,6.6,0,0,1-3.64-4.46,10.36,10.36,0,0,1,.09-6.28c.76-2.42,1.5-4.85,2.24-7.27.25-.79.53-1,1.34-.83l11.49,2c.77.13,1,.41,1,1.2-.1,2.68-.18,5.36-.32,8A9.88,9.88,0,0,1,47.87,20a5.93,5.93,0,0,1-4.78,1.44l-.52-.07-2.26,13.2c.18,0,.34.07.48.12.94.33,1.9.63,2.82,1A2.54,2.54,0,0,1,45,37.11a1.93,1.93,0,0,1-1.14,2.53l-.43.19Zm6.9-27.56c-.1,0-.14,0-.16,0l-.27.1a6,6,0,0,1-6.39-1.18,4.54,4.54,0,0,0-5.15-.9.72.72,0,0,0-.46.54,8.39,8.39,0,0,0,.26,5.1,4.61,4.61,0,0,0,4,3.27c.59.07,1.18.2,1.78.3A4.27,4.27,0,0,0,47,18.39a8.22,8.22,0,0,0,2.39-4.61C49.44,13.33,49.46,12.88,49.5,12.43Zm-11.63-4A6.54,6.54,0,0,1,44,10.11a4,4,0,0,0,2.37,1,5.82,5.82,0,0,0,2.82-.55.5.5,0,0,0,.4-.58,9.94,9.94,0,0,1,0-1.09c0-1.17.08-2.34.13-3.53L39.35,3.57Zm5.5,29.56.1-.36-.86-.39a15.6,15.6,0,0,0-6.91-1.25,5.27,5.27,0,0,0-1.14.28l-.11.33.9.41a16,16,0,0,0,6.77,1.25A6.8,6.8,0,0,0,43.37,37.94Z"/><path class="cls-1" d="M64.77,32.84A5.63,5.63,0,0,0,63,32.66a16.5,16.5,0,0,0-1.92.24q-1.36-5.07-2.74-10.16l.45-.15a4.65,4.65,0,0,0,2.92-2.68,7.74,7.74,0,0,0,.07-6c-.8-2-1.64-4-2.47-6a.73.73,0,0,0-1-.5l-7.4,2c0,.43-.06.93-.11,1.48l7.41-2,1.53,3.7c-.46,0-.9,0-1.32,0a5.28,5.28,0,0,0-3.5,1.67A3.77,3.77,0,0,1,51,15.37a.39.39,0,0,1-.26-.24c-.08-.55-.16-1.1-.23-1.65a38.36,38.36,0,0,1-.84,4.13,8,8,0,0,0,2.7,4.51,4.68,4.68,0,0,0,3.27,1.18A13.27,13.27,0,0,0,57,23.14c.92,3.38,1.83,6.77,2.74,10.14-.47.17-.89.31-1.28.49a6.44,6.44,0,0,0-1.19.63,3.05,3.05,0,0,0-.85.83,1.47,1.47,0,0,0,.68,2.21l.56.21.68.05.29,0a12.78,12.78,0,0,0,6-1.75,2.87,2.87,0,0,0,.84-.79A1.45,1.45,0,0,0,64.77,32.84Zm-9-11a2.7,2.7,0,0,1-2-.51A6.41,6.41,0,0,1,51,17.09c0-.06,0-.14,0-.19a16,16,0,0,0,1.7,0,4.92,4.92,0,0,0,3.16-1.55,4,4,0,0,1,4.31-1.14.58.58,0,0,1,.43.41,6.52,6.52,0,0,1-.15,4.76,2.83,2.83,0,0,1-1.62,1.68A23.18,23.18,0,0,1,55.75,21.88Zm8.16,12.85a12,12,0,0,1-5.35,1.54,4,4,0,0,1-1-.13l0-.15a3.11,3.11,0,0,1,.52-.44A11.58,11.58,0,0,1,63.66,34a3.64,3.64,0,0,1,.72.13l0,.15A4,4,0,0,1,63.91,34.73Z"/><path class="cls-1" d="M52.61,5.61a.66.66,0,0,1-.33-.78L53.62.47a.66.66,0,0,1,1.27.39L53.55,5.22a.66.66,0,0,1-.83.44Z"/><path class="cls-1" d="M55.52,6.56a.7.7,0,0,1-.38-.3.66.66,0,0,1,.22-.91L60,2.56a.66.66,0,1,1,.69,1.13L56,6.49A.73.73,0,0,1,55.52,6.56Z"/></svg>