<?xml version="1.0" encoding="utf-8"?>
<!-- Generator: Adobe Illustrator 23.0.6, SVG Export Plug-In . SVG Version: 6.00 Build 0)  -->
<svg version="1.1" id="Layer_1" xmlns="http://www.w3.org/2000/svg" xmlns:xlink="http://www.w3.org/1999/xlink" x="0px" y="0px"
	 viewBox="0 0 50 50" style="enable-background:new 0 0 50 50;" xml:space="preserve">
<style type="text/css">
	.st0{fill:#FFFFFF;}
</style>
<title>menu-top-icon_hora-a-hora_w</title>
<path class="st0" d="M24.4,28.2c-1.1,0-2-0.8-2.1-1.9c0,0,0-0.1,0-0.1l0,0v-0.4c0.2-1.7,0.5-3.4,0.6-5c0.4-2.1,0.6-4.1,1-6.1
	c0.1-0.2,0.2-0.5,0.4-0.5c0.1,0.2,0.2,0.4,0.4,0.6c0.5,2.9,0.9,5.9,1.4,8.8c0.1,0.6,0.2,0.9,0.9,1c2.7,0.5,5.4,0.9,8.1,1.5
	c0.3,0.1,0.5,0.3,0.7,0.5c-0.2,0.1-0.5,0.3-0.7,0.4c-3.4,0.6-6.8,1.1-10.3,1.7L24.4,28.2z"/>
<path class="st0" d="M25,8.5C15.9,8.5,8.5,15.9,8.5,25S15.9,41.5,25,41.5S41.5,34.1,41.5,25c0-9.1-7.3-16.5-16.4-16.5
	C25.1,8.5,25,8.5,25,8.5z M25,10.9c7.6-0.2,14.2,6.5,14.2,14.1C39,32.8,32.8,39,25,39.2c-7.7-0.2-13.9-6.5-14.1-14.2
	C10.9,17.2,17.2,10.9,25,10.9z"/>
</svg>
