<?xml version="1.0" encoding="utf-8"?>
<!-- Generator: Adobe Illustrator 23.0.6, SVG Export Plug-In . SVG Version: 6.00 Build 0)  -->
<svg version="1.1" id="Layer_1" xmlns="http://www.w3.org/2000/svg" xmlns:xlink="http://www.w3.org/1999/xlink" x="0px" y="0px"
	 viewBox="0 0 50 50" style="enable-background:new 0 0 50 50;" xml:space="preserve">
<style type="text/css">
	.st0{fill:#333333;}
</style>
<title>icon_informacoes</title>
<g>
	<path class="st0" d="M27.7,30c-0.3-0.1-0.6,0-1,0.3c-0.3,0.3-0.7,0.6-1,0.8l-0.3,0.2c0.3-1.1,0.5-2.2,0.8-3.2
		c0.5-1.8,1-3.6,1.5-5.5c0-0.1,0-0.2,0-0.3l0,0c0-0.3-0.2-0.6-0.4-0.8l0,0c-0.1-0.1-0.1-0.1-0.2-0.1L27,21.3c-0.1,0-0.1,0-0.2,0
		c0,0,0,0-0.1,0c-0.3,0-0.6,0-0.9,0.1c-0.3,0-0.6,0.1-0.8,0.2c-1.3,0.6-2.5,1.5-3.4,2.7c-0.2,0.2-0.2,0.4,0,0.6l0.1,0.1
		c0.1,0.1,0.3,0.2,0.4,0.3c0.3,0.3,0.6,0.2,0.9-0.1c0.3-0.3,0.9-0.9,1.4-1.3l0.1,0.1c0,0.2-0.1,0.3-0.1,0.5
		c-0.4,1.6-0.9,3.2-1.3,4.8c-0.3,1.1-0.5,2.2-0.6,3.4c-0.1,0.4,0.1,0.8,0.4,1.1c0.3,0.4,0.9,0.6,1.5,0.4c0.3-0.1,0.5-0.1,0.8-0.2
		c1.2-0.7,2.3-1.6,3.3-2.7c0.1-0.2,0.1-0.4,0-0.5C28.2,30.3,28,30.1,27.7,30z"/>
	<path class="st0" d="M25.2,18L25.2,18c0,0.2,0,0.3,0.1,0.4v0.1c0.1,0.1,0.1,0.2,0.2,0.3l0.1,0.1c0.1,0.1,0.2,0.1,0.3,0.2
		c0.2,0.1,0.4,0.2,0.6,0.2h0.1c1-0.1,1.8-0.9,1.8-1.9l0,0l0,0v-0.1v-0.1v-0.1V17v-0.1c0,0,0-0.1-0.1-0.1c0,0,0-0.1-0.1-0.1l-0.1-0.1
		L28,16.5l-0.1-0.1l-0.1-0.1c0,0-0.1,0-0.1-0.1c0,0-0.1,0-0.1-0.1h-0.1h-0.1h-0.1h-0.1h-0.1l0,0l0,0l0,0
		C25.9,16.1,25.2,16.9,25.2,18L25.2,18L25.2,18z"/>
	<path class="st0" d="M24.9,8.5c-9.1,0-16.5,7.4-16.4,16.6c0,9.1,7.4,16.5,16.6,16.4c9.1,0,16.5-7.4,16.4-16.6
		C41.5,15.8,34.1,8.5,24.9,8.5z M25,39.3c-7.9,0-14.4-6.4-14.4-14.3S17,10.7,25,10.7S39.3,17,39.3,25C39.4,32.9,33,39.3,25,39.3z"/>
</g>
</svg>
