<svg id="Layer_1" data-name="Layer 1" xmlns="http://www.w3.org/2000/svg" viewBox="0 0 50 50"><defs><style>.cls-1{fill:#fff;}</style></defs><title>menu-top-icon_vendas_w</title><path class="cls-1" d="M24.65,33.32a2,2,0,1,1-1.95,2h0a2,2,0,0,1,2-2h0m0-1.65a3.65,3.65,0,1,0,3.64,3.64h0a3.64,3.64,0,0,0-3.64-3.64Z"/><path class="cls-1" d="M35.46,33.32a2,2,0,1,1-2,2,2,2,0,0,1,2-2h0m0-1.65a3.65,3.65,0,1,0,3.65,3.65A3.64,3.64,0,0,0,35.44,31.67Z"/><path class="cls-1" d="M15.42,13.36l3,10.41c.58,2,1.12,4.07,1.74,6.08a1,1,0,0,0,1.12.82H38.74l.19-.15a1,1,0,0,0,.43-.71c.11-.73.2-1.45.3-2.18.44-3.05.89-6.07,1.33-9.17a1.33,1.33,0,0,0-.06-.45c-.17-.49-.47-.65-1.12-.65H37.66l-1.61-3.23L35.48,13v-.12a3.24,3.24,0,0,0-.17-.32,1,1,0,0,0-.74-.45,1.23,1.23,0,0,0-.74.21L28.47,16l-1.75,1.31H21.59c-.88,0-1.22.46-1.22,1s.35,1,1.22,1H38.47c.4,0,.51.12.46.52a3.5,3.5,0,0,1-.08.72c-.38,2.59-.76,5.17-1.12,7.76-.06.43-.15.52-.6.52H22.41c-.51,0-.57,0-.71-.56Q19.36,20.12,17.05,12A1.13,1.13,0,0,0,15.84,11H9.76A.93.93,0,0,0,9,12.09a.94.94,0,0,0,.73.73H15C15.22,12.91,15.3,13,15.42,13.36Zm14.69,4.06,2.66-1.84,1.3-.89.46,1,.88,1.8Z"/></svg>