<svg id="Layer_1" data-name="Layer 1" xmlns="http://www.w3.org/2000/svg" viewBox="0 0 100 40"><defs><style>.cls-1{fill:#73818f;}</style></defs><title>menu-left-icon_suporte</title><path class="cls-1" d="M40.16,29.84H39.07a6.42,6.42,0,0,1-6.57-6.56,6.42,6.42,0,0,1,6.57-6.57h1.09ZM38,19a4.21,4.21,0,0,0-3.28,4.26A4.2,4.2,0,0,0,38,27.53Z"/><path class="cls-1" d="M60.93,29.84H59.84V16.71h1.09a6.42,6.42,0,0,1,6.57,6.57A6.42,6.42,0,0,1,60.93,29.84ZM62,19v8.51a4.2,4.2,0,0,0,3.28-4.25A4.21,4.21,0,0,0,62,19Z"/><path class="cls-1" d="M63.12,32A1,1,0,0,1,62,33.12H58a3.29,3.29,0,1,0,0,2.18h4A3.21,3.21,0,0,0,65.31,32ZM55,35.31A1.09,1.09,0,1,1,56,34.22,1.09,1.09,0,0,1,55,35.31Z"/><path class="cls-1" d="M62,14.53H59.84a9.84,9.84,0,0,0-19.68,0H38a12,12,0,0,1,24.06,0Z"/></svg>