<?xml version="1.0" encoding="utf-8"?>
<!-- Generator: Adobe Illustrator 23.0.6, SVG Export Plug-In . SVG Version: 6.00 Build 0)  -->
<svg version="1.1" id="Layer_1" xmlns="http://www.w3.org/2000/svg" xmlns:xlink="http://www.w3.org/1999/xlink" x="0px" y="0px"
	 viewBox="0 0 100 40" style="enable-background:new 0 0 100 40;" xml:space="preserve">
<style type="text/css">
	.st0{fill:#73818F;}
</style>
<title>menu-left-icon_dias-especiais</title>
<g>
	<path class="st0" d="M57.2,2.5c1.2,0,2.4,0,3.6,0c0.5,0.1,1,0.4,1.3,0.9c0.1,0.3,0.2,0.6,0.2,0.9c0,0.6,0,1.1,0,1.7
		c0.8,0,1.6,0,2.3,0c0.4,0,0.8,0.1,1.1,0.2c1.3,0.4,2.1,1.6,2.1,3.1c0,8.3,0,16.7,0,25c0,2-1.3,3.3-3.3,3.3c-9.7,0-19.3,0-29,0
		c-0.1,0-0.1,0-0.2,0c-1.1-0.1-2.1-0.5-2.6-1.5c-0.2-0.4-0.3-0.9-0.5-1.3c0-8.6,0-17.2,0-25.9c0,0,0-0.1,0.1-0.1
		c0.3-1.5,1.1-2.4,2.6-2.6c0.7-0.1,1.5,0,2.2-0.1c0.2,0,0.4,0,0.6,0c0-0.6,0-1.2,0-1.8c0-0.7,0.3-1.2,0.9-1.5
		c0.2-0.1,0.4-0.1,0.5-0.2c1.2,0,2.4,0,3.6,0c1.2,0.4,1.5,0.8,1.5,2.1c0,0.5,0,0.9,0,1.4c3.8,0,7.6,0,11.4,0c0-0.6,0-1.2,0-1.8
		c0-0.7,0.3-1.2,0.9-1.5C56.8,2.6,57,2.6,57.2,2.5z M64.9,16.5c-10,0-19.9,0-29.9,0c0,0.1,0,0.2,0,0.3c0,5.8,0,11.6,0,17.4
		c0,0.4,0,0.4,0.5,0.4c9.7,0,19.3,0,29,0c0.4,0,0.4,0,0.4-0.4c0-5.8,0-11.6,0-17.4C64.9,16.7,64.9,16.6,64.9,16.5z M62.3,10.7
		c-2.2,0-4.4,0-6.5,0c0-0.6,0-1.2,0-1.8c-3.8,0-7.6,0-11.4,0c0,0.6,0,1.2,0,1.8c-2.2,0-4.4,0-6.6,0c0-0.6,0-1.2,0-1.8
		c-0.8,0-1.5,0-2.2,0c-0.4,0-0.4,0-0.4,0.4c0,1.8,0,3.5,0,5.3c0,0.1,0,0.2,0,0.3c10,0,19.9,0,29.8,0c0,0,0-0.1,0-0.1
		c0-1.8,0-3.7,0-5.5c0-0.2-0.1-0.3-0.3-0.3c-0.7,0-1.4,0-2.1,0c-0.1,0-0.1,0-0.2,0C62.3,9.5,62.3,10.1,62.3,10.7z M39.4,9
		c1.1,0,2.2,0,3.2,0c0-1.6,0-3.2,0-4.9c-1.1,0-2.2,0-3.2,0C39.4,5.8,39.4,7.4,39.4,9z M60.6,4.2c-1.1,0-2.2,0-3.2,0
		c0,1.6,0,3.3,0,4.9c1.1,0,2.1,0,3.2,0C60.6,7.4,60.6,5.8,60.6,4.2z"/>
</g>
<path class="st0" d="M53.8,26.5l0.8-0.6l2.3-1.7c0.3-0.2,0.4-0.4,0.4-0.7c0-0.3-0.1-0.5-0.2-0.7c-0.2-0.2-0.4-0.3-0.7-0.3l-3,0
	l-1.1,0l-0.6-1.8l-0.7-2.1c-0.1-0.4-0.5-0.7-0.9-0.7c0,0,0,0,0,0c-0.4,0-0.8,0.3-0.9,0.7l-0.3,1l-0.6,1.8l-0.3,0.9l-0.1,0.2l-0.6,0
	l-1.5,0l-0.6,0l-1,0l-0.4,0c-0.4,0-0.8,0.3-0.9,0.7c0,0,0,0.1,0,0.1v0.3c0,0,0,0,0,0.1c0.1,0.3,0.3,0.5,0.5,0.7
	c0.6,0.4,1.1,0.8,1.7,1.2c0.5,0.4,1,0.8,1.6,1.1c-0.4,1.2-0.8,2.5-1.2,3.7l-0.1,0.2c-0.1,0.3-0.1,0.6,0,0.8c0.1,0.2,0.3,0.4,0.6,0.5
	c0,0,0.1,0,0.1,0h0.2c0,0,0.1,0,0.1,0c0.1,0,0.1-0.1,0.2-0.1c0.1-0.1,0.3-0.1,0.4-0.2c0.8-0.6,1.6-1.2,2.4-1.7l0.8-0.6l0.2,0.2
	l0.8,0.6l0.6,0.4c0.6,0.4,1.1,0.8,1.7,1.2c0.1,0.1,0.2,0.1,0.3,0.2c0,0,0.1,0,0.1,0.1c0,0,0.1,0,0.1,0H54c0,0,0.1,0,0.1,0l0.1,0
	c0.5-0.2,0.8-0.7,0.6-1.2c0-0.1-0.1-0.2-0.1-0.3l0-0.1l-0.2-0.7c-0.3-1-0.6-2-1-3C53.6,26.6,53.6,26.6,53.8,26.5L53.8,26.5z
	 M51.5,26.2c0.3,0.8,0.5,1.6,0.8,2.4l0,0l0,0c-0.7-0.5-1.4-1-2-1.5c-0.1,0-0.1-0.1-0.3-0.1c-0.1,0-0.2,0-0.3,0.1
	c-0.7,0.5-1.3,1-2,1.5l0,0c0.3-0.8,0.5-1.6,0.8-2.4c0.1-0.2,0-0.4-0.1-0.5c-0.7-0.5-1.4-1-2-1.5l0,0c0.9,0,1.7,0,2.6,0c0,0,0,0,0,0
	c0.2,0,0.3-0.1,0.4-0.3c0.3-0.8,0.5-1.6,0.8-2.4c0.3,0.8,0.5,1.6,0.8,2.4c0.1,0.2,0.2,0.3,0.4,0.3c0.8,0,1.7,0,2.5,0l0.1,0l0,0
	c-0.7,0.5-1.4,1-2,1.5C51.5,25.9,51.5,26.1,51.5,26.2z M46,31.6L46,31.6C46,31.6,46,31.6,46,31.6L46,31.6z M49.9,29L49.9,29
	C49.9,29,49.9,29,49.9,29L49.9,29z"/>
</svg>
