<svg id="Layer_1" data-name="Layer 1" xmlns="http://www.w3.org/2000/svg" viewBox="0 0 100 40"><defs><style>.cls-1{fill:#73818f;}</style></defs><title>menu-left-icon_criar-comunicados</title><path class="cls-1" d="M53.64,3.27A10.89,10.89,0,1,1,42.76,14.15,10.9,10.9,0,0,1,53.64,3.27m0-3A13.89,13.89,0,1,0,67.53,14.15,13.88,13.88,0,0,0,53.64.27Z"/><path class="cls-1" d="M62.42,24.9v6c0,.46-.12.58-.57.58H53a1.7,1.7,0,0,0-1.65.91c-.72,1.21-1.5,2.37-2.27,3.55-.07.12-.15.32-.27.32a.54.54,0,0,1-.43,0,.82.82,0,0,1-.26-.32c-.81-1.28-1.63-2.55-2.43-3.83a1.2,1.2,0,0,0-1-.58h-9.2c-.46,0-.55-.07-.55-.55V13.72c0-.45.08-.54.56-.54h4.29a14,14,0,0,1,.38-2.43H35.37a4.27,4.27,0,0,0-.94.08,2.26,2.26,0,0,0-1.9,2.07.47.47,0,0,1-.06.15V31.72c.05.2.09.4.15.59A2.46,2.46,0,0,0,35.05,34h8.59a.71.71,0,0,1,.66.37c.84,1.34,1.71,2.65,2.53,4a2.48,2.48,0,0,0,1.6,1.35h.39l.3-.08a1.86,1.86,0,0,0,1.07-.81c.91-1.46,1.84-2.92,2.75-4.38a.87.87,0,0,1,.81-.46h8.81a2.4,2.4,0,0,0,2.27-2.54V22.35A13.55,13.55,0,0,1,62.42,24.9Z"/><path class="cls-1" d="M54.84,8.12V13h4.65v2.2H54.84v4.94H52.42V15.24H47.79V13h4.63V8.12Z"/></svg>