<?xml version="1.0" encoding="utf-8"?>
<!-- Generator: Adobe Illustrator 23.0.6, SVG Export Plug-In . SVG Version: 6.00 Build 0)  -->
<svg version="1.1" id="Layer_1" xmlns="http://www.w3.org/2000/svg" xmlns:xlink="http://www.w3.org/1999/xlink" x="0px" y="0px"
	 viewBox="0 0 50 50" style="enable-background:new 0 0 50 50;" xml:space="preserve">
<style type="text/css">
	.st0{fill:#333333;}
</style>
<title>icon_hora-a-hora</title>
<path class="st0" d="M24.5,27.9c-1,0-1.9-0.8-1.9-1.8l0,0c0-0.1,0-0.2,0-0.4c0.2-1.5,0.5-3.1,0.5-4.5c0.4-1.9,0.5-3.8,0.9-5.5
	c0.1-0.2,0.2-0.5,0.4-0.5c0.1,0.2,0.2,0.5,0.4,0.5c0.5,2.6,0.8,5.4,1.2,8c0.1,0.5,0.2,0.8,0.8,0.9c2.5,0.5,4.9,0.8,7.4,1.4
	c0.4,0.1,0.5,0.2,0.6,0.5c-0.3,0.1-0.6,0.4-0.7,0.4c-3.1,0.5-6.2,1-9.4,1.5L24.5,27.9z"/>
<path class="st0" d="M25,10c-8.4,0-15,6.6-15,15s6.6,15,15,15s15-6.6,15-15S33.4,10,25,10z M25,12.2C31.9,12,37.9,18.1,37.9,25
	C37.8,32.1,32,37.8,25,37.9C18,37.7,12.4,32,12.2,25C12.2,17.9,18,12.2,25,12.2z"/>
</svg>
