<svg id="Layer_1" data-name="Layer 1" xmlns="http://www.w3.org/2000/svg" viewBox="0 0 50 50"><defs><style>.cls-1{fill:#fff;}</style></defs><title>menu-top-icon_informacoes_w</title><path class="cls-1" d="M24.4,23.85l.11.08a2.83,2.83,0,0,1-.13.5c-.45,1.59-.94,3.16-1.31,4.77a22.76,22.76,0,0,0-.55,3.37A1.31,1.31,0,0,0,23.67,34h0a1.35,1.35,0,0,0,.53,0A3.36,3.36,0,0,0,25,33.8a13.13,13.13,0,0,0,3.29-2.65.5.5,0,0,0,0-.5c-.44-.83-.89-.83-1.56-.26a12.47,12.47,0,0,1-1,.84l-.34.22-.11-.06c.26-1.09.51-2.17.81-3.24.5-1.82,1-3.63,1.5-5.47a1,1,0,0,0-.6-1.32h-.33a4.23,4.23,0,0,0-1.65.26,8.66,8.66,0,0,0-3.37,2.65.43.43,0,0,0,0,.6l.11.09a3.57,3.57,0,0,1,.38.3c.35.32.61.25.93-.07S24,24.26,24.4,23.85Zm.8-5.94a1.42,1.42,0,0,0,1.33,1.46h.08a1.93,1.93,0,0,0,1.76-1.93A1.4,1.4,0,0,0,27,16h-.12a1.85,1.85,0,0,0-1.73,1.9Z"/><path class="cls-1" d="M24.4,23.85c-.45.41-.91.82-1.31,1.24s-.58.38-.93.06c-.1-.1-.25-.19-.37-.3a.42.42,0,0,1-.16-.57v0l.07-.07a8.54,8.54,0,0,1,3.37-2.58,4.05,4.05,0,0,1,1.65-.26,1,1,0,0,1,1,1h0a1.22,1.22,0,0,1,0,.33c-.47,1.83-1,3.65-1.49,5.47-.29,1.07-.54,2.16-.82,3.24l.1.07a2.64,2.64,0,0,0,.35-.23c.34-.29.68-.58,1-.83.66-.61,1.12-.55,1.55.24a.53.53,0,0,1,0,.52,13.17,13.17,0,0,1-3.29,2.65,4.92,4.92,0,0,1-.77.24,1.32,1.32,0,0,1-1.68-.81,1.28,1.28,0,0,1-.06-.61,21.46,21.46,0,0,1,.55-3.38c.38-1.6.88-3.17,1.31-4.76a2.19,2.19,0,0,1,.14-.5Z"/><path class="cls-1" d="M25.2,17.9A1.86,1.86,0,0,1,26.94,16a1.39,1.39,0,0,1,1.43,1.32v.08a1.94,1.94,0,0,1-1.74,2A1.41,1.41,0,0,1,25.2,18V17.9Z"/><path class="cls-1" d="M25,10.67A14.33,14.33,0,1,1,10.67,25.05,14.32,14.32,0,0,1,25,10.67M25,8.5A16.5,16.5,0,1,0,41.5,25,16.5,16.5,0,0,0,25,8.5Z"/></svg>