<svg id="Layer_1" data-name="Layer 1" xmlns="http://www.w3.org/2000/svg" viewBox="0 0 50 50"><defs><style>.cls-1{fill:#fff;}</style></defs><title>menu-top-icon_dre_w</title><path class="cls-1" d="M37.68,40H15.23a2.5,2.5,0,0,1-.44-.49.72.72,0,0,1,.47-.89.57.57,0,0,1,.29,0H24.3V25.7H11.36V37.1a1.36,1.36,0,0,0,1.17,1.53h.29a.69.69,0,0,1,.58.78.72.72,0,0,1-.24.42L13,40H12.2A2.71,2.71,0,0,1,10,37.28V12.79A2.72,2.72,0,0,1,12.63,10H37.27A2.75,2.75,0,0,1,40,12.16a.43.43,0,0,0,0,.16V37.68a.2.2,0,0,1-.06.18,2.73,2.73,0,0,1-1.73,2ZM24.3,24.3V11.36H12.88a1.36,1.36,0,0,0-1.52,1.19h0a1.93,1.93,0,0,0,0,.34V24.33Zm14.41,0V12.84a1.35,1.35,0,0,0-1.2-1.48H25.71V24.3Zm-13,14.34H37.16a1.35,1.35,0,0,0,1.49-1.2.57.57,0,0,0,0-.26V25.71H25.7Z"/><path class="cls-1" d="M18.79,32.21c.33.3.63.6.91.91L21,34.4a.7.7,0,0,1,.1,1,.69.69,0,0,1-1,.1l-.1-.1-2.23-2.22-.22.22-2,2a.71.71,0,0,1-.83.14.68.68,0,0,1-.34-.72,1.18,1.18,0,0,1,.28-.45c.73-.66,1.33-1.3,1.93-1.94.08-.07.16-.11.29-.22a5.34,5.34,0,0,1-.44-.39c-.61-.6-1.2-1.2-1.83-1.83a.67.67,0,0,1-.11-1h0a.71.71,0,0,1,1,0h0l2.09,2,.26.24c.18-.19.35-.38.53-.56L20,29.06a.67.67,0,0,1,.93-.21h0a.69.69,0,0,1,.21.95h0a1,1,0,0,1-.23.22L19,32S18.89,32.08,18.79,32.21Z"/><path class="cls-1" d="M17.79,17.16h3c.48,0,.78.25.78.66a.69.69,0,0,1-.69.7H14.77a.69.69,0,1,1-.09-1.37h3.11Z"/><path class="cls-1" d="M32.84,17.16h2.29c.5,0,.8.25.8.68s-.3.68-.81.69H32.85v2.4a.67.67,0,0,1-.62.7h0a.67.67,0,0,1-.68-.65h0v-2.4h-2.4a.69.69,0,0,1-.71-.66.67.67,0,0,1,.56-.7h2.48v-2.4a.7.7,0,0,1,.6-.76.69.69,0,0,1,.76.6.43.43,0,0,1,0,.16C32.85,15.55,32.84,16.33,32.84,17.16Z"/><path class="cls-1" d="M32.2,31.14H29.07a.69.69,0,0,1-.19-1.34,1.4,1.4,0,0,1,.29,0h6a.69.69,0,1,1,0,1.37h0Z"/><path class="cls-1" d="M32.13,33.19h3.11a.68.68,0,0,1,.69.59.69.69,0,0,1-.52.75H29.08a.68.68,0,0,1-.18-1.34h3.23Z"/></svg>