<svg id="Layer_1" data-name="Layer 1" xmlns="http://www.w3.org/2000/svg" viewBox="0 0 100 40"><defs><style>.cls-1{fill:#73818f;}</style></defs><title>menu-left-icon_estoque</title><path class="cls-1" d="M68,7.22a4.48,4.48,0,0,0-4.48,4.48,4.43,4.43,0,0,0,.58,2.2l-5.47,4.74A4.51,4.51,0,0,0,56,17.79a4.44,4.44,0,0,0-3.28,1.43L48.29,16.6a4.21,4.21,0,0,0,.21-1.33,4.48,4.48,0,1,0-9,0,4.4,4.4,0,0,0,.75,2.48l-6.07,6.67h0A4.37,4.37,0,0,0,32,23.82a4.49,4.49,0,1,0,3.58,1.79h0l6-6.6a4.37,4.37,0,0,0,2.45.74,4.49,4.49,0,0,0,3.41-1.58l4.37,2.59a4.69,4.69,0,0,0-.26,1.51A4.48,4.48,0,1,0,59.86,20l5.43-4.72a4.48,4.48,0,1,0,2.73-8ZM34.6,24.68h0ZM35,25h0Zm-3,6a2.69,2.69,0,1,1,2.69-2.69A2.7,2.7,0,0,1,32,31Zm3.29-5.72ZM44,18a2.69,2.69,0,1,1,2.68-2.68A2.68,2.68,0,0,1,44,18Zm12,7a2.69,2.69,0,1,1,2.69-2.69A2.7,2.7,0,0,1,56,25ZM68,14.39a2.69,2.69,0,1,1,2.69-2.69A2.7,2.7,0,0,1,68,14.39Z"/></svg>