<svg id="Layer_1" data-name="Layer 1" xmlns="http://www.w3.org/2000/svg" viewBox="0 0 50 50"><defs><style>.cls-1{fill:#fff;}</style></defs><title>menu-top-icon_rh_w</title><path class="cls-1" d="M7.72,41a.48.48,0,0,1-.07-.2,15.56,15.56,0,0,1,.34-5,3.54,3.54,0,0,1,2.27-2.4c1.28-.45,2.72-.76,4.08-1.17a10.62,10.62,0,0,0,1.7-.65c.83-.43.92-1,.55-1.84-.73-1.69-1.51-3.37-2.08-5.12a9.71,9.71,0,0,1-.21-5.84,6.78,6.78,0,0,1,6-5.12,8.18,8.18,0,0,1,4.74.81,6.77,6.77,0,0,1,3.7,5.41,14,14,0,0,1-1.28,7.26c-.35.84-.74,1.67-1.17,2.47-.5,1-.33,1.68.73,2.09s2.46.73,3.69,1.1c.52.15,1.06.28,1.58.46A4.06,4.06,0,0,1,35.15,37a2.7,2.7,0,0,0,.12.49V41Zm25.39-1.92v-2a2.07,2.07,0,0,0-1.56-1.86c-.53-.2-1.1-.28-1.65-.46a36.59,36.59,0,0,1-4.21-1.43,2.87,2.87,0,0,1-1.53-3.75l.11-.26c.15-.33.31-.66.49-1a15.41,15.41,0,0,0,2-7.68,5.11,5.11,0,0,0-1.35-3.4,5.43,5.43,0,0,0-5-1.46,4.64,4.64,0,0,0-4.08,3.66,10.53,10.53,0,0,0-.11,3.12,16.18,16.18,0,0,0,2,6,5.79,5.79,0,0,1,.54,1.28A2.65,2.65,0,0,1,17.63,33a20.35,20.35,0,0,1-3.25,1.33c-.9.31-1.84.45-2.78.7a2.13,2.13,0,0,0-1.7,1.48,20,20,0,0,0-.26,2.56Z"/><path class="cls-1" d="M18.27,28.55h0l.14.27Z"/><path class="cls-1" d="M42.29,32.39a4.11,4.11,0,0,0-2.85-3.71c-.54-.18-1.06-.31-1.59-.47a36.6,36.6,0,0,1-3.7-1.1C33,26.67,32.87,26,33.42,25c.41-.81.82-1.6,1.15-2.45a13.93,13.93,0,0,0,1.28-7.25,6.69,6.69,0,0,0-3.64-5.46,8.22,8.22,0,0,0-4.73-.8,6.94,6.94,0,0,0-4.63,2.43,12,12,0,0,1,2.29.59,5.08,5.08,0,0,1,2.42-.94,5.4,5.4,0,0,1,5,1.48A5.06,5.06,0,0,1,33.87,16a15.64,15.64,0,0,1-2,7.68c-.15.34-.33.66-.47,1a2.87,2.87,0,0,0,1.17,3.84l.24.12A38.34,38.34,0,0,0,37,30.12c.54.18,1.12.26,1.65.45a2.1,2.1,0,0,1,1.58,1.93v2H36.75a7.39,7.39,0,0,1,.55,1.9h5.12v-3.5A2.85,2.85,0,0,1,42.29,32.39Z"/><path class="cls-1" d="M15.22,34l-.5.17h0Z"/><path class="cls-1" d="M29.89,34.68l-.54-.16.54.16.2.06Z"/></svg>