<svg id="Layer_1" data-name="Layer 1" xmlns="http://www.w3.org/2000/svg" viewBox="0 0 100 40"><defs><style>.cls-1{fill:#73818f;}</style></defs><title>menu-left-icon_compras</title><path class="cls-1" d="M38.27,10H58a1.33,1.33,0,0,0,.64-1.35,17.25,17.25,0,0,0-.1-2.28,3.65,3.65,0,0,0-3.68-3.06q-4.85,0-9.69,0A3.72,3.72,0,0,0,41.4,7.21c0,.51,0,1,0,1.52A1.25,1.25,0,0,0,42,10H38.27Zm5.1-1.16V7.27a1.78,1.78,0,0,1,2-1.95c1.59,0,3.17,0,4.76,0s3.05,0,4.58,0a1.81,1.81,0,0,1,2,2c0,.49,0,1,0,1.48a1.16,1.16,0,0,0,.6,1.2H42.76A1.17,1.17,0,0,0,43.37,8.88Z"/><path class="cls-1" d="M65.08,10.16a1.92,1.92,0,0,0-1.77-.95H39c-.79,0-1.58,0-2.38,0a1.91,1.91,0,0,0-1.75,1,8,8,0,0,0-.36,7.39c0,.06.27.62.46,1v1.34h0v5.69h0v6h0v1.77a3.76,3.76,0,0,0,3.49,4,1.8,1.8,0,0,1,.22.06H61.26A8.74,8.74,0,0,0,63,37a3.64,3.64,0,0,0,2-3.34c0-.64,0-1.28,0-2h0V18.71a15.57,15.57,0,0,0,1-2.89A7.69,7.69,0,0,0,65.08,10.16ZM63,33.52a1.81,1.81,0,0,1-2,2H38.94A1.77,1.77,0,0,1,37,33.53V21.41c0-.13,0-.26,0-.47a18.51,18.51,0,0,0,9.67,4.17V27.4c0,1,.33,1.28,1.31,1.28,1.34,0,2.69,0,4,0,.94,0,1.29-.35,1.29-1.31V25.11A18.41,18.41,0,0,0,63,20.93a3.39,3.39,0,0,1,0,.37C63,25.37,63,29.44,63,33.52ZM48.7,26.67V22.25h2.62v4.42ZM63,18a12.29,12.29,0,0,1-6.13,4.25c-1.11.39-2.26.64-3.49,1V21.53c0-.92-.36-1.27-1.29-1.27H47.91c-.87,0-1.21.35-1.22,1.23V23a.9.9,0,0,1,0,.15,15.93,15.93,0,0,1-8.43-3.81,6.86,6.86,0,0,1-2.47-5,6.17,6.17,0,0,1,.63-2.73.61.61,0,0,1,.64-.4H62.94a.66.66,0,0,1,.7.45A5.94,5.94,0,0,1,63,18Z"/></svg>