<svg id="Layer_1" data-name="Layer 1" xmlns="http://www.w3.org/2000/svg" viewBox="0 0 100 40"><defs><style>.cls-1{fill:#73818f;}</style></defs><title>menu-left-icon_rh</title><path class="cls-1" d="M32.72,36a.56.56,0,0,1-.08-.2,15.79,15.79,0,0,1,.35-5,3.51,3.51,0,0,1,2.27-2.4c1.34-.45,2.73-.76,4.08-1.17a10.58,10.58,0,0,0,1.76-.65c.82-.43.91-1,.54-1.84-.73-1.69-1.5-3.37-2.08-5.1a9.74,9.74,0,0,1-.21-5.83,6.79,6.79,0,0,1,6-5.16,8.12,8.12,0,0,1,4.73.8,6.73,6.73,0,0,1,3.65,5.45,14,14,0,0,1-1.29,7.26c-.33.84-.74,1.64-1.14,2.45-.5,1-.34,1.68.72,2.08s2.46.74,3.69,1.1c.53.16,1.07.29,1.59.47A4.09,4.09,0,0,1,60.17,32c0,.16.08.32.11.48V36Zm25.4-1.9c0-.72,0-1.38,0-2a2.09,2.09,0,0,0-1.56-1.93c-.54-.2-1.11-.27-1.66-.45a36,36,0,0,1-4.21-1.44,2.86,2.86,0,0,1-1.41-4,10,10,0,0,1,.48-1,15.49,15.49,0,0,0,2-7.67,5.07,5.07,0,0,0-1.36-3.4,5.43,5.43,0,0,0-5-1.47,4.65,4.65,0,0,0-4.09,3.66,10.92,10.92,0,0,0-.11,3.13,16.17,16.17,0,0,0,2,6,6.94,6.94,0,0,1,.55,1.32A2.67,2.67,0,0,1,42.63,28a20.56,20.56,0,0,1-3.25,1.34c-.9.31-1.85.45-2.78.7a2.14,2.14,0,0,0-1.7,1.5,17.78,17.78,0,0,0-.24,2.57Z"/><path class="cls-1" d="M43.27,23.54h0l.14.28Z"/><path class="cls-1" d="M67.29,27.39a4.09,4.09,0,0,0-2.85-3.71c-.53-.18-1.06-.31-1.59-.47-1.24-.36-2.5-.65-3.7-1.1-1-.4-1.22-1.07-.72-2.08.4-.81.82-1.61,1.15-2.45a14.07,14.07,0,0,0,1.28-7.26,6.68,6.68,0,0,0-3.65-5.45,8.1,8.1,0,0,0-4.72-.8A6.89,6.89,0,0,0,47.85,6.5a11,11,0,0,1,2.3.59,5,5,0,0,1,2.37-.94,5.41,5.41,0,0,1,5,1.47A5.08,5.08,0,0,1,58.87,11a15.6,15.6,0,0,1-2,7.67c-.16.33-.34.65-.48,1a2.87,2.87,0,0,0,1.41,4A35.53,35.53,0,0,0,62,25.09c.54.18,1.11.26,1.65.45a2.1,2.1,0,0,1,1.57,1.93c0,.66,0,1.32,0,2H61.76a7.6,7.6,0,0,1,.54,1.9h5.1V27.87A4.15,4.15,0,0,1,67.29,27.39Z"/><path class="cls-1" d="M40.22,29l-.5.17h0Z"/><path class="cls-1" d="M54.89,29.68l-.53-.16.53.16a1.66,1.66,0,0,0,.21.06A1.66,1.66,0,0,1,54.89,29.68Z"/></svg>