<svg id="Layer_1" data-name="Layer 1" xmlns="http://www.w3.org/2000/svg" viewBox="0 0 50 50"><defs><style>.cls-1{fill:#fff;}</style></defs><title>menu-top-icon_compras_w</title><path class="cls-1" d="M14.69,16.25H32a1.21,1.21,0,0,0,.57-1.2,16.57,16.57,0,0,0-.09-2,3.21,3.21,0,0,0-3.24-2.69H20.75a3.26,3.26,0,0,0-3.31,3.19v1.57A1.09,1.09,0,0,0,18,16.24Zm4.48-1V13.85a1.58,1.58,0,0,1,1.39-1.71,1.15,1.15,0,0,1,.37,0h8.21a1.59,1.59,0,0,1,1.76,1.4,2,2,0,0,1,0,.35V15.2a1,1,0,0,0,.53,1.05H18.63a1,1,0,0,0,.54-1Z"/><path class="cls-1" d="M38.22,16.4a1.68,1.68,0,0,0-1.55-.84H13.24a1.68,1.68,0,0,0-1.54.89,7,7,0,0,0-.31,6.49,6.92,6.92,0,0,0,.39.88V25h0v5h0V35.3h0v1.55a3.3,3.3,0,0,0,3.07,3.52h20a7.5,7.5,0,0,0,1.53-.4,3.23,3.23,0,0,0,1.79-2.91V35.3h0V23.92a14.91,14.91,0,0,0,.85-2.6A6.79,6.79,0,0,0,38.22,16.4ZM36.43,36.94A1.59,1.59,0,0,1,35,38.69h0a1,1,0,0,1-.35,0H15.28a1.56,1.56,0,0,1-1.72-1.38,2.16,2.16,0,0,1,0-.36V25.87a16.24,16.24,0,0,0,8.5,3.67v2c0,.88.29,1.13,1.2,1.13h3.51c.83,0,1.14-.31,1.14-1.2V29.54a16.11,16.11,0,0,0,8.55-3.68,1.82,1.82,0,0,1,0,.33Zm-12.63-6V27h2.41v3.9ZM36.38,23.3A10.8,10.8,0,0,1,31,27c-1,.35-2,.56-3.06.87V26.39c0-.8-.31-1.12-1.14-1.12H23.16c-.76,0-1.06.32-1.07,1.08v1.47a14,14,0,0,1-7.41-3.35,6.08,6.08,0,0,1-2.18-4.35,5.56,5.56,0,0,1,.56-2.4.55.55,0,0,1,.56-.35H36.44a.56.56,0,0,1,.57.35,5.2,5.2,0,0,1-.58,5.57Z"/></svg>