<svg id="Layer_1" data-name="Layer 1" xmlns="http://www.w3.org/2000/svg" viewBox="0 0 100 40"><defs><style>.cls-1{fill:#73818f;}</style></defs><title>menu-left-icon_checklist</title><path class="cls-1" d="M39.49,2.5a2.78,2.78,0,0,1,2.69,2.25l2.16,9.69q1.56,7,3.11,14a1.67,1.67,0,0,1,0,.83c-.75,2.5-1.53,5-2.29,7.49a.91.91,0,0,1-.67.73.89.89,0,0,1-.87-.39c-1.75-2-3.51-3.88-5.25-5.83a1.91,1.91,0,0,1-.4-.79Q35.27,18.63,32.65,6.79a2.69,2.69,0,0,1,2-3.25l.06,0,4.16-.93C39.06,2.55,39.28,2.52,39.49,2.5Zm6.28,25.65c-1.51-6.77-3-13.5-4.52-20.27L34.88,9.3c1.52,6.78,3,13.52,4.53,20.28ZM40.87,6.3c-.09-.43-.18-.81-.26-1.19V5a1.11,1.11,0,0,0-1.32-.85c-1.4.3-2.8.61-4.19.94a1.11,1.11,0,0,0-.86,1.1,13.1,13.1,0,0,0,.28,1.52Zm4.66,23.58-5.2,1.17c.77.85,1.49,1.61,2.22,2.42a.44.44,0,0,0,.31.09c.49-.1,1-.2,1.47-.33a.33.33,0,0,0,.23-.19c.34-1,.65-2.05,1-3.16Z"/><path class="cls-1" d="M61.8,26.25l2.81-2.82A1.63,1.63,0,0,1,67,25.62v0c-1.35,1.39-2.73,2.77-4.12,4.12a1.56,1.56,0,0,1-2.16,0c-.68-.63-1.33-1.28-2-2a1.63,1.63,0,1,1,2.32-2.28C61.33,25.74,61.53,26,61.8,26.25Z"/><path class="cls-1" d="M61.77,16.37c1-1,1.9-1.92,2.84-2.84A1.63,1.63,0,0,1,67,15.7l0,0q-2,2.11-4.13,4.12a1.55,1.55,0,0,1-2.15,0c-.67-.62-1.32-1.27-2-1.94A1.63,1.63,0,1,1,61,15.59,6.74,6.74,0,0,1,61.77,16.37Z"/><path class="cls-1" d="M61.77,6.49l2.37-2.37.48-.49A1.63,1.63,0,1,1,66.92,6c-.83.84-1.67,1.66-2.5,2.5L63,9.84a1.61,1.61,0,0,1-2.28.16,1.21,1.21,0,0,1-.16-.16L58.87,8.15a1.64,1.64,0,0,1-.1-2.32l0,0a1.61,1.61,0,0,1,2.29,0l.08.09C61.38,6,61.56,6.26,61.77,6.49Z"/><path class="cls-1" d="M45,5.85h8.51c.21,0,.42,0,.63,0A1.57,1.57,0,0,1,54.06,9H46c-.22,0-.33,0-.38-.28C45.46,7.77,45.25,6.83,45,5.85Z"/><path class="cls-1" d="M47.21,15.76H54a1.62,1.62,0,0,1,1.65,1.52,1.56,1.56,0,0,1-1.5,1.62h-6c-.19,0-.28,0-.31-.26C47.64,17.68,47.42,16.77,47.21,15.76Z"/><path class="cls-1" d="M49.39,25.65h4.66a1.57,1.57,0,0,1,1.67,1.48,1.59,1.59,0,0,1-1.49,1.67H50.05Z"/></svg>