<svg id="Layer_1" data-name="Layer 1" xmlns="http://www.w3.org/2000/svg" viewBox="0 0 50 50"><defs><style>.cls-1{fill:#fff;}</style></defs><title>menu-top-icon_estoque_w</title><path class="cls-1" d="M46.19,13.85a3.05,3.05,0,0,0-.68-.56,3.67,3.67,0,0,0-2.82-.9v-.12a4.42,4.42,0,0,0-4.39,4.51,3.32,3.32,0,0,0,.45,1.81l-5.41,5a5,5,0,0,0-2.48-.79,4.27,4.27,0,0,0-3.16,1.35l-4.4-3a4.59,4.59,0,0,0-3-5.08,4.41,4.41,0,0,0-5.53,2.93,5,5,0,0,0-.22,1.24,4.68,4.68,0,0,0,.56,2.15l-6,6.87a4,4,0,0,0-2-.56A4.5,4.5,0,0,0,2.56,33,4.58,4.58,0,0,0,7,37.53a4.58,4.58,0,0,0,4.51-4.4,4,4,0,0,0-.79-2.48l5.87-6.76a4,4,0,0,0,2.25.67A4.21,4.21,0,0,0,22.17,23l.34.23,3.95,2.7A3.94,3.94,0,0,0,26.35,27a4.45,4.45,0,1,0,8.9.11,4.17,4.17,0,0,0-.56-2l5.41-4.85a4.42,4.42,0,0,0,6.2-.23A4.33,4.33,0,0,0,46.19,13.85ZM7,36H7a2.71,2.71,0,0,1,0-5.41A2.71,2.71,0,1,1,7,36Zm12-13h0a2.71,2.71,0,1,1,2.71-2.7A2.82,2.82,0,0,1,18.9,23Zm11.84,7Zm0,0a2.58,2.58,0,0,1-2.59-2.7,2.71,2.71,0,1,1,5.41,0A2.92,2.92,0,0,1,30.74,30ZM42.92,19.6Zm0,0a2.71,2.71,0,1,1,2.71-2.7h0A2.74,2.74,0,0,1,42.92,19.6Z"/></svg>