<?xml version="1.0" encoding="utf-8"?>
<!-- Generator: Adobe Illustrator 23.0.6, SVG Export Plug-In . SVG Version: 6.00 Build 0)  -->
<svg version="1.1" id="Layer_1" xmlns="http://www.w3.org/2000/svg" xmlns:xlink="http://www.w3.org/1999/xlink" x="0px" y="0px"
	 viewBox="0 0 200 200" style="enable-background:new 0 0 200 200;" xml:space="preserve">
<style type="text/css">
	.st0{fill:#DDDDDD;}
	.st1{fill:#AAAAAA;}
</style>
<title>img-input-file</title>
<path class="st0" d="M59.1,75.3c0.4-1.4,0.9-2.8,1.5-4.1c1.8-3.1,5.1-5,8.7-5c2.7-0.1,5.4,0,8.2,0c0.5,0.1,1-0.2,1.2-0.7
	c1.3-2.6,2.6-5.3,3.9-7.9c1.4-3.1,4.6-5.1,8-5c6.2,0,12.4,0,18.7,0c3.2-0.1,6.1,1.6,7.6,4.4c1,1.5,0.5,3.5-0.9,4.4
	c-1.5,1-3.5,0.5-4.4-0.9c-0.1-0.1-0.1-0.2-0.2-0.3c-0.4-0.8-1.2-1.3-2.1-1.3H90.4c-1,0-1.9,0.6-2.3,1.6c-1.3,2.6-2.6,5.3-3.9,7.9
	c-1.1,2.7-3.8,4.3-6.7,4.2c-2.5,0-5.1,0-7.6,0c-2.8,0-4.4,1.6-4.4,4.4c0,11.6,0,23.3,0,34.9c0,2.7,1.7,4.3,4.4,4.3h60.3
	c2.2,0.2,4.2-1.4,4.4-3.6c0-0.3,0-0.5,0-0.8V76.9c0.2-2.2-1.4-4.2-3.6-4.4c-0.3,0-0.5,0-0.8,0h-17.2c-2.2,0-3.6-1.3-3.5-3.2
	c0-1.7,1.3-3.1,3-3.1c6.3,0,12.6-0.1,18.8,0c5.1,0.3,9.2,4.3,9.6,9.4c0,0.3,0.1,0.6,0.1,0.9v35.7c0,0.3-0.1,0.5-0.1,0.8
	c-0.4,4.3-3.4,7.9-7.6,9.1c-0.9,0.2-1.8,0.4-2.6,0.5H69.4c-0.3,0-0.6-0.1-0.8-0.1c-4.3-0.3-8-3.4-9.2-7.6c-0.1-0.5-0.2-1-0.4-1.5
	V75.3z"/>
<path class="st0" d="M81.5,92.1c0-10.2,8.2-18.4,18.4-18.4s18.4,8.2,18.4,18.4c0,10.2-8.2,18.4-18.4,18.4
	C89.8,110.5,81.6,102.2,81.5,92.1z M87.9,92.1c0,6.6,5.4,12,12,12c6.6,0,12-5.4,12-12c0-6.6-5.3-11.9-11.9-12
	C93.4,80,88,85.4,87.9,92.1L87.9,92.1z"/>
<path class="st0" d="M126.5,76.3c2,0,3.7,1.6,3.7,3.6c0,2-1.6,3.7-3.6,3.7c-2,0-3.7-1.6-3.7-3.6c0-2,1.5-3.7,3.5-3.7
	C126.5,76.3,126.5,76.3,126.5,76.3z"/>
<path class="st0" d="M180,0h-5c-0.6,0-1,0.4-1,1s0.4,1,1,1h5c0.1,0,0.2,0,0.3,0c0.1,0,0.2,0.1,0.3,0.1c1.5,0,3,0.3,4.4,0.7
	c0.1,0,0.2,0,0.3,0c0.6,0.1,1.1-0.3,1.1-0.9c0.1-0.6-0.3-1.1-0.9-1.1c-0.8-0.2-1.5-0.4-2.3-0.5l0,0h-0.1h-2.6c-0.1,0-0.2,0-0.3,0
	C180.2,0.1,180.1,0,180,0z M170,0h-5c-0.6,0-1,0.4-1,1s0.4,1,1,1h5c0.6,0,1-0.4,1-1S170.6,0,170,0z M160,0h-5c-0.6,0-1,0.4-1,1
	s0.4,1,1,1h5c0.6,0,1-0.4,1-1S160.6,0,160,0z M150,0h-5c-0.6,0-1,0.4-1,1s0.4,1,1,1h5c0.6,0,1-0.4,1-1S150.6,0,150,0z M140,0h-5
	c-0.6,0-1,0.4-1,1s0.4,1,1,1h5c0.6,0,1-0.4,1-1S140.6,0,140,0z M130,0h-5c-0.6,0-1,0.4-1,1s0.4,1,1,1h5c0.6,0,1-0.4,1-1
	S130.6,0,130,0z M120,0h-5c-0.6,0-1,0.4-1,1s0.4,1,1,1h5c0.6,0,1-0.4,1-1S120.6,0,120,0z M110,0h-5c-0.6,0-1,0.4-1,1s0.4,1,1,1h5
	c0.6,0,1-0.4,1-1S110.6,0,110,0z M100,0h-5c-0.6,0-1,0.4-1,1s0.4,1,1,1h5c0.6,0,1-0.4,1-1S100.6,0,100,0z M90,0h-5c-0.6,0-1,0.4-1,1
	s0.4,1,1,1h5c0.6,0,1-0.4,1-1S90.6,0,90,0z M80,0h-5c-0.6,0-1,0.4-1,1s0.4,1,1,1h5c0.6,0,1-0.4,1-1S80.6,0,80,0z M70,0h-5
	c-0.6,0-1,0.4-1,1s0.4,1,1,1h5c0.6,0,1-0.4,1-1S70.6,0,70,0z M60,0h-5c-0.6,0-1,0.4-1,1s0.4,1,1,1h5c0.6,0,1-0.4,1-1S60.6,0,60,0z
	 M50,0h-5c-0.6,0-1,0.4-1,1s0.4,1,1,1h5c0.6,0,1-0.4,1-1S50.6,0,50,0z M40,0h-5c-0.6,0-1,0.4-1,1s0.4,1,1,1h5c0.6,0,1-0.4,1-1
	S40.6,0,40,0z M30,0h-5c-0.6,0-1,0.4-1,1s0.4,1,1,1h5c0.6,0,1-0.4,1-1S30.6,0,30,0z M20,0h-1.5c-1.2,0.1-2.3,0.3-3.5,0.6
	c-0.6,0.1-0.9,0.6-0.9,1.1s0.6,0.9,1.1,0.9c0.1,0,0.2,0,0.2,0C17,2.2,18.5,2,20,2c0.6,0,1-0.4,1-1S20.6,0,20,0z M10.9,2.3
	c-0.2,0-0.3,0-0.5,0.1l0,0h-0.1l0,0l0,0l0,0l0,0l0,0h-0.1l0,0l0,0l0,0l0,0H9.9l0,0l0,0l0,0l0,0l0,0l0,0l0,0l0,0l0,0l0,0l0,0l0,0l0,0
	l0,0L9.4,3l0,0l0,0l0,0l0,0l0,0C8.6,3.5,7.8,4.1,7,4.8l0,0l0,0l0,0l0,0l0,0l0,0H6.7l0,0l0,0L6.4,5.1C6,5.5,6,6.1,6.4,6.5
	c0.4,0.4,1,0.4,1.4,0c1.1-0.9,2.3-1.7,3.5-2.3c0.5-0.3,0.7-0.9,0.4-1.4C11.6,2.5,11.3,2.3,10.9,2.3z M4,8.7c-0.3,0-0.7,0.2-0.8,0.5
	c-0.7,1.1-1.3,2.3-1.8,3.5l0,0l0,0H1.3v0.1l0,0C1.2,13,1.1,13.2,1,13.5c-0.3,0.5-0.2,1.1,0.3,1.4C1.4,14.9,1.5,15,1.6,15
	c0.1,0,0.2,0,0.4,0c0.4,0,0.8-0.3,0.9-0.7c0.5-1.4,1.1-2.8,1.9-4.1C5.2,9.8,5,9.2,4.6,8.9C4.4,8.8,4.2,8.7,4,8.7z M1,17.6
	c-0.5,0-1,0.4-1,0.9c0,0,0,0.1,0,0.2l0,0l0,0l0,0l0,0l0,0l0,0l0,0l0,0l0,0v0.7l0,0l0,0l0,0l0,0l0,0l0,0l0,0l0,0l0,0l0,0l0,0l0,0l0,0
	l0,0l0,0l0,0l0,0l0,0l0,0l0,0l0,0l0,0l0,0l0,0l0,0l0,0l0,0V23c0,0.6,0.4,1,1,1s1-0.4,1-1v-3c0-0.4,0-0.9,0-1.3
	C2,18.2,1.6,17.7,1,17.6L1,17.6z M1,27.6c-0.6,0-1,0.4-1,1v5c0,0.6,0.4,1,1,1s1-0.4,1-1v-5C2,28,1.6,27.6,1,27.6z M1,37.6
	c-0.6,0-1,0.4-1,1v5c0,0.6,0.4,1,1,1s1-0.4,1-1v-5C2,38,1.6,37.6,1,37.6z M1,47.6c-0.6,0-1,0.4-1,1v5c0,0.6,0.4,1,1,1s1-0.4,1-1v-5
	C2,48,1.6,47.6,1,47.6z M1,57.6c-0.6,0-1,0.4-1,1v5c0,0.6,0.4,1,1,1s1-0.4,1-1v-5C2,58,1.6,57.6,1,57.6z M1,67.6c-0.6,0-1,0.4-1,1v5
	c0,0.6,0.4,1,1,1s1-0.4,1-1v-5C2,68,1.6,67.6,1,67.6z M1,77.6c-0.6,0-1,0.4-1,1v5c0,0.6,0.4,1,1,1s1-0.4,1-1v-5
	C2,78,1.6,77.6,1,77.6z M1,87.6c-0.6,0-1,0.4-1,1v5c0,0.6,0.4,1,1,1s1-0.4,1-1v-5C2,88,1.6,87.6,1,87.6z M1,97.6c-0.6,0-1,0.4-1,1v5
	c0,0.6,0.4,1,1,1s1-0.4,1-1v-5C2,98,1.6,97.6,1,97.6z M1,107.6c-0.6,0-1,0.4-1,1v5c0,0.6,0.4,1,1,1s1-0.4,1-1v-5
	C2,108,1.6,107.6,1,107.6z M1,117.6c-0.6,0-1,0.4-1,1v5c0,0.6,0.4,1,1,1s1-0.4,1-1v-5C2,118,1.6,117.6,1,117.6z M1,127.6
	c-0.6,0-1,0.4-1,1v5c0,0.6,0.4,1,1,1s1-0.4,1-1v-5C2,128,1.6,127.6,1,127.6z M1,137.6c-0.6,0-1,0.4-1,1v5c0,0.6,0.4,1,1,1s1-0.4,1-1
	v-5C2,138,1.6,137.6,1,137.6z M1,147.6c-0.6,0-1,0.4-1,1v5c0,0.6,0.4,1,1,1s1-0.4,1-1v-5C2,148,1.6,147.6,1,147.6z M1,157.6
	c-0.6,0-1,0.4-1,1v5c0,0.6,0.4,1,1,1s1-0.4,1-1v-5C2,158,1.6,157.6,1,157.6z M1,167.6c-0.6,0-1,0.4-1,1v5c0,0.6,0.4,1,1,1s1-0.4,1-1
	v-5C2,168,1.6,167.6,1,167.6z M1,177.6c-0.6,0-1,0.4-1,1v1.4l0,0l0,0l0,0l0,0l0,0l0,0l0,0l0,0l0,0l0,0l0,0l0,0l0,0l0,0l0,0l0,0l0,0
	l0,0l0,0l0,0l0,0l0,0l0,0l0,0l0,0l0,0l0,0l0,0l0,0l0,0l0,0l0,0l0,0l0,0l0,0v0.1l0,0l0,0l0,0v1.9l0,0c0.1,0.5,0.1,1,0.2,1.5
	c0.1,0.5,0.5,0.8,1,0.8h0.2c0.5-0.1,0.9-0.6,0.8-1.2C2,182.1,2,181.1,2,180v-1.4C2,178,1.6,177.6,1,177.6z M2.7,186.9
	c-0.1,0-0.3,0-0.4,0.1c-0.5,0.2-0.7,0.8-0.5,1.3c0,0,0,0,0,0c0.6,1.2,1.2,2.3,2,3.4l0,0l0,0h0.1l0,0l0,0l0,0H4l0.5,0.6
	c0.2,0.2,0.5,0.4,0.8,0.4c0.2,0,0.5-0.1,0.6-0.2c0.3-0.3,0.4-0.8,0.1-1.2c-0.9-1.2-1.7-2.4-2.4-3.8C3.5,187.1,3.1,186.9,2.7,186.9
	L2.7,186.9z M8.6,194.2c-0.3,0-0.6,0.1-0.8,0.4c-0.3,0.4-0.2,1,0.2,1.4l0,0l0,0l0,0l0,0h0.2l0,0l0,0l0,0l0,0l0,0l0,0l0,0l0,0
	c0.3,0.2,0.6,0.4,0.9,0.6l0,0h0.1l0,0h0.1l0,0l0,0l0,0l0,0l0,0l0,0h0.1l0,0h0.3l0,0l0,0h0.1l0,0c0.6,0.4,1.3,0.7,2,1
	c0.1,0,0.3,0.1,0.4,0.1c0.6,0,1-0.5,1-1c0-0.4-0.2-0.8-0.6-0.9c-1.4-0.6-2.7-1.3-3.9-2.2c-0.2-0.1-0.4-0.2-0.6-0.2L8.6,194.2z
	 M17.3,197.8c-0.6,0-1,0.4-1.1,0.9c0,0.6,0.4,1,0.9,1.1l1.1,0.1h3.9c0.6,0,1-0.4,1-1s-0.4-1-1-1H20c-0.9,0-1.7-0.1-2.5-0.2
	L17.3,197.8z M32.2,198h-5c-0.6,0-1,0.4-1,1s0.4,1,1,1h5c0.6,0,1-0.4,1-1S32.7,198,32.2,198z M42.2,198h-5c-0.6,0-1,0.4-1,1
	s0.4,1,1,1h5c0.6,0,1-0.4,1-1S42.7,198,42.2,198z M52.2,198h-5c-0.6,0-1,0.4-1,1s0.4,1,1,1h5c0.6,0,1-0.4,1-1S52.7,198,52.2,198z
	 M62.2,198h-5c-0.6,0-1,0.4-1,1s0.4,1,1,1h5c0.6,0,1-0.4,1-1S62.7,198,62.2,198z M72.2,198h-5c-0.6,0-1,0.4-1,1s0.4,1,1,1h5
	c0.6,0,1-0.4,1-1S72.7,198,72.2,198z M82.2,198h-5c-0.6,0-1,0.4-1,1s0.4,1,1,1h5c0.6,0,1-0.4,1-1S82.7,198,82.2,198z M92.2,198h-5
	c-0.6,0-1,0.4-1,1s0.4,1,1,1h5c0.6,0,1-0.4,1-1S92.7,198,92.2,198z M102.2,198h-5c-0.6,0-1,0.4-1,1s0.4,1,1,1h5c0.6,0,1-0.4,1-1
	S102.7,198,102.2,198z M112.2,198h-5c-0.6,0-1,0.4-1,1s0.4,1,1,1h5c0.6,0,1-0.4,1-1S112.7,198,112.2,198z M122.2,198h-5
	c-0.6,0-1,0.4-1,1s0.4,1,1,1h5c0.6,0,1-0.4,1-1S122.7,198,122.2,198z M132.2,198h-5c-0.6,0-1,0.4-1,1s0.4,1,1,1h5c0.6,0,1-0.4,1-1
	S132.7,198,132.2,198z M142.2,198h-5c-0.6,0-1,0.4-1,1s0.4,1,1,1h5c0.6,0,1-0.4,1-1S142.7,198,142.2,198z M152.2,198h-5
	c-0.6,0-1,0.4-1,1s0.4,1,1,1h5c0.6,0,1-0.4,1-1S152.7,198,152.2,198z M162.2,198h-5c-0.6,0-1,0.4-1,1s0.4,1,1,1h5c0.6,0,1-0.4,1-1
	S162.7,198,162.2,198z M172.2,198h-5c-0.6,0-1,0.4-1,1s0.4,1,1,1h5c0.6,0,1-0.4,1-1S172.7,198,172.2,198z M182.1,197.9h-0.1
	c-0.6,0.1-1.3,0.1-1.9,0.1h-2.8c-0.6,0-1,0.4-1,1s0.4,1,1,1h3.6l0.9-0.1h0.2h0.4c0.5-0.1,0.9-0.6,0.9-1.1c0,0,0,0,0,0
	C183,198.3,182.6,197.9,182.1,197.9L182.1,197.9z M190.9,194.6c-0.2,0-0.4,0.1-0.6,0.2c-1.2,0.9-2.6,1.6-4,2.1
	c-0.5,0.2-0.8,0.8-0.6,1.3c0.1,0.4,0.5,0.7,0.9,0.7c0.1,0,0.2,0,0.4-0.1l0.8-0.3l0,0h0.1l0,0h0.1h0.1l0,0h0.3l0,0h0.1l0,0l0,0
	c1-0.5,2-1,2.9-1.7c0.5-0.3,0.6-0.9,0.2-1.4c-0.2-0.3-0.5-0.4-0.8-0.4L190.9,194.6z M197,187.5c-0.4,0-0.7,0.2-0.9,0.6
	c-0.7,1.3-1.5,2.6-2.5,3.7c-0.4,0.4-0.3,1,0.1,1.4c0.2,0.2,0.4,0.2,0.6,0.2c0.3,0,0.6-0.1,0.8-0.4c0.4-0.4,0.7-0.9,1.1-1.3l0,0l0,0
	l0,0l0,0l0,0v-0.1l0,0l0,0l0,0l0,0l0,0l0,0l0,0l0,0l0,0l0,0h0.2l0,0l0,0l0,0l0,0l0,0l0,0l0,0l0,0l0,0l0,0l0,0l0,0l0,0l0,0l0,0l0,0
	l0,0l0,0v-0.1l0,0c0.3-0.5,0.6-1.1,0.9-1.6c0.2-0.5,0.1-1.1-0.4-1.3c-0.1-0.1-0.3-0.1-0.4-0.1L197,187.5z M199,178.3
	c-0.6,0-1,0.4-1,1v0.7c0,1.3-0.1,2.6-0.4,3.8c-0.1,0.5,0.2,1.1,0.8,1.2h0.2c0.5,0,0.9-0.3,1-0.8c0.2-1.1,0.4-2.2,0.4-3.3l0,0l0,0
	l0,0l0,0l0,0l0,0l0,0v-0.1l0,0l0,0l0,0l0,0l0,0V180c0-0.6-0.4-1-1-1L199,178.3z M199,168.3c-0.6,0-1,0.4-1,1v5c0,0.6,0.4,1,1,1
	s1-0.4,1-1v-5C200,168.7,199.6,168.3,199,168.3z M199,158.3c-0.6,0-1,0.4-1,1v5c0,0.6,0.4,1,1,1s1-0.4,1-1v-5
	C200,158.7,199.6,158.3,199,158.3z M199,148.3c-0.6,0-1,0.4-1,1v5c0,0.6,0.4,1,1,1s1-0.4,1-1v-5C200,148.7,199.6,148.3,199,148.3z
	 M199,138.3c-0.6,0-1,0.4-1,1v5c0,0.6,0.4,1,1,1s1-0.4,1-1v-5C200,138.7,199.6,138.3,199,138.3z M199,128.3c-0.6,0-1,0.4-1,1v5
	c0,0.6,0.4,1,1,1s1-0.4,1-1v-5C200,128.7,199.6,128.3,199,128.3z M199,118.3c-0.6,0-1,0.4-1,1v5c0,0.6,0.4,1,1,1s1-0.4,1-1v-5
	C200,118.7,199.6,118.3,199,118.3z M199,108.3c-0.6,0-1,0.4-1,1v5c0,0.6,0.4,1,1,1s1-0.4,1-1v-5C200,108.7,199.6,108.3,199,108.3z
	 M199,98.3c-0.6,0-1,0.4-1,1v5c0,0.6,0.4,1,1,1s1-0.4,1-1v-5C200,98.7,199.6,98.3,199,98.3z M199,88.3c-0.6,0-1,0.4-1,1v5
	c0,0.6,0.4,1,1,1s1-0.4,1-1v-5C200,88.7,199.6,88.3,199,88.3z M199,78.3c-0.6,0-1,0.4-1,1v5c0,0.6,0.4,1,1,1s1-0.4,1-1v-5
	C200,78.7,199.6,78.3,199,78.3z M199,68.3c-0.6,0-1,0.4-1,1v5c0,0.6,0.4,1,1,1s1-0.4,1-1v-5C200,68.7,199.6,68.3,199,68.3z
	 M199,58.3c-0.6,0-1,0.4-1,1v5c0,0.6,0.4,1,1,1s1-0.4,1-1v-5C200,58.7,199.6,58.3,199,58.3z M199,48.3c-0.6,0-1,0.4-1,1v5
	c0,0.6,0.4,1,1,1s1-0.4,1-1v-5C200,48.7,199.6,48.3,199,48.3z M199,38.3c-0.6,0-1,0.4-1,1v5c0,0.6,0.4,1,1,1s1-0.4,1-1v-5
	C200,38.7,199.6,38.3,199,38.3z M199,28.3c-0.6,0-1,0.4-1,1v5c0,0.6,0.4,1,1,1s1-0.4,1-1v-5C200,28.7,199.6,28.3,199,28.3z
	 M199,18.3L199,18.3c-0.6,0-1,0.4-1,1c0,0.2,0,0.5,0,0.7v4.3c0,0.6,0.4,1,1,1s1-0.4,1-1V20l0,0l0,0l0,0l0,0l0,0l0,0l0,0l0,0l0,0l0,0
	l0,0v0l0,0c0-0.2,0-0.4,0-0.5c0-0.6-0.4-1-1-1V18.3z M196.4,9.3c-0.2,0-0.4,0-0.5,0.1c-0.5,0.3-0.6,0.9-0.4,1.4
	c0.8,1.3,1.4,2.7,1.8,4.1c0.1,0.4,0.5,0.7,1,0.7c0.1,0,0.2,0,0.3,0c0.5-0.2,0.8-0.7,0.7-1.2c-0.4-1.3-0.9-2.5-1.5-3.6l0,0v-0.1l0,0
	l0,0l0,0l0,0l0,0l0,0h-0.1l0,0l0,0l0,0l0,0l0,0l0,0l0,0l0,0l0,0l0,0v-0.1l0,0l-0.2-0.4c-0.2-0.3-0.5-0.5-0.9-0.5L196.4,9.3z
	 M189.7,2.6c-0.4,0-0.7,0.2-0.9,0.5c-0.3,0.5-0.1,1.1,0.4,1.4c1.3,0.8,2.5,1.7,3.6,2.8c0.4,0.4,1,0.4,1.4,0c0.4-0.4,0.4-1,0-1.4
	c-0.2-0.2-0.4-0.3-0.5-0.5l0,0l0,0l0,0l0,0l0,0l0,0l0,0l0,0h-0.1l0,0H193l0,0l0,0l0,0l0,0l0,0l0,0l0,0l0,0l0,0h-0.1l0,0l0,0l0,0l0,0
	l0,0l0,0l0,0l0,0l0,0l0,0l0,0l0,0l0,0l0,0l0,0l0,0l0,0l0,0l0,0l0,0l0,0l0,0l0,0l0,0l0,0l0,0l0,0l0,0l0,0h-0.1l0,0h-0.1l0,0h-0.1l0,0
	l0,0l0,0h-0.1l0,0l0,0l0,0l0,0l0,0l0,0l0,0h-0.1l0,0l0,0l0,0l0,0l0,0l0,0h-0.1l0,0c-0.3-0.2-0.6-0.4-0.9-0.5
	c-0.1-0.1-0.3-0.1-0.5-0.1L189.7,2.6z"/>
<g>
	<path class="st1" d="M84.4,142.7v3.4h3.3v1.1h-3.3v3.4h-1.2v-3.4H80v-1.1h3.2v-3.4H84.4z"/>
	<path class="st1" d="M93.1,152.1v-6.9l-0.9-0.1c-0.1,0-0.2-0.1-0.3-0.1c-0.1-0.1-0.1-0.1-0.1-0.2v-0.6h1.3v-0.8
		c0-0.5,0.1-0.9,0.2-1.2c0.1-0.4,0.3-0.7,0.6-0.9s0.5-0.4,0.9-0.6c0.3-0.1,0.7-0.2,1.2-0.2c0.4,0,0.7,0.1,1,0.2l0,0.7
		c0,0.1-0.1,0.2-0.1,0.2c-0.1,0-0.2,0-0.4,0h-0.2c-0.2,0-0.5,0-0.7,0.1c-0.2,0.1-0.4,0.2-0.5,0.3c-0.1,0.1-0.3,0.3-0.3,0.6
		c-0.1,0.2-0.1,0.5-0.1,0.9v0.7h2.3v1h-2.3v6.9H93.1z"/>
	<path class="st1" d="M101.4,143.8c0.6,0,1.1,0.1,1.6,0.3s0.9,0.5,1.2,0.8c0.3,0.4,0.6,0.8,0.8,1.3s0.3,1.1,0.3,1.7
		c0,0.6-0.1,1.2-0.3,1.7s-0.4,0.9-0.8,1.3c-0.3,0.4-0.7,0.6-1.2,0.8c-0.5,0.2-1,0.3-1.6,0.3c-0.6,0-1.1-0.1-1.6-0.3
		c-0.5-0.2-0.9-0.5-1.2-0.8c-0.3-0.4-0.6-0.8-0.8-1.3c-0.2-0.5-0.3-1.1-0.3-1.7c0-0.6,0.1-1.2,0.3-1.7c0.2-0.5,0.4-1,0.8-1.3
		c0.3-0.4,0.7-0.6,1.2-0.8S100.9,143.8,101.4,143.8z M101.4,151.1c0.8,0,1.4-0.3,1.8-0.8c0.4-0.5,0.6-1.3,0.6-2.2
		c0-1-0.2-1.7-0.6-2.3c-0.4-0.5-1-0.8-1.8-0.8c-0.4,0-0.8,0.1-1.1,0.2s-0.5,0.3-0.7,0.6c-0.2,0.3-0.3,0.6-0.4,1
		c-0.1,0.4-0.1,0.8-0.1,1.3c0,0.5,0,0.9,0.1,1.3s0.2,0.7,0.4,1s0.4,0.5,0.7,0.6S101,151.1,101.4,151.1z"/>
	<path class="st1" d="M109.5,152.2c-0.6,0-1.1-0.2-1.5-0.5c-0.3-0.4-0.5-0.9-0.5-1.5v-5h-1c-0.1,0-0.2,0-0.2-0.1s-0.1-0.1-0.1-0.2
		v-0.6l1.3-0.2l0.3-2.5c0-0.1,0-0.1,0.1-0.2s0.1-0.1,0.2-0.1h0.7v2.8h2.3v1H109v4.9c0,0.3,0.1,0.6,0.2,0.8s0.4,0.2,0.6,0.2
		c0.1,0,0.3,0,0.4-0.1s0.2-0.1,0.3-0.1c0.1,0,0.1-0.1,0.2-0.1c0.1,0,0.1-0.1,0.1-0.1c0.1,0,0.1,0,0.2,0.1l0.4,0.7
		c-0.2,0.2-0.5,0.4-0.9,0.5C110.2,152.1,109.9,152.2,109.5,152.2z"/>
	<path class="st1" d="M116.3,143.8c0.6,0,1.1,0.1,1.6,0.3s0.9,0.5,1.2,0.8c0.3,0.4,0.6,0.8,0.8,1.3s0.3,1.1,0.3,1.7
		c0,0.6-0.1,1.2-0.3,1.7s-0.4,0.9-0.8,1.3c-0.3,0.4-0.7,0.6-1.2,0.8c-0.5,0.2-1,0.3-1.6,0.3c-0.6,0-1.1-0.1-1.6-0.3
		c-0.5-0.2-0.9-0.5-1.2-0.8c-0.3-0.4-0.6-0.8-0.8-1.3s-0.3-1.1-0.3-1.7c0-0.6,0.1-1.2,0.3-1.7s0.4-1,0.8-1.3
		c0.3-0.4,0.7-0.6,1.2-0.8S115.7,143.8,116.3,143.8z M116.3,151.1c0.8,0,1.4-0.3,1.8-0.8c0.4-0.5,0.6-1.3,0.6-2.2
		c0-1-0.2-1.7-0.6-2.3c-0.4-0.5-1-0.8-1.8-0.8c-0.4,0-0.8,0.1-1.1,0.2s-0.5,0.3-0.7,0.6c-0.2,0.3-0.3,0.6-0.4,1
		c-0.1,0.4-0.1,0.8-0.1,1.3c0,0.5,0,0.9,0.1,1.3s0.2,0.7,0.4,1s0.4,0.5,0.7,0.6S115.9,151.1,116.3,151.1z"/>
</g>
</svg>
