<svg id="Layer_1" data-name="Layer 1" xmlns="http://www.w3.org/2000/svg" viewBox="0 0 50 50"><defs><style>.cls-1{fill:#cccccb;}</style></defs><title>star_empty</title><path class="cls-1" d="M25.34,5a.47.47,0,0,0,.09.06A2.08,2.08,0,0,1,27,6.6c1.26,3.93,2.54,7.86,3.81,11.79,0,.11.07.22.11.34h.43l12.3,0A2.07,2.07,0,0,1,45,22.49l-8,5.8c-.7.5-1.38,1-2.09,1.5a.41.41,0,0,0-.18.57c1.3,3.92,2.58,7.85,3.87,11.78a2.08,2.08,0,0,1-3.27,2.37l-9.67-7.06L25,37l-3.2,2.34-7.18,5.23a2.07,2.07,0,0,1-3.23-1,2.16,2.16,0,0,1,0-1.4q1.92-5.89,3.86-11.78a.43.43,0,0,0-.18-.59C11.78,27.4,8.48,25,5.16,22.62a2.72,2.72,0,0,1-1.07-1.45v-.84a2.35,2.35,0,0,1,2.63-1.64c4,0,7.94,0,11.91,0H19a3.07,3.07,0,0,0,.11-.32Q21.07,12.5,23,6.59a3.65,3.65,0,0,1,.35-.75A2.28,2.28,0,0,1,24.65,5ZM16.75,38.19l.06,0,8.19-6,8.26,6c-.06-.21-.09-.33-.13-.45-1-3-2-6-2.93-8.95a.38.38,0,0,1,.18-.53L38,22.85l.38-.29H28.16L25,12.93H25l-3.12,9.64H11.65l8.25,6Z"/></svg>