<svg id="Layer_1" data-name="Layer 1" xmlns="http://www.w3.org/2000/svg" viewBox="0 0 100 100"><defs><style>.cls-1{fill:#333;}</style></defs><title>icon_clock</title><path class="cls-1" d="M52.23,46.63C51.31,40.4,50.32,34.17,49.3,28a4.41,4.41,0,0,0-.76-1.33,4.6,4.6,0,0,0-.68,1.25c-.75,4.39-1.49,8.79-2.15,13.19-.55,3.61-1.1,7.22-1.46,10.85A4.35,4.35,0,0,0,48,56.81a4.1,4.1,0,0,0,.7,0l.73-.08c7.25-1.17,14.51-2.33,21.76-3.53a7.27,7.27,0,0,0,1.67-.78,6.66,6.66,0,0,0-1.72-.88c-5.69-1-11.38-2-17.1-2.93C52.77,48.39,52.41,47.82,52.23,46.63Z"/><path class="cls-1" d="M50,14.52A35.36,35.36,0,1,0,85.4,49.88,35.36,35.36,0,0,0,50,14.52ZM80,50c0,16.1-13.88,30.05-30.17,30C33.8,79.91,19.88,66.12,20,49.82c.09-16,13.87-30.18,30-29.72C66.1,19.67,80,33.86,80,50Z"/></svg>