<?xml version="1.0" encoding="utf-8"?>
<!-- Generator: Adobe Illustrator 23.0.6, SVG Export Plug-In . SVG Version: 6.00 Build 0)  -->
<svg version="1.1" id="Layer_1" xmlns="http://www.w3.org/2000/svg" xmlns:xlink="http://www.w3.org/1999/xlink" x="0px" y="0px"
	 viewBox="0 0 100 100" style="enable-background:new 0 0 100 100;" xml:space="preserve">
<style type="text/css">
	.st0{fill:#333333;}
</style>
<title>icon_edit05</title>
<g>
	<path class="st0" d="M81.5,23.8c-1.7-1.7-3.1-3.1-4.4-4.4c-1-1.3-2.4-2.1-4-2.6l-1.6,0l-0.1,0c-1.2,0.3-2.3,0.9-3.2,1.8
		C57.7,29.1,47.2,39.5,36.8,50c-0.4,0.5-0.8,1-0.9,1.6c-0.6,2-1.1,3.9-1.7,5.9l-0.8,2.8c-0.5,1.8-1,3.6-1.4,5.4
		c-0.1,0.4-0.1,0.8,0,1.2c0.3,0.8,1,1.4,1.8,1.4c0.2,0,0.4,0,0.6-0.1l14-3.9c0.7-0.2,1.3-0.5,1.8-1l31.3-31.3
		c0.1-0.1,0.2-0.2,0.3-0.3c1-1.1,1.5-2.5,1.5-3.9C83.2,26.2,82.6,24.8,81.5,23.8z M44.4,61.2l-0.9,0.2c-1.3,0.3-2.6,0.7-3.9,1
		c-0.1,0-0.1,0-0.1-0.1c-0.7-0.7-1.3-1.3-1.9-1.9c0,0-0.1-0.1-0.1-0.1c0,0,0,0,0,0c0.3-1.2,0.7-2.4,1-3.6l0.3-1.2L44.4,61.2z
		 M74.5,33.2L48.4,59.3l-7.6-7.7l26.1-26.1L74.5,33.2z M78.7,29L78.7,29c-0.4,0.4-0.8,0.8-1.1,1.1l-0.1,0.1l-7.8-7.8l0.3-0.3
		c0.3-0.3,0.7-0.7,1-1c0.6-0.6,1.6-0.6,2.2,0c1,1,2,2,3,3c0.8,0.8,1.6,1.6,2.4,2.4C79.4,27.4,79.4,28.4,78.7,29z"/>
	<path class="st0" d="M67.9,50.3l-0.2,0c-1.2,0-2.3,0.9-2.5,2.1c0,0.3,0,0.6,0,0.8v23.5c0,1.2-0.4,1.6-1.6,1.6H23.3
		c-1.2,0-1.6-0.4-1.6-1.6l0-40.4c0-0.4,0.1-0.9,0.4-1.2c0.3-0.3,0.8-0.5,1.3-0.4l24.1,0c0.7-0.1,1.3-0.4,1.7-0.9
		c0.4-0.5,0.6-1.2,0.5-1.8c0-0.1,0-0.3-0.1-0.4c-0.1-0.6-0.6-1.9-2.7-1.9l-23.7,0c-0.5,0-1,0-1.5,0.1c-3,0.6-5.1,3.2-5,6.2v40.7
		c0,0.6,0.1,1.3,0.2,1.9c0.7,2.7,3.2,4.5,5.9,4.5c0.1,0,0.2,0,0.3,0h40.9c3.3,0,5.9-2.7,6-6V52.8C70.2,51.5,69.2,50.4,67.9,50.3z"/>
</g>
</svg>
