<svg id="Layer_1" data-name="Layer 1" xmlns="http://www.w3.org/2000/svg" viewBox="0 0 50 50"><defs><style>.cls-1{fill:#333;}</style></defs><title>icon_update</title><path class="cls-1" d="M11.93,28.38v-.5c0-2.91,0-5.82,0-8.72a6.08,6.08,0,0,1,4.85-6A5.11,5.11,0,0,1,18,13.06H29.2l.29,0v3.72H18.19a2.33,2.33,0,0,0-2.44,1.78,2.6,2.6,0,0,0-.06.56V28c0,.07,0,.14,0,.27l.35-.27c1.12-1,2.23-1.93,3.35-2.88a1.71,1.71,0,0,1,2-.29,2,2,0,0,1,1.07,1.93A1.84,1.84,0,0,1,21.77,28l-4.44,3.82-2.3,2a1.83,1.83,0,0,1-2.51,0L5.7,28a1.71,1.71,0,0,1-.62-1.89,2,2,0,0,1,1.56-1.42,1.8,1.8,0,0,1,1.58.55l3.35,2.88Z"/><path class="cls-1" d="M38.07,21.62V30.8a6.08,6.08,0,0,1-4.86,6,5.19,5.19,0,0,1-1.12.12H20.76l-.25,0V33.21H31.84a2.33,2.33,0,0,0,2.41-1.78,2.6,2.6,0,0,0,.06-.56V22c0-.07,0-.15,0-.29l-.35.28c-1.11,1-2.22,1.93-3.35,2.88a1.71,1.71,0,0,1-2.06.27,2,2,0,0,1-1-1.94A1.84,1.84,0,0,1,28.23,22l5.55-4.77L35,16.14a1.82,1.82,0,0,1,2.39,0q3.5,3,7,6a1.86,1.86,0,0,1-2.44,2.8c-1.18-1-2.34-2-3.5-3Z"/></svg>