<svg id="Layer_1" data-name="Layer 1" xmlns="http://www.w3.org/2000/svg" viewBox="0 0 100 100"><defs><style>.cls-1{fill:#fff;}</style></defs><title>icon_edit-white</title><path class="cls-1" d="M81.5,23.8l-4.4-4.4a7.79,7.79,0,0,0-4-2.6H71.4a6.83,6.83,0,0,0-3.2,1.8C57.7,29.1,47.2,39.5,36.8,50a3.67,3.67,0,0,0-.9,1.6c-.6,2-1.1,3.9-1.7,5.9l-.8,2.8c-.5,1.8-1,3.6-1.4,5.4a2.44,2.44,0,0,0,0,1.2,2,2,0,0,0,1.8,1.4,1.27,1.27,0,0,0,.6-.1l14-3.9a4,4,0,0,0,1.8-1L81.5,32l.3-.3a5.56,5.56,0,0,0-.3-7.9ZM44.4,61.2l-.9.2c-1.3.3-2.6.7-3.9,1-.1,0-.1,0-.1-.1l-1.9-1.9-.1-.1h0c.3-1.2.7-2.4,1-3.6l.3-1.2Zm30.1-28L48.4,59.3l-7.6-7.7L66.9,25.5ZM78.7,29h0l-1.1,1.1-.1.1-7.8-7.8.3-.3,1-1a1.57,1.57,0,0,1,2.2,0l3,3,2.4,2.4A1.67,1.67,0,0,1,78.7,29Z"/><path class="cls-1" d="M67.9,50.3h-.2a2.57,2.57,0,0,0-2.5,2.1V76.7c0,1.2-.4,1.6-1.6,1.6H23.3c-1.2,0-1.6-.4-1.6-1.6V36.3a1.75,1.75,0,0,1,.4-1.2,1.48,1.48,0,0,1,1.3-.4H47.5a2.59,2.59,0,0,0,1.7-.9,2.38,2.38,0,0,0,.5-1.8.6.6,0,0,0-.1-.4c-.1-.6-.6-1.9-2.7-1.9H23.2a7.57,7.57,0,0,0-1.5.1,6.13,6.13,0,0,0-5,6.2V76.7a12.25,12.25,0,0,0,.2,1.9,6.09,6.09,0,0,0,5.9,4.5H64a6.08,6.08,0,0,0,6-6V52.8A2.21,2.21,0,0,0,67.9,50.3Z"/></svg>