<svg id="Layer_1" data-name="Layer 1" xmlns="http://www.w3.org/2000/svg" viewBox="0 0 700 500"><defs><style>.cls-1{fill:#d3d3d3;}.cls-2{fill:#444;}.cls-3{fill:#666;}</style></defs><title>empty-state_assinatura</title><path class="cls-1" d="M379.83,428.8c-.39,3.59,1.6,5.19,4.79,4.79l45.5-12c1.2,0,2.4-1.19,2.8-2.79l4.79-21.55,2.39-2.4,1.2,1.2a3.61,3.61,0,0,0,2.79,1.2,4.32,4.32,0,0,0,2.8-1.2l10.77-10.78h0L565.42,277.53a21.19,21.19,0,0,0,0-29.53,20.5,20.5,0,0,0-14.76-6c-5.59,0-11.18,2-14.77,6l-6.39,6.38-7.18-7.18a3.63,3.63,0,0,0-2.8-1.2,4.32,4.32,0,0,0-2.79,1.2L485.6,278.33a4,4,0,1,0,5.59,5.59l28.33-28.34,4.4,4.39-106.57,107a3.86,3.86,0,0,0,0,5.59l1.2,1.2-2.8,2.39L394.2,380.9a4,4,0,0,0-2.79,2.8ZM553.45,277.93l-18-18,6-6c6-5.18,12-5.58,18,0a12.32,12.32,0,0,1,0,18Zm-99,99.38L436.11,359l93.39-93.39,18.36,18.36Zm-29.14-8,4.79-4.79,18.36,18.36-4.79,4.79Zm-16.76,35.52a3.86,3.86,0,0,0-5.59,0l-11.57,11.58,7.18-28.34L419,383.3a8.65,8.65,0,0,0,2-1.2l3.2-3.19,10.37,10.38-3.19,3.19a2.2,2.2,0,0,0-1.2,2l-4.79,20.36L397,422l11.57-11.57A3.86,3.86,0,0,0,408.57,404.85Z"/><path class="cls-1" d="M131.48,398.65c4.5-11.57,9.1-23.14,15.65-33.74a77.51,77.51,0,0,1,10.94-14.1,58.9,58.9,0,0,1,6.76-5.9c2.56-1.88,5.3-3.84,8.35-4.8a14.57,14.57,0,0,1,9.23,0,7.85,7.85,0,0,1,1.46.63,15,15,0,0,1,1.62,1,7.92,7.92,0,0,1,1,.89c.21.21.42.42.61.65a5.63,5.63,0,0,1,.38.45q-.25-.33.06.09a15.21,15.21,0,0,1,.91,1.49c.14.26.27.53.39.79.4.86-.18-.52.16.37a20.57,20.57,0,0,1,1,3.77s.15,1,.07.42c0,.31.07.62.1.93,0,.62.09,1.24.11,1.87a36.6,36.6,0,0,1-.11,3.77,56.34,56.34,0,0,1-1.44,8.55c-.77,3.39-1.74,6.74-2.84,10a177.11,177.11,0,0,1-7.63,18.68c-5.93,12.74-12.6,25.17-17.4,38.4a55.66,55.66,0,0,0-3,9.64,11.57,11.57,0,0,0,2.94,10.1c4.09,4.08,10.5,3.19,15.37,1.25a104.9,104.9,0,0,0,13.18-6.85q6.85-3.94,13.5-8.25A301.84,301.84,0,0,0,229.19,420a108.4,108.4,0,0,0,9.22-8.18,25.56,25.56,0,0,0,5.25-6.78,6.68,6.68,0,0,0,.7-4.29,5.77,5.77,0,0,0-4.08-4.2c-2.4-.62-4.9.41-6.91,1.69a35.11,35.11,0,0,0-6.31,5.36c-4,4.12-7.95,9.15-9.43,14.77A12.27,12.27,0,0,0,218.7,428a13,13,0,0,0,8.18,5.84c5,1.11,9.67-.86,14.17-2.85,3.86-1.7,7.6-3.67,11.26-5.74a162.3,162.3,0,0,0,22-14.64,31.23,31.23,0,0,0,6.18-6.08c1.52-2.14,1.77-5.27-.87-6.68a6.61,6.61,0,0,0-3.85-.54,16.28,16.28,0,0,0-7.29,2.53c-4.85,3.2-8.11,8.34-10.46,13.54-2.27,5-4.39,10.45-4.47,16-.07,4.93,1.28,10.7,5.26,14,5.09,4.19,12.45,3,17.15-1.28a28.19,28.19,0,0,0,2.43-2.8c4.23-5,8.54-9.9,13-14.68,2.41-2.58,4.87-5.14,7.44-7.58,1.07-1,2.17-2,3.32-3,.23-.2.47-.38.71-.58-.82.68,0,0,.18-.12.42-.3.85-.6,1.3-.86.15-.08.3-.15.44-.24.65-.36-.68.15-.15.06a1.26,1.26,0,0,0,.42-.12c-.29.18-.6.1-1.07,0l.15,0a2.24,2.24,0,0,1-1.12-.65c.33.32-.53-.82-.26-.33-.45-.84-.3-.77-.22-.49s-.25-.39-.06-.53c0,0,0,.53,0,.59l0,.3c-.05.83.1-.63,0,.22-.08.55-.16,1.1-.25,1.64-.22,1.28-.47,2.56-.75,3.83q-.94,4.32-2.26,8.54a67,67,0,0,1-7.24,16.35c-1.84,2.88,2.34,6.06,4.71,3.63,3.88-4,7.89-8,12.78-10.7A18.3,18.3,0,0,1,324.45,433c5.61,1.79,10.5,5.26,15.88,7.6a49.07,49.07,0,0,0,17.93,4.15,40.86,40.86,0,0,0,20.13-4.46,3,3,0,0,0-3-5.18c-10.35,5.36-23.17,4.53-33.52-.39-5.5-2.61-10.68-6-16.58-7.74a24.09,24.09,0,0,0-17.54,1.7c-5.93,2.91-10.8,7.7-15.36,12.36l4.71,3.64a72.34,72.34,0,0,0,7.62-17.06,91.93,91.93,0,0,0,3.67-16c.34-2.61-.89-5.42-3.95-5.34-2.39.07-4.54,1.92-6.3,3.34-5.09,4.13-9.54,9.1-13.94,13.94q-5.69,6.27-11.14,12.76a9.4,9.4,0,0,1-5.6,3.57,7.65,7.65,0,0,1-1.67.11s-.9-.07-.45,0-.43-.09-.41-.08c-.26-.06-.51-.15-.76-.22-.76-.19.44.29-.24-.08-.22-.13-.45-.24-.66-.37a4.38,4.38,0,0,1-.42-.28c.27.22.27.22,0,0s-.6-.59-.9-.89c-.57-.57.28.47-.17-.21-.15-.21-.3-.43-.43-.65a13,13,0,0,1-.75-1.43c.26.59-.09-.25-.11-.31-.12-.36-.24-.71-.34-1.08a16.33,16.33,0,0,1-.56-6.21,13,13,0,0,1,.47-3c.31-1.24.72-2.47,1.13-3.68,1.66-4.88,4-10.14,7.36-13.89.36-.4.73-.79,1.12-1.16.23-.22.47-.43.71-.64,0,0,.77-.63.36-.31a13.25,13.25,0,0,1,1.54-1,6.5,6.5,0,0,1,1.47-.7,12,12,0,0,1,1.45-.42c.25-.05.51-.07.76-.14.57-.15-.77.06-.2,0s1,0,1.45-.06-.87-.2-.19,0-.71-.38-.27-.12a2.22,2.22,0,0,1-1.07-1.88c0,.51.21-1,0-.36s.43-.67.1-.21c-.1.14-.49,1-.65,1,0,0,.57-.68.17-.23-.09.09-.17.2-.25.29l-.47.52c-.47.5-1,1-1.47,1.45-1.15,1.07-2.37,2.08-3.6,3.05-.15.12-1.06.83-.44.36l-1.11.84c-.78.58-1.57,1.16-2.36,1.72q-2.56,1.83-5.19,3.56a156.41,156.41,0,0,1-22.19,12.47l-1.26.54c.75-.31-.5.2-.7.28-.75.3-1.51.59-2.28.85a9.7,9.7,0,0,1-6.62.36,7.16,7.16,0,0,1-2.84-1.9,5.86,5.86,0,0,1-1-1.5c.16.36-.22-.62-.2-.55,0-.14-.23-1.17-.2-.84-.25-2.46.84-5,2.17-7.28a41.16,41.16,0,0,1,9.76-11.26c.2-.16.57-.43,1.09-.78a15.48,15.48,0,0,1,1.42-.83s.76-.34.32-.16.29-.09.3-.1l.64-.15c-.79.21-.08.05.19,0-.75,0-.36,0-.08,0-.31,0-.39-.05-.54-.31.08.13.43.68.06,0a3.07,3.07,0,0,1,.23.39c.07.14-.28-.91-.14-.23-.24-1.17,0-.54-.08-.16.16-1.32-.09-.06-.18.31s.4-.71.13-.31c-.06.1-.1.22-.15.32-.15.27-.29.53-.45.79-.29.46-.62.89-.93,1.34.59-.84-.1.11-.26.31s-.46.55-.7.82a77.54,77.54,0,0,1-8,7.59,249.32,249.32,0,0,1-23.6,17.37,288.29,288.29,0,0,1-25.71,15.45,33.92,33.92,0,0,1-5.8,2.62c-.6.19-1.2.36-1.81.5l-.91.18c-1,.2.54,0-.41.06a11.8,11.8,0,0,1-1.46.06,8.27,8.27,0,0,1-.86-.05c.65.06-.44-.1-.57-.14a5.88,5.88,0,0,1-.78-.25c.61.24-.19-.12-.25-.16s-.76-.55-.29-.16a5.67,5.67,0,0,1-.61-.59,5.87,5.87,0,0,1-1.18-2.78,10.11,10.11,0,0,1,.71-4.13c.52-1.74,1.08-3.48,1.68-5.2,4.38-12.53,10.62-24.29,16.28-36.26s11-24.54,13.22-37.78c.85-5.18,1.15-10.64-.34-15.74A17.43,17.43,0,0,0,185,334.71c-6.79-2.75-14.08-1-20,2.86a66.68,66.68,0,0,0-13.92,12c-8,9.08-13.77,19.85-18.59,30.9-2.38,5.48-4.58,11-6.74,16.6a3,3,0,0,0,2.09,3.69,3.07,3.07,0,0,0,3.69-2.09Z"/><path class="cls-2" d="M155.77,88.47v11.3h-5.38V70.85h8.82a18.61,18.61,0,0,1,5,.61,9.74,9.74,0,0,1,3.46,1.71,6.77,6.77,0,0,1,2,2.63,9.14,9.14,0,0,1,.21,6.13,7.94,7.94,0,0,1-1.24,2.36,8.29,8.29,0,0,1-2,1.86A10.27,10.27,0,0,1,164,87.43a5.33,5.33,0,0,1,1.76,1.66L173,99.77h-4.86a2.13,2.13,0,0,1-2-1.08L160,89.43a2.28,2.28,0,0,0-.75-.74,2.72,2.72,0,0,0-1.21-.22Zm0-3.86h3.36a8.14,8.14,0,0,0,2.65-.38,5.08,5.08,0,0,0,1.86-1,4.08,4.08,0,0,0,1.09-1.59,5.46,5.46,0,0,0,.36-2,4.11,4.11,0,0,0-1.45-3.38A7,7,0,0,0,159.21,75h-3.44Z"/><path class="cls-2" d="M182.73,78.93a10.12,10.12,0,0,1,3.58.62,8,8,0,0,1,2.82,1.81A8.48,8.48,0,0,1,191,84.28a10.83,10.83,0,0,1,.67,4,3.2,3.2,0,0,1-.24,1.51,1,1,0,0,1-.92.39h-12.7a9.74,9.74,0,0,0,.56,2.73,5.5,5.5,0,0,0,1.16,1.9,4.47,4.47,0,0,0,1.71,1.12,6.14,6.14,0,0,0,2.19.37,6.69,6.69,0,0,0,2.07-.28,8.72,8.72,0,0,0,1.52-.62c.43-.22.81-.43,1.14-.62a2,2,0,0,1,1-.28,1,1,0,0,1,.92.46l1.42,1.8a8.22,8.22,0,0,1-1.84,1.61,10,10,0,0,1-2.13,1,11.12,11.12,0,0,1-2.26.55,15.71,15.71,0,0,1-2.23.16,10.82,10.82,0,0,1-4-.71,8.82,8.82,0,0,1-3.2-2.1,9.71,9.71,0,0,1-2.14-3.44,13.29,13.29,0,0,1-.78-4.75,11.46,11.46,0,0,1,.68-3.95,9.49,9.49,0,0,1,1.95-3.22,9.36,9.36,0,0,1,3.1-2.17A10.28,10.28,0,0,1,182.73,78.93Zm.1,3.54a4.58,4.58,0,0,0-3.38,1.22,6.09,6.09,0,0,0-1.56,3.46h9.32a6,6,0,0,0-.27-1.81,4.39,4.39,0,0,0-.81-1.49,3.91,3.91,0,0,0-1.37-1A4.81,4.81,0,0,0,182.83,82.47Z"/><path class="cls-2" d="M202.85,78.89a10.81,10.81,0,0,1,2.47.27,9,9,0,0,1,2.13.79h5.9v1.84c0,.59-.35.95-1.06,1.08l-1.84.34a6.62,6.62,0,0,1,.31,1.1,6.92,6.92,0,0,1,.11,1.22,6,6,0,0,1-.61,2.75,6.12,6.12,0,0,1-1.69,2.09A7.73,7.73,0,0,1,206,91.7a10.17,10.17,0,0,1-3.17.47,11.25,11.25,0,0,1-2.26-.22c-.64.39-1,.82-1,1.3a1,1,0,0,0,.57.91,4.49,4.49,0,0,0,1.51.41,21.33,21.33,0,0,0,2.14.15c.8,0,1.62.07,2.46.13a21.74,21.74,0,0,1,2.46.35,7.35,7.35,0,0,1,2.14.79,4.17,4.17,0,0,1,1.51,1.47,4.52,4.52,0,0,1,.57,2.39,5.57,5.57,0,0,1-.67,2.64,7,7,0,0,1-1.94,2.28,10,10,0,0,1-3.12,1.61,13.33,13.33,0,0,1-4.21.61,16.08,16.08,0,0,1-4-.45,9.58,9.58,0,0,1-2.86-1.2,5.09,5.09,0,0,1-1.7-1.73,4.07,4.07,0,0,1-.56-2,3.51,3.51,0,0,1,.87-2.4,6.06,6.06,0,0,1,2.37-1.56,3.48,3.48,0,0,1-1.28-1.12,3.18,3.18,0,0,1-.48-1.84,3,3,0,0,1,.16-1,4,4,0,0,1,.49-1,4.73,4.73,0,0,1,.84-.91,6.59,6.59,0,0,1,1.19-.77,6.4,6.4,0,0,1-2.45-2.24,6,6,0,0,1-.89-3.28,6.07,6.07,0,0,1,.61-2.75,6.16,6.16,0,0,1,1.7-2.1,7.88,7.88,0,0,1,2.58-1.33A11.19,11.19,0,0,1,202.85,78.89Zm5.58,21.8a1.34,1.34,0,0,0-.36-1,2.67,2.67,0,0,0-1-.59,7.45,7.45,0,0,0-1.45-.32c-.55-.06-1.14-.11-1.76-.15L202,98.57c-.66,0-1.3-.08-1.93-.16a4.69,4.69,0,0,0-1.33,1.08,2.23,2.23,0,0,0-.51,1.44,2,2,0,0,0,.27,1,2.18,2.18,0,0,0,.86.81,4.79,4.79,0,0,0,1.53.53,11.57,11.57,0,0,0,2.3.19,11.75,11.75,0,0,0,2.38-.21,5.56,5.56,0,0,0,1.65-.58,2.47,2.47,0,0,0,.95-.88A2.15,2.15,0,0,0,208.43,100.69ZM202.85,89a4.56,4.56,0,0,0,1.6-.25,3,3,0,0,0,1.13-.69,2.73,2.73,0,0,0,.68-1.06,3.92,3.92,0,0,0,.23-1.36,3.22,3.22,0,0,0-.91-2.41,4.63,4.63,0,0,0-5.46,0,3.22,3.22,0,0,0-.91,2.41,3.89,3.89,0,0,0,.23,1.34,2.84,2.84,0,0,0,.68,1.07,3,3,0,0,0,1.14.7A4.58,4.58,0,0,0,202.85,89Z"/><path class="cls-2" d="M222.27,73.27a2.84,2.84,0,0,1-.26,1.2,3.1,3.1,0,0,1-.69,1,3.18,3.18,0,0,1-1,.67,3.05,3.05,0,0,1-1.24.25,2.91,2.91,0,0,1-1.21-.25,3.09,3.09,0,0,1-1-.67,3.22,3.22,0,0,1-.67-1,2.84,2.84,0,0,1-.25-1.2A3.05,3.05,0,0,1,216.2,72a3.31,3.31,0,0,1,.67-1,3.26,3.26,0,0,1,1-.67,3.08,3.08,0,0,1,1.21-.25,3.23,3.23,0,0,1,1.24.25,3.36,3.36,0,0,1,1,.67,3.19,3.19,0,0,1,.69,1A3.06,3.06,0,0,1,222.27,73.27Zm-.68,6V99.77h-5V79.25Z"/><path class="cls-2" d="M239.15,83.25a1.15,1.15,0,0,1-.42.45,1.06,1.06,0,0,1-.56.13,1.67,1.67,0,0,1-.77-.2l-1-.45a10.74,10.74,0,0,0-1.23-.45,6,6,0,0,0-1.63-.2,3.77,3.77,0,0,0-2.29.62,2,2,0,0,0-.83,1.62,1.53,1.53,0,0,0,.43,1.11,3.83,3.83,0,0,0,1.14.79,10.64,10.64,0,0,0,1.61.61c.6.18,1.21.38,1.83.59s1.23.46,1.83.73a6.54,6.54,0,0,1,1.61,1,5,5,0,0,1,1.14,1.51,4.77,4.77,0,0,1,.43,2.12A7,7,0,0,1,240,96a5.79,5.79,0,0,1-1.57,2.16,7.32,7.32,0,0,1-2.57,1.42,11.17,11.17,0,0,1-3.53.51,10.84,10.84,0,0,1-2.07-.19,11.32,11.32,0,0,1-1.94-.53,10.05,10.05,0,0,1-1.72-.8,7.86,7.86,0,0,1-1.39-1l1.14-1.88a1.72,1.72,0,0,1,.52-.52,1.45,1.45,0,0,1,.76-.18,1.61,1.61,0,0,1,.87.26c.27.18.59.36.95.56a8,8,0,0,0,1.27.56,5.42,5.42,0,0,0,1.85.26,4.78,4.78,0,0,0,1.51-.21,3.1,3.1,0,0,0,1-.55,2.08,2.08,0,0,0,.6-.79,2.31,2.31,0,0,0,.19-.93,1.65,1.65,0,0,0-.43-1.18,4,4,0,0,0-1.14-.8,11.5,11.5,0,0,0-1.62-.61c-.61-.18-1.23-.37-1.86-.59a16.43,16.43,0,0,1-1.86-.75,6.06,6.06,0,0,1-1.62-1.09,5,5,0,0,1-1.14-1.62,5.59,5.59,0,0,1-.43-2.32,6,6,0,0,1,.5-2.4,5.58,5.58,0,0,1,1.47-2,7.42,7.42,0,0,1,2.42-1.36,10.08,10.08,0,0,1,3.35-.51,10.4,10.4,0,0,1,3.86.7,8.74,8.74,0,0,1,2.9,1.84Z"/><path class="cls-2" d="M251.05,100.09a5.37,5.37,0,0,1-4.11-1.51,5.81,5.81,0,0,1-1.43-4.17V83h-2.1a.93.93,0,0,1-.68-.26,1,1,0,0,1-.28-.78V80l3.3-.54,1-5.6a1.13,1.13,0,0,1,.38-.62,1.19,1.19,0,0,1,.72-.22h2.56v6.46h5.48V83h-5.48V94.07a2.23,2.23,0,0,0,.47,1.5,1.61,1.61,0,0,0,1.29.54A2.16,2.16,0,0,0,253,96a3.5,3.5,0,0,0,.54-.23c.15-.08.29-.15.41-.23a.72.72,0,0,1,.36-.11.57.57,0,0,1,.36.11,2.57,2.57,0,0,1,.3.33l1.48,2.4A7.39,7.39,0,0,1,254,99.63,9.12,9.12,0,0,1,251.05,100.09Z"/><path class="cls-2" d="M259.09,99.77V79.25H262a1.59,1.59,0,0,1,1.06.27,1.63,1.63,0,0,1,.4,1l.28,2.32a9.1,9.1,0,0,1,2.3-2.89,4.86,4.86,0,0,1,3.12-1,3.83,3.83,0,0,1,2.28.62l-.32,3.7a1,1,0,0,1-.29.51.81.81,0,0,1-.51.15,5.39,5.39,0,0,1-.89-.1,7.66,7.66,0,0,0-1.15-.1,4.14,4.14,0,0,0-1.46.24,3.64,3.64,0,0,0-1.15.69,4.85,4.85,0,0,0-.9,1.09,11.68,11.68,0,0,0-.73,1.46V99.77Z"/><path class="cls-2" d="M282.17,78.93a10.12,10.12,0,0,1,3.58.62,8,8,0,0,1,2.82,1.81,8.48,8.48,0,0,1,1.85,2.92,10.83,10.83,0,0,1,.67,4,3.2,3.2,0,0,1-.24,1.51,1,1,0,0,1-.92.39h-12.7a9.74,9.74,0,0,0,.56,2.73,5.5,5.5,0,0,0,1.16,1.9,4.47,4.47,0,0,0,1.71,1.12,6.14,6.14,0,0,0,2.19.37,6.69,6.69,0,0,0,2.07-.28,8.72,8.72,0,0,0,1.52-.62c.43-.22.81-.43,1.14-.62a2,2,0,0,1,.95-.28,1,1,0,0,1,.92.46l1.42,1.8A8.22,8.22,0,0,1,289,98.32a10,10,0,0,1-2.13,1,11.12,11.12,0,0,1-2.26.55,15.71,15.71,0,0,1-2.23.16,10.82,10.82,0,0,1-4-.71,8.82,8.82,0,0,1-3.2-2.1,9.71,9.71,0,0,1-2.14-3.44,13.29,13.29,0,0,1-.78-4.75,11.46,11.46,0,0,1,.68-3.95,9.49,9.49,0,0,1,1.95-3.22,9.36,9.36,0,0,1,3.1-2.17A10.28,10.28,0,0,1,282.17,78.93Zm.1,3.54a4.58,4.58,0,0,0-3.38,1.22,6.09,6.09,0,0,0-1.56,3.46h9.32a6,6,0,0,0-.27-1.81,4.39,4.39,0,0,0-.81-1.49,3.91,3.91,0,0,0-1.37-1A4.81,4.81,0,0,0,282.27,82.47Z"/><path class="cls-2" d="M317,83.25a1.15,1.15,0,0,1-.42.45,1.06,1.06,0,0,1-.56.13,1.67,1.67,0,0,1-.77-.2l-.95-.45a10.74,10.74,0,0,0-1.23-.45,6,6,0,0,0-1.63-.2,3.77,3.77,0,0,0-2.29.62,2,2,0,0,0-.83,1.62,1.53,1.53,0,0,0,.43,1.11,3.83,3.83,0,0,0,1.14.79,10.64,10.64,0,0,0,1.61.61c.6.18,1.21.38,1.83.59s1.23.46,1.83.73a6.54,6.54,0,0,1,1.61,1,5,5,0,0,1,1.14,1.51,4.77,4.77,0,0,1,.43,2.12,7,7,0,0,1-.53,2.73,5.79,5.79,0,0,1-1.57,2.16,7.32,7.32,0,0,1-2.57,1.42,11.17,11.17,0,0,1-3.53.51,10.84,10.84,0,0,1-2.07-.19,11.32,11.32,0,0,1-1.94-.53,10.05,10.05,0,0,1-1.72-.8,7.86,7.86,0,0,1-1.39-1l1.14-1.88a1.72,1.72,0,0,1,.52-.52,1.45,1.45,0,0,1,.76-.18,1.61,1.61,0,0,1,.87.26c.27.18.59.36,1,.56a8,8,0,0,0,1.27.56,5.42,5.42,0,0,0,1.85.26,4.78,4.78,0,0,0,1.51-.21,3.1,3.1,0,0,0,1-.55,2.08,2.08,0,0,0,.6-.79,2.31,2.31,0,0,0,.19-.93,1.65,1.65,0,0,0-.43-1.18,4,4,0,0,0-1.14-.8,11.5,11.5,0,0,0-1.62-.61c-.61-.18-1.23-.37-1.86-.59a16.43,16.43,0,0,1-1.86-.75,6.06,6.06,0,0,1-1.62-1.09,5,5,0,0,1-1.14-1.62,5.59,5.59,0,0,1-.43-2.32,6,6,0,0,1,.5-2.4,5.58,5.58,0,0,1,1.47-2A7.42,7.42,0,0,1,308,79.44a10.08,10.08,0,0,1,3.35-.51,10.4,10.4,0,0,1,3.86.7,8.74,8.74,0,0,1,2.9,1.84Z"/><path class="cls-2" d="M326.83,79.25v13a4.36,4.36,0,0,0,.87,2.91,3.21,3.21,0,0,0,2.61,1,5.24,5.24,0,0,0,2.4-.57,8.31,8.31,0,0,0,2.12-1.57V79.25h4.94V99.77h-3a1.16,1.16,0,0,1-1.24-.9l-.34-1.64a14.19,14.19,0,0,1-1.32,1.17,7.59,7.59,0,0,1-1.46.91,7.1,7.1,0,0,1-1.66.58,8.32,8.32,0,0,1-1.92.2,7.29,7.29,0,0,1-3-.57,5.9,5.9,0,0,1-2.17-1.61,6.91,6.91,0,0,1-1.33-2.47,10.42,10.42,0,0,1-.45-3.15v-13Z"/><path class="cls-2" d="M358.07,99.77a2.25,2.25,0,0,1-1.08-.21,1.47,1.47,0,0,1-.6-.85L356,97.25a17.12,17.12,0,0,1-1.52,1.23,8.53,8.53,0,0,1-1.54.89,7.76,7.76,0,0,1-1.71.54,10.43,10.43,0,0,1-2,.18,7.65,7.65,0,0,1-2.4-.35,5.18,5.18,0,0,1-1.9-1A4.61,4.61,0,0,1,343.63,97a6.22,6.22,0,0,1-.44-2.42,4.77,4.77,0,0,1,.61-2.29,5.79,5.79,0,0,1,2-2,13.25,13.25,0,0,1,3.78-1.51,27.17,27.17,0,0,1,5.88-.68v-1.2a4.48,4.48,0,0,0-.88-3,3.22,3.22,0,0,0-2.54-1,6.23,6.23,0,0,0-2,.28,8.61,8.61,0,0,0-1.39.63c-.4.24-.76.45-1.09.63a2.13,2.13,0,0,1-1.09.28,1.42,1.42,0,0,1-.88-.27,2.31,2.31,0,0,1-.58-.63l-.88-1.58a12.18,12.18,0,0,1,8.52-3.24,8.4,8.4,0,0,1,3.22.59,6.83,6.83,0,0,1,2.4,1.64,7.1,7.1,0,0,1,1.49,2.51,9.67,9.67,0,0,1,.51,3.2v13Zm-7.38-3.08a5.83,5.83,0,0,0,2.63-.55,7.67,7.67,0,0,0,2.17-1.67V91a27.68,27.68,0,0,0-3.61.37,9.59,9.59,0,0,0-2.33.69,3.06,3.06,0,0,0-1.26,1,2.17,2.17,0,0,0-.38,1.22,2.15,2.15,0,0,0,.77,1.86A3.28,3.28,0,0,0,350.69,96.69Z"/><path class="cls-2" d="M388.09,99.77a2.25,2.25,0,0,1-1.08-.21,1.47,1.47,0,0,1-.6-.85L386,97.25a17.12,17.12,0,0,1-1.52,1.23,8.53,8.53,0,0,1-1.54.89,7.76,7.76,0,0,1-1.71.54,10.43,10.43,0,0,1-2,.18,7.65,7.65,0,0,1-2.4-.35,5.18,5.18,0,0,1-1.9-1A4.61,4.61,0,0,1,373.65,97a6.22,6.22,0,0,1-.44-2.42,4.77,4.77,0,0,1,.61-2.29,5.79,5.79,0,0,1,2-2,13.25,13.25,0,0,1,3.78-1.51,27.17,27.17,0,0,1,5.88-.68v-1.2a4.48,4.48,0,0,0-.88-3,3.22,3.22,0,0,0-2.54-1,6.23,6.23,0,0,0-2,.28,8.61,8.61,0,0,0-1.39.63c-.4.24-.76.45-1.09.63a2.13,2.13,0,0,1-1.09.28,1.42,1.42,0,0,1-.88-.27,2.31,2.31,0,0,1-.58-.63l-.88-1.58a12.18,12.18,0,0,1,8.52-3.24,8.4,8.4,0,0,1,3.22.59,6.83,6.83,0,0,1,2.4,1.64,7.1,7.1,0,0,1,1.49,2.51,9.67,9.67,0,0,1,.51,3.2v13Zm-7.38-3.08a5.83,5.83,0,0,0,2.63-.55,7.67,7.67,0,0,0,2.17-1.67V91a27.68,27.68,0,0,0-3.61.37,9.59,9.59,0,0,0-2.33.69,3.06,3.06,0,0,0-1.26,1,2.17,2.17,0,0,0-.38,1.22,2.15,2.15,0,0,0,.77,1.86A3.28,3.28,0,0,0,380.71,96.69Z"/><path class="cls-2" d="M407.49,83.25a1.23,1.23,0,0,1-.42.45,1.06,1.06,0,0,1-.56.13,1.67,1.67,0,0,1-.77-.2l-.95-.45a10.74,10.74,0,0,0-1.23-.45,6.06,6.06,0,0,0-1.63-.2,3.77,3.77,0,0,0-2.29.62,1.93,1.93,0,0,0-.83,1.62,1.53,1.53,0,0,0,.43,1.11,3.83,3.83,0,0,0,1.14.79,10.64,10.64,0,0,0,1.61.61c.6.18,1.21.38,1.83.59s1.23.46,1.83.73a6.54,6.54,0,0,1,1.61,1,5,5,0,0,1,1.14,1.51,4.77,4.77,0,0,1,.43,2.12A7,7,0,0,1,408.3,96a5.79,5.79,0,0,1-1.57,2.16,7.32,7.32,0,0,1-2.57,1.42,11.17,11.17,0,0,1-3.53.51,10.84,10.84,0,0,1-2.07-.19,11.08,11.08,0,0,1-1.94-.53,9.71,9.71,0,0,1-1.72-.8,7.86,7.86,0,0,1-1.39-1l1.14-1.88a1.61,1.61,0,0,1,.52-.52,1.45,1.45,0,0,1,.76-.18,1.61,1.61,0,0,1,.87.26c.27.18.59.36.95.56a8,8,0,0,0,1.27.56,5.38,5.38,0,0,0,1.85.26,4.78,4.78,0,0,0,1.51-.21,3.1,3.1,0,0,0,1-.55,2.08,2.08,0,0,0,.6-.79,2.31,2.31,0,0,0,.19-.93,1.65,1.65,0,0,0-.43-1.18,4,4,0,0,0-1.14-.8,12,12,0,0,0-1.62-.61c-.61-.18-1.23-.37-1.86-.59a16.43,16.43,0,0,1-1.86-.75,6.06,6.06,0,0,1-1.62-1.09,5,5,0,0,1-1.14-1.62,5.59,5.59,0,0,1-.43-2.32,6,6,0,0,1,.5-2.4,5.58,5.58,0,0,1,1.47-2,7.42,7.42,0,0,1,2.42-1.36,10,10,0,0,1,3.35-.51,10.4,10.4,0,0,1,3.86.7,8.84,8.84,0,0,1,2.9,1.84Z"/><path class="cls-2" d="M425.07,83.25a1.23,1.23,0,0,1-.42.45,1.06,1.06,0,0,1-.56.13,1.67,1.67,0,0,1-.77-.2l-.95-.45a10.74,10.74,0,0,0-1.23-.45,6.06,6.06,0,0,0-1.63-.2,3.77,3.77,0,0,0-2.29.62,2,2,0,0,0-.83,1.62,1.53,1.53,0,0,0,.43,1.11,3.83,3.83,0,0,0,1.14.79,10.64,10.64,0,0,0,1.61.61c.6.18,1.21.38,1.83.59s1.23.46,1.83.73a6.54,6.54,0,0,1,1.61,1A5,5,0,0,1,426,91.15a4.77,4.77,0,0,1,.43,2.12,7,7,0,0,1-.53,2.73,5.79,5.79,0,0,1-1.57,2.16,7.32,7.32,0,0,1-2.57,1.42,11.17,11.17,0,0,1-3.53.51,10.84,10.84,0,0,1-2.07-.19,11.08,11.08,0,0,1-1.94-.53,9.71,9.71,0,0,1-1.72-.8,7.86,7.86,0,0,1-1.39-1l1.14-1.88a1.72,1.72,0,0,1,.52-.52,1.45,1.45,0,0,1,.76-.18,1.61,1.61,0,0,1,.87.26c.27.18.59.36.95.56a8,8,0,0,0,1.27.56,5.38,5.38,0,0,0,1.85.26,4.78,4.78,0,0,0,1.51-.21,3.1,3.1,0,0,0,1-.55,2.08,2.08,0,0,0,.6-.79,2.31,2.31,0,0,0,.19-.93,1.65,1.65,0,0,0-.43-1.18,4,4,0,0,0-1.14-.8,11.5,11.5,0,0,0-1.62-.61c-.61-.18-1.23-.37-1.86-.59a16.43,16.43,0,0,1-1.86-.75,6.06,6.06,0,0,1-1.62-1.09,5,5,0,0,1-1.14-1.62,5.59,5.59,0,0,1-.43-2.32,6,6,0,0,1,.5-2.4,5.58,5.58,0,0,1,1.47-2,7.42,7.42,0,0,1,2.42-1.36,10,10,0,0,1,3.35-.51,10.4,10.4,0,0,1,3.86.7,8.74,8.74,0,0,1,2.9,1.84Z"/><path class="cls-2" d="M435.93,73.27a2.84,2.84,0,0,1-.26,1.2,3.1,3.1,0,0,1-.69,1,3.18,3.18,0,0,1-1,.67,3.05,3.05,0,0,1-1.24.25,2.91,2.91,0,0,1-1.21-.25,3.09,3.09,0,0,1-1-.67,3.22,3.22,0,0,1-.67-1,2.84,2.84,0,0,1-.25-1.2,3.05,3.05,0,0,1,.25-1.24,3.31,3.31,0,0,1,.67-1,3.26,3.26,0,0,1,1-.67,3.08,3.08,0,0,1,1.21-.25,3.23,3.23,0,0,1,1.24.25,3.36,3.36,0,0,1,1,.67,3.19,3.19,0,0,1,.69,1A3.06,3.06,0,0,1,435.93,73.27Zm-.68,6V99.77h-5V79.25Z"/><path class="cls-2" d="M440.29,99.77V79.25h3a1.21,1.21,0,0,1,1.26.9l.34,1.62a11.94,11.94,0,0,1,1.31-1.16,10.41,10.41,0,0,1,1.46-.9,7.85,7.85,0,0,1,1.65-.58,8.91,8.91,0,0,1,1.92-.2,7.37,7.37,0,0,1,3,.57,5.93,5.93,0,0,1,2.17,1.6,7.09,7.09,0,0,1,1.32,2.46,10.52,10.52,0,0,1,.45,3.15V99.77h-4.94V86.71a4.45,4.45,0,0,0-.86-2.91,3.24,3.24,0,0,0-2.62-1,5.25,5.25,0,0,0-2.4.58,8.86,8.86,0,0,0-2.12,1.58V99.77Z"/><path class="cls-2" d="M476.27,99.77a2.25,2.25,0,0,1-1.08-.21,1.43,1.43,0,0,1-.6-.85l-.44-1.46a17.12,17.12,0,0,1-1.52,1.23,8.89,8.89,0,0,1-1.54.89,7.93,7.93,0,0,1-1.71.54,10.43,10.43,0,0,1-2,.18,7.65,7.65,0,0,1-2.4-.35,5.18,5.18,0,0,1-1.9-1A4.61,4.61,0,0,1,461.83,97a6.22,6.22,0,0,1-.44-2.42,4.77,4.77,0,0,1,.61-2.29,5.79,5.79,0,0,1,2-2,13.13,13.13,0,0,1,3.78-1.51,27.17,27.17,0,0,1,5.88-.68v-1.2a4.53,4.53,0,0,0-.88-3,3.22,3.22,0,0,0-2.54-1,6.18,6.18,0,0,0-2,.28,8.61,8.61,0,0,0-1.39.63l-1.09.63a2.13,2.13,0,0,1-1.09.28,1.42,1.42,0,0,1-.88-.27,2.16,2.16,0,0,1-.58-.63l-.88-1.58a12.18,12.18,0,0,1,8.52-3.24,8.4,8.4,0,0,1,3.22.59,6.92,6.92,0,0,1,2.4,1.64A7.1,7.1,0,0,1,478,83.61a9.67,9.67,0,0,1,.51,3.2v13Zm-7.38-3.08a5.83,5.83,0,0,0,2.63-.55,7.67,7.67,0,0,0,2.17-1.67V91a27.49,27.49,0,0,0-3.61.37,9.46,9.46,0,0,0-2.33.69,3.06,3.06,0,0,0-1.26,1,2.17,2.17,0,0,0-.38,1.22,2.15,2.15,0,0,0,.77,1.86A3.28,3.28,0,0,0,468.89,96.69Z"/><path class="cls-2" d="M489.71,100.09a5.37,5.37,0,0,1-4.11-1.51,5.81,5.81,0,0,1-1.43-4.17V83h-2.1a.93.93,0,0,1-.68-.26,1,1,0,0,1-.28-.78V80l3.3-.54,1-5.6a1.08,1.08,0,0,1,.38-.62,1.14,1.14,0,0,1,.72-.22h2.56v6.46h5.48V83h-5.48V94.07a2.18,2.18,0,0,0,.47,1.5,1.61,1.61,0,0,0,1.29.54,2.2,2.2,0,0,0,.77-.11,3.5,3.5,0,0,0,.54-.23c.15-.08.29-.15.41-.23a.72.72,0,0,1,.36-.11.59.59,0,0,1,.36.11,2.57,2.57,0,0,1,.3.33l1.48,2.4a7.39,7.39,0,0,1-2.48,1.36A9.17,9.17,0,0,1,489.71,100.09Z"/><path class="cls-2" d="M502.49,79.25v13a4.36,4.36,0,0,0,.87,2.91,3.21,3.21,0,0,0,2.61,1,5.24,5.24,0,0,0,2.4-.57,8.31,8.31,0,0,0,2.12-1.57V79.25h4.94V99.77h-3a1.16,1.16,0,0,1-1.24-.9l-.34-1.64a14.19,14.19,0,0,1-1.32,1.17,7.91,7.91,0,0,1-1.46.91,7.1,7.1,0,0,1-1.66.58,8.32,8.32,0,0,1-1.92.2,7.29,7.29,0,0,1-3-.57,5.9,5.9,0,0,1-2.17-1.61A6.91,6.91,0,0,1,498,95.44a10.42,10.42,0,0,1-.45-3.15v-13Z"/><path class="cls-2" d="M520.31,99.77V79.25h2.9a1.61,1.61,0,0,1,1.06.27,1.63,1.63,0,0,1,.4,1l.28,2.32a9.1,9.1,0,0,1,2.3-2.89,4.86,4.86,0,0,1,3.12-1,3.85,3.85,0,0,1,2.28.62l-.32,3.7a1,1,0,0,1-.29.51.81.81,0,0,1-.51.15,5.39,5.39,0,0,1-.89-.1,7.66,7.66,0,0,0-1.15-.1,4.14,4.14,0,0,0-1.46.24,3.64,3.64,0,0,0-1.15.69,4.85,4.85,0,0,0-.9,1.09,10.45,10.45,0,0,0-.73,1.46V99.77Z"/><path class="cls-2" d="M548.39,99.77a2.25,2.25,0,0,1-1.08-.21,1.39,1.39,0,0,1-.6-.85l-.44-1.46a17.12,17.12,0,0,1-1.52,1.23,8.89,8.89,0,0,1-1.54.89,8.11,8.11,0,0,1-1.71.54,10.43,10.43,0,0,1-2,.18,7.65,7.65,0,0,1-2.4-.35,5.1,5.1,0,0,1-1.9-1A4.61,4.61,0,0,1,534,97a6.22,6.22,0,0,1-.44-2.42,4.77,4.77,0,0,1,.61-2.29,5.71,5.71,0,0,1,2-2,13,13,0,0,1,3.78-1.51,27.17,27.17,0,0,1,5.88-.68v-1.2a4.53,4.53,0,0,0-.88-3,3.22,3.22,0,0,0-2.54-1,6.18,6.18,0,0,0-2,.28,8.61,8.61,0,0,0-1.39.63c-.4.24-.76.45-1.09.63a2.13,2.13,0,0,1-1.09.28,1.42,1.42,0,0,1-.88-.27,2.16,2.16,0,0,1-.58-.63l-.88-1.58A12.18,12.18,0,0,1,543,78.87a8.4,8.4,0,0,1,3.22.59,7,7,0,0,1,2.4,1.64,7.1,7.1,0,0,1,1.49,2.51,9.67,9.67,0,0,1,.51,3.2v13ZM541,96.69a5.83,5.83,0,0,0,2.63-.55,7.67,7.67,0,0,0,2.17-1.67V91a27.68,27.68,0,0,0-3.61.37,9.59,9.59,0,0,0-2.33.69,3.06,3.06,0,0,0-1.26,1,2.1,2.1,0,0,0-.38,1.22,2.15,2.15,0,0,0,.77,1.86A3.28,3.28,0,0,0,541,96.69Z"/><path class="cls-3" d="M88.59,141.15h2a.86.86,0,0,1,.55.16,1.1,1.1,0,0,1,.31.43l5.27,13.15a8.94,8.94,0,0,1,.33,1c.1.35.19.7.29,1.08.08-.38.16-.73.25-1.08a7.2,7.2,0,0,1,.32-1l5.24-13.15a1.14,1.14,0,0,1,.31-.41.85.85,0,0,1,.55-.18h2l-7.6,18.62H96.18Z"/><path class="cls-3" d="M111.88,146.4a6.82,6.82,0,0,1,2.61.48,5.61,5.61,0,0,1,2,1.36,6.12,6.12,0,0,1,1.24,2.14,9.16,9.16,0,0,1,0,5.61,6.07,6.07,0,0,1-1.24,2.13,5.48,5.48,0,0,1-2,1.36,6.82,6.82,0,0,1-2.61.48,6.73,6.73,0,0,1-2.6-.48,5.43,5.43,0,0,1-2-1.36A6.27,6.27,0,0,1,106,156a9.16,9.16,0,0,1,0-5.61,6.31,6.31,0,0,1,1.26-2.14,5.56,5.56,0,0,1,2-1.36A6.73,6.73,0,0,1,111.88,146.4Zm0,11.75a3.38,3.38,0,0,0,2.91-1.31,6,6,0,0,0,1-3.64,6.06,6.06,0,0,0-1-3.67,3.38,3.38,0,0,0-2.91-1.31,3.92,3.92,0,0,0-1.71.34,3.21,3.21,0,0,0-1.22,1,4.47,4.47,0,0,0-.73,1.57,9.26,9.26,0,0,0,0,4.19,4.37,4.37,0,0,0,.73,1.55,3.21,3.21,0,0,0,1.22,1A3.92,3.92,0,0,0,111.88,158.15Z"/><path class="cls-3" d="M130,149a1.49,1.49,0,0,1-.21.22.51.51,0,0,1-.3.07.72.72,0,0,1-.42-.16,5.06,5.06,0,0,0-.58-.36,4.65,4.65,0,0,0-.85-.35,3.92,3.92,0,0,0-1.23-.17,4,4,0,0,0-1.7.35,3.32,3.32,0,0,0-1.24,1,4.46,4.46,0,0,0-.75,1.58,8.41,8.41,0,0,0,0,4.19,4.74,4.74,0,0,0,.77,1.56,3.28,3.28,0,0,0,1.2,1,3.78,3.78,0,0,0,1.6.33,4,4,0,0,0,1.39-.2,3.86,3.86,0,0,0,.91-.45,5.83,5.83,0,0,0,.6-.45.72.72,0,0,1,.46-.2.52.52,0,0,1,.45.22l.65.85a5.11,5.11,0,0,1-2.15,1.54,7.72,7.72,0,0,1-2.72.49,5.82,5.82,0,0,1-2.29-.46,5.12,5.12,0,0,1-1.84-1.32,6.2,6.2,0,0,1-1.23-2.12,8.54,8.54,0,0,1-.45-2.88,8.7,8.7,0,0,1,.41-2.71,6.22,6.22,0,0,1,1.2-2.16,5.43,5.43,0,0,1,1.94-1.41,6.7,6.7,0,0,1,2.65-.5,6.26,6.26,0,0,1,2.45.45,5.86,5.86,0,0,1,1.88,1.26Z"/><path class="cls-3" d="M138.36,146.4a6,6,0,0,1,2.19.39,5.09,5.09,0,0,1,1.73,1.15,5.24,5.24,0,0,1,1.13,1.84,7,7,0,0,1,.41,2.51,1.61,1.61,0,0,1-.11.72.48.48,0,0,1-.45.19H134.5a7.32,7.32,0,0,0,.34,2.17,4.41,4.41,0,0,0,.86,1.54,3.4,3.4,0,0,0,1.3.92,4.5,4.5,0,0,0,1.69.31,5.09,5.09,0,0,0,1.5-.2,7.7,7.7,0,0,0,1.09-.44c.3-.16.55-.3.76-.44a1,1,0,0,1,.52-.2.52.52,0,0,1,.44.22l.65.85a4,4,0,0,1-1,.9,6.09,6.09,0,0,1-1.28.63,7.71,7.71,0,0,1-1.41.37,8,8,0,0,1-1.45.13,6.83,6.83,0,0,1-2.51-.46,5.48,5.48,0,0,1-2-1.36,6.16,6.16,0,0,1-1.31-2.2,9,9,0,0,1-.47-3,7.45,7.45,0,0,1,.43-2.57,5.92,5.92,0,0,1,1.21-2.07,5.54,5.54,0,0,1,1.94-1.38A6.24,6.24,0,0,1,138.36,146.4Zm4-1.82h-1.55a.89.89,0,0,1-.52-.18l-1.66-1.64-.22-.22-.21.22-1.68,1.64a.86.86,0,0,1-.22.12.73.73,0,0,1-.3.06h-1.6l2.9-3.43h2.16Zm-4,3.52a3.53,3.53,0,0,0-2.64,1,4.52,4.52,0,0,0-1.2,2.68h7.16a4.58,4.58,0,0,0-.22-1.47,3.14,3.14,0,0,0-.65-1.16,2.81,2.81,0,0,0-1-.75A3.55,3.55,0,0,0,138.42,148.1Z"/><path class="cls-3" d="M161.46,159.77h-1a1.23,1.23,0,0,1-.55-.1.57.57,0,0,1-.27-.44l-.26-1.22c-.35.31-.69.59-1,.83a5.54,5.54,0,0,1-1,.63,4.93,4.93,0,0,1-1.16.38,6.44,6.44,0,0,1-1.37.13,4.82,4.82,0,0,1-1.44-.21,3.38,3.38,0,0,1-1.16-.65,3.16,3.16,0,0,1-.79-1.09,3.91,3.91,0,0,1-.29-1.56,2.85,2.85,0,0,1,.43-1.5,3.85,3.85,0,0,1,1.38-1.29,9.14,9.14,0,0,1,2.51-.92,16.94,16.94,0,0,1,3.78-.36v-1a3.54,3.54,0,0,0-.66-2.33,2.37,2.37,0,0,0-1.94-.8,3.92,3.92,0,0,0-1.42.22,5.28,5.28,0,0,0-1,.48l-.72.48a1.09,1.09,0,0,1-.61.21.73.73,0,0,1-.41-.12,1,1,0,0,1-.28-.3l-.41-.75a7.62,7.62,0,0,1,2.35-1.57,7.2,7.2,0,0,1,2.8-.52,4.86,4.86,0,0,1,2,.37,4,4,0,0,1,1.44,1,4.32,4.32,0,0,1,.89,1.57,6.87,6.87,0,0,1,.29,2Zm-6-1.41a4.36,4.36,0,0,0,1.12-.13,4.51,4.51,0,0,0,.95-.35,4.64,4.64,0,0,0,.86-.55,7.79,7.79,0,0,0,.8-.74v-2.72a15,15,0,0,0-2.72.21,7.86,7.86,0,0,0-1.82.52,2.5,2.5,0,0,0-1,.78,1.65,1.65,0,0,0-.32,1,2.22,2.22,0,0,0,.17.9,1.71,1.71,0,0,0,.46.62,1.88,1.88,0,0,0,.67.36A3.24,3.24,0,0,0,155.46,158.36Z"/><path class="cls-3" d="M168.07,142.47a1.46,1.46,0,0,1-.14.63,1.73,1.73,0,0,1-.36.52,1.77,1.77,0,0,1-.53.36,1.62,1.62,0,0,1-1.27,0,1.86,1.86,0,0,1-.52-.36,1.54,1.54,0,0,1-.35-.52,1.45,1.45,0,0,1-.13-.63,1.56,1.56,0,0,1,.13-.64,1.62,1.62,0,0,1,.35-.54,1.64,1.64,0,0,1,.52-.35,1.62,1.62,0,0,1,1.27,0,1.58,1.58,0,0,1,.53.35,1.82,1.82,0,0,1,.36.54A1.57,1.57,0,0,1,168.07,142.47Zm-.52,4.14v13.16h-2.32V146.61Z"/><path class="cls-3" d="M171.63,159.77V146.61H173a.58.58,0,0,1,.62.48l.18,1.43a7.36,7.36,0,0,1,1.92-1.54,5,5,0,0,1,2.45-.58,4.93,4.93,0,0,1,1.91.35,3.6,3.6,0,0,1,1.37,1,4.43,4.43,0,0,1,.84,1.58,6.84,6.84,0,0,1,.29,2v8.38h-2.32v-8.38a3.51,3.51,0,0,0-.68-2.32,2.54,2.54,0,0,0-2.08-.83,3.87,3.87,0,0,0-1.92.5,6.24,6.24,0,0,0-1.65,1.34v9.69Z"/><path class="cls-3" d="M195.35,159.77a.59.59,0,0,1-.62-.48l-.21-1.6a6.71,6.71,0,0,1-1.93,1.65,5,5,0,0,1-2.49.62,4.74,4.74,0,0,1-2-.44,4.21,4.21,0,0,1-1.57-1.28,6,6,0,0,1-1-2.11,11,11,0,0,1-.35-2.89,9.12,9.12,0,0,1,.39-2.72,6.58,6.58,0,0,1,1.13-2.17,5.14,5.14,0,0,1,1.79-1.45,5.25,5.25,0,0,1,2.39-.53,4.79,4.79,0,0,1,2.06.41,4.89,4.89,0,0,1,1.54,1.15v-7.3h2.31v19.14Zm-4.48-1.69a3.7,3.7,0,0,0,2-.52,5.64,5.64,0,0,0,1.57-1.46v-6.37a3.64,3.64,0,0,0-1.4-1.21,4,4,0,0,0-1.68-.34,3.36,3.36,0,0,0-2.84,1.31,6.13,6.13,0,0,0-1,3.75,9.39,9.39,0,0,0,.22,2.2,4.11,4.11,0,0,0,.65,1.51,2.49,2.49,0,0,0,1.05.86A3.58,3.58,0,0,0,190.87,158.08Z"/><path class="cls-3" d="M210.29,159.77h-1a1.21,1.21,0,0,1-.54-.1.57.57,0,0,1-.27-.44l-.26-1.22c-.35.31-.69.59-1,.83a5.54,5.54,0,0,1-1,.63,4.93,4.93,0,0,1-1.16.38,6.44,6.44,0,0,1-1.37.13,4.82,4.82,0,0,1-1.44-.21,3.29,3.29,0,0,1-1.16-.65,3.16,3.16,0,0,1-.79-1.09,3.91,3.91,0,0,1-.29-1.56,2.85,2.85,0,0,1,.43-1.5,3.69,3.69,0,0,1,1.38-1.29,9.19,9.19,0,0,1,2.5-.92,17.1,17.1,0,0,1,3.79-.36v-1a3.54,3.54,0,0,0-.66-2.33,2.38,2.38,0,0,0-1.94-.8,4,4,0,0,0-1.43.22,5.17,5.17,0,0,0-1,.48l-.73.48a1,1,0,0,1-.6.21.71.71,0,0,1-.41-.12.89.89,0,0,1-.28-.3l-.42-.75a7.66,7.66,0,0,1,2.36-1.57,7.19,7.19,0,0,1,2.79-.52,4.91,4.91,0,0,1,2,.37,4,4,0,0,1,1.44,1,4.3,4.3,0,0,1,.88,1.57,6.55,6.55,0,0,1,.3,2Zm-6-1.41a4.28,4.28,0,0,0,1.11-.13,4.39,4.39,0,0,0,1-.35,5,5,0,0,0,.86-.55,7.79,7.79,0,0,0,.8-.74v-2.72a15,15,0,0,0-2.72.21,7.72,7.72,0,0,0-1.82.52,2.5,2.5,0,0,0-1,.78,1.65,1.65,0,0,0-.32,1,2.22,2.22,0,0,0,.17.9,1.68,1.68,0,0,0,.45.62,2,2,0,0,0,.68.36A3.24,3.24,0,0,0,204.29,158.36Z"/><path class="cls-3" d="M218.82,159.77V146.61h1.38a.59.59,0,0,1,.62.48l.18,1.43a7.2,7.2,0,0,1,1.92-1.54,5,5,0,0,1,2.45-.58,4.93,4.93,0,0,1,1.91.35,3.6,3.6,0,0,1,1.37,1,4.43,4.43,0,0,1,.84,1.58,6.84,6.84,0,0,1,.29,2v8.38h-2.32v-8.38a3.51,3.51,0,0,0-.68-2.32,2.55,2.55,0,0,0-2.09-.83,3.86,3.86,0,0,0-1.91.5,6.24,6.24,0,0,0-1.65,1.34v9.69Z"/><path class="cls-3" d="M243,159.77h-1a1.23,1.23,0,0,1-.55-.1.59.59,0,0,1-.27-.44l-.26-1.22c-.35.31-.68.59-1,.83a5.88,5.88,0,0,1-1,.63,5,5,0,0,1-1.17.38,6.44,6.44,0,0,1-1.37.13,4.71,4.71,0,0,1-1.43-.21,3.34,3.34,0,0,1-1.17-.65,3,3,0,0,1-.78-1.09,3.74,3.74,0,0,1-.3-1.56A3,3,0,0,1,233,155a3.8,3.8,0,0,1,1.39-1.29,9.06,9.06,0,0,1,2.5-.92,16.94,16.94,0,0,1,3.78-.36v-1A3.6,3.6,0,0,0,240,149a2.39,2.39,0,0,0-2-.8,3.92,3.92,0,0,0-1.42.22,4.9,4.9,0,0,0-1,.48l-.73.48a1.07,1.07,0,0,1-.61.21.68.68,0,0,1-.4-.12.89.89,0,0,1-.28-.3l-.42-.75a7.62,7.62,0,0,1,2.35-1.57,7.24,7.24,0,0,1,2.8-.52,4.86,4.86,0,0,1,2,.37,4,4,0,0,1,1.44,1,4.32,4.32,0,0,1,.89,1.57,6.55,6.55,0,0,1,.3,2Zm-3.28-17.22a.94.94,0,0,0,.72-.27,1.29,1.29,0,0,0,.27-.85h1.4a3.72,3.72,0,0,1-.16,1.13,2.43,2.43,0,0,1-.47.87,2,2,0,0,1-.73.57,2.2,2.2,0,0,1-.94.2,1.89,1.89,0,0,1-.85-.19,6.79,6.79,0,0,1-.75-.41l-.66-.41a1.24,1.24,0,0,0-.61-.19c-.62,0-.95.39-1,1.15h-1.45a3.69,3.69,0,0,1,.17-1.14,2.85,2.85,0,0,1,.48-.88,2.23,2.23,0,0,1,.75-.58,2.18,2.18,0,0,1,.93-.2,2,2,0,0,1,.85.19,6.63,6.63,0,0,1,.75.41c.23.15.45.29.66.41A1.09,1.09,0,0,0,239.67,142.55Zm-2.73,15.81a4.36,4.36,0,0,0,1.12-.13,4.13,4.13,0,0,0,.95-.35,4.64,4.64,0,0,0,.86-.55,6.88,6.88,0,0,0,.8-.74v-2.72a14.91,14.91,0,0,0-2.71.21,7.81,7.81,0,0,0-1.83.52,2.65,2.65,0,0,0-1,.78,1.64,1.64,0,0,0-.31,1,2.23,2.23,0,0,0,.16.9,1.83,1.83,0,0,0,.46.62,1.93,1.93,0,0,0,.68.36A3.22,3.22,0,0,0,236.94,158.36Z"/><path class="cls-3" d="M251.79,146.4a6.73,6.73,0,0,1,2.6.48,5.43,5.43,0,0,1,2,1.36,6.14,6.14,0,0,1,1.25,2.14,9.36,9.36,0,0,1,0,5.61,6.09,6.09,0,0,1-1.25,2.13,5.31,5.31,0,0,1-2,1.36,7.31,7.31,0,0,1-5.21,0,5.31,5.31,0,0,1-2-1.36,6,6,0,0,1-1.26-2.13,9,9,0,0,1,0-5.61,6,6,0,0,1,1.26-2.14,5.43,5.43,0,0,1,2-1.36A6.78,6.78,0,0,1,251.79,146.4Zm0,11.75a3.38,3.38,0,0,0,2.91-1.31,6,6,0,0,0,1-3.64,6.13,6.13,0,0,0-1-3.67,3.38,3.38,0,0,0-2.91-1.31,4,4,0,0,0-1.72.34,3.21,3.21,0,0,0-1.22,1,4.46,4.46,0,0,0-.72,1.57,9.26,9.26,0,0,0,0,4.19,4.36,4.36,0,0,0,.72,1.55,3.21,3.21,0,0,0,1.22,1A4,4,0,0,0,251.79,158.15Z"/><path class="cls-3" d="M269.92,160a3.18,3.18,0,0,1-2.4-.87,3.48,3.48,0,0,1-.84-2.51v-8.06H265.1a.51.51,0,0,1-.35-.12.46.46,0,0,1-.15-.38v-.93l2.16-.27.54-4.07a.47.47,0,0,1,.16-.32.57.57,0,0,1,.37-.12H269v4.54h3.77v1.67H269v7.91a1.67,1.67,0,0,0,.4,1.23,1.41,1.41,0,0,0,1,.4,2,2,0,0,0,.63-.09,2.83,2.83,0,0,0,.46-.22l.34-.21a.4.4,0,0,1,.24-.1.38.38,0,0,1,.32.22l.68,1.11a4.28,4.28,0,0,1-1.45.87A4.71,4.71,0,0,1,269.92,160Z"/><path class="cls-3" d="M280.84,146.4a5.91,5.91,0,0,1,2.18.39,4.9,4.9,0,0,1,1.73,1.15,5.12,5.12,0,0,1,1.14,1.84,7.26,7.26,0,0,1,.41,2.51,1.45,1.45,0,0,1-.12.72.46.46,0,0,1-.44.19H277a7.32,7.32,0,0,0,.34,2.17,4.41,4.41,0,0,0,.86,1.54,3.32,3.32,0,0,0,1.3.92,4.5,4.5,0,0,0,1.69.31,5.09,5.09,0,0,0,1.5-.2,7.09,7.09,0,0,0,1.08-.44,6.75,6.75,0,0,0,.76-.44,1.07,1.07,0,0,1,.53-.2.52.52,0,0,1,.44.22l.65.85a4.07,4.07,0,0,1-1,.9,5.65,5.65,0,0,1-1.28.63,7.3,7.3,0,0,1-1.41.37A7.79,7.79,0,0,1,281,160a6.79,6.79,0,0,1-2.51-.46,5.48,5.48,0,0,1-2-1.36,6.16,6.16,0,0,1-1.31-2.2,9,9,0,0,1-.47-3,7.7,7.7,0,0,1,.42-2.57,6.1,6.1,0,0,1,1.22-2.07,5.45,5.45,0,0,1,1.94-1.38A6.24,6.24,0,0,1,280.84,146.4Zm.05,1.7a3.55,3.55,0,0,0-2.64,1,4.51,4.51,0,0,0-1.19,2.68h7.16a4.58,4.58,0,0,0-.22-1.47,3.29,3.29,0,0,0-.65-1.16,2.93,2.93,0,0,0-1.05-.75A3.48,3.48,0,0,0,280.89,148.1Z"/><path class="cls-3" d="M289.25,159.77V146.61h1.38a.58.58,0,0,1,.62.48l.17,1.35a6.82,6.82,0,0,1,1.63-1.47,3.89,3.89,0,0,1,2.1-.57,3.09,3.09,0,0,1,2.17.74,4.13,4.13,0,0,1,1.19,2,4.12,4.12,0,0,1,1.73-2.09,4.3,4.3,0,0,1,1.19-.5,5.47,5.47,0,0,1,1.28-.15,4.88,4.88,0,0,1,1.85.33,3.64,3.64,0,0,1,1.38,1,4.35,4.35,0,0,1,.86,1.56,6.93,6.93,0,0,1,.3,2.13v8.38h-2.31v-8.38a3.58,3.58,0,0,0-.68-2.35,2.43,2.43,0,0,0-2-.8,3.06,3.06,0,0,0-1.09.2,2.73,2.73,0,0,0-.9.6,2.7,2.7,0,0,0-.62,1,3.82,3.82,0,0,0-.23,1.37v8.38H297v-8.38a3.66,3.66,0,0,0-.64-2.37,2.25,2.25,0,0,0-1.86-.78,2.92,2.92,0,0,0-1.59.47,4.91,4.91,0,0,0-1.34,1.25v9.81Z"/><path class="cls-3" d="M317.62,146.61V155a3.51,3.51,0,0,0,.69,2.32,2.58,2.58,0,0,0,2.08.82,4,4,0,0,0,1.91-.48,6.08,6.08,0,0,0,1.65-1.34v-9.71h2.31v13.16h-1.38a.59.59,0,0,1-.62-.48l-.18-1.41a7,7,0,0,1-1.93,1.52,5,5,0,0,1-2.44.58,4.7,4.7,0,0,1-1.9-.36,3.7,3.7,0,0,1-1.39-1,4.43,4.43,0,0,1-.84-1.58,7.19,7.19,0,0,1-.28-2v-8.39Z"/><path class="cls-3" d="M330.07,159.77V146.61h1.38a.58.58,0,0,1,.62.48l.17,1.35a6.82,6.82,0,0,1,1.63-1.47,3.89,3.89,0,0,1,2.1-.57,3.09,3.09,0,0,1,2.17.74,4.21,4.21,0,0,1,1.19,2,4.12,4.12,0,0,1,1.73-2.09,4.3,4.3,0,0,1,1.19-.5,5.47,5.47,0,0,1,1.28-.15,4.88,4.88,0,0,1,1.85.33,3.64,3.64,0,0,1,1.38,1,4.35,4.35,0,0,1,.86,1.56,6.93,6.93,0,0,1,.3,2.13v8.38h-2.31v-8.38a3.58,3.58,0,0,0-.68-2.35,2.43,2.43,0,0,0-2-.8,3.06,3.06,0,0,0-1.09.2,2.73,2.73,0,0,0-.9.6,2.7,2.7,0,0,0-.62,1,3.82,3.82,0,0,0-.23,1.37v8.38h-2.31v-8.38a3.66,3.66,0,0,0-.64-2.37,2.25,2.25,0,0,0-1.86-.78,2.92,2.92,0,0,0-1.59.47,4.91,4.91,0,0,0-1.34,1.25v9.81Z"/><path class="cls-3" d="M361.09,159.77h-1a1.21,1.21,0,0,1-.54-.1.6.6,0,0,1-.28-.44L359,158a11.93,11.93,0,0,1-1,.83,5.88,5.88,0,0,1-1,.63,4.93,4.93,0,0,1-1.16.38,6.54,6.54,0,0,1-1.38.13,4.71,4.71,0,0,1-1.43-.21,3.34,3.34,0,0,1-1.17-.65A3,3,0,0,1,351,158a3.75,3.75,0,0,1-.29-1.56,2.94,2.94,0,0,1,.42-1.5,3.8,3.8,0,0,1,1.39-1.29,9.19,9.19,0,0,1,2.5-.92,16.94,16.94,0,0,1,3.78-.36v-1a3.54,3.54,0,0,0-.65-2.33,2.39,2.39,0,0,0-2-.8,4,4,0,0,0-1.42.22,5.17,5.17,0,0,0-1,.48l-.73.48a1,1,0,0,1-.6.21.71.71,0,0,1-.41-.12.89.89,0,0,1-.28-.3l-.42-.75a7.55,7.55,0,0,1,2.36-1.57,7.19,7.19,0,0,1,2.79-.52,4.83,4.83,0,0,1,2,.37,4,4,0,0,1,1.45,1,4.3,4.3,0,0,1,.88,1.57,6.55,6.55,0,0,1,.3,2Zm-6-1.41a4.6,4.6,0,0,0,2.08-.48,4.57,4.57,0,0,0,.85-.55,6.88,6.88,0,0,0,.8-.74v-2.72a14.91,14.91,0,0,0-2.71.21,7.72,7.72,0,0,0-1.82.52,2.5,2.5,0,0,0-1,.78,1.59,1.59,0,0,0-.32,1,2.07,2.07,0,0,0,.17.9,1.68,1.68,0,0,0,.45.62,1.93,1.93,0,0,0,.68.36A3.22,3.22,0,0,0,355.08,158.36Z"/><path class="cls-3" d="M379.29,159.77h-1a1.18,1.18,0,0,1-.54-.1.6.6,0,0,1-.28-.44l-.26-1.22a11.93,11.93,0,0,1-1,.83,5.88,5.88,0,0,1-1,.63,5.09,5.09,0,0,1-1.16.38,6.54,6.54,0,0,1-1.38.13,4.71,4.71,0,0,1-1.43-.21,3.34,3.34,0,0,1-1.17-.65,3,3,0,0,1-.78-1.09,3.75,3.75,0,0,1-.29-1.56,2.94,2.94,0,0,1,.42-1.5,3.8,3.8,0,0,1,1.39-1.29,9.19,9.19,0,0,1,2.5-.92,16.94,16.94,0,0,1,3.78-.36v-1a3.6,3.6,0,0,0-.65-2.33,2.39,2.39,0,0,0-1.95-.8,4,4,0,0,0-1.42.22,4.9,4.9,0,0,0-1,.48l-.73.48a1,1,0,0,1-.6.21.69.69,0,0,1-.41-.12.89.89,0,0,1-.28-.3l-.42-.75a7.55,7.55,0,0,1,2.36-1.57,7.19,7.19,0,0,1,2.79-.52,4.83,4.83,0,0,1,2,.37,4,4,0,0,1,1.45,1,4.3,4.3,0,0,1,.88,1.57,6.55,6.55,0,0,1,.3,2Zm-6-1.41a4.6,4.6,0,0,0,2.08-.48,4.57,4.57,0,0,0,.85-.55,6.88,6.88,0,0,0,.8-.74v-2.72a14.91,14.91,0,0,0-2.71.21,7.72,7.72,0,0,0-1.82.52,2.5,2.5,0,0,0-1,.78,1.59,1.59,0,0,0-.32,1,2.07,2.07,0,0,0,.17.9,1.68,1.68,0,0,0,.45.62,1.93,1.93,0,0,0,.68.36A3.22,3.22,0,0,0,373.28,158.36Z"/><path class="cls-3" d="M390.34,148.78a.52.52,0,0,1-.48.28.93.93,0,0,1-.44-.14c-.17-.1-.37-.2-.61-.32a5.44,5.44,0,0,0-.85-.32,4.06,4.06,0,0,0-1.17-.15,3.41,3.41,0,0,0-1.05.15,2.32,2.32,0,0,0-.8.41,1.82,1.82,0,0,0-.51.6,1.6,1.6,0,0,0-.18.75,1.2,1.2,0,0,0,.3.84,2.49,2.49,0,0,0,.77.59,6.52,6.52,0,0,0,1.09.43c.41.13.83.26,1.26.41s.84.3,1.25.47a4.37,4.37,0,0,1,1.09.65,3.05,3.05,0,0,1,.78,1,3,3,0,0,1,.29,1.35,4.28,4.28,0,0,1-.33,1.69,3.61,3.61,0,0,1-1,1.34,4.72,4.72,0,0,1-1.56.89,6.54,6.54,0,0,1-2.13.32,6.66,6.66,0,0,1-2.5-.45,6.33,6.33,0,0,1-1.89-1.15l.54-.88a.78.78,0,0,1,.25-.26.69.69,0,0,1,.38-.09.87.87,0,0,1,.49.18,7.1,7.1,0,0,0,.63.4,4.74,4.74,0,0,0,.9.41,4.12,4.12,0,0,0,1.32.18,3.53,3.53,0,0,0,1.18-.18,2.4,2.4,0,0,0,.85-.47,2,2,0,0,0,.5-.69,2.31,2.31,0,0,0,.16-.83,1.42,1.42,0,0,0-.29-.91,2.71,2.71,0,0,0-.78-.61,6.3,6.3,0,0,0-1.1-.44c-.41-.12-.83-.26-1.26-.4a11.21,11.21,0,0,1-1.26-.47,4.49,4.49,0,0,1-1.1-.67,3,3,0,0,1-.77-1,3.33,3.33,0,0,1-.29-1.44,3.47,3.47,0,0,1,.31-1.45,3.58,3.58,0,0,1,.91-1.22,4.56,4.56,0,0,1,1.47-.84,5.82,5.82,0,0,1,2-.31,6.16,6.16,0,0,1,2.33.41,5.55,5.55,0,0,1,1.79,1.12Z"/><path class="cls-3" d="M401.62,148.78a.5.5,0,0,1-.48.28.93.93,0,0,1-.44-.14c-.17-.1-.37-.2-.61-.32a5.08,5.08,0,0,0-.85-.32,4.06,4.06,0,0,0-1.17-.15,3.41,3.41,0,0,0-1.05.15,2.42,2.42,0,0,0-.8.41,1.82,1.82,0,0,0-.51.6,1.72,1.72,0,0,0-.17.75,1.24,1.24,0,0,0,.29.84,2.62,2.62,0,0,0,.77.59,6.64,6.64,0,0,0,1.1.43l1.25.41c.43.14.85.3,1.26.47a4.56,4.56,0,0,1,1.09.65,2.89,2.89,0,0,1,.77,1,2.83,2.83,0,0,1,.29,1.35,4.46,4.46,0,0,1-.32,1.69,3.85,3.85,0,0,1-1,1.34,4.93,4.93,0,0,1-1.56.89,7.21,7.21,0,0,1-4.63-.13,6.26,6.26,0,0,1-1.9-1.15l.55-.88a.87.87,0,0,1,.24-.26.71.71,0,0,1,.38-.09.85.85,0,0,1,.49.18c.18.12.39.26.64.4a4.36,4.36,0,0,0,.89.41,4.12,4.12,0,0,0,1.32.18,3.49,3.49,0,0,0,1.18-.18,2.4,2.4,0,0,0,.85-.47,2,2,0,0,0,.5-.69,2.12,2.12,0,0,0,.16-.83,1.42,1.42,0,0,0-.29-.91,2.54,2.54,0,0,0-.77-.61,6.63,6.63,0,0,0-1.1-.44c-.41-.12-.83-.26-1.26-.4a11.21,11.21,0,0,1-1.26-.47,4.31,4.31,0,0,1-1.1-.67,3.17,3.17,0,0,1-.78-1,3.33,3.33,0,0,1-.29-1.44,3.63,3.63,0,0,1,.31-1.45,3.72,3.72,0,0,1,.91-1.22,4.56,4.56,0,0,1,1.47-.84,5.86,5.86,0,0,1,2-.31,6.09,6.09,0,0,1,2.33.41,5.55,5.55,0,0,1,1.79,1.12Z"/><path class="cls-3" d="M408.46,142.47a1.46,1.46,0,0,1-.14.63,1.73,1.73,0,0,1-.36.52,1.77,1.77,0,0,1-.53.36,1.51,1.51,0,0,1-.63.13,1.45,1.45,0,0,1-.63-.13,1.73,1.73,0,0,1-.52-.36,1.57,1.57,0,0,1-.36-.52,1.45,1.45,0,0,1-.13-.63,1.56,1.56,0,0,1,.13-.64,1.65,1.65,0,0,1,.36-.54,1.54,1.54,0,0,1,.52-.35,1.45,1.45,0,0,1,.63-.13,1.51,1.51,0,0,1,.63.13,1.58,1.58,0,0,1,.53.35,1.82,1.82,0,0,1,.36.54A1.57,1.57,0,0,1,408.46,142.47Zm-.52,4.14v13.16h-2.31V146.61Z"/><path class="cls-3" d="M412,159.77V146.61h1.38a.58.58,0,0,1,.62.48l.19,1.43a7.31,7.31,0,0,1,1.91-1.54,5,5,0,0,1,2.45-.58,4.93,4.93,0,0,1,1.91.35,3.71,3.71,0,0,1,1.38,1,4.57,4.57,0,0,1,.83,1.58,6.53,6.53,0,0,1,.29,2v8.38h-2.31v-8.38a3.51,3.51,0,0,0-.69-2.32,2.54,2.54,0,0,0-2.08-.83,3.87,3.87,0,0,0-1.92.5,6.2,6.2,0,0,0-1.64,1.34v9.69Z"/><path class="cls-3" d="M436.15,159.77h-1a1.21,1.21,0,0,1-.54-.1.6.6,0,0,1-.28-.44L434,158a11.93,11.93,0,0,1-1,.83,5.88,5.88,0,0,1-1,.63,4.93,4.93,0,0,1-1.16.38,6.44,6.44,0,0,1-1.37.13,4.73,4.73,0,0,1-1.44-.21,3.34,3.34,0,0,1-1.17-.65,3.14,3.14,0,0,1-.78-1.09,3.75,3.75,0,0,1-.29-1.56,2.85,2.85,0,0,1,.43-1.5,3.69,3.69,0,0,1,1.38-1.29,9.19,9.19,0,0,1,2.5-.92,17,17,0,0,1,3.79-.36v-1a3.54,3.54,0,0,0-.66-2.33,2.39,2.39,0,0,0-2-.8,4,4,0,0,0-1.42.22,5.17,5.17,0,0,0-1,.48l-.73.48a1,1,0,0,1-.6.21.71.71,0,0,1-.41-.12.89.89,0,0,1-.28-.3l-.42-.75a7.55,7.55,0,0,1,2.36-1.57,7.19,7.19,0,0,1,2.79-.52,4.83,4.83,0,0,1,2,.37,4,4,0,0,1,1.45,1,4.3,4.3,0,0,1,.88,1.57,6.55,6.55,0,0,1,.3,2Zm-6-1.41a4.6,4.6,0,0,0,2.08-.48,5,5,0,0,0,.86-.55,7.79,7.79,0,0,0,.8-.74v-2.72a15,15,0,0,0-2.72.21,7.72,7.72,0,0,0-1.82.52,2.5,2.5,0,0,0-1,.78,1.59,1.59,0,0,0-.32,1,2.07,2.07,0,0,0,.17.9,1.68,1.68,0,0,0,.45.62,1.93,1.93,0,0,0,.68.36A3.22,3.22,0,0,0,430.14,158.36Z"/><path class="cls-3" d="M443.65,160a3.18,3.18,0,0,1-2.4-.87,3.48,3.48,0,0,1-.84-2.51v-8.06h-1.58a.51.51,0,0,1-.35-.12.46.46,0,0,1-.15-.38v-.93l2.16-.27.53-4.07a.53.53,0,0,1,.17-.32.57.57,0,0,1,.37-.12h1.17v4.54h3.77v1.67h-3.77v7.91a1.67,1.67,0,0,0,.4,1.23,1.41,1.41,0,0,0,1,.4,2,2,0,0,0,.63-.09,2.83,2.83,0,0,0,.46-.22l.33-.21a.4.4,0,0,1,.24-.1.39.39,0,0,1,.33.22l.68,1.11a4.28,4.28,0,0,1-1.45.87A4.71,4.71,0,0,1,443.65,160Z"/><path class="cls-3" d="M451.36,146.61V155a3.51,3.51,0,0,0,.69,2.32,2.58,2.58,0,0,0,2.08.82,4,4,0,0,0,1.91-.48,6.08,6.08,0,0,0,1.65-1.34v-9.71H460v13.16h-1.37a.6.6,0,0,1-.63-.48l-.18-1.41a7.12,7.12,0,0,1-1.92,1.52,5,5,0,0,1-2.45.58,4.7,4.7,0,0,1-1.9-.36,3.78,3.78,0,0,1-1.39-1,4.26,4.26,0,0,1-.83-1.58,6.84,6.84,0,0,1-.29-2v-8.39Z"/><path class="cls-3" d="M463.81,159.77V146.61h1.33a.72.72,0,0,1,.52.14.86.86,0,0,1,.19.49l.16,2.06a6,6,0,0,1,1.67-2.15,3.66,3.66,0,0,1,2.33-.78,3.35,3.35,0,0,1,1,.13,3.15,3.15,0,0,1,.82.34l-.3,1.73a.38.38,0,0,1-.4.32,2.08,2.08,0,0,1-.56-.12,3.6,3.6,0,0,0-1.05-.12,3,3,0,0,0-2,.7,5.17,5.17,0,0,0-1.36,2v8.38Z"/><path class="cls-3" d="M483.47,159.77h-1a1.21,1.21,0,0,1-.54-.1.6.6,0,0,1-.28-.44l-.26-1.22a11.93,11.93,0,0,1-1,.83,5.88,5.88,0,0,1-1,.63,4.93,4.93,0,0,1-1.16.38,6.54,6.54,0,0,1-1.38.13,4.71,4.71,0,0,1-1.43-.21,3.34,3.34,0,0,1-1.17-.65,3,3,0,0,1-.78-1.09,3.74,3.74,0,0,1-.3-1.56,3,3,0,0,1,.43-1.5,3.8,3.8,0,0,1,1.39-1.29,9.19,9.19,0,0,1,2.5-.92,16.94,16.94,0,0,1,3.78-.36v-1a3.54,3.54,0,0,0-.65-2.33,2.39,2.39,0,0,0-2-.8,4,4,0,0,0-1.42.22,5.17,5.17,0,0,0-1,.48l-.73.48a1,1,0,0,1-.6.21.69.69,0,0,1-.41-.12.89.89,0,0,1-.28-.3l-.42-.75a7.62,7.62,0,0,1,2.35-1.57,7.27,7.27,0,0,1,2.8-.52,4.83,4.83,0,0,1,2,.37,4,4,0,0,1,1.45,1,4.3,4.3,0,0,1,.88,1.57,6.55,6.55,0,0,1,.3,2Zm-6-1.41a4.6,4.6,0,0,0,2.08-.48,4.57,4.57,0,0,0,.85-.55,6.88,6.88,0,0,0,.8-.74v-2.72a14.91,14.91,0,0,0-2.71.21,7.58,7.58,0,0,0-1.82.52,2.5,2.5,0,0,0-1,.78,1.59,1.59,0,0,0-.32,1,2.07,2.07,0,0,0,.17.9,1.68,1.68,0,0,0,.45.62,1.93,1.93,0,0,0,.68.36A3.22,3.22,0,0,0,477.46,158.36Z"/><path class="cls-3" d="M492,159.77V146.61h1.32a.7.7,0,0,1,.52.14.86.86,0,0,1,.2.49l.15,2.06a6,6,0,0,1,1.67-2.15,3.69,3.69,0,0,1,2.34-.78,3.44,3.44,0,0,1,1,.13,3.23,3.23,0,0,1,.81.34l-.29,1.73a.4.4,0,0,1-.41.32,2.16,2.16,0,0,1-.56-.12,3.6,3.6,0,0,0-1.05-.12,3,3,0,0,0-2,.7,5.28,5.28,0,0,0-1.36,2v8.38Z"/><path class="cls-3" d="M507.69,146.4a6,6,0,0,1,2.18.39,5,5,0,0,1,1.73,1.15,5.41,5.41,0,0,1,1.14,1.84,7.26,7.26,0,0,1,.41,2.51,1.45,1.45,0,0,1-.12.72.48.48,0,0,1-.44.19h-8.76a7.33,7.33,0,0,0,.33,2.17,4.57,4.57,0,0,0,.86,1.54,3.48,3.48,0,0,0,1.3.92,4.54,4.54,0,0,0,1.69.31,5.09,5.09,0,0,0,1.5-.2,7.24,7.24,0,0,0,1.09-.44,7.79,7.79,0,0,0,.76-.44,1,1,0,0,1,.53-.2.53.53,0,0,1,.44.22l.65.85a4.25,4.25,0,0,1-1,.9,5.86,5.86,0,0,1-1.28.63,7.3,7.3,0,0,1-1.41.37,8,8,0,0,1-1.44.13,6.89,6.89,0,0,1-2.52-.46,5.56,5.56,0,0,1-2-1.36,6.15,6.15,0,0,1-1.3-2.2,8.79,8.79,0,0,1-.47-3,7.7,7.7,0,0,1,.42-2.57,5.94,5.94,0,0,1,1.22-2.07,5.5,5.5,0,0,1,1.93-1.38A6.29,6.29,0,0,1,507.69,146.4Zm.05,1.7a3.53,3.53,0,0,0-2.64,1,4.58,4.58,0,0,0-1.2,2.68h7.17a4.87,4.87,0,0,0-.22-1.47,3.46,3.46,0,0,0-.65-1.16,2.93,2.93,0,0,0-1.05-.75A3.48,3.48,0,0,0,507.74,148.1Z"/><path class="cls-3" d="M520.53,146.38a6.9,6.9,0,0,1,1.61.19,5.12,5.12,0,0,1,1.36.56h3.57V148c0,.29-.18.47-.55.55l-1.49.21a4.08,4.08,0,0,1-1,5,4.35,4.35,0,0,1-1.56.85,6.23,6.23,0,0,1-2,.3,6.53,6.53,0,0,1-1.74-.22,2.1,2.1,0,0,0-.63.58,1.11,1.11,0,0,0-.22.61.83.83,0,0,0,.38.73,2.72,2.72,0,0,0,1,.35,7.66,7.66,0,0,0,1.42.11h1.62a8.72,8.72,0,0,1,1.62.15,4.68,4.68,0,0,1,1.41.47,2.58,2.58,0,0,1,1,.91,2.61,2.61,0,0,1,.38,1.5,3.56,3.56,0,0,1-.42,1.66,4.41,4.41,0,0,1-1.22,1.42,6.17,6.17,0,0,1-1.93,1,8.34,8.34,0,0,1-2.59.38,10,10,0,0,1-2.53-.29,6,6,0,0,1-1.8-.76,3.43,3.43,0,0,1-1.07-1.12,2.62,2.62,0,0,1-.36-1.32,2.41,2.41,0,0,1,.62-1.66,4.15,4.15,0,0,1,1.69-1.08,2.5,2.5,0,0,1-.89-.7,1.88,1.88,0,0,1-.33-1.16,1.8,1.8,0,0,1,.11-.59,2.45,2.45,0,0,1,.31-.6,4,4,0,0,1,.53-.58,3.55,3.55,0,0,1,.73-.48,4,4,0,0,1-1.53-1.45,3.93,3.93,0,0,1-.55-2.11,4,4,0,0,1,.37-1.75,3.85,3.85,0,0,1,1-1.33,4.72,4.72,0,0,1,1.58-.86A6.42,6.42,0,0,1,520.53,146.38Zm4.11,14.06a1.2,1.2,0,0,0-.27-.81,1.82,1.82,0,0,0-.75-.47,5.12,5.12,0,0,0-1.07-.24,10.64,10.64,0,0,0-1.29-.08h-1.38a4.93,4.93,0,0,1-1.34-.18,3.93,3.93,0,0,0-1.2.86,1.73,1.73,0,0,0-.46,1.21,1.53,1.53,0,0,0,.23.83,1.83,1.83,0,0,0,.69.66,3.93,3.93,0,0,0,1.18.45,8.09,8.09,0,0,0,1.67.16,7.83,7.83,0,0,0,1.68-.17,4.35,4.35,0,0,0,1.25-.49,2.62,2.62,0,0,0,.79-.76A1.79,1.79,0,0,0,524.64,160.44Zm-4.11-7.1a3.62,3.62,0,0,0,1.24-.2,2.65,2.65,0,0,0,.91-.54,2.33,2.33,0,0,0,.54-.84,3,3,0,0,0,.18-1.07,2.57,2.57,0,0,0-.73-1.93,3,3,0,0,0-2.14-.71,2.93,2.93,0,0,0-2.12.71,2.58,2.58,0,0,0-.74,1.93,2.83,2.83,0,0,0,.19,1.07,2.3,2.3,0,0,0,1.45,1.38A3.51,3.51,0,0,0,520.53,153.34Z"/><path class="cls-3" d="M532.48,142.47a1.46,1.46,0,0,1-.14.63,1.73,1.73,0,0,1-.36.52,1.77,1.77,0,0,1-.53.36,1.62,1.62,0,0,1-1.27,0,2,2,0,0,1-.52-.36,1.54,1.54,0,0,1-.35-.52,1.45,1.45,0,0,1-.13-.63,1.56,1.56,0,0,1,.13-.64,1.62,1.62,0,0,1,.35-.54,1.76,1.76,0,0,1,.52-.35,1.62,1.62,0,0,1,1.27,0,1.58,1.58,0,0,1,.53.35,1.82,1.82,0,0,1,.36.54A1.57,1.57,0,0,1,532.48,142.47Zm-.52,4.14v13.16h-2.32V146.61Z"/><path class="cls-3" d="M543.58,148.78a.5.5,0,0,1-.48.28.93.93,0,0,1-.44-.14c-.17-.1-.37-.2-.61-.32a5.44,5.44,0,0,0-.85-.32,4.06,4.06,0,0,0-1.17-.15,3.41,3.41,0,0,0-1,.15,2.42,2.42,0,0,0-.8.41,1.82,1.82,0,0,0-.51.6,1.59,1.59,0,0,0-.17.75,1.19,1.19,0,0,0,.29.84,2.49,2.49,0,0,0,.77.59,6.88,6.88,0,0,0,1.09.43c.41.13.83.26,1.26.41s.84.3,1.25.47a4.37,4.37,0,0,1,1.09.65,2.92,2.92,0,0,1,.78,1,3,3,0,0,1,.29,1.35,4.46,4.46,0,0,1-.32,1.69,3.75,3.75,0,0,1-1,1.34,4.72,4.72,0,0,1-1.56.89,7.18,7.18,0,0,1-4.62-.13,6.26,6.26,0,0,1-1.9-1.15l.54-.88a.89.89,0,0,1,.25-.26.71.71,0,0,1,.38-.09.87.87,0,0,1,.49.18c.18.12.39.26.63.4a4.74,4.74,0,0,0,.9.41,4.12,4.12,0,0,0,1.32.18,3.53,3.53,0,0,0,1.18-.18,2.4,2.4,0,0,0,.85-.47,2,2,0,0,0,.5-.69,2.12,2.12,0,0,0,.16-.83,1.42,1.42,0,0,0-.29-.91,2.71,2.71,0,0,0-.78-.61,6.51,6.51,0,0,0-1.09-.44c-.42-.12-.84-.26-1.27-.4a12,12,0,0,1-1.26-.47,4.69,4.69,0,0,1-1.1-.67,3.14,3.14,0,0,1-.77-1,3.33,3.33,0,0,1-.29-1.44,3.47,3.47,0,0,1,.31-1.45,3.58,3.58,0,0,1,.91-1.22,4.56,4.56,0,0,1,1.47-.84,5.82,5.82,0,0,1,2-.31,6.16,6.16,0,0,1,2.33.41,5.55,5.55,0,0,1,1.79,1.12Z"/><path class="cls-3" d="M551.31,160a3.16,3.16,0,0,1-2.39-.87,3.48,3.48,0,0,1-.84-2.51v-8.06h-1.59a.53.53,0,0,1-.35-.12A.46.46,0,0,1,546,148v-.93l2.16-.27.53-4.07a.48.48,0,0,1,.17-.32.52.52,0,0,1,.36-.12h1.17v4.54h3.77v1.67h-3.77v7.91a1.71,1.71,0,0,0,.4,1.23,1.41,1.41,0,0,0,1,.4,1.91,1.91,0,0,0,.63-.09,3,3,0,0,0,.47-.22l.33-.21a.4.4,0,0,1,.24-.1.38.38,0,0,1,.32.22l.68,1.11a4.33,4.33,0,0,1-1.44.87A4.8,4.8,0,0,1,551.31,160Z"/><path class="cls-3" d="M557,159.77V146.61h1.33a.72.72,0,0,1,.52.14.86.86,0,0,1,.19.49l.16,2.06a6,6,0,0,1,1.67-2.15,3.66,3.66,0,0,1,2.33-.78,3.35,3.35,0,0,1,1,.13,3.3,3.3,0,0,1,.82.34l-.3,1.73a.38.38,0,0,1-.4.32,2.08,2.08,0,0,1-.56-.12,3.63,3.63,0,0,0-1.06-.12,3,3,0,0,0-2,.7,5.39,5.39,0,0,0-1.36,2v8.38Z"/><path class="cls-3" d="M576.68,159.77h-1a1.23,1.23,0,0,1-.55-.1.62.62,0,0,1-.27-.44l-.26-1.22c-.35.31-.68.59-1,.83a5.88,5.88,0,0,1-1,.63,5,5,0,0,1-1.17.38A6.38,6.38,0,0,1,570,160a4.71,4.71,0,0,1-1.43-.21,3.34,3.34,0,0,1-1.17-.65,3,3,0,0,1-.78-1.09,3.74,3.74,0,0,1-.3-1.56,3,3,0,0,1,.43-1.5,3.8,3.8,0,0,1,1.39-1.29,9.06,9.06,0,0,1,2.5-.92,16.94,16.94,0,0,1,3.78-.36v-1a3.6,3.6,0,0,0-.65-2.33,2.39,2.39,0,0,0-2-.8,3.92,3.92,0,0,0-1.42.22,4.9,4.9,0,0,0-1,.48l-.73.48a1,1,0,0,1-.6.21.69.69,0,0,1-.41-.12.89.89,0,0,1-.28-.3l-.42-.75a7.62,7.62,0,0,1,2.35-1.57,7.24,7.24,0,0,1,2.8-.52,4.83,4.83,0,0,1,2,.37,4,4,0,0,1,1.44,1,4.32,4.32,0,0,1,.89,1.57,6.55,6.55,0,0,1,.3,2Zm-6-1.41a4.6,4.6,0,0,0,2.08-.48,4.92,4.92,0,0,0,.85-.55,6.88,6.88,0,0,0,.8-.74v-2.72a14.91,14.91,0,0,0-2.71.21,7.58,7.58,0,0,0-1.82.52,2.61,2.61,0,0,0-1,.78,1.64,1.64,0,0,0-.31,1,2.07,2.07,0,0,0,.17.9,1.68,1.68,0,0,0,.45.62,1.93,1.93,0,0,0,.68.36A3.22,3.22,0,0,0,570.67,158.36Z"/><path class="cls-3" d="M589.46,159.77a.6.6,0,0,1-.63-.48l-.21-1.6a6.71,6.71,0,0,1-1.93,1.65,5,5,0,0,1-2.49.62,4.77,4.77,0,0,1-2.05-.44,4.21,4.21,0,0,1-1.57-1.28,5.83,5.83,0,0,1-1-2.11,10.53,10.53,0,0,1-.36-2.89,9.12,9.12,0,0,1,.4-2.72,6.56,6.56,0,0,1,1.12-2.17,5.18,5.18,0,0,1,4.18-2,4.87,4.87,0,0,1,2.07.41,5,5,0,0,1,1.53,1.15v-7.3h2.31v19.14ZM585,158.08a3.68,3.68,0,0,0,2-.52,5.64,5.64,0,0,0,1.57-1.46v-6.37a3.57,3.57,0,0,0-1.4-1.21,4,4,0,0,0-1.68-.34,3.33,3.33,0,0,0-2.83,1.31,6.13,6.13,0,0,0-1,3.75,9.39,9.39,0,0,0,.22,2.2,4.28,4.28,0,0,0,.65,1.51,2.49,2.49,0,0,0,1,.86A3.58,3.58,0,0,0,585,158.08Z"/><path class="cls-3" d="M604.39,159.77h-1a1.23,1.23,0,0,1-.55-.1.57.57,0,0,1-.27-.44l-.26-1.22c-.35.31-.69.59-1,.83a5.54,5.54,0,0,1-1,.63,4.93,4.93,0,0,1-1.16.38,6.44,6.44,0,0,1-1.37.13,4.82,4.82,0,0,1-1.44-.21,3.29,3.29,0,0,1-1.16-.65,3.16,3.16,0,0,1-.79-1.09,3.91,3.91,0,0,1-.29-1.56,2.85,2.85,0,0,1,.43-1.5,3.69,3.69,0,0,1,1.38-1.29,9.19,9.19,0,0,1,2.5-.92,17.1,17.1,0,0,1,3.79-.36v-1a3.54,3.54,0,0,0-.66-2.33,2.37,2.37,0,0,0-1.94-.8,4,4,0,0,0-1.43.22,5.17,5.17,0,0,0-1,.48l-.72.48a1.09,1.09,0,0,1-.61.21.71.71,0,0,1-.41-.12.89.89,0,0,1-.28-.3l-.41-.75a7.51,7.51,0,0,1,2.35-1.57,7.19,7.19,0,0,1,2.79-.52,4.91,4.91,0,0,1,2,.37,4,4,0,0,1,1.44,1,4.3,4.3,0,0,1,.88,1.57,6.55,6.55,0,0,1,.3,2Zm-6-1.41a4.28,4.28,0,0,0,1.11-.13,4.39,4.39,0,0,0,1-.35,5,5,0,0,0,.86-.55,7.79,7.79,0,0,0,.8-.74v-2.72a15,15,0,0,0-2.72.21,7.86,7.86,0,0,0-1.82.52,2.5,2.5,0,0,0-1,.78,1.65,1.65,0,0,0-.32,1,2.22,2.22,0,0,0,.17.9,1.6,1.6,0,0,0,.46.62,1.88,1.88,0,0,0,.67.36A3.24,3.24,0,0,0,598.39,158.36Z"/><path class="cls-3" d="M607.15,158.34a1.68,1.68,0,0,1,.12-.63,1.56,1.56,0,0,1,.34-.52,1.41,1.41,0,0,1,.51-.35,1.64,1.64,0,0,1,1.8.35,1.56,1.56,0,0,1,.34.52,1.68,1.68,0,0,1,.12.63,1.71,1.71,0,0,1-.12.65,1.75,1.75,0,0,1-.34.51,1.7,1.7,0,0,1-1.8.35,1.54,1.54,0,0,1-.51-.35,1.75,1.75,0,0,1-.34-.51A1.71,1.71,0,0,1,607.15,158.34Z"/></svg>