<svg id="Layer_1" data-name="Layer 1" xmlns="http://www.w3.org/2000/svg" viewBox="0 0 128 128"><defs><style>.cls-1{fill:#333;}</style></defs><title>icons</title><path class="cls-1" d="M85.19,13.5h1.1a8.76,8.76,0,0,1,2.25,1.6,5.27,5.27,0,0,1,.77,2.56c.12,1.29,0,2.61,0,4H90.5c4.82,0,9.64,0,14.46,0a11.76,11.76,0,0,1,11.53,11.62q0,34.77,0,69.53a11,11,0,0,1-1.58,5.78,11.81,11.81,0,0,1-10.8,5.94q-40.11,0-80.21,0h-1A11.8,11.8,0,0,1,12,106c-.17-.55-.31-1.1-.46-1.66V31.74a1.05,1.05,0,0,0,.17-.31,11.83,11.83,0,0,1,12-9.81H38.78v-1c0-1.11,0-2.21,0-3.31,0-2.08,1.29-3.19,3.12-3.81H43c2.37.75,3.31,2.41,3.13,4.84-.08,1.05,0,2.13,0,3.21H82c0-1.48,0-2.88,0-4.29a3.27,3.27,0,0,1,1.24-2.75A11.39,11.39,0,0,1,85.19,13.5ZM109.1,55.74H18.87c0,.3,0,.54,0,.78q0,22.93,0,45.87a5,5,0,0,0,.14,1.27,4.47,4.47,0,0,0,4.65,3.27H105a4.25,4.25,0,0,0,4-3,8.8,8.8,0,0,0,.16-2.36q0-22.29,0-44.58ZM81.88,29H46c0,1.55,0,3.05,0,4.55a3.61,3.61,0,0,1-4.6,3.31,3.74,3.74,0,0,1-2.69-3.75c0-1.37,0-2.73,0-4.17h-15a4.39,4.39,0,0,0-4.77,4.73q0,6.82,0,13.64c0,.29,0,.58.05.88H109c0-.21,0-.36,0-.5,0-4.76,0-9.52,0-14.28A4.44,4.44,0,0,0,104.46,29H90.18c-.3,0-.59,0-1,0,0,1.45,0,2.82,0,4.2a3.67,3.67,0,1,1-7.33,0C81.87,31.85,81.88,30.47,81.88,29Z"/><path class="cls-1" d="M60.35,87.26c1.35-1.43,2.65-2.81,3.94-4.2l13.07-14a3.67,3.67,0,0,1,4.34-1,3.62,3.62,0,0,1,2.16,3.8,3.8,3.8,0,0,1-.89,2Q73,84.57,62.91,95.26a3.43,3.43,0,0,1-5.21-.1q-5.94-6.28-11.85-12.61a3.78,3.78,0,0,1,.12-5.3,3.74,3.74,0,0,1,5.23.23c2.14,2.23,4.23,4.52,6.34,6.79Z"/></svg>