<svg id="Layer_1" data-name="Layer 1" xmlns="http://www.w3.org/2000/svg" viewBox="0 0 128 128"><defs><style>.cls-1{fill:#333;}</style></defs><title>icons_pin</title><path class="cls-1" d="M124,98.3a.54.54,0,0,0,0-.21c-1.08-2.47-3.14-2.78-4.81-2.78H24.85V40.41A5.27,5.27,0,0,0,23,36.2c-1.08-1-2.13-2-3.16-3.06l-.77-.76q-4.16-4.14-8.29-8.29a3.93,3.93,0,0,0-3.53-1.37,3.69,3.69,0,0,0-3,2.59,3.58,3.58,0,0,0,1,4l3.84,3.85c2.48,2.48,5,5,7.48,7.44a2.39,2.39,0,0,1,.75,1.91V98.24c0,3.66,1.26,4.9,5,4.9H35.64a10.6,10.6,0,0,0,1.17,13.27,10.46,10.46,0,0,0,17.8-5.78,10.79,10.79,0,0,0-1.67-7.45H92c-2.81,5.08-2.31,10,1.42,13.52a10.17,10.17,0,0,0,12.74,1.15,10.41,10.41,0,0,0,4.18-5.81,10.76,10.76,0,0,0-1.42-9.13l2.8,0c2.55,0,5,0,7.33,0a4.59,4.59,0,0,0,4.91-2.78.52.52,0,0,0,0-.21ZM44.18,111.73a2.88,2.88,0,0,1-2-.79,2.76,2.76,0,0,1,1.91-4.74v-.5l0,.5h0a2.71,2.71,0,0,1,1.91.77,2.79,2.79,0,0,1-1.91,4.76Zm58.1-.81a2.77,2.77,0,0,1-2,.8h0a2.77,2.77,0,0,1-2-.79,2.76,2.76,0,0,1,1.89-4.74h0a2.76,2.76,0,0,1,2.76,2.72.65.65,0,0,0,.06.21A2.65,2.65,0,0,1,102.28,110.92Z"/><path class="cls-1" d="M34.83,89.67h78.06c3,0,4.45-1.45,4.45-4.43V40c0-2.75-1.52-4.26-4.29-4.26h-8.67V21a8,8,0,0,0-7.94-8H89.23c0-.27,0-.55,0-.84a4.45,4.45,0,0,0-.72-2.19,3.83,3.83,0,0,0-1.31-1.05l-.32-.19A1.49,1.49,0,0,0,86,8.42h-.62a1.45,1.45,0,0,0-.68.16l-.28.13a4.9,4.9,0,0,0-1,.59A3.34,3.34,0,0,0,82.1,12v.87h-17a1,1,0,0,1,0-.17,3.85,3.85,0,0,0-2.8-4.25,1.43,1.43,0,0,0-.46-.07h-.61a1.62,1.62,0,0,0-.49.08A3.66,3.66,0,0,0,58,12c0,.31,0,.62,0,.93H51a8.09,8.09,0,0,0-8.12,6.46,1.43,1.43,0,0,0-.18.7V35.68H34.79c-3,0-4.41,1.44-4.41,4.37V85.24C30.38,88.22,31.84,89.67,34.83,89.67ZM49.84,25h0V21.21c0-.81.34-1.14,1.16-1.14h6.88c0,.29,0,.57,0,.85a3.61,3.61,0,0,0,2.61,3.52,3.4,3.4,0,0,0,1,.13A3.51,3.51,0,0,0,65,21.19c0-.36,0-.73,0-1.09H82c0,.29,0,.57,0,.86a3.6,3.6,0,0,0,3.55,3.62h0a3.63,3.63,0,0,0,3.55-3.64v-.87h7a1,1,0,0,1,1.07,1c0,1.91,0,3.86,0,5.74V49.51h0v9.82a3.41,3.41,0,0,1,0,.68.87.87,0,0,1-.82.58H51c-.95,0-1.1-.54-1.14-.72a1,1,0,0,1,0-.31V49.51h0ZM38.16,43.47h4.56V60.65a1.74,1.74,0,0,0,.05.39l.08.29c.06.22.12.45.19.67a8.11,8.11,0,0,0,7.51,5.82H96a8.06,8.06,0,0,0,7.33-4,7.66,7.66,0,0,0,1.1-4V43.46h5.23V81.89H38.16Z"/><rect class="cls-1" x="81.54" y="33.39" width="8" height="6.04"/><rect class="cls-1" x="70" y="33.39" width="8" height="6.04"/><rect class="cls-1" x="81.54" y="45.12" width="8" height="6.04"/><rect class="cls-1" x="70" y="45.12" width="8" height="6.04"/><rect class="cls-1" x="58.2" y="45.12" width="8" height="6.04"/></svg>