<svg id="Layer_1" data-name="Layer 1" xmlns="http://www.w3.org/2000/svg" viewBox="0 0 128 128"><defs><style>.cls-1{fill:#333;}</style></defs><title>icons_pin</title><path class="cls-1" d="M124,98.3a.54.54,0,0,0,0-.21c-1.08-2.47-3.14-2.78-4.81-2.78H24.85V40.41A5.27,5.27,0,0,0,23,36.2c-1.08-1-2.13-2-3.16-3.06l-.77-.76q-4.16-4.14-8.29-8.29a3.93,3.93,0,0,0-3.53-1.37,3.69,3.69,0,0,0-3,2.59,3.58,3.58,0,0,0,1,4l3.84,3.85c2.48,2.48,5,5,7.48,7.44a2.39,2.39,0,0,1,.75,1.91V98.24c0,3.66,1.26,4.9,5,4.9H35.64a10.6,10.6,0,0,0,1.17,13.27,10.46,10.46,0,0,0,17.8-5.78,10.79,10.79,0,0,0-1.67-7.45H92c-2.81,5.08-2.31,10,1.42,13.52a10.17,10.17,0,0,0,12.74,1.15,10.41,10.41,0,0,0,4.18-5.81,10.76,10.76,0,0,0-1.42-9.13l2.8,0c2.55,0,5,0,7.33,0a4.59,4.59,0,0,0,4.91-2.78.52.52,0,0,0,0-.21ZM44.18,111.73a2.88,2.88,0,0,1-2-.79,2.76,2.76,0,0,1,1.91-4.74v-.5l0,.5h0a2.71,2.71,0,0,1,1.91.77,2.79,2.79,0,0,1-1.91,4.76Zm58.1-.81a2.77,2.77,0,0,1-2,.8h0a2.77,2.77,0,0,1-2-.79,2.76,2.76,0,0,1,1.89-4.74h0a2.76,2.76,0,0,1,2.76,2.72.65.65,0,0,0,.06.21A2.65,2.65,0,0,1,102.28,110.92Z"/><path class="cls-1" d="M113.05,35.77h-8.64a31.14,31.14,0,0,0-61.87-.09H34.79c-3,0-4.41,1.44-4.41,4.37V85.24c0,3,1.46,4.43,4.45,4.43h78.06c3,0,4.45-1.45,4.45-4.43V40C117.34,37.28,115.82,35.77,113.05,35.77ZM73.47,15.64A23.65,23.65,0,1,1,49.83,39.29,23.67,23.67,0,0,1,73.47,15.64Zm36.14,66.25H38.16V43.47h4.46A31.13,31.13,0,0,0,104.38,43v.44h5.23Z"/><path class="cls-1" d="M87.12,29.31A3.62,3.62,0,0,0,85.63,29a3.73,3.73,0,0,0-2.77,1.29l-7,7.5-3.33,3.57L70.4,43.6l-.47.51-.2-.21-1.5-1.6-1.58-1.71c-1.12-1.21-2.28-2.46-3.45-3.68a3.8,3.8,0,0,0-2.71-1.16,3.52,3.52,0,0,0-2.44,1,3.69,3.69,0,0,0-.12,5.21c3.15,3.38,6.3,6.74,9.38,10A3.66,3.66,0,0,0,70,53.12,3.46,3.46,0,0,0,72.48,52c6.12-6.5,11.16-11.89,15.88-17a3.7,3.7,0,0,0,.88-1.94A3.57,3.57,0,0,0,87.12,29.31Z"/></svg>