<svg id="Layer_1" data-name="Layer 1" xmlns="http://www.w3.org/2000/svg" viewBox="0 0 128 128"><defs><style>.cls-1{fill:#333;}</style></defs><title>icons</title><path class="cls-1" d="M113.77,52.85,108.89,48a9,9,0,0,0-4.62-3h-2.08a7.9,7.9,0,0,0-3.72,2.1L86.75,58.76c-7.66,7.63-15.57,15.52-23.3,23.33a0,0,0,0,0,0,0A4.31,4.31,0,0,0,62.36,84c-.34,1.11-.65,2.21-1,3.28s-.61,2.17-.94,3.28l-.9,3.13c-.55,2-1.12,4-1.56,6a2.89,2.89,0,0,0,0,1.49s0,0,0,0a2.6,2.6,0,0,0,2.32,1.78,1.77,1.77,0,0,0,.79-.13L76.72,98.6a4.76,4.76,0,0,0,2.15-1.21l34.91-34.9.33-.34a6.53,6.53,0,0,0-.34-9.3ZM65.35,91.9c.19-.66.39-1.35.56-2l.19-.76,5.4,5.5-.41.09c-.74.17-1.48.37-2.19.56s-1.32.35-2,.51l-1.44-1.44-.64-.63C65,93.1,65.18,92.49,65.35,91.9Zm39.91-28.31L76.63,92.22l-8-8.11L97.26,55.48Zm5.39-5.82a1.26,1.26,0,0,1-.45.88l-.87.87-.25.24-8.22-8.22.09-.09.56-.56.56-.56a1.38,1.38,0,0,1,1-.4,1.36,1.36,0,0,1,1,.4l1.79,1.79,1.56,1.56,2,2,.67.67A2,2,0,0,1,110.65,57.77Z"/><path class="cls-1" d="M89.53,94.84s.11,9.17.11,12.65a2.13,2.13,0,0,1-2.13,2.13H21.24a2.14,2.14,0,0,1-2.13-2.13V20.62a2.26,2.26,0,0,1,.6-1.53,2,2,0,0,1,1.53-.59H58.48a.89.89,0,0,1,.89.89V39a9.81,9.81,0,0,0,9.8,9.8H88.66L94.42,43a13.46,13.46,0,0,1,1.74-1.46,9.45,9.45,0,0,0-2.3-3.65L70.23,14.16a9,9,0,0,0-6.46-2.66H21.24a9.1,9.1,0,0,0-9.13,9.12v86.76a9.14,9.14,0,0,0,9.13,9.12H87.51a9.14,9.14,0,0,0,9.13-9.12V87.73ZM66.37,22.42a.89.89,0,0,1,.55-.82,1,1,0,0,1,.34-.07.9.9,0,0,1,.63.27L86.34,40.25a.89.89,0,0,1-.63,1.52H69.17A2.77,2.77,0,0,1,66.37,39Z"/><path class="cls-1" d="M44.29,67H29.61a3,3,0,0,1-3.41-2.54,3.13,3.13,0,0,1,0-1.1,3,3,0,0,1,2.53-3,8.42,8.42,0,0,1,1.23,0H58.58c2.65,0,4.12,1.62,3.7,4.06A3,3,0,0,1,59,67Z"/><path class="cls-1" d="M41.08,57.17H29.58a3,3,0,0,1-3.42-2.53,3.15,3.15,0,0,1,.08-1.26,3,3,0,0,1,2.56-2.7,7.23,7.23,0,0,1,1.14,0H52.1c2.67,0,4,1.62,3.57,4.09a3,3,0,0,1-3,2.46H41.2Z"/></svg>