<svg id="Layer_1" data-name="Layer 1" xmlns="http://www.w3.org/2000/svg" viewBox="0 0 128 128"><defs><style>.cls-1{fill:#333;}</style></defs><title>icons</title><path class="cls-1" d="M103.29,112.88c-.43-2.67-.85-5-1.23-7.17l-.35-2c-1.44-8-2.31-12.76-2-23a11.17,11.17,0,0,0-2.37-7.38,19.14,19.14,0,0,0-5.64-4.77c-2.08-1.25-3.46-3.68-4.79-6-2-3.55-4.1-7.23-8.57-9.12V14a9.53,9.53,0,0,0-9.5-9.5h-35a9.51,9.51,0,0,0-9.5,9.5v70.5a9.51,9.51,0,0,0,9.5,9.5h7.72l0,.13a7.75,7.75,0,0,0-.44,3.55,8.52,8.52,0,0,0,1,3.41,7,7,0,0,0,7.4,3.75c1.05-.15,2.13-.34,3.12-.53a15,15,0,0,1,5.2-.29,36,36,0,0,0,5.68,7.78A81.91,81.91,0,0,0,71,118.64l.63,1.6c.25.62.45,1.18.61,1.64a3.49,3.49,0,0,0,.29.58c1.39,2.18,4.9,3.05,9,3.05a37.7,37.7,0,0,0,7.69-.87A39.78,39.78,0,0,0,96,122.5a17.16,17.16,0,0,0,5.43-3.34C103.45,117.21,104.07,115,103.29,112.88Zm-26,6.73-1.44-3.69a2.73,2.73,0,0,0-.93-1.19c-1-.87-2.18-1.81-3.3-2.8a2.77,2.77,0,0,0,2.43-4.71A23,23,0,0,1,69,100.5a24.83,24.83,0,0,1-1.87-7.89c0-.11,0-.21,0-.32a2.45,2.45,0,0,0-.13-.83,2.64,2.64,0,0,0-1-1.71A89.24,89.24,0,0,0,59.35,81c-2.31-2.69-4.94-5.43-8.51-8.91a3.43,3.43,0,0,1-1.11-3.25,3,3,0,0,1,.61-1.25,2.4,2.4,0,0,1,1-.78,4,4,0,0,1,3.7.79c3.48,2.39,6.81,4.77,9.91,7.1S71,79.34,73.8,81.72a2.55,2.55,0,0,0,.79.47l4.2,4.22a3,3,0,0,0,4.24,0,3,3,0,0,0,0-4.22l-4.65-4.65V60a21.47,21.47,0,0,1,3.76,5.31c1.68,3,3.42,6.06,6.75,8A13.88,13.88,0,0,1,93,76.69a5.88,5.88,0,0,1,1.25,3.88c-.37,10.63.52,15.63,2,23.91l0,.22c.45,2.43,1,5.44,1.61,9.26a2.27,2.27,0,0,0,.17.66,1.58,1.58,0,0,1-.46.59,12,12,0,0,1-3.67,2.2A33.75,33.75,0,0,1,88,119.2C82.23,120.47,78.25,120.36,77.33,119.61ZM72.82,73.74c-1.54-1.22-3.07-2.4-4.55-3.51-3.33-2.5-6.72-4.93-10.08-7.23-3-2-6.18-2.52-9-1.33A8.26,8.26,0,0,0,46,64.08a8.41,8.41,0,0,0-1.7,3.53,8,8,0,0,0,2,8L48,77.31c3.19,3.42,8.25,8.85,10.21,11.12H33.89A3.94,3.94,0,0,1,30,84.49V14a3.94,3.94,0,0,1,3.94-3.94h35A4,4,0,0,1,72.82,14ZM46.77,96V96a1.49,1.49,0,0,1,1.45-.77l13.6-.1A27.29,27.29,0,0,0,64,102.8a21.33,21.33,0,0,0,1.56,2.83,24.62,24.62,0,0,1-3.27-5.26,2.78,2.78,0,0,0-2-1.6,22.13,22.13,0,0,0-4.06-.44,24.23,24.23,0,0,0-4.52.54l-.87.15-2,.33A1.66,1.66,0,0,1,47,98.42a3.17,3.17,0,0,1-.37-1.23A2.89,2.89,0,0,1,46.77,96Z"/><path class="cls-1" d="M62.76,42.27c0-9.59-14-7-14-11.56,0-1.29,1.18-1.92,2.91-1.92a19.81,19.81,0,0,1,8.5,2.76l2.54-5.28a20.15,20.15,0,0,0-8.57-2.88V18h-5v5.61c-4.59.87-7.47,3.68-7.47,7.74,0,9.41,14,6.6,14,11.3,0,1.52-1.34,2.31-3.47,2.31a16.49,16.49,0,0,1-9.57-4L40,46.15a19.25,19.25,0,0,0,9.1,4V56h5V50.28C59.08,49.71,62.76,47,62.76,42.27Z"/></svg>