<svg id="Layer_1" data-name="Layer 1" xmlns="http://www.w3.org/2000/svg" viewBox="0 0 50 50"><defs><style>.cls-1{fill:#999;}</style></defs><title>icon_arrows-drag</title><path class="cls-1" d="M26.35,38.57c.9-.9,1.78-1.83,2.69-2.71.69-.66,1.62-.54,1.85.27a1.51,1.51,0,0,1-.28,1.22c-1.54,1.62-3.13,3.19-4.72,4.76a1.11,1.11,0,0,1-1.71,0l-4.74-4.74a1,1,0,0,1-.11-1.62,1.07,1.07,0,0,1,1.69.09c.89.91,1.77,1.84,2.84,2.95,0-.56.07-.84.07-1.12V30c0-.24,0-.49,0-.73.06-.67.42-1.13,1.09-1.12s1.1.45,1.1,1.19v9.08Z"/><path class="cls-1" d="M23.66,11.41,21.13,14c-.53.56-1.11.79-1.77.25s-.45-1.14.23-1.82C21,11,22.48,9.54,23.94,8.1c.81-.8,1.27-.8,2.09,0,1.48,1.47,2.94,3,4.42,4.41.54.54.83,1.1.26,1.76s-1.12.5-1.82-.2c-.87-.87-1.73-1.77-2.8-2.86v2.37c0,2.29,0,4.59,0,6.88,0,.91-.41,1.39-1.11,1.39s-1.08-.48-1.09-1.4v-8.9Z"/><path class="cls-1" d="M11.56,23.92h8.87c.75,0,1.35.22,1.43,1.08s-.47,1.12-1.44,1.13H11.55l-.14.24,2.22,2.12a5.92,5.92,0,0,1,.69.73,1,1,0,0,1-.11,1.49.94.94,0,0,1-1.4,0c-1.69-1.64-3.36-3.31-5-5a1,1,0,0,1,0-1.49c1.63-1.66,3.27-3.31,4.94-4.93a1.09,1.09,0,1,1,1.5,1.58c-.92.94-1.87,1.85-2.81,2.77Z"/><path class="cls-1" d="M38.76,26.08H34.31c-1.6,0-3.19,0-4.78,0-.88,0-1.4-.44-1.38-1.12s.52-1.07,1.41-1.08h9.05c-.21-.27-.33-.45-.48-.61-.75-.76-1.52-1.51-2.27-2.28a1.06,1.06,0,0,1-.11-1.62,1,1,0,0,1,1.63,0q2.37,2.36,4.73,4.74a1.08,1.08,0,0,1,0,1.7l-4.73,4.74a1,1,0,0,1-1.62.11A1.07,1.07,0,0,1,35.81,29Z"/></svg>