<?xml version="1.0" encoding="utf-8"?>
<!-- Generator: Adobe Illustrator 23.0.6, SVG Export Plug-In . SVG Version: 6.00 Build 0)  -->
<svg version="1.1" id="Layer_1" xmlns="http://www.w3.org/2000/svg" xmlns:xlink="http://www.w3.org/1999/xlink" x="0px" y="0px"
	 viewBox="0 0 50 50" style="enable-background:new 0 0 50 50;" xml:space="preserve">
<style type="text/css">
	.st0{fill:#015289;}
</style>
<title>icon_arrow-fw</title>
<path class="st0" d="M40,25c0,0.4-0.2,0.9-0.5,1.2L26.6,39.1c-0.7,0.7-1.7,0.7-2.4,0l0,0c-0.7-0.7-0.7-1.7,0-2.4l10.1-10.1H11.7
	c-0.9,0-1.7-0.7-1.7-1.7s0.7-1.7,1.7-1.7h22.6L24.2,13.2c-0.7-0.7-0.7-1.7,0-2.4l0,0c0.7-0.7,1.7-0.7,2.4,0l12.9,12.9
	C39.8,24.1,40,24.6,40,25z"/>
</svg>
