<svg id="Layer_1" data-name="Layer 1" xmlns="http://www.w3.org/2000/svg" viewBox="0 0 50 50"><defs><style>.cls-1{fill:#999;}</style></defs><title>icon_arrows-expand_gray</title><path class="cls-1" d="M32.53,27.8l-1.45-1.45a.68.68,0,0,0-1,0l0,0L25,31.5l-5.1-5.1a.68.68,0,0,0-1,0l0,0-1.42,1.4a.68.68,0,0,0,0,1l0,0,7,7a.7.7,0,0,0,1,0h0l7-7a.68.68,0,0,0,.08-1Z"/><path class="cls-1" d="M32.53,22.2l-1.45,1.45a.68.68,0,0,1-1,0l0,0L25,18.55l-5.1,5.1a.68.68,0,0,1-1,0l0,0L17.49,22.2a.68.68,0,0,1,0-1l0,0,7-7a.7.7,0,0,1,1,0h0l7,7a.68.68,0,0,1,.08,1Z"/></svg>