<svg id="Layer_1" data-name="Layer 1" xmlns="http://www.w3.org/2000/svg" viewBox="0 0 50 50"><defs><style>.cls-1{fill:#20a8d8;}</style></defs><title>icon_arrows-expand</title><path class="cls-1" d="M32.52,29.3l-1.45-1.45a.68.68,0,0,0-1,0L25,33l-5.1-5.1a.68.68,0,0,0-1,0L17.48,29.3a.68.68,0,0,0,0,1l7,7a.7.7,0,0,0,1,0l7-7A.68.68,0,0,0,32.52,29.3Z"/><path class="cls-1" d="M32.52,20.7l-1.45,1.45a.68.68,0,0,1-1,0L25,17.05l-5.1,5.1a.68.68,0,0,1-1,0L17.48,20.7a.68.68,0,0,1,0-1l7-7a.7.7,0,0,1,1,0l7,7A.68.68,0,0,1,32.52,20.7Z"/></svg>