<svg id="Layer_1" data-name="Layer 1" xmlns="http://www.w3.org/2000/svg" viewBox="0 0 50 50"><defs><style>.cls-1{fill:#333;}</style></defs><title>sort_both</title><path class="cls-1" d="M19.82,15.8l-.06,0-.08,0-.05,0-.1,0h-.16a.76.76,0,0,0-.58.25L12.4,22.3a.81.81,0,0,0,1.15,1.15l5-5V29.29a.81.81,0,1,0,1.62,0V18.43l5,5a.81.81,0,1,0,1.14-1.15L20,15.9a.1.1,0,0,1-.05,0Z"/><path class="cls-1" d="M31.08,34.2l-.06,0-.08,0-.06,0-.1,0h-.15a.8.8,0,0,1-.59-.25L23.66,27.7a.81.81,0,0,1,1.14-1.15l5,5V20.71a.81.81,0,0,1,1.62,0V31.57l5-5A.81.81,0,1,1,37.6,27.7l-6.4,6.4-.05,0Z"/></svg>