<svg id="Layer_1" data-name="Layer 1" xmlns="http://www.w3.org/2000/svg" viewBox="0 0 285.47 213.85"><defs><style>.cls-1{fill:#f4f4f4;}.cls-2{fill:#dadfe0;}</style></defs><title>empty-state_support</title><path class="cls-1" d="M292.73,83.28h0A11.63,11.63,0,0,0,281.1,71.65H119.34a42.88,42.88,0,0,0-42.88,42.88v19.39A7.49,7.49,0,0,1,69,141.4H18.65a4.75,4.75,0,0,0-4.75,4.75h0a4.75,4.75,0,0,0,4.75,4.75H86.7a5.57,5.57,0,0,1,5.57,5.57h0A5.58,5.58,0,0,1,86.7,162H38.49A3.46,3.46,0,0,0,35,165.5h0A3.47,3.47,0,0,0,38.49,169h31a7,7,0,0,1,7,7h0a7,7,0,0,1-7,7H18.9A11.64,11.64,0,0,0,7.27,194.58h0A11.64,11.64,0,0,0,18.9,206.22H196.05a42.88,42.88,0,0,0,42.88-42.89V144a7.49,7.49,0,0,1,7.49-7.49h34.93a4.75,4.75,0,0,0,4.75-4.75h0a4.74,4.74,0,0,0-4.75-4.74H228.69a5.57,5.57,0,0,1-5.57-5.57h0a5.57,5.57,0,0,1,5.57-5.57h32.82a3.47,3.47,0,0,0,3.47-3.47h0a3.47,3.47,0,0,0-3.47-3.47H245.92a7,7,0,0,1-7-7h0a7,7,0,0,1,7-7H281.1A11.64,11.64,0,0,0,292.73,83.28Z" transform="translate(-7.27 -43.08)"/><path class="cls-2" d="M89.88,210.12H83.22a39.22,39.22,0,0,1-40.14-38.29v0h0V170A39.22,39.22,0,0,1,81.37,129.9h8.51Zm-13.2-66.23a25.85,25.85,0,0,0-20,26,25.67,25.67,0,0,0,20,26.08Z" transform="translate(-7.27 -43.08)"/><path class="cls-2" d="M216.78,210.12h-6.66V129.9h6.66a39.22,39.22,0,0,1,40.14,38.29v2.09a39.22,39.22,0,0,1-38.35,40.08h0Zm6.54-66.23v52a26.88,26.88,0,0,0,0-52Z" transform="translate(-7.27 -43.08)"/><path class="cls-2" d="M230.16,223.31a6.12,6.12,0,0,1-5.25,6.85,7,7,0,0,1-1.59,0H198.88a20.09,20.09,0,1,0,0,13.32h24.44a19.62,19.62,0,0,0,20.22-19h0v-1.17Zm-49.61,20.23a6.66,6.66,0,1,1,6.11-7.21v.55A6.67,6.67,0,0,1,180.55,243.54Z" transform="translate(-7.27 -43.08)"/><path class="cls-2" d="M223.32,116.58h-13.2a60.12,60.12,0,0,0-120.24,0H76.68a73.5,73.5,0,0,1,147,0Z" transform="translate(-7.27 -43.08)"/></svg>