<svg id="Layer_1" data-name="Layer 1" xmlns="http://www.w3.org/2000/svg" viewBox="0 0 50 50"><defs><style>.cls-1{fill:#333;}</style></defs><title>icon_support</title><path class="cls-1" d="M15.16,34.84H14.07A6.42,6.42,0,0,1,7.5,28.57h0v-.29a6.42,6.42,0,0,1,6.27-6.57h1.39ZM13,24a4.23,4.23,0,0,0-3.28,4.26A4.2,4.2,0,0,0,13,32.53Z"/><path class="cls-1" d="M35.93,34.84H34.84V21.71h1.09A6.42,6.42,0,0,1,42.5,28v.32a6.42,6.42,0,0,1-6.28,6.56h0ZM37,24v8.51A4.4,4.4,0,0,0,37,24Z"/><path class="cls-1" d="M38.12,37a1,1,0,0,1-.86,1.12,1.13,1.13,0,0,1-.26,0H33a3.29,3.29,0,1,0,0,2.18h4a3.21,3.21,0,0,0,3.31-3.11h0V37ZM30,40.31a1.09,1.09,0,1,1,1-1.18v.09A1.09,1.09,0,0,1,30,40.31Z"/><path class="cls-1" d="M37,19.53H34.84a9.84,9.84,0,0,0-19.68,0H13a12,12,0,0,1,24.06,0Z"/></svg>