<svg id="Layer_1" data-name="Layer 1" xmlns="http://www.w3.org/2000/svg" viewBox="0 0 128 128"><defs><style>.cls-1{fill:#FFF;}</style></defs><title>icons</title><path class="cls-1" d="M114.47,65.31a4.81,4.81,0,0,0-4.75-4.77c-1.22,0-2.45,0-3.67,0h-2A28.83,28.83,0,0,0,75.43,33.71h-.15A29,29,0,0,0,46.52,60.53h-2a29.36,29.36,0,0,0-3,.06,5.94,5.94,0,0,0-5.3,5.55,52,52,0,0,0-.21,5.7V73.4a19.54,19.54,0,0,0,.2,3.41,6.14,6.14,0,0,0,6.58,5.56h5.08c1.83,0,2.51-.67,2.51-2.47,0-1.64,0-3.27,0-4.91,0-4,0-8.11,0-12.16a25.11,25.11,0,0,1,.62-5.78C53.75,46.71,60.16,40.4,70.18,38.3S88.8,39.42,95.34,48c3.27,4.28,4.83,9.34,4.78,15.47,0,4.06,0,8.19,0,12.18v4.5a2,2,0,0,0,2.23,2.25h.76l0,.45c0,.64,0,1.25-.09,1.87A12.73,12.73,0,0,1,91.71,96.12c-2.22.17-4.51.16-6.72.15-1,0-2,0-3,0H81.7c-.56-2.17-1.7-3-4.06-3H72.39a3.45,3.45,0,0,0-3.57,3.53q0,1.44,0,2.88a3.41,3.41,0,0,0,3.5,3.5l2.92,0,3.05,0a3.4,3.4,0,0,0,3.32-2.58c0-.12.06-.25.1-.38h8.11a16.87,16.87,0,0,0,17.07-14.7,20.81,20.81,0,0,0,.17-2.48l0-.69h.48c.71,0,1.4,0,2.1,0a4.86,4.86,0,0,0,4.8-4.81C114.51,73.4,114.51,69.28,114.47,65.31Zm-4,9.25q0,1.31,0,2.61c0,.9-.32,1.2-1.22,1.2h-5.17V64.54h1.3c1.5,0,2.93,0,4.38,0,.46,0,.7.41.71,1.19v8.8Zm-64.13-10V78.35h-1c-1.17,0-2.33,0-3.49,0a1.42,1.42,0,0,1-1.26-.86,4.72,4.72,0,0,1-.55-1.74c-.06-2.58-.07-5.3,0-8.55a4.44,4.44,0,0,1,.43-1.56,1.65,1.65,0,0,1,1.58-1.1l1.87,0h2.38Zm31.3,32.8v1.89H72.86V97.32Z"/><path class="cls-1" d="M86.67,89.73A25,25,0,0,0,99.6,68.57v0c0-8.06-2.26-14.48-6.95-19.62a23.3,23.3,0,0,0-31.3-3.11A26.36,26.36,0,0,0,51.08,64.24a26.77,26.77,0,0,0,6.49,20.42,23.63,23.63,0,0,0,17.7,8.15A22.67,22.67,0,0,0,86.67,89.73Zm-10.85-.89a19.59,19.59,0,0,1-14.63-6A22.47,22.47,0,0,1,55,64.73,22.06,22.06,0,0,1,64.41,48.5a18.93,18.93,0,0,1,10.8-3.36h.1a19.5,19.5,0,0,1,15.17,7.31A23.13,23.13,0,0,1,90.1,82,19.65,19.65,0,0,1,75.82,88.84Z"/><path class="cls-1" d="M36.8,56.32q0-.41-.12-.81l-1-5.89h3.24a5,5,0,0,0,5.32-5.29q0-7.11,0-14.22A4.91,4.91,0,0,0,39,24.79H18.81a4.92,4.92,0,0,0-5.31,5.28V44.29a5,5,0,0,0,5.38,5.32h1.74c1.32,0,2.64,0,4,0a1.49,1.49,0,0,1,.88.37c1.78,1.74,3.54,3.5,5.29,5.26l1.91,1.91.74.74a2.07,2.07,0,0,0,1.42.62,2,2,0,0,0,.9-.22A1.91,1.91,0,0,0,36.8,56.32Zm-5.35-8.09.42,2.62c-.43-.46-.86-.93-1.31-1.38l-.51-.53c-.81-.84-1.66-1.72-2.56-2.51a3.28,3.28,0,0,0-1.91-.78c-1,0-2.09,0-3.13,0H18.74c-.95,0-1.26-.31-1.27-1.24q0-7.18,0-14.37c0-1,.31-1.25,1.25-1.25q10.16,0,20.32,0c.94,0,1.25.31,1.25,1.24q0,7.19,0,14.37c0,.93-.32,1.25-1.25,1.25h-5.4a2,2,0,0,0-2.19,2.61Z"/></svg>