<?xml version="1.0" encoding="utf-8"?>
<!-- Generator: Adobe Illustrator 23.0.6, SVG Export Plug-In . SVG Version: 6.00 Build 0)  -->
<svg version="1.1" id="Layer_1" xmlns="http://www.w3.org/2000/svg" xmlns:xlink="http://www.w3.org/1999/xlink" x="0px" y="0px"
	 viewBox="0 0 128 128" style="enable-background:new 0 0 128 128;" xml:space="preserve">
<style type="text/css">
	.st0{fill:#444444;}
</style>
<title>menu-left-icon_suporte</title>
<path class="st0" d="M28,100h-4C11.1,100.3,0.3,90,0,77.1c0-0.4,0-0.7,0-1.1C-0.3,63,10,52.3,22.9,52c0.4,0,0.7,0,1.1,0h4V100z
	 M20.1,60.3c-7.2,1.6-12.3,8.2-12,15.6c-0.3,7.4,4.8,14,12,15.6V60.3z"/>
<path class="st0" d="M104,100h-4V52h4c12.9-0.3,23.7,9.9,24,22.9c0,0.4,0,0.7,0,1.1c0.3,12.9-10,23.7-23,24
	C104.7,100,104.3,100,104,100z M107.9,60.3v31.1c7.2-1.6,12.3-8.2,12-15.5C120.1,68.5,115.1,62,107.9,60.3z"/>
<path class="st0" d="M112,107.9c0.3,2-1.2,3.8-3.1,4.1c-0.3,0-0.6,0-1,0H93.3c-2.2-6.3-9.1-9.6-15.3-7.4c-6.3,2.2-9.6,9.1-7.4,15.3
	c2.2,6.3,9.1,9.6,15.3,7.4c3.4-1.2,6.1-3.9,7.4-7.4h14.6c6.5,0.2,11.9-4.9,12.1-11.4c0-0.2,0-0.5,0-0.7H112z M82.3,120
	c-2.2,0.2-4.1-1.5-4.3-3.7c-0.2-2.2,1.5-4.1,3.7-4.3c2.2-0.2,4.1,1.5,4.3,3.7c0,0.1,0,0.2,0,0.3C85.9,118.1,84.4,119.8,82.3,120z"/>
<path class="st0" d="M107.9,44H100c0-19.9-16.1-36-36-36S28,24.1,28,44h-7.9c0-24.3,19.7-44,44-44s44,19.7,44,44
	C108.1,44,107.9,44,107.9,44z"/>
</svg>
