<?xml version="1.0" encoding="utf-8"?>
<!-- Generator: Adobe Illustrator 23.0.6, SVG Export Plug-In . SVG Version: 6.00 Build 0)  -->
<svg version="1.1" id="Layer_1" xmlns="http://www.w3.org/2000/svg" xmlns:xlink="http://www.w3.org/1999/xlink" x="0px" y="0px"
	 viewBox="0 0 128 128" style="enable-background:new 0 0 128 128;" xml:space="preserve">
<style type="text/css">
	.st0{fill:#333333;}
</style>
<title>icon_cart-graph</title>
<path class="st0" d="M97.4,128c-8.9-0.1-16-7.3-16-16.2s7.3-16,16.2-16c8.8,0.1,15.9,7.2,16,16C113.6,120.8,106.3,128,97.4,128
	C97.4,128,97.4,128,97.4,128z M97.4,104.6c-4,0-7.3,3.3-7.3,7.3c0,4,3.3,7.3,7.3,7.3c4,0,7.3-3.3,7.3-7.3
	C104.7,107.8,101.4,104.6,97.4,104.6z"/>
<path class="st0" d="M47.7,128c-8.9-0.1-16-7.4-15.9-16.3c0.1-8.9,7.4-16,16.3-15.9c8.9,0.1,16,7.4,15.9,16.2
	C63.9,120.9,56.6,128.1,47.7,128z M47.7,104.6c-4,0-7.3,3.3-7.3,7.3c0,4,3.3,7.3,7.3,7.3s7.3-3.3,7.3-7.3
	C55,107.8,51.8,104.6,47.7,104.6z"/>
<path class="st0" d="M122.3,33.1c-1.1-0.2-2.1-0.3-3.2-0.4c-26.6,0,16.1,0-10.4,0v8.7h3.9c2.2,0,2.5,0.4,2,2.5
	c-3,12.7-5.8,25.2-8.7,37.9c-0.1,1.1-1,1.9-2.1,1.8c-0.1,0-0.1,0-0.2,0c-19.9,0-39.9,0-59.8,0c-1,0.2-2-0.5-2.2-1.5
	c0-0.1,0-0.2,0-0.3c-2-10.5-4.1-21-6.2-31.4l-3.9-19.3c0-0.1,0-0.2,0-0.4c-1.5-6.9-3-14.3-4.4-21.2c-0.2-2.2-2-3.9-4.2-4l-9-1.7
	c-3-0.5-6-1.2-9-1.8H4.4C3.9,4.9,3.4,7.8,3,10.7c4.8,0.8,9.4,1.7,14,2.4c1.3,0.1,2.4,1.1,2.5,2.5c4.9,24.2,9.8,48.3,14.6,72.5
	c0,2.4,2.1,4.4,4.5,4.3c0.2,0,0.5,0,0.7-0.1h68.6c2.4,0.4,4.7-1.2,5.1-3.6c0-0.1,0-0.2,0-0.4c3.2-13.6,6.4-27.2,9.5-40.8
	c0.7-3.1,1.5-6.3,2.3-9.4c0.2-0.8,0.2-1.7,0-2.6C124.4,34.4,123.5,33.5,122.3,33.1z"/>
<path class="st0" d="M113.4,0c-4.6,0-8.4,3.8-8.4,8.4c0,1.5,0.4,2.9,1.1,4.1l-7.9,7.9c-1.2-0.6-2.5-1-3.9-1c-2.4,0-4.6,1-6.1,2.6
	l-8.4-4.8c0.1-0.4,0.1-0.8,0.1-1.2c0-4.6-3.8-8.4-8.4-8.4S63,11.4,63,16c0,1.6,0.4,3.1,1.2,4.3L53.9,31.7c-1.1-0.5-2.3-0.8-3.5-0.8
	c-4.6,0-8.4,3.8-8.4,8.4c0,4.6,3.8,8.4,8.4,8.4c4.6,0,8.4-3.8,8.4-8.4c0-1.6-0.4-3-1.2-4.3L68,23.7c1.1,0.5,2.2,0.8,3.5,0.8
	c2.4,0,4.6-1,6.1-2.7l8.4,4.8c-0.1,0.4-0.1,0.8-0.1,1.3c0,4.6,3.8,8.4,8.4,8.4c4.6,0,8.4-3.8,8.4-8.4c0-1.4-0.4-2.7-1-3.9l8-8
	c1.1,0.5,2.4,0.9,3.7,0.9c4.6,0,8.4-3.8,8.4-8.4S118,0,113.4,0z M71.4,20.4c-2.4,0-4.4-2-4.4-4.4c0-2.4,2-4.4,4.4-4.4s4.4,2,4.4,4.4
	C75.8,18.5,73.9,20.4,71.4,20.4z M54.7,39.4c0,2.4-2,4.4-4.4,4.4c-2.4,0-4.4-2-4.4-4.4c0-2.4,2-4.4,4.4-4.4
	C52.8,35,54.7,36.9,54.7,39.4z M117.8,8.4c0,2.4-2,4.4-4.4,4.4c-2.4,0-4.4-2-4.4-4.4s2-4.4,4.4-4.4C115.8,4,117.8,6,117.8,8.4z
	 M98.7,27.9c0,2.4-2,4.4-4.4,4.4c-2.4,0-4.4-2-4.4-4.4c0-2.4,2-4.4,4.4-4.4C96.7,23.5,98.7,25.4,98.7,27.9z"/>
</svg>
