<svg id="Layer_1" data-name="Layer 1" xmlns="http://www.w3.org/2000/svg" viewBox="0 0 128 128"><defs><style>.cls-1{fill:#333;}</style></defs><title>icon_stock</title><path class="cls-1" d="M74.54,18.09c1.38.28,2.78.47,4.14.84a25.12,25.12,0,0,1,18.47,21c0,.11,0,.23.1.44h8c2.07,0,3.15,1.07,3.15,3.13V81.52c0,2.24-1,3.27-3.29,3.27H39.47c-2.26,0-3.29-1-3.29-3.27v-38c0-2.18,1-3.21,3.25-3.22h7.88c.32-1.38.56-2.74.93-4.06a25.09,25.09,0,0,1,21.24-18,3.25,3.25,0,0,0,.61-.17ZM97.22,45.93A25.2,25.2,0,0,1,74,68.06a24.19,24.19,0,0,1-15.37-4A24.78,24.78,0,0,1,47.38,45.94H41.81V79.16h61V45.93ZM72.35,62.56A19.46,19.46,0,1,0,52.86,43.14,19.58,19.58,0,0,0,72.35,62.56Z"/><path class="cls-1" d="M114,93.87a3.4,3.4,0,0,1-3.64,2.06c-3.11-.09-6.23,0-9.5,0a8.62,8.62,0,0,1,1.67,8,8.32,8.32,0,0,1-3.33,4.64,8.06,8.06,0,0,1-10.14-.92c-3.16-3-3.44-7.13-.72-11.5H53.8a8.62,8.62,0,0,1,1.85,6.66,8.13,8.13,0,0,1-3.76,5.79,8.21,8.21,0,0,1-10.43-1.18,8.48,8.48,0,0,1-.41-11.3c-.4,0-.71,0-1,0H28.91c-2.86,0-3.72-.85-3.72-3.67q0-23.44,0-46.88a2.47,2.47,0,0,0-.78-1.94c-3.19-3.14-6.34-6.32-9.51-9.48a2.57,2.57,0,0,1-.74-2.87,2.67,2.67,0,0,1,2.2-1.89,2.86,2.86,0,0,1,2.56,1q3.5,3.52,7,7c1.1,1.09,2.18,2.19,3.32,3.23a4,4,0,0,1,1.38,3.18q0,22.74,0,45.48v1.16h1.19q39.27,0,78.55,0c1.69,0,2.93.47,3.63,2.07ZM47.27,98.69a2.78,2.78,0,1,0,2.81,2.72A2.75,2.75,0,0,0,47.27,98.69Zm50,2.73a2.78,2.78,0,1,0-2.71,2.82A2.75,2.75,0,0,0,97.32,101.42Z"/><path class="cls-1" d="M69.74,47.68c2.74-2.83,5.42-5.61,8.11-8.37,1.19-1.21,2.4-2.4,3.62-3.59a2.68,2.68,0,0,1,4,0,2.65,2.65,0,0,1-.13,3.88q-6.87,6.9-13.75,13.76a2.86,2.86,0,0,1-4.15,0q-4.08-4.09-8.13-8.24a2.66,2.66,0,0,1,0-3.95,2.62,2.62,0,0,1,3.82,0c2,1.92,3.89,3.88,5.84,5.82C69.16,47.17,69.32,47.3,69.74,47.68Z"/></svg>