<svg id="Layer_1" data-name="Layer 1" xmlns="http://www.w3.org/2000/svg" viewBox="0 0 50 50"><defs><style>.cls-1{fill:#333;}</style></defs><title>icon_ranking</title><path class="cls-1" d="M6.23,27.52A.8.8,0,0,1,7,27.1h10.9V22.16c-.17,0-.33,0-.49,0-.44,0-.65-.24-.65-.7,0-.76,0-1.51,0-2.27a1.2,1.2,0,0,1,1.28-1.35H31.87c.88,0,1.33.47,1.33,1.39,0,.71,0,1.42,0,2.14s-.19.79-.74.79c-.13,0-.25,0-.42,0v.41c0,1.37,0,2.75,0,4.12,0,.32.07.42.39.42H42.93c.67,0,.84.18.84.87V41.66c0,.68-.18.87-.81.87H7.06a.88.88,0,0,1-.83-.4Zm12.92-5.34V41.26h11.7V22.18ZM18,41.27V41q0-6.14,0-12.27c0-.31-.1-.36-.36-.36H7.43V41.27Zm14.09,0H42.57V28.35H32.05ZM18,20.91H32v-1.8H18Z"/><path class="cls-1" d="M25,13.59c-.53.38-1,.74-1.55,1.12a.61.61,0,0,1-.8,0,.67.67,0,0,1-.15-.83c.17-.51.32-1,.49-1.53a.29.29,0,0,0-.12-.38c-.48-.33-.94-.69-1.41-1a.58.58,0,0,1-.28-.67.57.57,0,0,1,.6-.47c.55,0,1.1,0,1.65,0a.39.39,0,0,0,.48-.36c.14-.51.32-1,.48-1.52A.62.62,0,0,1,25,7.47a.6.6,0,0,1,.61.51c.18.54.36,1.08.52,1.62a.26.26,0,0,0,.31.23H28c.43,0,.66.13.76.44s0,.54-.37.81L27.15,12a.28.28,0,0,0-.13.4c.18.52.34,1.05.51,1.58a.61.61,0,0,1-.16.74.57.57,0,0,1-.77,0ZM25,10a2.76,2.76,0,0,1-.44.86c-.2.17-.54.16-.87.25.71.31.75.84.46,1.52.58-.56,1.13-.61,1.66,0a2.71,2.71,0,0,1-.1-.93c.07-.25.34-.45.57-.72C25.42,11.29,25.11,10.79,25,10Z"/><path class="cls-1" d="M25,37.59h3.46a.61.61,0,0,1,.6.84.59.59,0,0,1-.59.4H21.53a.62.62,0,1,1,0-1.24Z"/><path class="cls-1" d="M25,36.35H23a.62.62,0,1,1,0-1.23H27a.62.62,0,1,1,0,1.23Z"/><path class="cls-1" d="M12.69,37.9h3.19A.61.61,0,0,1,16.2,39a.91.91,0,0,1-.36.09H9.52a.61.61,0,1,1,0-1.22Z"/><path class="cls-1" d="M37.33,37.9h3.16a.6.6,0,0,1,.55.92.63.63,0,0,1-.61.3H34.24a1,1,0,0,1-.5-.13.54.54,0,0,1-.2-.67.57.57,0,0,1,.57-.42h3.22Z"/></svg>