<svg id="Layer_1" data-name="Layer 1" xmlns="http://www.w3.org/2000/svg" viewBox="0 0 50 50"><defs><style>.cls-1{fill:#333;}</style></defs><title>icon_factory</title><path class="cls-1" d="M18.47,7.5H22c1.5.57,1.79,1,1.79,2.66q0,5.17,0,10.37c0,.23.11.6.26.66.71.26,1.45.44,2.25.66V21c0-2.11,0-4.22,0-6.33a2,2,0,0,1,2.09-2.13c.87,0,1.75,0,2.62,0a2,2,0,0,1,2.31,2.3c0,2.83,0,5.66,0,8.49a.67.67,0,0,0,.59.78c1.23.35,2.43.8,3.67,1.11a3.87,3.87,0,0,1,3.29,3.26v.14a8.17,8.17,0,0,0-.09.85c0,3.05,0,6.11,0,9.16a5.42,5.42,0,0,1-.12,1.27A3.46,3.46,0,0,1,37,42.49H18.78c-2,0-4,0-6,0a3.42,3.42,0,0,1-3.63-3.64q0-8.72,0-17.44a3.42,3.42,0,0,1,4.66-3.36c.95.31,1.9.58,2.92.89,0-3,0-5.85,0-8.72A2.41,2.41,0,0,1,18.47,7.5ZM11.08,29.89v8.68c0,1.46.51,2,2,2H36.92c.23,0,.45,0,.67,0a1.5,1.5,0,0,0,1.29-1.36l-.06-8.88a2.85,2.85,0,0,0-.06-.39Zm.11-2H38.35a1.91,1.91,0,0,0-.85-.55l-6-1.87q-9-2.78-17.9-5.55c-1.33-.41-2.31.19-2.35,1.55C11.13,23.58,11.19,25.72,11.19,27.88Zm10.69-7.49V9.55h-3c0,3.22,0,6.38,0,9.54a.57.57,0,0,0,.28.43C20,19.82,20.91,20.08,21.88,20.39Zm6.45-5.85v7.9l3,.95V14.54Z"/><path class="cls-1" d="M16.85,35.26c0-.42,0-.85,0-1.28a.94.94,0,0,1,1.88,0,25.4,25.4,0,0,1,0,2.76.84.84,0,0,1-1,.82.86.86,0,0,1-.93-.86C16.82,36.21,16.85,35.73,16.85,35.26Z"/><path class="cls-1" d="M31.4,35.31c0-.44,0-.9,0-1.34a.84.84,0,0,1,.87-.85.85.85,0,0,1,1,.79,23.22,23.22,0,0,1,0,2.89.83.83,0,0,1-1,.74.86.86,0,0,1-.91-.81c0-.47,0-.94,0-1.42Z"/><path class="cls-1" d="M28.21,35.38c0,.43,0,.85,0,1.28a.88.88,0,0,1-.91.89.9.9,0,0,1-1-.88q-.06-1.35,0-2.7a.85.85,0,0,1,.94-.85.88.88,0,0,1,.95.85c0,.47,0,.94,0,1.41Z"/><path class="cls-1" d="M21.94,35.28c0-.4,0-.81,0-1.21a.87.87,0,0,1,.91-1,.91.91,0,0,1,1,.9,22,22,0,0,1,0,2.69,1,1,0,0,1-1.89,0c0-.47,0-.94,0-1.41Z"/></svg>