<?xml version="1.0" encoding="utf-8"?>
<!-- Generator: Adobe Illustrator 23.0.6, SVG Export Plug-In . SVG Version: 6.00 Build 0)  -->
<svg version="1.1" id="Layer_1" xmlns="http://www.w3.org/2000/svg" xmlns:xlink="http://www.w3.org/1999/xlink" x="0px" y="0px"
	 viewBox="0 0 128 128" style="enable-background:new 0 0 128 128;" xml:space="preserve">
<style type="text/css">
	.st0{fill:#444444;}
</style>
<title>menu-left-icon_estoque</title>
<path class="st0" d="M114.5,25.7c-7.4,0-13.5,6.1-13.5,13.5c0,2.4,0.6,4.7,1.8,6.6L90.1,58.5c-1.9-1-4-1.6-6.3-1.6
	c-3.8,0-7.4,1.6-9.8,4.2l-13.5-7.7c0.2-0.6,0.2-1.3,0.2-1.9c0-7.4-6.1-13.5-13.5-13.5S33.7,44,33.7,51.4c0,2.6,0.6,5,1.9,6.9
	L19.1,76.6c-1.8-0.8-3.7-1.3-5.6-1.3C6.1,75.3,0,81.4,0,88.8c0,7.4,6.1,13.5,13.5,13.5s13.5-6.1,13.5-13.5c0-2.6-0.6-4.8-1.9-6.9
	l16.7-18.1c1.8,0.8,3.5,1.3,5.6,1.3c3.8,0,7.4-1.6,9.8-4.3l13.5,7.7c-0.2,0.6-0.2,1.3-0.2,2.1c0,7.4,6.1,13.5,13.5,13.5
	s13.5-6.1,13.5-13.5c0-2.2-0.6-4.3-1.6-6.3l12.8-12.8c1.8,0.8,3.8,1.4,5.9,1.4c7.4,0,13.5-6.1,13.5-13.5S121.9,25.7,114.5,25.7z
	 M47.2,58.5c-3.8,0-7.1-3.2-7.1-7.1s3.2-7.1,7.1-7.1s7.1,3.2,7.1,7.1C54.2,55.4,51.2,58.5,47.2,58.5z M20.4,88.9
	c0,3.8-3.2,7.1-7.1,7.1s-7.1-3.2-7.1-7.1s3.2-7.1,7.1-7.1C17.3,81.9,20.4,84.9,20.4,88.9z M121.6,39.2c0,3.8-3.2,7.1-7.1,7.1
	s-7.1-3.2-7.1-7.1s3.2-7.1,7.1-7.1C118.4,32.2,121.6,35.4,121.6,39.2z M90.9,70.5c0,3.8-3.2,7.1-7.1,7.1c-3.8,0-7.1-3.2-7.1-7.1
	c0-3.8,3.2-7.1,7.1-7.1C87.7,63.4,90.9,66.5,90.9,70.5z"/>
</svg>
