<?xml version="1.0" encoding="utf-8"?>
<!-- Generator: Adobe Illustrator 23.0.6, SVG Export Plug-In . SVG Version: 6.00 Build 0)  -->
<svg version="1.1" id="Layer_1" xmlns="http://www.w3.org/2000/svg" xmlns:xlink="http://www.w3.org/1999/xlink" x="0px" y="0px"
	 viewBox="0 0 128 128" style="enable-background:new 0 0 128 128;" xml:space="preserve">
<style type="text/css">
	.st0{fill:#444444;}
</style>
<title>menu-left-icon_dashboards</title>
<g>
	<path class="st0" d="M3,125.5h32.2c1.7,0,3-1.3,3-3v-81c0-1.7-1.3-3-3-3H3c-1.7,0-3,1.3-3,3v81C0,124.2,1.3,125.5,3,125.5z
		 M29.5,50.2v64.2c0,1.7-1.3,3-3,3H11.6c-1.7,0-3-1.3-3-3V50.2c0-1.7,1.3-3,3-3h14.9C28.2,47.2,29.5,48.5,29.5,50.2z"/>
	<path class="st0" d="M47.7,125.5h32.2c1.7,0,3-1.3,3-3v-58c0-1.7-1.3-3-3-3H47.7c-1.7,0-3,1.3-3,3v58
		C44.7,124.2,46.1,125.5,47.7,125.5z M74.7,73.2v40.8c0,1.7-1.3,3-3,3H56.7c-1.7,0-3-1.3-3-3V73.2c0-1.7,1.3-3,3-3h14.9
		C73.3,70.2,74.7,71.5,74.7,73.2z"/>
	<path class="st0" d="M89.8,5.5v117.1c0,1.7,1.3,3,3,3H125c1.7,0,3-1.3,3-3V5.5c0-1.7-1.3-3-3-3H92.8C91.2,2.5,89.8,3.8,89.8,5.5z
		 M98.5,113.9V14.1c0-1.7,1.3-3,3-3h14.9c1.7,0,3,1.3,3,3v99.8c0,1.7-1.3,3-3,3h-14.9C99.8,116.9,98.5,115.6,98.5,113.9z"/>
</g>
</svg>
