<svg id="Layer_1" data-name="Layer 1" xmlns="http://www.w3.org/2000/svg" viewBox="0 0 100 100"><defs><style>.cls-1{fill:#333;}</style></defs><title>icon_heatmap</title><path class="cls-1" d="M26.15,29c-.52.47-.89.86-1.31,1.18A1.82,1.82,0,0,1,22.39,30,1.77,1.77,0,0,1,22,27.61c1.63-1.81,3.32-3.58,5.08-5.27.82-.78,1.48-.7,2.43.2,1.58,1.5,3.06,3.1,4.54,4.69A2,2,0,0,1,31.12,30c-.29-.28-.56-.58-.93-1v40.8H71.26c-.45-.43-.81-.73-1.12-1.06a1.84,1.84,0,0,1,0-2.7,1.88,1.88,0,0,1,2.76-.14q2.53,2.37,5,4.78a2,2,0,0,1-.18,2.57c-1.51,1.44-3,2.88-4.55,4.29a2,2,0,0,1-3.23-.3,1.79,1.79,0,0,1,.21-2.34c.32-.33.68-.62,1-.93l-.1-.19H29.25a8.55,8.55,0,0,1-.88,0,2.11,2.11,0,0,1-2.22-2.44V29Z"/><path class="cls-1" d="M52,65a5.18,5.18,0,1,1,5.16-5.2A5.17,5.17,0,0,1,52,65Z"/><path class="cls-1" d="M48.94,35.19a4,4,0,0,1,8.07,0,4,4,0,1,1-8.07,0Z"/><path class="cls-1" d="M43.1,47.83a3.22,3.22,0,0,1-3.23,3.26,3.23,3.23,0,0,1,0-6.46A3.19,3.19,0,0,1,43.1,47.83Z"/><path class="cls-1" d="M62.43,48.18A3.1,3.1,0,0,1,65.57,45a3.14,3.14,0,0,1,3.15,3.16,3.18,3.18,0,0,1-3.13,3.13A3.15,3.15,0,0,1,62.43,48.18Z"/><path class="cls-1" d="M41.89,35.77A2.86,2.86,0,0,1,39,38.63a2.91,2.91,0,0,1-2.88-2.93,3,3,0,0,1,3-2.88A2.9,2.9,0,0,1,41.89,35.77Z"/><path class="cls-1" d="M38,63.26a2.89,2.89,0,0,1-2.92-2.88A2.93,2.93,0,0,1,38,57.45a2.9,2.9,0,0,1,2.91,2.9A2.87,2.87,0,0,1,38,63.26Z"/><path class="cls-1" d="M67.57,60.38a2,2,0,0,1-2,2,2,2,0,0,1-2-2,2,2,0,0,1,2.05-2A2,2,0,0,1,67.57,60.38Z"/><path class="cls-1" d="M68.54,35.72a2,2,0,0,1-2,2,2.05,2.05,0,0,1-2.06-2,2,2,0,0,1,2-2A2,2,0,0,1,68.54,35.72Z"/><path class="cls-1" d="M52,49.77a1.92,1.92,0,0,1-1.94-1.9,1.95,1.95,0,1,1,3.89,0A1.94,1.94,0,0,1,52,49.77Z"/></svg>