<?xml version="1.0" encoding="utf-8"?>
<!-- Generator: Adobe Illustrator 23.0.6, SVG Export Plug-In . SVG Version: 6.00 Build 0)  -->
<svg version="1.1" xmlns="http://www.w3.org/2000/svg" xmlns:xlink="http://www.w3.org/1999/xlink" x="0px" y="0px"
	 viewBox="0 0 50 50" style="enable-background:new 0 0 50 50;" xml:space="preserve">
<style type="text/css">
	.st0{display:none;}
	.st1{fill:#444545;}
</style>
<g id="Layer_1" class="st0">
</g>
<g id="Layer_2">
	<g>
		<g>
			<path class="st1" d="M42,41.23H8c-0.55,0-1-0.45-1-1s0.45-1,1-1h34c0.55,0,1,0.45,1,1S42.55,41.23,42,41.23z"/>
		</g>
		<g>
			<path class="st1" d="M18.51,37.23h-2V25.34h-5.19v11.88h-2V25.34c0-1.1,0.9-2,2-2h5.19c1.1,0,2,0.9,2,2V37.23z"/>
		</g>
		<g>
			<path class="st1" d="M29.53,37.23h-2v-8.88h-5.19v8.88h-2v-8.88c0-1.1,0.9-2,2-2h5.19c1.1,0,2,0.9,2,2V37.23z"/>
		</g>
		<g>
			<path class="st1" d="M40.41,37.23h-2V20.34h-5.19v16.88h-2V20.34c0-1.1,0.9-2,2-2h5.19c1.1,0,2,0.9,2,2V37.23z"/>
		</g>
		<g>
			<path class="st1" d="M8.65,19.88c-0.3,0-0.59-0.13-0.79-0.38c-0.34-0.44-0.26-1.06,0.17-1.4l5.27-4.12
				c0.26-0.21,0.61-0.27,0.93-0.16l10.52,3.49l10.46-7.94c0.44-0.33,1.07-0.25,1.4,0.19c0.33,0.44,0.25,1.07-0.19,1.4l-10.88,8.26
				c-0.26,0.2-0.6,0.26-0.92,0.15l-10.52-3.48l-4.85,3.79C9.08,19.81,8.86,19.88,8.65,19.88z"/>
		</g>
		<g>
			<path class="st1" d="M35.7,15.32c-0.55,0-1-0.45-1-1l0.12-3.55h-3.36c-0.55,0-1-0.45-1-1s0.45-1,1-1h4.36c0.55,0,1,0.45,1,1
				l-0.12,4.55C36.7,14.88,36.25,15.32,35.7,15.32z"/>
		</g>
	</g>
</g>
</svg>
