<?xml version="1.0" encoding="utf-8"?>
<!-- Generator: Adobe Illustrator 23.0.6, SVG Export Plug-In . SVG Version: 6.00 Build 0)  -->
<svg version="1.1" id="Layer_1" xmlns="http://www.w3.org/2000/svg" xmlns:xlink="http://www.w3.org/1999/xlink" x="0px" y="0px"
	 viewBox="0 0 128 128" style="enable-background:new 0 0 128 128;" xml:space="preserve">
<style type="text/css">
	.st0{fill:#444545;}
</style>
<g>
	<path class="st0" d="M124.4,114.6H3.6c-2,0-3.6,1.6-3.6,3.6c0,2,1.6,3.6,3.6,3.6h120.9c2,0,3.6-1.6,3.6-3.6
		C128,116.2,126.4,114.6,124.4,114.6z"/>
	<path class="st0" d="M40.9,107.5V65.2c0-3.9-3.2-7.1-7.1-7.1H15.4c-3.9,0-7.1,3.2-7.1,7.1v42.2h7.1V65.2h18.5v42.3H40.9z"/>
	<path class="st0" d="M80.1,107.5V75.9c0-3.9-3.2-7.1-7.1-7.1H54.5c-3.9,0-7.1,3.2-7.1,7.1v31.6h7.1V75.9H73v31.6H80.1z"/>
	<path class="st0" d="M86.1,47.4v60h7.1v-60h18.5v60.1h7.1V47.4c0-3.9-3.2-7.1-7.1-7.1H93.2C89.3,40.3,86.1,43.5,86.1,47.4z"/>
	<path class="st0" d="M5.9,45.8c0.7,0,1.5-0.2,2.1-0.7l17.2-13.5L62.6,44c1.1,0.4,2.3,0.2,3.3-0.5l32.8-24.9L98.5,26
		c0,2,1.6,3.6,3.6,3.6s3.6-1.6,3.6-3.6L106,9.8c0-2-1.6-3.6-3.6-3.6H87c-2,0-3.6,1.6-3.6,3.6s1.6,3.6,3.6,3.6h6.8L63.1,36.7
		L25.7,24.2c-1.1-0.4-2.4-0.2-3.3,0.6L3.7,39.5c-1.5,1.2-1.8,3.4-0.6,5C3.8,45.3,4.8,45.8,5.9,45.8z"/>
</g>
</svg>
