<?xml version="1.0" encoding="utf-8"?>
<!-- Generator: Adobe Illustrator 23.0.6, SVG Export Plug-In . SVG Version: 6.00 Build 0)  -->
<svg version="1.1" id="Layer_1" xmlns="http://www.w3.org/2000/svg" xmlns:xlink="http://www.w3.org/1999/xlink" x="0px" y="0px"
	 viewBox="0 0 128 128" style="enable-background:new 0 0 128 128;" xml:space="preserve">
<style type="text/css">
	.st0{fill:#333333;}
</style>
<title>menu-top-icon_score</title>
<g>
	<path class="st0" d="M0,56.6c0.1-0.2,0.2-0.4,0.2-0.5c0.4-1.1,1.5-1.9,2.7-2c0.3,0,0.6,0,0.9,0h19.3c0.3,0.1,0.7-0.2,0.7-0.5
		c0,0,0,0,0,0c2-6.2,4-12.5,6-18.7c0.4-1.8,2.1-2.8,3.9-2.5c0.6,0.1,1.1,0.4,1.5,0.8c0.5,0.5,0.9,1.1,1.1,1.7c2,6,3.9,12.1,5.9,18.1
		c0,0.4,0.2,0.7,0.4,1.1h20.1c1.6-0.2,3.1,1,3.4,2.6c0.3,1.3-0.2,2.7-1.4,3.4l-13.9,10c-0.7,0.5-1.4,1-2.1,1.5
		c-0.3,0.2-0.5,0.5-0.3,0.9c0,0,0,0,0,0l6,18.4c0.8,1.6,0.1,3.6-1.6,4.3c-0.3,0.1-0.5,0.2-0.8,0.3l0,0H51c-0.6-0.3-1.2-0.6-1.8-1
		l-12.1-8.7L33.2,83l-0.5,0.4c-4.9,3.6-9.9,7.1-14.8,10.8c-0.8,0.6-1.7,1-2.6,1.5h-1.1l0,0c-1.8-0.4-2.9-2.1-2.6-3.9
		c0-0.2,0.1-0.4,0.2-0.6c2-6.2,4.1-12.4,6.1-18.6c0.2-0.3,0.1-0.7-0.3-0.9c0,0,0,0,0,0L2.2,60.5c-0.9-0.5-1.6-1.4-2-2.4L0,56.6z
		 M11.9,60.2l0.6,0.4l12.1,8.7c0.3,0.1,0.4,0.5,0.3,0.8c0,0,0,0,0,0c-1.6,4.7-3.1,9.5-4.7,14.2L19.9,85l13-9.5L46,85
		c0-0.3-0.1-0.4-0.1-0.5c-1.6-4.7-3.2-9.6-4.7-14.4c-0.1-0.3,0-0.6,0.3-0.8l12-8.7l0.6-0.5H38.1L33.2,45l0,0l-4.9,15.2L11.9,60.2z"
		/>
	<g>
		<path class="st0" d="M123.3,65.3H80.9c-2.6,0-4.7-2.1-4.7-4.7s2.1-4.7,4.7-4.7h42.4c2.6,0,4.7,2.1,4.7,4.7S125.9,65.3,123.3,65.3z
			"/>
	</g>
	<g>
		<path class="st0" d="M101.9,80.7h-21c-2,0-3.6-1.6-3.6-3.6c0-2,1.6-3.6,3.6-3.6h21c2,0,3.6,1.6,3.6,3.6
			C105.5,79.1,103.9,80.7,101.9,80.7z"/>
	</g>
</g>
</svg>
