<svg id="Layer_1" data-name="Layer 1" xmlns="http://www.w3.org/2000/svg" viewBox="0 0 100 100"><defs><style>.cls-1{fill:#4d4d4e;}.cls-2{fill:none;stroke:#4d4d4e;stroke-miterlimit:10;stroke-width:4px;}</style></defs><title>cadastro-filial</title><path class="cls-1" d="M48.86,59.25h-14c-.92,0-1.25.59-1.42,1.48s-.32,1.83-.43,2.64.23,1,.89,1H39.5c.36,0,.14.13,0,.17a7.41,7.41,0,0,0-4.27,5.8c-.1.68-1.32,8.34-1.32,8.34a4,4,0,0,0,0,.49c0,.72.4.91.67.91h3.07c1.11,0,1.43-.29,1.61-1.4.25-1.6,2.21-13.4,2.35-14.3h3.3c1.51,0,3.33-.09,4.15,1s.62,2.26.35,4l-1.66,9.3a4,4,0,0,0,0,.49c0,.72.4.91.69.91h3c1.1,0,1.42-.29,1.59-1.4.06-.4,2-11.79,2.1-12.6C56,60.71,51,59.25,48.86,59.25Z"/><path class="cls-1" d="M73.51,80.87h-3.4V62.46a2.21,2.21,0,1,0-4.42,0V80.87H23.75V62.46a2.21,2.21,0,1,0-4.41,0V80.87H15.93a2.21,2.21,0,1,0,0,4.42H73.51a2.21,2.21,0,1,0,0-4.42Z"/><circle class="cls-2" cx="64.52" cy="36.46" r="21.76"/><path class="cls-1" d="M46.21,51.49a3.39,3.39,0,0,1-4.85-3.1l.41-5.31a23.34,23.34,0,0,1-1-6.62,23.77,23.77,0,0,1,.66-5.56H22.33L22,31h-.08a2.06,2.06,0,0,0-.64.45l-.2.24v.11A1.48,1.48,0,0,0,21,32l-.06.1L14.73,47.36a1.34,1.34,0,0,0-.07.18v.23a.14.14,0,0,0-.12.09.11.11,0,0,0,.1.11l-.06.05a2.29,2.29,0,0,0,0,.37,7.82,7.82,0,0,0,7.77,7.77,7.65,7.65,0,0,0,5.56-2.34,7.78,7.78,0,0,0,11,.21h0l.2-.21a7.76,7.76,0,0,0,10.24.84A23.59,23.59,0,0,1,46.21,51.49Zm-20.46-2.7-.06.17A3.38,3.38,0,0,1,19,48.68l5.29-13.34h5.28Zm11.09-.32a3.39,3.39,0,0,1-6.71.7l4-13.78h3.68Z"/><path class="cls-1" d="M66.45,26.74v7.92H74v3.55H66.45v7.92H62.56V38.21H55.09V34.68h7.47V26.75Z"/></svg>