<svg id="Layer_1" data-name="Layer 1" xmlns="http://www.w3.org/2000/svg" viewBox="0 0 100 100"><defs><style>.cls-1{fill:#eee;}.cls-2{fill:#4d4d4e;}</style></defs><title>ranking</title><rect class="cls-1" width="100" height="100"/><path class="cls-2" d="M60.3,27.5H29.91c-2,0-2.71,1.3-3.08,3.22-.31,1.64-.69,4-.93,5.59s.5,2.17,2,2.17H40c.77,0,.3.27,0,.35-2,.61-7.92,4.36-9.26,12.57l-3,18.09a6.57,6.57,0,0,0-.13,1c-.06,1.59.86,2,1.48,2h6.09l.56,0c2.39-.11,3.06-.63,3.46-3,.57-3.45,4.79-29,5.1-31h7.16c3.28,0,7.21-.22,9,2.09s1.36,4.89.75,8.63L57.94,69.49a6.57,6.57,0,0,0-.13,1c-.06,1.59.86,2,1.48,2h6.09l.56,0c2.39-.11,3.06-.63,3.46-3,.14-.86,4.23-25.51,4.53-27.28C75.82,30.63,64.89,27.5,60.3,27.5Z"/></svg>