<svg id="Layer_1" data-name="Layer 1" xmlns="http://www.w3.org/2000/svg" viewBox="0 0 100 100"><defs><style>.cls-1{fill:#eee;}.cls-2{fill:#4d4d4e;}</style></defs><title>ranking</title><rect class="cls-1" width="100" height="100"/><path class="cls-2" d="M66.16,56A21.45,21.45,0,0,0,72,43.9a21.66,21.66,0,0,0-4.33-16.68,21.34,21.34,0,0,0-13.83-8.36,23.87,23.87,0,0,0-4.08-.36,21.57,21.57,0,0,0-13.66,4.89,21.5,21.5,0,0,0-8,13.29,21.62,21.62,0,0,0,2.7,15.38,22.5,22.5,0,0,0,3,3.93c1.57,1.68,3.22,3.32,4.82,4.91l.67.66-1,0h-.18a3.26,3.26,0,0,0-2.83,1.71c-1.9,2.84-9.25,13.66-9.25,13.66a3.44,3.44,0,0,0-.58,2.56,3.39,3.39,0,0,0,1.76,1.91.89.89,0,0,0,.48.13H72.28a1,1,0,0,0,.47-.12l.15-.08a3.91,3.91,0,0,0,.44-.26,2.71,2.71,0,0,0,.85-3.71C72,73.54,66.73,66.74,64.49,63A2.74,2.74,0,0,0,62,61.54H60.68l1-.95C63.13,59.11,64.68,57.58,66.16,56ZM50,64.45,46.83,61.3c-2.68-2.66-5.46-5.42-8.13-8.17-1.88-1.94-4.14-4.62-4.93-8.1-1.44-6.3.06-11.75,4.46-16.18a15.65,15.65,0,0,1,11.51-4.78c.45,0,.9,0,1.36,0A16.58,16.58,0,0,1,66.26,37a16.22,16.22,0,0,1-3.21,14,25.46,25.46,0,0,1-2.21,2.51Q57,57.44,53.18,61.28ZM33,76c2.19-3,4.85-6.58,6.44-8.89H42c.92,0,1.85,0,2.78,0l.11.06c.68.65,1.34,1.32,2,2l1,1a2.71,2.71,0,0,0,4.1,0l1.1-1.09c.66-.67,1.32-1.33,2-2l.08,0,2.67,0,2.65,0C61.69,69,65.84,74,67,76Z"/><path class="cls-2" d="M61.45,40.44A11.41,11.41,0,0,0,50.09,29h0a11.48,11.48,0,0,0-8.16,3.39A11.39,11.39,0,0,0,50,51.88,11.49,11.49,0,0,0,61.45,40.44ZM50,46.32a5.87,5.87,0,1,1,5.91-5.8,5.8,5.8,0,0,1-5.9,5.8v.48h0Z"/></svg>