<svg id="Layer_1" data-name="Layer 1" xmlns="http://www.w3.org/2000/svg" viewBox="0 0 100 100"><defs><style>.cls-1{fill:#eee;}.cls-2{fill:#4d4d4e;}</style></defs><title>ranking-icons</title><rect class="cls-1" width="100" height="100"/><path class="cls-2" d="M68.17,41.35l0-.07-5-6.73a4.92,4.92,0,0,0-.47-.53V26.43A4.44,4.44,0,0,0,58.18,22H24.51a4.44,4.44,0,0,0-4.43,4.43V34a6.26,6.26,0,0,0-.46.53l-5.05,6.73,0,0a9.22,9.22,0,0,0-1.41,5.33,6.26,6.26,0,0,0,5.27,6V73.57A4.44,4.44,0,0,0,22.83,78h37a4.44,4.44,0,0,0,4.44-4.43V52.65a6.43,6.43,0,0,0,5.28-5.94A8.16,8.16,0,0,0,68.17,41.35Zm-4.45,3.23a2.21,2.21,0,0,1,.42,2.17.87.87,0,0,1-.91.5h-2.5L55.22,37.6h3a.6.6,0,0,1,.49.25Zm-4.93,8.17V72.5H23.9V52.75Zm-32.43-5.5,5.51-9.65h7.57v9.65H26.36Zm26.75,0H43.26V37.6h7.56l5.51,9.65ZM27.48,37.6,22,47.25H19.47a1,1,0,0,1-.94-.59,2,2,0,0,1,.39-2l0-.06L24,37.85a.62.62,0,0,1,.5-.25Zm-1.9-5.5V27.5H57.11v4.6Z"/><path class="cls-2" d="M85.54,41.44l-.05-.07L80.7,35a4.49,4.49,0,0,0-.44-.51V27.29a4.21,4.21,0,0,0-4.2-4.21H66.21a8.53,8.53,0,0,1,.68,3.35V28.3H75v4.36H67l4.54,6.05c.09.12.17.23.25.36a12.19,12.19,0,0,1,2,7.16l.46.8h-.47a10,10,0,0,1-1.74,5.22h4.55V71H68.57v2.59a8.77,8.77,0,0,1-.41,2.63h9.49A4.21,4.21,0,0,0,81.86,72V52.16a6.1,6.1,0,0,0,5-5.64A7.75,7.75,0,0,0,85.54,41.44Zm-3.83,5.12a.83.83,0,0,1-.86.47H78.48l-5.23-9.15h2.81a.57.57,0,0,1,.46.24l4.79,6.38A2.1,2.1,0,0,1,81.71,46.56Z"/></svg>