<svg id="Layer_1" data-name="Layer 1" xmlns="http://www.w3.org/2000/svg" viewBox="0 0 128 128"><defs><style>.cls-1{fill:#fff;}</style></defs><title>icon</title><path class="cls-1" d="M21.63,24.59c-2.25,0-4.33,0-6.41,0a8.62,8.62,0,0,1-1-17.19,59.6,59.6,0,0,1,10.35.14A16.3,16.3,0,0,1,38.93,23.66c.06,7,0,14,0,20.93q0,22.78,0,45.57a1.88,1.88,0,0,0,.79,1.61,27.19,27.19,0,0,1,3.44,3.43,2.12,2.12,0,0,0,1.87.88q25.88,0,51.74,0l16.23,0a8.64,8.64,0,0,1,.29,17.27c-.42,0-.84,0-1.27,0H44.84a1.71,1.71,0,0,0-1.6.79,16,16,0,0,1-29-10.64,15.63,15.63,0,0,1,6.64-11.78,1.57,1.57,0,0,0,.73-1.44q0-32.28,0-64.55ZM33.08,88.74V24.68c0-.36,0-.71,0-1.07a10.46,10.46,0,0,0-9-10.23,74.45,74.45,0,0,0-8.59-.2A2.79,2.79,0,0,0,12.36,16c0,1.65,1.22,2.75,3.1,2.77,2.25,0,4.5,0,6.75,0A5,5,0,0,1,27.3,22.5a9.17,9.17,0,0,1,.19,2.23q0,31.43,0,62.85v1.16Zm13.19,18.72h65.9a7.85,7.85,0,0,0,1,0,2.81,2.81,0,0,0,2.48-2.4,2.74,2.74,0,0,0-1.78-2.94,5.27,5.27,0,0,0-1.64-.19H46.27Zm-16-13a10.2,10.2,0,1,0,10.24,10.15A10.17,10.17,0,0,0,30.27,94.5Z"/><path class="cls-1" d="M114.15,54.1q0,14.17,0,28.35a6.83,6.83,0,0,1-5.48,7.09,7.9,7.9,0,0,1-1.75.14H52.35a6.83,6.83,0,0,1-7.22-7.15q0-28.46,0-56.9a6.87,6.87,0,0,1,7.24-7.16q27.23,0,54.45,0c4.39,0,7.31,2.88,7.32,7.27Q114.17,39.93,114.15,54.1ZM67.91,24.34H52.73c-1.53,0-1.73.2-1.73,1.76q0,28,0,56c0,1.53.17,1.7,1.67,1.7h54c1.45,0,1.64-.19,1.64-1.64V26.06c0-1.5-.22-1.72-1.68-1.72H92.42c-.32,0-.63,0-1,0V25.6c0,7.43,0,14.86,0,22.29,0,1.41-.27,2.61-1.61,3.3s-2.49.24-3.61-.62c-1.92-1.46-3.89-2.85-5.8-4.31a1,1,0,0,0-1.43,0C77,47.72,75,49.13,73.07,50.61A3,3,0,0,1,67.9,48c0-7.47,0-14.93,0-22.39ZM85.43,42.71V24.4H73.83V42.74L77.52,40c1.59-1.17,2.66-1.18,4.26,0Z"/><path class="cls-1" d="M30.25,100.8a4,4,0,0,1,.07,8,4,4,0,1,1-.07-8Z"/></svg>