<svg id="Layer_1" data-name="Layer 1" xmlns="http://www.w3.org/2000/svg" viewBox="0 0 128 128"><defs><style>.cls-1{fill:#333;}</style></defs><title>icon</title><path class="cls-1" d="M81.25,53.82a3.71,3.71,0,0,0-.22-5l-26-26a3.71,3.71,0,0,0-5.24,0l-26,26a3.71,3.71,0,0,0-.12,5.11,3.81,3.81,0,0,0,2.86,1.21H37.35v9h0V76.56a3.71,3.71,0,0,0,3.71,3.7h5.63l-17,17-17-17h5.63a3.7,3.7,0,0,0,3.7-3.7V65.11a1.24,1.24,0,0,0-1.23-1.24H15.8a1.24,1.24,0,0,0-1.23,1.24v7.74H3.82A3.83,3.83,0,0,0,1,74.06a3.71,3.71,0,0,0,.12,5.11l26,26a3.68,3.68,0,0,0,5.23,0l26-26a3.67,3.67,0,0,0,1.09-2.61,3.75,3.75,0,0,0-.86-2.38,3.93,3.93,0,0,0-3-1.33H44.76v-9h0V51.44a3.7,3.7,0,0,0-3.7-3.7H35.43l17-17,17,17H63.84a3.7,3.7,0,0,0-3.7,3.7V62.89a1.25,1.25,0,0,0,1.24,1.24h4.93a1.25,1.25,0,0,0,1.24-1.24V55.15H78.23A3.91,3.91,0,0,0,81.25,53.82Z"/><path class="cls-1" d="M128,30.4c0-5.19-3.47-8.62-8.67-8.62H62l7,7h17.8v1.53c0,8.85,0,17.7,0,26.55,0,1.64.42,3,2,3.77s2.89.28,4.18-.71c2.31-1.75,4.68-3.42,7-5.19a1.16,1.16,0,0,1,1.69,0c2.27,1.74,4.62,3.38,6.89,5.12,1.32,1,2.68,1.55,4.27.73s1.92-2.24,1.91-3.91c0-8.81,0-17.62,0-26.43V28.8c.6,0,2-.12,4.47-.06,1.73.05,2,.26,2,2V97.31c0,1.73-.23,2-1.94,2h-64c-1.78,0-2-.21-2-2v-5l-6.85,6.85c.59,4.28,3.86,7.07,8.46,7.07q32.34,0,64.69,0a9.59,9.59,0,0,0,2.07-.17c4-.86,6.5-4.06,6.5-8.4q0-16.81,0-33.62T128,30.4ZM107.52,50.52l-4.33-3.2c-1.89-1.39-3.16-1.39-5,0l-4.38,3.23V28.81h13.76Z"/></svg>