<svg id="Layer_1" data-name="Layer 1" xmlns="http://www.w3.org/2000/svg" viewBox="0 0 128 128"><defs><style>.cls-1{fill:#333;}</style></defs><title>icon</title><path class="cls-1" d="M22,23.88c-2.24,0-4.33,0-6.41,0A8.59,8.59,0,0,1,7,16.79a8.5,8.5,0,0,1,7.64-10.1A59.5,59.5,0,0,1,25,6.83,16.3,16.3,0,0,1,39.26,23c.06,7,0,13.95,0,20.93q0,22.78,0,45.57a1.85,1.85,0,0,0,.79,1.6A27.35,27.35,0,0,1,43.5,94.5a2.1,2.1,0,0,0,1.86.88q25.88,0,51.74,0l16.23,0a8.64,8.64,0,0,1,.3,17.27h-1.27q-33.6,0-67.19,0a1.72,1.72,0,0,0-1.6.8,16,16,0,0,1-29-10.65A15.63,15.63,0,0,1,21.24,91,1.59,1.59,0,0,0,22,89.54Q22,57.28,22,25ZM33.41,88V24c0-.36,0-.72,0-1.08a10.44,10.44,0,0,0-9-10.22,74.27,74.27,0,0,0-8.58-.2,2.79,2.79,0,0,0-3.11,2.77c0,1.64,1.23,2.75,3.11,2.76,2.24,0,4.49,0,6.74,0a5.06,5.06,0,0,1,5.09,3.78A9.13,9.13,0,0,1,27.82,24q0,31.44,0,62.86V88ZM46.6,106.76h65.9a8,8,0,0,0,1,0,2.81,2.81,0,0,0,2.47-2.4,2.72,2.72,0,0,0-1.78-2.94,5.27,5.27,0,0,0-1.64-.19H46.6Zm-16-13a10.2,10.2,0,1,0,10.24,10.14A10.17,10.17,0,0,0,30.6,93.8Z"/><path class="cls-1" d="M30.58,100.1a4,4,0,0,1,4,3.93,4,4,0,1,1-4-3.93Z"/><path class="cls-1" d="M55.34,59.18a4.15,4.15,0,0,1,.13-.87,16.27,16.27,0,0,1,1.05-2.72q10.89-18.93,21.77-37.8a8,8,0,0,1,2.07-2.44,5.23,5.23,0,0,1,6.62.08A8.51,8.51,0,0,1,89,18l20.58,35.62c.46.8.94,1.59,1.38,2.41a6.4,6.4,0,0,1,.77,4.68,5.35,5.35,0,0,1-4.42,4l-.92.19H60.92l-1-.19a5.42,5.42,0,0,1-4.35-3.83,11.55,11.55,0,0,1-.24-1.17Zm28.34,0h20.65a5.88,5.88,0,0,0,1.26-.17.58.58,0,0,0,.51-.82,5.68,5.68,0,0,0-.49-1.26c-1.84-3.17-3.7-6.32-5.55-9.49Q92.53,34.6,85,21.73a6.11,6.11,0,0,0-.91-1.12.56.56,0,0,0-.78,0l0,0a5,5,0,0,0-.83,1Q72,39.33,61.62,57.07a4.6,4.6,0,0,0-.43,1.08c-.13.5,0,.75.51.89a5.15,5.15,0,0,0,1.3.17Z"/><path class="cls-1" d="M80.15,32.67a14.55,14.55,0,0,1,.13-2.19,3.57,3.57,0,0,1,4.12-2.91,3.29,3.29,0,0,1,.92.29A3.1,3.1,0,0,1,87,30.48,16.61,16.61,0,0,1,87.07,35c-.24,2.79-.47,5.58-.74,8.37A23.32,23.32,0,0,1,85.72,47a2.13,2.13,0,0,1-2.58,1.55l-.11,0a1.78,1.78,0,0,1-1.5-1.32,19.74,19.74,0,0,1-.62-3.33C80.6,40.25,80.4,36.66,80.15,32.67Z"/><path class="cls-1" d="M80.15,54.05a3.51,3.51,0,0,1,7,0v0a3.43,3.43,0,0,1-3.38,3.48h-.1a3.4,3.4,0,0,1-3.53-3.26Z"/><path class="cls-1" d="M118.07,40.25H107.43L111.34,47H115V80.78H52.25V47H56l3.93-6.83H49.29c-2.6,0-3.87,1.26-3.87,3.83V83.72c0,2.62,1.28,3.89,3.92,3.89h68.58c2.63,0,3.91-1.27,3.91-3.89V44C121.83,41.58,120.49,40.25,118.07,40.25Z"/></svg>