<svg id="Layer_1" data-name="Layer 1" xmlns="http://www.w3.org/2000/svg" viewBox="0 0 128 128"><defs><style>.cls-1{fill:#fff;}</style></defs><title>icon</title><path class="cls-1" d="M73.16,12.66a34.05,34.05,0,1,1-34,34.05,34.08,34.08,0,0,1,34.05-34m0-7.71a41.76,41.76,0,1,0,41.76,41.76A41.76,41.76,0,0,0,73.16,5Z"/><path class="cls-1" d="M87,35.34,66.8,55.51,58.22,47a3.93,3.93,0,0,0-5.56-.14.93.93,0,0,0-.14.14h0a4,4,0,0,0-.06,5.66l.06,0L64.16,64.27a3.92,3.92,0,0,0,5.55.14l.15-.14,23-23A3.93,3.93,0,0,0,93,35.71l-.14-.14h0a4,4,0,0,0-5.64-.46A2.73,2.73,0,0,0,87,35.34Z"/><path class="cls-1" d="M119,80.79a6.42,6.42,0,0,0-.5-2.45C116.24,73.15,114,68,111.7,62.8a41.9,41.9,0,0,1-4.49,8.08l2.34,5.37a.82.82,0,0,1,0,.32c-.17,0-.34,0-.5,0H102.3A41.74,41.74,0,0,1,91.92,84H111.6v19.42l-.27.06c-2.37.1-2.37.1-3.24-2.09a15.8,15.8,0,0,0-20-9.19c-.25.09-.51.16-.81.25V86a41.19,41.19,0,0,1-7.38,1.9v9.77a5.73,5.73,0,0,1-.49,1.91c-.38,1-.93,2-1.24,3.1-.2.67-.5.81-1.14.81q-13,0-26,0c-.77,0-1-.27-1.23-1a15.79,15.79,0,0,0-30.19-.27c-.32,1-.76,1.37-1.76,1.22a10.35,10.35,0,0,0-1.48,0V72.94h0V47.35h15c0-.21,0-.43,0-.64A42,42,0,0,1,32,39.94h-19a3.72,3.72,0,0,0-3.93,4v62.93a3.79,3.79,0,0,0,4,4h6.05c2.49,7.52,7.44,12.08,15.43,12.14s13.17-4.51,15.72-12.11H77.8c.08.2.17.38.23.57a15.88,15.88,0,0,0,30.55.14.9.9,0,0,1,1.06-.75c1.73,0,3.46,0,5.19,0a3.83,3.83,0,0,0,4.17-4.18C119,98,119,89.41,119,80.79ZM34.61,115.72a8.56,8.56,0,1,1,8.61-8.45A8.51,8.51,0,0,1,34.61,115.72Zm58.66,0a8.56,8.56,0,1,1,8.62-8.55A8.51,8.51,0,0,1,93.27,115.72Z"/></svg>