<svg id="Layer_1" data-name="Layer 1" xmlns="http://www.w3.org/2000/svg" viewBox="0 0 128 128"><defs><style>.cls-1{fill:#fff;}</style></defs><title>icon</title><path class="cls-1" d="M87.49,11.56A28.95,28.95,0,1,1,58.54,40.51,29,29,0,0,1,87.49,11.56m0-6.56A35.51,35.51,0,1,0,123,40.51,35.51,35.51,0,0,0,87.49,5Z"/><path class="cls-1" d="M99.23,30.84,82.08,48l-7.3-7.27a3.34,3.34,0,0,0-4.72-.13l-.12.13h0a3.41,3.41,0,0,0,0,4.81l0,0,9.89,9.87a3.35,3.35,0,0,0,4.73.13l.12-.13,19.56-19.55a3.35,3.35,0,0,0,.12-4.73l-.12-.12h0a3.42,3.42,0,0,0-4.8-.4Z"/><path class="cls-1" d="M91.27,82.43c-1.24.11-2.5.18-3.78.18-1,0-1.95,0-2.92-.11v33a.65.65,0,0,1-.65.65H56.13a.65.65,0,0,1-.65-.65V75.72a.65.65,0,0,1,.65-.65h7.33a42.22,42.22,0,0,1-7.56-6.75.63.63,0,0,1-.39-.45,41.92,41.92,0,0,1-8.39-15.41H40.05a8.63,8.63,0,0,1,0-17.23h.14a8.38,8.38,0,0,1,5.32,1.93,41.73,41.73,0,0,1,1.19-7.21A15.41,15.41,0,0,0,44.22,29c-.79-.11-1.65-.27-2.39-.42H38.06A15.31,15.31,0,0,0,26.49,50.5l.46.9a.64.64,0,0,1,0,.64.66.66,0,0,1-.56.31H12.22A7.27,7.27,0,0,0,5.3,57.53l-.3.94V68.74a3,3,0,0,1,.15.45,7.16,7.16,0,0,0,5.31,5.49,8.78,8.78,0,0,0,1.22.24l.77.13a.65.65,0,0,1,.53.64v39.76a7.26,7.26,0,0,0,7,7.52h64a5.63,5.63,0,0,0,.58,0l.55,0a7.22,7.22,0,0,0,6.21-7.56ZM48.59,115.51a.66.66,0,0,1-.66.65H20.28a.65.65,0,0,1-.65-.65V75.72a.65.65,0,0,1,.65-.65H47.93a.66.66,0,0,1,.66.65Zm.13-47.8a.66.66,0,0,1-.65.66H12.41a.66.66,0,0,1-.65-.66V59.84a.65.65,0,0,1,.65-.65H48.07a.65.65,0,0,1,.65.65Z"/></svg>