<svg id="Layer_1" data-name="Layer 1" xmlns="http://www.w3.org/2000/svg" viewBox="0 0 128 128"><defs><style>.cls-1{fill:#333;}</style></defs><title>icon</title><path class="cls-1" d="M49,88.31h68.59c2.63,0,3.91-1.27,3.91-3.89V44.7c0-2.42-1.34-3.75-3.77-3.75h-7.62v-13a7.06,7.06,0,0,0-7-7H96.8a6.34,6.34,0,0,0,0-.74,3.84,3.84,0,0,0-.63-1.92A3.54,3.54,0,0,0,95,17.31l-.28-.16a1.32,1.32,0,0,0-.74-.23h-.54a1.36,1.36,0,0,0-.6.14c-.08.05-.17.08-.25.12a4.26,4.26,0,0,0-.91.51,3,3,0,0,0-1.12,2.41v.77h-15a.76.76,0,0,1,0-.15A3.39,3.39,0,0,0,73.12,17a1.39,1.39,0,0,0-.4-.06h-.54a1.25,1.25,0,0,0-.43.07,3.22,3.22,0,0,0-2.43,3.1c0,.27,0,.54,0,.81H63.22a7.12,7.12,0,0,0-7.13,5.68,1.33,1.33,0,0,0-.16.62V40.88H49c-2.6,0-3.87,1.27-3.87,3.84v39.7C45.09,87,46.37,88.31,49,88.31ZM62.19,31.53h0V28.16c0-.71.29-1,1-1h6.06v.75A3.17,3.17,0,0,0,71.55,31a3.46,3.46,0,0,0,.84.11,3.08,3.08,0,0,0,3.1-3c0-.32,0-.64,0-.95h15v.75a3.19,3.19,0,0,0,3.13,3.19h0a3.21,3.21,0,0,0,3.12-3.2v-.77h6.14a.87.87,0,0,1,.95.89c0,1.67,0,3.39,0,5V53h0v8.63a2.55,2.55,0,0,1,0,.59.75.75,0,0,1-.72.51H63.21c-.83,0-1-.48-1-.64a.91.91,0,0,1,0-.27V53h0ZM51.92,47.72h4V62.81a1.34,1.34,0,0,0,0,.35l.07.25c.05.2.1.4.16.59a7.13,7.13,0,0,0,6.6,5.12h39.9a7.06,7.06,0,0,0,6.43-3.55,6.62,6.62,0,0,0,1-3.53V47.71h4.6V81.48H51.92Z"/><rect class="cls-1" x="90.04" y="38.87" width="7.03" height="5.31"/><rect class="cls-1" x="79.9" y="38.87" width="7.03" height="5.31"/><rect class="cls-1" x="90.04" y="49.17" width="7.03" height="5.31"/><rect class="cls-1" x="79.9" y="49.17" width="7.03" height="5.31"/><rect class="cls-1" x="69.53" y="49.17" width="7.03" height="5.31"/><path class="cls-1" d="M21.63,24.59c-2.25,0-4.33,0-6.41,0a8.62,8.62,0,0,1-1-17.19,59.6,59.6,0,0,1,10.35.14A16.3,16.3,0,0,1,38.93,23.66c.06,7,0,14,0,20.93q0,22.78,0,45.57a1.88,1.88,0,0,0,.79,1.61,27.19,27.19,0,0,1,3.44,3.43,2.12,2.12,0,0,0,1.87.88q25.88,0,51.74,0l16.23,0a8.64,8.64,0,0,1,.29,17.27c-.42,0-.84,0-1.27,0H44.84a1.71,1.71,0,0,0-1.6.79,16,16,0,0,1-29-10.64,15.63,15.63,0,0,1,6.64-11.78,1.57,1.57,0,0,0,.73-1.44q0-32.28,0-64.55ZM33.08,88.74V24.68c0-.36,0-.71,0-1.07a10.46,10.46,0,0,0-9-10.23,74.45,74.45,0,0,0-8.59-.2A2.79,2.79,0,0,0,12.36,16c0,1.65,1.22,2.75,3.1,2.77,2.25,0,4.5,0,6.75,0A5,5,0,0,1,27.3,22.5a9.17,9.17,0,0,1,.19,2.23q0,31.43,0,62.85v1.16Zm13.19,18.72h65.9a7.85,7.85,0,0,0,1,0,2.81,2.81,0,0,0,2.48-2.4,2.74,2.74,0,0,0-1.78-2.94,5.27,5.27,0,0,0-1.64-.19H46.27Zm-16-13a10.2,10.2,0,1,0,10.24,10.15A10.17,10.17,0,0,0,30.27,94.5Z"/><path class="cls-1" d="M30.25,100.8a4,4,0,0,1,.07,8,4,4,0,1,1-.07-8Z"/></svg>