<svg id="Layer_1" data-name="Layer 1" xmlns="http://www.w3.org/2000/svg" viewBox="0 0 128 128"><defs><style>.cls-1{fill:#fff;}</style></defs><title>icon</title><path class="cls-1" d="M106,56.25a3.49,3.49,0,0,0-1-2.53,3.59,3.59,0,0,0-2.55-1.09h0a3.59,3.59,0,0,0,0,7.18h0A3.67,3.67,0,0,0,106,56.25Z"/><path class="cls-1" d="M118.94,44.67a15.34,15.34,0,0,0-15.72-15.39h-7V13.47c0-2.62-.59-3.49-3-4.43a.52.52,0,0,0-.21,0H35a.46.46,0,0,0-.21,0c-2.41.94-3,1.81-3,4.42V29.27H24.39a14.89,14.89,0,0,0-10.12,3.86A15.09,15.09,0,0,0,9.16,43a2.59,2.59,0,0,1-.09.4L9,43.61a.59.59,0,0,0,0,.13V75.35s0,.07,0,.1c.05.26.09.53.14.79.09.57.19,1.16.33,1.74A15.25,15.25,0,0,0,24.28,89.84l2.77,0h4.71v24.89c0,2.91,1.35,4.26,4.22,4.26H55.13a8.87,8.87,0,1,1,17.74,0H92c2.9,0,4.25-1.34,4.25-4.22V89.85h1.17l2.11,0,2.14,0a29,29,0,0,0,3.9-.22,15,15,0,0,0,13.38-15.22C119,64.34,119,54.32,118.94,44.67ZM39,16.3H89V29.21H39Zm50,95.46H78.11a15.84,15.84,0,0,0-28.22,0H39V79.56H89Zm22.77-38.23a14.28,14.28,0,0,1-.25,3,8,8,0,0,1-7.74,6.16H96.33V79.5H98c.46,0,.91,0,1.37,0a3.76,3.76,0,0,0,3-1.65,3.59,3.59,0,0,0-2.57-5.48,8.85,8.85,0,0,0-1.14,0H28.52a3.58,3.58,0,0,0,0,7.16c.47,0,.94,0,1.42,0h1.76v3.15h-7a8.47,8.47,0,0,1-1.5-.1,8,8,0,0,1-7-8c-.06-11.62-.06-21.08,0-29.77,0-4.88,3.57-8.28,8.58-8.28H103.2A8.21,8.21,0,0,1,111.76,45C111.78,54.18,111.78,63.5,111.76,73.53Z"/><path class="cls-1" d="M53.68,94.83h-5.5a2.5,2.5,0,1,1,0-5h5.5a2.5,2.5,0,0,1,0,5Z"/><path class="cls-1" d="M67.44,94.83H60.56a2.5,2.5,0,1,1,0-5h6.88a2.5,2.5,0,0,1,0,5Z"/><path class="cls-1" d="M79.82,94.83h-5.5a2.5,2.5,0,0,1,0-5h5.5a2.5,2.5,0,0,1,0,5Z"/></svg>