<?xml version="1.0" encoding="utf-8"?>
<!-- Generator: Adobe Illustrator 23.0.6, SVG Export Plug-In . SVG Version: 6.00 Build 0)  -->
<svg version="1.1" id="Layer_3" xmlns="http://www.w3.org/2000/svg" xmlns:xlink="http://www.w3.org/1999/xlink" x="0px" y="0px"
	 viewBox="0 0 450 100" style="enable-background:new 0 0 450 100;" xml:space="preserve">
<style type="text/css">
	.st0{fill:#FFFFFF;}
	.st1{fill:#C8CED2;}
	.st2{fill:#898989;}
	.st3{fill:#2B3034;}
	.st4{enable-background:new    ;}
</style>
<path class="st0" d="M39.3,18.9h369.6c3.4,0,6.3,2.9,6.3,6.3v49.5c0,3.4-2.9,6.3-6.3,6.3H39.3c-3.4,0-6.3-2.9-6.3-6.3V25.3
	C33,21.8,35.9,18.9,39.3,18.9z"/>
<path class="st1" d="M410,19.8c3.1,0,5.4,2.4,5.4,5.4v49.5c0,3.1-2.3,5.4-5.4,5.4H40.2c-3.1,0-5.4-2.4-5.4-5.4V25.2
	c0-3.1,2.3-5.4,5.4-5.4L410,19.8 M409.8,18H40.2c-4,0-7.2,3.3-7.2,7.2v49.5c0,4,3.2,7.2,7.2,7.2h369.6c4,0,7.2-3.3,7.2-7.2V25.2
	C417,21.3,413.9,18,409.8,18z"/>
<path class="st1" d="M248.7,82H42.3c-5.1,0-9.3-3.3-9.3-7.2V25.2c0-4,4.2-7.2,9.3-7.2h206.4V82z"/>
<path class="st2" d="M290.1,60.8c-0.4,0-0.7,0-1.1-0.2c-1.4-0.2-2.7-0.5-4-0.9l-4.3-1.4c-0.9-0.2-1.8-0.4-2.7-0.2c0,0.2,0,0.5,0,0.7
	c0,0.4-0.5,0.7-0.9,0.7h-5c-0.5,0-0.9-0.4-0.9-0.9l0,0l0,0V47.5c0-0.5,0.4-0.9,0.9-0.9h4.9c0.7,0,1.1,0.4,1.1,1.1
	c0.2-0.2,0.4-0.2,0.5-0.4c1.6-1.1,2.7-2.5,3.2-4.3c0.2-0.5,0.2-0.9,0.2-1.4c0-0.9,0.5-1.6,1.3-2.2c1.3-0.7,2.7-0.4,3.6,0.7
	c0,0,0,0,0,0.2c0.2,0.2,0.2,0.4,0.4,0.7c0.2,0.4,0.2,0.7,0.2,1.1v4.5h5.4c1.1,0,2.2,0.5,2.7,1.4s0.9,1.8,1.1,2.9
	c0.4,2.2,0.2,4.3-0.5,6.3c-0.4,1.1-1.3,2.2-2.2,2.9c-0.7,0.4-1.4,0.7-2.2,0.7c-0.4,0-0.9,0-1.3,0.2L290.1,60.8z M277.8,56.7h1.6
	c0.7,0.2,1.4,0.4,2.2,0.5c1.6,0.5,3.1,0.9,4.7,1.4s3.4,0.7,5.1,0.5c1.1-0.2,2.2-0.7,2.7-1.8c0.2-0.5,0.5-0.9,0.5-1.4
	c0.5-1.6,0.5-3.4,0.2-5.1c-0.2-0.9-0.5-1.8-0.9-2.5c-0.4-0.5-0.9-0.7-1.4-0.7h-6c-0.5,0-0.9-0.2-0.9-0.9v-4.9c0-0.4,0-0.7-0.2-1.1
	c-0.2-0.4-0.7-0.7-1.1-0.5c-0.5,0-0.9,0.4-1.1,0.7c0,0.2-0.2,0.5-0.2,0.7c0,0.5-0.2,1.1-0.2,1.4c-0.5,1.6-1.4,2.9-2.5,4
	c-0.7,0.7-1.6,1.3-2.5,1.6c-0.2,0-0.2,0.2-0.2,0.4L277.8,56.7L277.8,56.7z M272.4,47.8v10.3h4V47.8H272.4z"/>
<path class="st3" d="M62,40.6c0.4,0,0.7,0,1.1,0c1.4,0.2,2.7,0.5,4,0.9c1.4,0.5,2.9,0.9,4.3,1.4c0.9,0.2,1.8,0.4,2.5,0.2
	c0-0.2,0-0.5,0-0.7c0-0.4,0.4-0.7,0.9-0.7h4.9c0.5,0,0.9,0.4,0.9,0.9l0,0v11c0,0.5-0.4,1.1-0.9,1.1h-4.5c-0.7,0-1.1-0.4-1.1-1.1
	c-0.2,0.2-0.4,0.2-0.5,0.4c-1.6,1.1-2.7,2.5-3.2,4.3c-0.2,0.5-0.2,0.9-0.2,1.4c0,0.9-0.5,1.6-1.3,2.2c-1.3,0.7-2.7,0.4-3.6-0.7l0,0
	c-0.2-0.2-0.2-0.4-0.4-0.7c-0.2-0.4-0.2-0.7-0.2-1.1v-4.5h-5.4c-1.1,0-2.2-0.5-2.7-1.4s-0.9-1.8-1.1-2.9c-0.4-2.2-0.4-4.3,0.5-6.3
	c0.4-1.1,1.1-2.2,2.2-2.9c0.7-0.4,1.4-0.7,2.2-0.7l1.3-0.2L62,40.6z M74.1,44.5h-1.6c-0.7-0.2-1.4-0.4-2.2-0.5
	c-1.6-0.5-3.1-0.9-4.7-1.4s-3.4-0.7-5.1-0.5c-1.1,0.2-2.2,0.7-2.7,1.8c-0.4,0.5-0.5,0.9-0.7,1.4c-0.5,1.6-0.5,3.4-0.2,5.1
	c0.2,0.9,0.5,1.6,1.1,2.3c0.4,0.5,0.9,0.7,1.4,0.7h6c0.5,0,0.9,0.2,0.9,0.9v4.9c0,0.4,0,0.7,0.2,1.1c0.2,0.4,0.7,0.7,1.1,0.7
	c0.5,0,0.9-0.4,1.1-0.7c0-0.2,0.2-0.5,0.2-0.7c0-0.5,0.2-0.9,0.2-1.4c0.5-1.6,1.3-2.9,2.5-4c0.7-0.7,1.6-1.3,2.5-1.6
	c0.2,0,0.2-0.2,0.2-0.2l0,0L74.1,44.5L74.1,44.5z M79.5,53.4V43.1h-4v10.3C75.5,53.4,79.5,53.4,79.5,53.4z"/>
<g class="st4">
	<path class="st3" d="M100.9,40.7c0.1,0.1,0.2,0.2,0.4,0.3l10.4,13.5c0-0.2,0-0.4-0.1-0.6s0-0.4,0-0.6V40.6h2.1v17.9h-1.2
		c-0.2,0-0.4,0-0.5-0.1c-0.1-0.1-0.3-0.2-0.4-0.3l-10.4-13.5c0,0.2,0,0.4,0,0.6s0,0.4,0,0.5v12.8h-2.1V40.6h1.2
		C100.7,40.6,100.8,40.6,100.9,40.7z"/>
	<path class="st3" d="M127.1,58.5h-1c-0.2,0-0.4,0-0.5-0.1c-0.1-0.1-0.2-0.2-0.3-0.4l-0.2-1.2c-0.3,0.3-0.7,0.6-1,0.8
		c-0.3,0.2-0.6,0.4-1,0.6c-0.4,0.2-0.7,0.3-1.1,0.4c-0.4,0.1-0.8,0.1-1.3,0.1c-0.5,0-1-0.1-1.4-0.2s-0.8-0.3-1.1-0.6
		c-0.3-0.3-0.6-0.6-0.8-1c-0.2-0.4-0.3-0.9-0.3-1.5c0-0.5,0.1-1,0.4-1.4c0.3-0.5,0.7-0.9,1.3-1.2c0.6-0.4,1.4-0.7,2.4-0.9
		c1-0.2,2.2-0.3,3.6-0.3v-1c0-1-0.2-1.7-0.6-2.2c-0.4-0.5-1-0.8-1.9-0.8c-0.5,0-1,0.1-1.4,0.2c-0.4,0.1-0.7,0.3-1,0.5
		c-0.3,0.2-0.5,0.3-0.7,0.5s-0.4,0.2-0.6,0.2c-0.2,0-0.3,0-0.4-0.1c-0.1-0.1-0.2-0.2-0.3-0.3l-0.4-0.7c0.7-0.7,1.5-1.2,2.3-1.5
		c0.8-0.3,1.7-0.5,2.7-0.5c0.7,0,1.3,0.1,1.9,0.4c0.5,0.2,1,0.6,1.4,1s0.7,0.9,0.9,1.5s0.3,1.2,0.3,2V58.5z M123.9,41.9
		c0.3,0,0.5-0.1,0.7-0.3c0.2-0.2,0.2-0.4,0.3-0.8h1.4c0,0.4-0.1,0.8-0.2,1.1c-0.1,0.3-0.3,0.6-0.4,0.8c-0.2,0.2-0.4,0.4-0.7,0.5
		c-0.3,0.1-0.6,0.2-0.9,0.2c-0.3,0-0.6-0.1-0.8-0.2s-0.5-0.3-0.7-0.4s-0.4-0.3-0.6-0.4c-0.2-0.1-0.4-0.2-0.6-0.2
		c-0.6,0-0.9,0.4-0.9,1.1h-1.4c0-0.4,0.1-0.8,0.2-1.1c0.1-0.3,0.3-0.6,0.5-0.8c0.2-0.2,0.4-0.4,0.7-0.5c0.3-0.1,0.6-0.2,0.9-0.2
		c0.3,0,0.6,0.1,0.8,0.2c0.3,0.1,0.5,0.3,0.7,0.4c0.2,0.1,0.4,0.3,0.6,0.4C123.5,41.9,123.7,41.9,123.9,41.9z M121.3,57.1
		c0.4,0,0.8,0,1.1-0.1c0.3-0.1,0.6-0.2,0.9-0.3c0.3-0.1,0.6-0.3,0.8-0.5c0.3-0.2,0.5-0.4,0.8-0.7v-2.6c-1,0-1.9,0.1-2.6,0.2
		c-0.7,0.1-1.3,0.3-1.8,0.5c-0.5,0.2-0.8,0.5-1,0.7c-0.2,0.3-0.3,0.6-0.3,1c0,0.3,0.1,0.6,0.2,0.9c0.1,0.2,0.3,0.4,0.4,0.6
		c0.2,0.2,0.4,0.3,0.6,0.3C120.7,57.1,121,57.1,121.3,57.1z"/>
	<path class="st3" d="M135.6,45.6c0.9,0,1.8,0.2,2.5,0.5c0.7,0.3,1.4,0.7,1.9,1.3c0.5,0.6,0.9,1.3,1.2,2.1c0.3,0.8,0.4,1.7,0.4,2.7
		c0,1-0.1,1.9-0.4,2.7s-0.7,1.5-1.2,2c-0.5,0.6-1.2,1-1.9,1.3c-0.7,0.3-1.6,0.5-2.5,0.5c-0.9,0-1.8-0.2-2.5-0.5
		c-0.7-0.3-1.4-0.7-1.9-1.3c-0.5-0.6-0.9-1.2-1.2-2c-0.3-0.8-0.4-1.7-0.4-2.7c0-1,0.1-1.9,0.4-2.7c0.3-0.8,0.7-1.5,1.2-2.1
		c0.5-0.6,1.2-1,1.9-1.3C133.8,45.8,134.6,45.6,135.6,45.6z M135.6,56.9c1.2,0,2.2-0.4,2.8-1.3c0.6-0.8,0.9-2,0.9-3.5
		c0-1.5-0.3-2.7-0.9-3.5s-1.5-1.3-2.8-1.3c-0.6,0-1.2,0.1-1.7,0.3s-0.9,0.5-1.2,0.9s-0.5,0.9-0.7,1.5s-0.2,1.3-0.2,2s0.1,1.4,0.2,2
		s0.4,1.1,0.7,1.5s0.7,0.7,1.2,0.9S134.9,56.9,135.6,56.9z"/>
	<path class="st3" d="M158.5,58.5h-1c-0.2,0-0.4,0-0.5-0.1c-0.1-0.1-0.2-0.2-0.3-0.4l-0.2-1.2c-0.3,0.3-0.7,0.6-1,0.8
		c-0.3,0.2-0.6,0.4-1,0.6c-0.4,0.2-0.7,0.3-1.1,0.4c-0.4,0.1-0.8,0.1-1.3,0.1c-0.5,0-1-0.1-1.4-0.2s-0.8-0.3-1.1-0.6
		c-0.3-0.3-0.6-0.6-0.8-1c-0.2-0.4-0.3-0.9-0.3-1.5c0-0.5,0.1-1,0.4-1.4c0.3-0.5,0.7-0.9,1.3-1.2c0.6-0.4,1.4-0.7,2.4-0.9
		c1-0.2,2.2-0.3,3.6-0.3v-1c0-1-0.2-1.7-0.6-2.2c-0.4-0.5-1-0.8-1.9-0.8c-0.5,0-1,0.1-1.4,0.2c-0.4,0.1-0.7,0.3-1,0.5
		c-0.3,0.2-0.5,0.3-0.7,0.5s-0.4,0.2-0.6,0.2c-0.2,0-0.3,0-0.4-0.1c-0.1-0.1-0.2-0.2-0.3-0.3l-0.4-0.7c0.7-0.7,1.5-1.2,2.3-1.5
		c0.8-0.3,1.7-0.5,2.7-0.5c0.7,0,1.3,0.1,1.9,0.4c0.5,0.2,1,0.6,1.4,1s0.7,0.9,0.9,1.5s0.3,1.2,0.3,2V58.5z M152.7,57.1
		c0.4,0,0.8,0,1.1-0.1c0.3-0.1,0.6-0.2,0.9-0.3c0.3-0.1,0.6-0.3,0.8-0.5c0.3-0.2,0.5-0.4,0.8-0.7v-2.6c-1,0-1.9,0.1-2.6,0.2
		c-0.7,0.1-1.3,0.3-1.8,0.5c-0.5,0.2-0.8,0.5-1,0.7c-0.2,0.3-0.3,0.6-0.3,1c0,0.3,0.1,0.6,0.2,0.9c0.1,0.2,0.3,0.4,0.4,0.6
		c0.2,0.2,0.4,0.3,0.6,0.3C152.1,57.1,152.4,57.1,152.7,57.1z"/>
	<path class="st3" d="M165.7,58.7c-1,0-1.8-0.3-2.3-0.8c-0.5-0.6-0.8-1.4-0.8-2.4v-7.8H161c-0.1,0-0.2,0-0.3-0.1s-0.1-0.2-0.1-0.4
		v-0.9l2.1-0.3l0.5-3.9c0-0.1,0.1-0.2,0.2-0.3s0.2-0.1,0.4-0.1h1.1v4.4h3.6v1.6h-3.6v7.6c0,0.5,0.1,0.9,0.4,1.2
		c0.3,0.3,0.6,0.4,1,0.4c0.2,0,0.4,0,0.6-0.1s0.3-0.1,0.4-0.2s0.2-0.1,0.3-0.2s0.2-0.1,0.2-0.1c0.1,0,0.2,0.1,0.3,0.2l0.6,1.1
		c-0.4,0.4-0.8,0.6-1.4,0.8S166.2,58.7,165.7,58.7z"/>
	<path class="st3" d="M176.2,45.6c0.8,0,1.5,0.1,2.1,0.4c0.6,0.3,1.2,0.6,1.7,1.1c0.5,0.5,0.8,1.1,1.1,1.8c0.3,0.7,0.4,1.5,0.4,2.4
		c0,0.4,0,0.6-0.1,0.7c-0.1,0.1-0.2,0.2-0.4,0.2h-8.4c0,0.8,0.1,1.5,0.3,2.1c0.2,0.6,0.5,1.1,0.8,1.5c0.4,0.4,0.8,0.7,1.2,0.9
		c0.5,0.2,1,0.3,1.6,0.3c0.6,0,1-0.1,1.4-0.2s0.8-0.3,1-0.4c0.3-0.2,0.5-0.3,0.7-0.4c0.2-0.1,0.4-0.2,0.5-0.2c0.2,0,0.3,0.1,0.4,0.2
		l0.6,0.8c-0.3,0.3-0.6,0.6-1,0.9s-0.8,0.4-1.2,0.6s-0.9,0.3-1.4,0.4c-0.5,0.1-0.9,0.1-1.4,0.1c-0.9,0-1.7-0.1-2.4-0.4
		c-0.7-0.3-1.4-0.7-1.9-1.3c-0.5-0.6-1-1.3-1.3-2.1s-0.5-1.8-0.5-2.9c0-0.9,0.1-1.7,0.4-2.5c0.3-0.8,0.7-1.4,1.2-2s1.1-1,1.9-1.3
		C174.4,45.8,175.3,45.6,176.2,45.6z M176.2,47.3c-1.1,0-1.9,0.3-2.5,0.9c-0.6,0.6-1,1.5-1.1,2.6h6.9c0-0.5-0.1-1-0.2-1.4
		c-0.1-0.4-0.4-0.8-0.6-1.1s-0.6-0.6-1-0.7S176.7,47.3,176.2,47.3z"/>
	<path class="st3" d="M184.3,58.5V45.8h1.3c0.3,0,0.5,0.2,0.6,0.5l0.2,1.4c0.6-0.6,1.2-1.1,1.8-1.5s1.5-0.6,2.4-0.6
		c0.7,0,1.3,0.1,1.8,0.3s1,0.6,1.3,1c0.4,0.4,0.6,0.9,0.8,1.5c0.2,0.6,0.3,1.2,0.3,2v8.1h-2.2v-8.1c0-1-0.2-1.7-0.7-2.2
		s-1.1-0.8-2-0.8c-0.7,0-1.3,0.2-1.8,0.5s-1.1,0.7-1.6,1.3v9.3H184.3z"/>
	<path class="st3" d="M207.1,58.5c-0.3,0-0.5-0.2-0.6-0.5l-0.2-1.5c-0.5,0.7-1.2,1.2-1.9,1.6c-0.7,0.4-1.5,0.6-2.4,0.6
		c-0.7,0-1.4-0.1-2-0.4c-0.6-0.3-1.1-0.7-1.5-1.2c-0.4-0.5-0.7-1.2-1-2c-0.2-0.8-0.3-1.7-0.3-2.8c0-0.9,0.1-1.8,0.4-2.6
		c0.2-0.8,0.6-1.5,1.1-2.1c0.5-0.6,1-1.1,1.7-1.4c0.7-0.3,1.4-0.5,2.3-0.5c0.8,0,1.4,0.1,2,0.4c0.6,0.3,1,0.6,1.5,1.1v-7h2.2v18.4
		H207.1z M202.8,56.9c0.7,0,1.4-0.2,1.9-0.5s1-0.8,1.5-1.4v-6.1c-0.4-0.6-0.9-0.9-1.3-1.2c-0.5-0.2-1-0.3-1.6-0.3
		c-1.2,0-2.1,0.4-2.7,1.3s-0.9,2-0.9,3.6c0,0.8,0.1,1.5,0.2,2.1c0.1,0.6,0.4,1.1,0.6,1.5s0.6,0.7,1,0.8
		C201.8,56.8,202.2,56.9,202.8,56.9z"/>
	<path class="st3" d="M217.1,45.6c0.8,0,1.5,0.1,2.1,0.4c0.6,0.3,1.2,0.6,1.7,1.1c0.5,0.5,0.8,1.1,1.1,1.8c0.3,0.7,0.4,1.5,0.4,2.4
		c0,0.4,0,0.6-0.1,0.7c-0.1,0.1-0.2,0.2-0.4,0.2h-8.4c0,0.8,0.1,1.5,0.3,2.1c0.2,0.6,0.5,1.1,0.8,1.5c0.4,0.4,0.8,0.7,1.2,0.9
		c0.5,0.2,1,0.3,1.6,0.3c0.6,0,1-0.1,1.4-0.2s0.8-0.3,1-0.4c0.3-0.2,0.5-0.3,0.7-0.4c0.2-0.1,0.4-0.2,0.5-0.2c0.2,0,0.3,0.1,0.4,0.2
		l0.6,0.8c-0.3,0.3-0.6,0.6-1,0.9s-0.8,0.4-1.2,0.6s-0.9,0.3-1.4,0.4c-0.5,0.1-0.9,0.1-1.4,0.1c-0.9,0-1.7-0.1-2.4-0.4
		c-0.7-0.3-1.4-0.7-1.9-1.3c-0.5-0.6-1-1.3-1.3-2.1s-0.5-1.8-0.5-2.9c0-0.9,0.1-1.7,0.4-2.5c0.3-0.8,0.7-1.4,1.2-2s1.1-1,1.9-1.3
		C215.4,45.8,216.2,45.6,217.1,45.6z M217.2,47.3c-1.1,0-1.9,0.3-2.5,0.9c-0.6,0.6-1,1.5-1.1,2.6h6.9c0-0.5-0.1-1-0.2-1.4
		c-0.1-0.4-0.4-0.8-0.6-1.1s-0.6-0.6-1-0.7S217.7,47.3,217.2,47.3z"/>
</g>
<g class="st4">
	<path class="st2" d="M326.9,58.5h-1.9c-0.2,0-0.4-0.1-0.5-0.2c-0.1-0.1-0.2-0.2-0.3-0.4l-1.7-4.3h-8l-1.7,4.3
		c-0.1,0.2-0.2,0.3-0.3,0.4c-0.1,0.1-0.3,0.2-0.5,0.2h-1.9l7.2-17.9h2.5L326.9,58.5z M315.2,51.9h6.7l-2.8-7.3
		c-0.2-0.5-0.4-1-0.5-1.7c-0.1,0.3-0.2,0.7-0.3,0.9c-0.1,0.3-0.2,0.5-0.3,0.8L315.2,51.9z"/>
	<path class="st2" d="M332.7,58.7c-1,0-1.8-0.3-2.3-0.8c-0.5-0.6-0.8-1.4-0.8-2.4v-7.8h-1.5c-0.1,0-0.2,0-0.3-0.1s-0.1-0.2-0.1-0.4
		v-0.9l2.1-0.3l0.5-3.9c0-0.1,0.1-0.2,0.2-0.3s0.2-0.1,0.3-0.1h1.1v4.4h3.6v1.6h-3.6v7.6c0,0.5,0.1,0.9,0.4,1.2
		c0.3,0.3,0.6,0.4,1,0.4c0.2,0,0.4,0,0.6-0.1s0.3-0.1,0.4-0.2s0.2-0.1,0.3-0.2s0.2-0.1,0.2-0.1c0.1,0,0.2,0.1,0.3,0.2l0.7,1.1
		c-0.4,0.4-0.8,0.6-1.4,0.8C333.8,58.6,333.3,58.7,332.7,58.7z"/>
	<path class="st2" d="M343.2,45.6c0.8,0,1.5,0.1,2.1,0.4c0.6,0.3,1.2,0.6,1.7,1.1c0.5,0.5,0.8,1.1,1.1,1.8c0.3,0.7,0.4,1.5,0.4,2.4
		c0,0.4,0,0.6-0.1,0.7c-0.1,0.1-0.2,0.2-0.4,0.2h-8.4c0,0.8,0.1,1.5,0.3,2.1c0.2,0.6,0.5,1.1,0.8,1.5c0.4,0.4,0.8,0.7,1.2,0.9
		c0.5,0.2,1,0.3,1.6,0.3c0.6,0,1-0.1,1.4-0.2s0.8-0.3,1-0.4c0.3-0.2,0.5-0.3,0.7-0.4c0.2-0.1,0.4-0.2,0.5-0.2c0.2,0,0.3,0.1,0.4,0.2
		l0.6,0.8c-0.3,0.3-0.6,0.6-1,0.9s-0.8,0.4-1.2,0.6s-0.9,0.3-1.4,0.4c-0.5,0.1-0.9,0.1-1.4,0.1c-0.9,0-1.7-0.1-2.4-0.4
		c-0.7-0.3-1.4-0.7-1.9-1.3c-0.5-0.6-1-1.3-1.3-2.1s-0.5-1.8-0.5-2.9c0-0.9,0.1-1.7,0.4-2.5c0.3-0.8,0.7-1.4,1.2-2s1.1-1,1.9-1.3
		C341.5,45.8,342.3,45.6,343.2,45.6z M343.2,47.3c-1.1,0-1.9,0.3-2.5,0.9c-0.6,0.6-1,1.5-1.2,2.6h6.9c0-0.5-0.1-1-0.2-1.4
		c-0.1-0.4-0.4-0.8-0.6-1.1s-0.6-0.6-1-0.7C344.2,47.4,343.8,47.3,343.2,47.3z"/>
	<path class="st2" d="M351.3,58.5V45.8h1.3c0.3,0,0.5,0.2,0.6,0.5l0.2,1.4c0.6-0.6,1.2-1.1,1.8-1.5c0.7-0.4,1.5-0.6,2.4-0.6
		c0.7,0,1.3,0.1,1.8,0.3s1,0.6,1.3,1c0.4,0.4,0.6,0.9,0.8,1.5c0.2,0.6,0.3,1.2,0.3,2v8.1h-2.2v-8.1c0-1-0.2-1.7-0.7-2.2
		s-1.1-0.8-2-0.8c-0.7,0-1.3,0.2-1.8,0.5s-1.1,0.7-1.6,1.3v9.3H351.3z"/>
	<path class="st2" d="M374.1,58.5c-0.3,0-0.5-0.2-0.6-0.5l-0.2-1.5c-0.5,0.7-1.2,1.2-1.9,1.6c-0.7,0.4-1.5,0.6-2.4,0.6
		c-0.7,0-1.4-0.1-2-0.4c-0.6-0.3-1.1-0.7-1.5-1.2c-0.4-0.5-0.7-1.2-1-2s-0.3-1.7-0.3-2.8c0-0.9,0.1-1.8,0.4-2.6
		c0.2-0.8,0.6-1.5,1.1-2.1s1-1.1,1.7-1.4c0.7-0.3,1.4-0.5,2.3-0.5c0.8,0,1.4,0.1,2,0.4c0.6,0.3,1,0.6,1.5,1.1v-7h2.2v18.4H374.1z
		 M369.8,56.9c0.7,0,1.4-0.2,1.9-0.5s1-0.8,1.5-1.4v-6.1c-0.4-0.6-0.9-0.9-1.3-1.2c-0.5-0.2-1-0.3-1.6-0.3c-1.2,0-2.1,0.4-2.7,1.3
		c-0.6,0.8-0.9,2-0.9,3.6c0,0.8,0.1,1.5,0.2,2.1c0.1,0.6,0.3,1.1,0.6,1.5c0.3,0.4,0.6,0.7,1,0.8S369.3,56.9,369.8,56.9z"/>
	<path class="st2" d="M384.2,45.6c0.8,0,1.5,0.1,2.1,0.4c0.6,0.3,1.2,0.6,1.7,1.1c0.5,0.5,0.8,1.1,1.1,1.8c0.3,0.7,0.4,1.5,0.4,2.4
		c0,0.4,0,0.6-0.1,0.7c-0.1,0.1-0.2,0.2-0.4,0.2h-8.4c0,0.8,0.1,1.5,0.3,2.1c0.2,0.6,0.5,1.1,0.8,1.5c0.4,0.4,0.8,0.7,1.2,0.9
		c0.5,0.2,1,0.3,1.6,0.3c0.6,0,1-0.1,1.4-0.2s0.8-0.3,1-0.4c0.3-0.2,0.5-0.3,0.7-0.4c0.2-0.1,0.4-0.2,0.5-0.2c0.2,0,0.3,0.1,0.4,0.2
		l0.6,0.8c-0.3,0.3-0.6,0.6-1,0.9s-0.8,0.4-1.2,0.6s-0.9,0.3-1.4,0.4c-0.5,0.1-0.9,0.1-1.4,0.1c-0.9,0-1.7-0.1-2.4-0.4
		c-0.7-0.3-1.4-0.7-1.9-1.3c-0.5-0.6-1-1.3-1.3-2.1s-0.5-1.8-0.5-2.9c0-0.9,0.1-1.7,0.4-2.5c0.3-0.8,0.7-1.4,1.2-2s1.1-1,1.9-1.3
		C382.4,45.8,383.3,45.6,384.2,45.6z M384.2,47.3c-1.1,0-1.9,0.3-2.5,0.9c-0.6,0.6-1,1.5-1.2,2.6h6.9c0-0.5-0.1-1-0.2-1.4
		c-0.1-0.4-0.4-0.8-0.6-1.1s-0.6-0.6-1-0.7C385.2,47.4,384.7,47.3,384.2,47.3z"/>
</g>
</svg>
