<?xml version="1.0" encoding="utf-8"?>
<!-- Generator: Adobe Illustrator 23.0.6, SVG Export Plug-In . SVG Version: 6.00 Build 0)  -->
<svg version="1.1" id="Layer_1" xmlns="http://www.w3.org/2000/svg" xmlns:xlink="http://www.w3.org/1999/xlink" x="0px" y="0px"
	 viewBox="0 0 130 130" style="enable-background:new 0 0 130 130;" xml:space="preserve">
<style type="text/css">
	.st0{fill:#FFEBB8;stroke:#FFD05A;stroke-width:3;stroke-miterlimit:10;}
	.st1{fill:#CE9729;}
	.st2{fill:#E9FCFF;}
	.st3{fill:#FFFFFF;}
	.st4{fill:#63C2DE;}
</style>
<title>checklist-likert</title>
<circle class="st0" cx="55" cy="55" r="45"/>
<path class="st1" d="M54.9,59.9h19.7c1.9,0,2.4,0.5,2.5,2.5c0.2,6.8-2.8,11.8-8.3,15.5c-9.4,6.4-23,5.2-30.8-2.5
	c-3.7-3.6-5.6-8.6-5.2-13.7c0.1-1.2,0.8-1.8,2.1-1.8L54.9,59.9L54.9,59.9z M36.5,63.7c0,0.5,0,0.9,0.1,1.3c0.5,3.7,2.5,7,5.5,9.1
	c7.7,5.7,18.1,5.7,25.8,0c2.4-1.8,4.2-4.3,5.1-7.2c0.3-1,0.4-2.1,0.6-3.3L36.5,63.7z"/>
<path class="st1" d="M80.9,45.2c-0.4,0.4-0.7,1.2-1.2,1.3c-0.7,0.2-1.4,0.1-2-0.3c-0.6-0.5-1.2-1-1.7-1.5c-2.5-2.2-6.3-2.3-8.8-0.1
	c-0.6,0.5-1.2,1.1-1.8,1.6c-0.7,0.7-1.8,0.7-2.5,0c-0.7-0.7-0.8-1.8-0.1-2.5c0,0,0,0,0,0c3-3.4,6.6-5,11.2-4.1
	c2.7,0.6,4.7,2.4,6.5,4.3C80.7,44.3,80.8,44.7,80.9,45.2z"/>
<path class="st1" d="M47.7,45c-0.3,0.5-0.7,1-1.2,1.4c-0.7,0.4-1.5,0.3-2-0.3c-0.6-0.6-1.2-1.2-1.9-1.7c-2.5-2.1-6.1-2.1-8.6,0
	c-0.7,0.6-1.3,1.2-2,1.8c-0.7,0.6-1.8,0.5-2.4-0.2c-0.6-0.7-0.7-1.7-0.2-2.4c2.7-3.6,7.4-5.2,11.8-4.1c2.5,0.7,4.2,2.3,5.9,4.1
	C47.4,44.1,47.6,44.5,47.7,45z"/>
<circle class="st2" cx="94.9" cy="94.9" r="27.1"/>
<path class="st3" d="M94.9,69.8c13.9,0,25.1,11.2,25.1,25.1S108.8,120,94.9,120s-25.1-11.2-25.1-25.1l0,0
	C69.8,81.1,81,69.8,94.9,69.8C94.9,69.8,94.9,69.8,94.9,69.8 M94.9,65.8c-16.1,0-29.1,13-29.1,29.1s13,29.1,29.1,29.1
	S124,111,124,94.9c0,0,0,0,0,0C124,78.9,111,65.8,94.9,65.8z"/>
<path class="st4" d="M102.6,83.3c0,0.3,0,0.7-0.2,1c-0.1,0.3-0.3,0.5-0.5,0.7c-0.3,0.2-0.6,0.4-0.9,0.5c-0.4,0.1-0.9,0.2-1.3,0.2
	h-6.8l-0.9,4.9c0.5-0.1,1.1-0.2,1.6-0.2s1-0.1,1.5-0.1c1.2,0,2.5,0.2,3.6,0.6c1,0.4,1.9,1,2.6,1.7c0.7,0.7,1.3,1.6,1.6,2.5
	c0.4,1,0.5,2.1,0.5,3.1c0,1.3-0.2,2.6-0.7,3.8c-0.5,1.1-1.1,2.1-2,2.9c-0.9,0.8-2,1.5-3.1,1.9c-1.3,0.5-2.6,0.7-4,0.7
	c-0.8,0-1.6-0.1-2.4-0.3c-0.7-0.2-1.4-0.4-2.1-0.7c-0.6-0.3-1.3-0.6-1.8-1c-0.5-0.4-1-0.8-1.5-1.2l1.5-2.1c0.3-0.4,0.8-0.7,1.3-0.7
	c0.4,0,0.7,0.1,1,0.3l1.1,0.6c0.4,0.3,0.9,0.5,1.4,0.6c0.6,0.2,1.3,0.3,1.9,0.3c0.7,0,1.4-0.1,2-0.4c0.6-0.2,1-0.6,1.4-1.1
	c0.4-0.5,0.7-1,0.8-1.6c0.2-0.7,0.3-1.3,0.3-2c0.1-1.2-0.3-2.3-1.2-3.1c-0.9-0.8-2.2-1.2-3.4-1.1c-1.3,0-2.5,0.2-3.7,0.7L87.3,94
	l2.2-12.9h13.1V83.3z"/>
</svg>
