<?xml version="1.0" encoding="utf-8"?>
<!-- Generator: Adobe Illustrator 23.0.6, SVG Export Plug-In . SVG Version: 6.00 Build 0)  -->
<svg version="1.1" id="Layer_1" xmlns="http://www.w3.org/2000/svg" xmlns:xlink="http://www.w3.org/1999/xlink" x="0px" y="0px"
	 viewBox="0 0 130 130" style="enable-background:new 0 0 130 130;" xml:space="preserve">
<style type="text/css">
	.st0{fill:#FFEBB8;stroke:#FFD05A;stroke-width:3;stroke-miterlimit:10;}
	.st1{fill:#CE9729;}
	.st2{fill:#FFE9D7;}
	.st3{fill:#FFFFFF;}
	.st4{fill:#FF9933;}
</style>
<title>checklist-likert</title>
<circle class="st0" cx="55" cy="55" r="45"/>
<path class="st1" d="M74.2,65.6c0,1.1-0.8,2-1.9,2.3c-4.6,1.6-9.1,3.2-13.7,4.9c-5,1.8-10,3.6-15,5.3c-0.4,0.2-0.9,0.3-1.3,0.3
	c-1,0.1-1.9-0.6-2.2-1.6c-0.3-0.9,0.2-1.9,1-2.4c0.2-0.1,0.4-0.2,0.7-0.3L71,63.8c1.6-0.5,2.7-0.1,3.1,1.3
	C74.2,65.2,74.2,65.4,74.2,65.6z"/>
<path class="st1" d="M37.9,43c-0.1,2.3-2.1,4.2-4.4,4.1c-2.2-0.1-4-1.8-4.1-4c-0.1-2.3,1.7-4.4,4-4.5c2.3-0.1,4.4,1.7,4.5,4
	C37.9,42.7,37.9,42.9,37.9,43z"/>
<path class="st1" d="M72.1,43c0-2.3,1.9-4.2,4.3-4.2c2.3,0,4.2,1.9,4.2,4.3s-1.9,4.2-4.3,4.2c0,0,0,0,0,0
	C73.9,47.3,72.1,45.4,72.1,43C72.1,43,72.1,43,72.1,43z"/>
<path class="st2" d="M94.9,122c-15,0-27.1-12.1-27.1-27.1s12.1-27.1,27.1-27.1S122,79.9,122,94.9c0,0,0,0,0,0
	C122,109.9,109.9,122,94.9,122z"/>
<path class="st3" d="M94.9,69.8c13.9,0,25.1,11.2,25.1,25.1S108.8,120,94.9,120s-25.1-11.2-25.1-25.1l0,0
	C69.8,81.1,81,69.8,94.9,69.8C94.9,69.8,94.9,69.8,94.9,69.8 M94.9,65.8c-16.1,0-29.1,13-29.1,29.1s13,29.1,29.1,29.1
	S124,111,124,94.9c0,0,0,0,0,0C124,78.9,111,65.8,94.9,65.8z"/>
<path class="st4" d="M95.3,80.9c1.1,0,2.3,0.2,3.4,0.5c0.9,0.3,1.8,0.8,2.5,1.4c1.4,1.2,2.1,2.9,2.1,4.8c0,0.7-0.1,1.5-0.3,2.2
	c-0.2,0.6-0.4,1.1-0.8,1.7c-0.3,0.5-0.8,0.9-1.2,1.2c-0.5,0.3-1.1,0.6-1.7,0.8c3,1,4.5,3,4.5,6c0,1.2-0.3,2.4-0.8,3.5
	c-0.5,1-1.2,1.9-2,2.6c-0.9,0.7-1.8,1.2-2.9,1.5c-1.1,0.3-2.3,0.5-3.4,0.5c-1.1,0-2.3-0.1-3.4-0.4c-0.9-0.3-1.8-0.7-2.6-1.3
	c-0.8-0.6-1.4-1.3-1.9-2.2c-0.6-0.9-1-2-1.4-3l2.2-0.9c0.5-0.2,1.1-0.3,1.6-0.2c0.5,0.1,0.9,0.4,1.1,0.8c0.2,0.4,0.5,0.9,0.8,1.3
	c0.3,0.4,0.6,0.7,0.9,1c0.3,0.3,0.7,0.5,1.2,0.7c0.5,0.2,1,0.2,1.5,0.2c0.6,0,1.2-0.1,1.8-0.3c0.5-0.2,0.9-0.5,1.3-0.9
	c0.3-0.4,0.6-0.8,0.8-1.2c0.2-0.4,0.3-0.9,0.3-1.4c0-0.6,0-1.1-0.1-1.7c-0.1-0.5-0.4-0.9-0.8-1.2c-0.5-0.4-1.1-0.6-1.7-0.8
	c-1-0.2-2.1-0.3-3.1-0.3v-3.5c0.9,0,1.8-0.1,2.7-0.3c0.6-0.1,1.2-0.4,1.6-0.8c0.4-0.3,0.7-0.7,0.8-1.2c0.2-0.5,0.2-1,0.2-1.5
	c0.1-1-0.3-1.9-0.9-2.6c-0.7-0.6-1.6-1-2.6-0.9c-0.4,0-0.9,0.1-1.3,0.2c-0.4,0.1-0.7,0.3-1.1,0.6c-0.3,0.2-0.6,0.5-0.8,0.8
	c-0.2,0.3-0.4,0.7-0.5,1.1c-0.1,0.5-0.5,0.9-0.9,1.2c-0.5,0.2-1,0.3-1.6,0.1l-2.6-0.5c0.2-1.2,0.5-2.3,1.1-3.3
	c0.5-0.9,1.2-1.7,2-2.4c0.8-0.6,1.7-1.1,2.7-1.4C93.1,81,94.2,80.9,95.3,80.9z"/>
</svg>
