<?xml version="1.0" encoding="utf-8"?>
<!-- Generator: Adobe Illustrator 23.0.6, SVG Export Plug-In . SVG Version: 6.00 Build 0)  -->
<svg version="1.1" id="Layer_1" xmlns="http://www.w3.org/2000/svg" xmlns:xlink="http://www.w3.org/1999/xlink" x="0px" y="0px"
	 viewBox="0 0 130 130" style="enable-background:new 0 0 130 130;" xml:space="preserve">
<style type="text/css">
	.st0{fill:#FFEBB8;stroke:#FFD05A;stroke-width:3;stroke-miterlimit:10;}
	.st1{fill:#CE9729;}
	.st2{fill:#EBFCBE;}
	.st3{fill:#FFFFFF;}
	.st4{fill:#9FC44E;}
</style>
<title>checklist-likert</title>
<circle class="st0" cx="55" cy="55" r="45"/>
<path class="st1" d="M37.9,43c-0.1,2.3-2.1,4.2-4.4,4.1c-2.2-0.1-4-1.8-4.1-4c-0.1-2.3,1.7-4.4,4-4.5c2.3-0.1,4.4,1.7,4.5,4
	C37.9,42.7,37.9,42.9,37.9,43z"/>
<path class="st1" d="M72.1,43c0-2.3,1.9-4.2,4.3-4.2c2.3,0,4.2,1.9,4.2,4.3s-1.9,4.2-4.3,4.2c0,0,0,0,0,0
	C73.9,47.3,72.1,45.4,72.1,43C72.1,43,72.1,43,72.1,43z"/>
<path class="st1" d="M54.9,79.5c-5.9,0-11.7-2.1-16.2-5.9c-0.8-0.5-1.1-1.6-0.7-2.5c0.4-0.8,1.4-1.2,2.2-0.9
	c0.4,0.2,0.8,0.4,1.1,0.7c8.4,6.6,20.3,6.3,28.2-0.8c1.9-1.7,3.4-3.8,4.3-6.1c0.2-1,1.3-1.7,2.3-1.4c0.1,0,0.1,0,0.2,0.1
	c1,0.4,1.5,1.6,1.1,2.6c0,0,0,0.1-0.1,0.1c-1.4,3.6-3.9,6.8-7.1,9C65.9,77.7,60.5,79.5,54.9,79.5z"/>
<circle class="st2" cx="94.9" cy="94.9" r="27.1"/>
<path class="st3" d="M94.9,69.8c13.9,0,25.1,11.2,25.1,25.1S108.8,120,94.9,120s-25.1-11.2-25.1-25.1l0,0
	C69.8,81.1,81,69.8,94.9,69.8C94.9,69.8,94.9,69.8,94.9,69.8 M94.9,65.8c-16.1,0-29.1,13-29.1,29.1s13,29.1,29.1,29.1
	S124,111,124,94.9c0,0,0,0,0,0C124,78.9,111,65.8,94.9,65.8z"/>
<path class="st4" d="M101.5,97.3h3v2.8c0,0.2-0.1,0.5-0.3,0.7c-0.2,0.2-0.5,0.3-0.7,0.3h-2v6.2h-4.3v-6.2H86.4
	c-0.3,0-0.6-0.1-0.9-0.3c-0.2-0.2-0.4-0.4-0.5-0.8l-0.5-2.5l12.2-16.4h4.7V97.3z M97.1,89.6c0-0.4,0-0.8,0-1.3s0.1-0.9,0.1-1.4
	l-7.5,10.5h7.4V89.6z"/>
</svg>
