<?xml version="1.0" encoding="utf-8"?>
<!-- Generator: Adobe Illustrator 23.0.6, SVG Export Plug-In . SVG Version: 6.00 Build 0)  -->
<svg version="1.1" id="Layer_1" xmlns="http://www.w3.org/2000/svg" xmlns:xlink="http://www.w3.org/1999/xlink" x="0px" y="0px"
	 viewBox="0 0 130 130" style="enable-background:new 0 0 130 130;" xml:space="preserve">
<style type="text/css">
	.st0{fill:#FFEBB8;stroke:#FFD05A;stroke-width:3;stroke-miterlimit:10;}
	.st1{fill:#CE9729;}
	.st2{fill:#FFF6E1;}
	.st3{fill:#FFFFFF;}
	.st4{fill:#FFC107;}
</style>
<title>checklist-likert</title>
<circle class="st0" cx="55" cy="55" r="45"/>
<path class="st1" d="M37.9,43c-0.1,2.3-2.1,4.2-4.4,4.1c-2.2-0.1-4-1.8-4.1-4c-0.1-2.3,1.7-4.4,4-4.5c2.3-0.1,4.4,1.7,4.5,4
	C37.9,42.7,37.9,42.9,37.9,43z"/>
<path class="st1" d="M72.1,43c0-2.3,1.9-4.2,4.3-4.2c2.3,0,4.2,1.9,4.2,4.3s-1.9,4.2-4.3,4.2c0,0,0,0,0,0
	C73.9,47.3,72.1,45.4,72.1,43C72.1,43,72.1,43,72.1,43z"/>
<path class="st1" d="M56.3,62.7c7.2,0.2,13.9,3.8,18.2,9.6c1,1.4,1.8,2.9,2.4,4.5c0.4,0.9,0,1.9-0.8,2.2c-0.1,0-0.2,0.1-0.3,0.1
	c-0.9,0.3-1.9-0.1-2.3-1c0,0,0,0,0-0.1c-2.4-6-7.2-9.4-13.2-10.9c-8.4-2-15.6,0.2-21.3,6.7c-0.9,1.2-1.7,2.6-2.3,4
	c-0.6,1.2-1.4,1.7-2.5,1.3c-1-0.3-1.5-1.4-1.1-2.4c0-0.1,0.1-0.2,0.1-0.3c1.9-5,5.6-8.4,10.2-10.9C47.3,63.6,51.8,62.6,56.3,62.7z"
	/>
<circle class="st2" cx="94.9" cy="94.9" r="27.1"/>
<path class="st3" d="M94.9,69.8c13.9,0,25.1,11.2,25.1,25.1S108.8,120,94.9,120s-25.1-11.2-25.1-25.1l0,0
	C69.8,81.1,81,69.8,94.9,69.8C94.9,69.8,94.9,69.8,94.9,69.8 M94.9,65.8c-16.1,0-29.1,13-29.1,29.1s13,29.1,29.1,29.1
	S124,111,124,94.9c0,0,0,0,0,0C124,78.9,111,65.8,94.9,65.8z"/>
<path class="st4" d="M95.2,80.9c1.1,0,2.3,0.2,3.4,0.6c1,0.3,1.8,0.8,2.6,1.5c0.7,0.7,1.3,1.5,1.7,2.4c0.4,1,0.6,2,0.6,3.1
	c0,0.9-0.1,1.8-0.4,2.7c-0.3,0.8-0.7,1.6-1.1,2.3c-0.5,0.8-1,1.5-1.6,2.2c-0.6,0.7-1.3,1.4-2,2.1l-5.6,5.7c0.6-0.2,1.2-0.3,1.8-0.4
	c0.6-0.1,1.1-0.2,1.7-0.2h5.9c0.5,0,0.9,0.1,1.3,0.4c0.3,0.3,0.5,0.7,0.5,1.2v2.9H85.7v-1.6c0-0.3,0.1-0.7,0.2-1
	c0.1-0.4,0.4-0.7,0.7-1l7.7-7.8c0.7-0.7,1.2-1.3,1.8-1.9c0.5-0.6,0.9-1.2,1.3-1.8c0.3-0.6,0.6-1.2,0.8-1.8c0.2-0.6,0.2-1.3,0.2-1.9
	c0.1-1-0.3-1.9-0.9-2.7c-0.7-0.6-1.6-1-2.5-0.9c-0.9,0-1.7,0.3-2.4,0.8c-0.3,0.2-0.6,0.5-0.8,0.8c-0.2,0.3-0.4,0.7-0.5,1.1
	c-0.1,0.5-0.4,0.9-0.9,1.2c-0.5,0.2-1,0.3-1.6,0.1l-2.6-0.5c0.2-1.2,0.5-2.3,1.1-3.3c0.5-0.9,1.2-1.7,2-2.4c0.8-0.6,1.7-1.1,2.7-1.4
	C93,81.1,94.1,80.9,95.2,80.9z"/>
</svg>
