<?xml version="1.0" encoding="utf-8"?>
<!-- Generator: Adobe Illustrator 23.0.6, SVG Export Plug-In . SVG Version: 6.00 Build 0)  -->
<svg version="1.1" id="Layer_1" xmlns="http://www.w3.org/2000/svg" xmlns:xlink="http://www.w3.org/1999/xlink" x="0px" y="0px"
	 viewBox="0 0 130 130" style="enable-background:new 0 0 130 130;" xml:space="preserve">
<style type="text/css">
	.st0{fill:#FFEBB8;stroke:#FFD05A;stroke-width:3;stroke-miterlimit:10;}
	.st1{fill:#CE9729;}
	.st2{fill:#FFDCDC;}
	.st3{fill:#FFFFFF;}
	.st4{fill:#F86C6B;}
</style>
<title>checklist-likert</title>
<circle class="st0" cx="55" cy="55" r="45"/>
<path class="st1" d="M75.6,76.8c0.1,0.9-0.5,1.7-1.4,1.9c-0.9,0.2-1.8-0.3-2-1.2c-0.8-2-2-3.8-3.5-5.3c-7.7-7.5-20.8-7.2-28.1,0.7
	c-1.1,1.4-2.1,2.8-2.8,4.4c-0.6,1.1-1.3,1.7-2.3,1.3c-0.9-0.3-1.4-1.4-1-2.3c0-0.1,0.1-0.2,0.1-0.2c1.3-3.3,3.5-6.2,6.4-8.2
	c9.8-7.3,23.9-5.8,31.5,3.4c1.1,1.5,2,3,2.8,4.7C75.5,76.3,75.5,76.5,75.6,76.8z"/>
<path class="st1" d="M70.4,46.4c-3.5,0.3-5.9-1.6-8.2-4c-0.6-0.7-0.6-1.7,0.1-2.3c0.6-0.6,1.6-0.7,2.3-0.1c0.5,0.4,1,0.9,1.4,1.3
	c2.4,2.2,6.1,2.3,8.6,0.1c0.5-0.5,1-1,1.5-1.4c0.7-0.6,1.8-0.5,2.4,0.3c0.5,0.6,0.5,1.5,0,2.1C76.4,44.8,74,46.7,70.4,46.4z"/>
<path class="st1" d="M39.1,46.4c-3.1,0.2-5.5-1.7-7.7-4c-0.7-0.7-0.7-1.7,0-2.4s1.7-0.7,2.4,0l0,0c0.7,0.5,1.2,1.2,1.9,1.7
	c2.2,1.8,5.4,1.8,7.7,0c0.6-0.5,1.2-1,1.8-1.6c0.6-0.7,1.7-0.7,2.4-0.1c0.7,0.6,0.7,1.7,0.1,2.4c0,0-0.1,0.1-0.1,0.1
	C44.9,45.4,42.7,46.5,39.1,46.4z"/>
<circle class="st2" cx="94.9" cy="94.9" r="27.1"/>
<path class="st3" d="M94.9,69.8c13.9,0,25.1,11.2,25.1,25.1S108.8,120,94.9,120s-25.1-11.2-25.1-25.1l0,0
	C69.8,81.1,81,69.8,94.9,69.8C94.9,69.8,94.9,69.8,94.9,69.8 M94.9,65.8c-16.1,0-29.1,13-29.1,29.1s13,29.1,29.1,29.1
	S124,111,124,94.9c0,0,0,0,0,0C124,78.9,111,65.8,94.9,65.8z"/>
<path class="st4" d="M88.6,103.7h5.2V89.4c0-0.6,0-1.3,0.1-1.9l-3.4,2.8c-0.2,0.2-0.5,0.3-0.7,0.3c-0.2,0-0.4,0-0.6,0
	c-0.2,0-0.4-0.1-0.5-0.2c-0.1-0.1-0.3-0.2-0.4-0.3L86.6,88l8-6.8h4.1v22.5h4.5v3.7H88.6V103.7z"/>
</svg>
