<svg id="Layer_1" data-name="Layer 1" xmlns="http://www.w3.org/2000/svg" viewBox="0 0 130 130"><defs><style>.cls-1{fill:#ededed;stroke:#999;}.cls-1,.cls-3{stroke-miterlimit:10;stroke-width:3px;}.cls-2{fill:#999;}.cls-3{fill:#fff;stroke:#ddd;}.cls-4{fill:#444;}</style></defs><title>checklist-likert</title><circle class="cls-1" cx="55" cy="55" r="45"/><path class="cls-2" d="M57.83,55l12.1-12.11a2,2,0,1,0-2.82-2.82L55,52.17,42.89,40.07a2,2,0,0,0-2.82,2.82L52.17,55,40.07,67.11a2,2,0,0,0,0,2.82,2,2,0,0,0,2.82,0L55,57.83l12.11,12.1a2,2,0,0,0,2.82,0,2,2,0,0,0,0-2.82Z"/><circle class="cls-3" cx="94.91" cy="94.91" r="25.09"/><path class="cls-4" d="M104.6,94.42a21,21,0,0,1-.83,5.93,12.38,12.38,0,0,1-2.1,4.14,8.25,8.25,0,0,1-3.11,2.4,9.52,9.52,0,0,1-7.64-.12,8.14,8.14,0,0,1-3-2.5,12.38,12.38,0,0,1-1.94-4.2,21.65,21.65,0,0,1-.64-5.95,21.28,21.28,0,0,1,.83-5.92,12.24,12.24,0,0,1,2.07-4.12,7.89,7.89,0,0,1,3.08-2.4,8.91,8.91,0,0,1,3.83-.74A9.24,9.24,0,0,1,99,81.8a8.18,8.18,0,0,1,3,2.49,12.26,12.26,0,0,1,2,4.19A21.2,21.2,0,0,1,104.6,94.42Zm-5.13-.08a22.19,22.19,0,0,0-.31-4.57,9.3,9.3,0,0,0-1-2.86,3.66,3.66,0,0,0-1.42-1.49A3.76,3.76,0,0,0,95.08,85a3.82,3.82,0,0,0-1.67.39A3.67,3.67,0,0,0,92,86.81a9.24,9.24,0,0,0-1,2.83,22.86,22.86,0,0,0-.45,4.56,23.19,23.19,0,0,0,.31,4.6,9.55,9.55,0,0,0,1,2.86,3.8,3.8,0,0,0,1.4,1.48,3.59,3.59,0,0,0,3.35,0A3.73,3.73,0,0,0,98,101.75,9.25,9.25,0,0,0,99,98.93,22.37,22.37,0,0,0,99.47,94.34Z"/></svg>