<svg id="Layer_1" data-name="Layer 1" xmlns="http://www.w3.org/2000/svg" viewBox="0 0 285.46 207.38"><defs><style>.cls-1{fill:#f4f4f4;}.cls-2{fill:#dadfe0;}</style></defs><title>empty-state_checklist</title><path class="cls-1" d="M285.46,40.2h0a11.63,11.63,0,0,0-11.63-11.63H112.07A42.88,42.88,0,0,0,69.19,71.45h0V90.84a7.5,7.5,0,0,1-7.46,7.48H11.38a4.75,4.75,0,0,0-4.75,4.75h0a4.75,4.75,0,0,0,4.75,4.75H79.43A5.57,5.57,0,0,1,85,113.39h0a5.58,5.58,0,0,1-5.57,5.53H31.22a3.46,3.46,0,0,0-3.49,3.43v.07h0a3.47,3.47,0,0,0,3.44,3.5H62.22a7,7,0,0,1,7,7h0a7,7,0,0,1-7,7H11.63A11.64,11.64,0,0,0,0,151.5H0a11.65,11.65,0,0,0,11.63,11.64H188.78a42.88,42.88,0,0,0,42.88-42.88h0V100.92a7.49,7.49,0,0,1,7.49-7.49h34.93a4.75,4.75,0,0,0,4.75-4.75h0a4.74,4.74,0,0,0-4.74-4.74H221.42a5.57,5.57,0,0,1-5.57-5.57h0a5.57,5.57,0,0,1,5.57-5.57h32.82a3.47,3.47,0,0,0,3.47-3.47h0a3.47,3.47,0,0,0-3.47-3.47H238.65a7,7,0,0,1-7-7h0a7,7,0,0,1,7-7h35.18a11.64,11.64,0,0,0,11.63-11.65Z" transform="translate(0 -3.24)"/><path class="cls-2" d="M80.47,3.24a16.46,16.46,0,0,1,16,13.33Q102.81,45.28,109.18,74q9.25,41.48,18.44,82.94a10.36,10.36,0,0,1-.16,4.95c-4.46,14.8-9.06,29.57-13.59,44.34a5.34,5.34,0,0,1-4,4.34,5.27,5.27,0,0,1-5.17-2.33c-10.34-11.52-20.77-23-31.07-34.52A11,11,0,0,1,71.25,169Q55.5,98.85,39.93,28.66A15.94,15.94,0,0,1,51.65,9.39l.4-.09c8.2-1.92,16.43-3.73,24.63-5.52A34.57,34.57,0,0,1,80.47,3.24Zm37.2,152c-8.93-40.13-17.87-80-26.8-120.13l-37.7,8.42c9,40.19,17.89,80.1,26.82,120.13Zm-29-129.48c-.54-2.55-1-4.82-1.56-7.08a5.61,5.61,0,0,0,0-.58,6.58,6.58,0,0,0-7.79-5q-12.44,2.65-24.85,5.55a6.64,6.64,0,0,0-5.1,6.54,83.94,83.94,0,0,0,1.69,9Zm27.62,139.72-30.81,6.89c4.56,5,8.8,9.57,13.14,14.36a2.4,2.4,0,0,0,1.85.54c2.91-.57,5.81-1.21,8.68-2a2.1,2.1,0,0,0,1.37-1.11c2-6.09,3.89-12.19,5.9-18.73Z" transform="translate(0 -3.24)"/><path class="cls-2" d="M212.64,144c5.67-5.71,11.13-11.23,16.65-16.71a9.65,9.65,0,0,1,14.3,13l-.07.08q-12,12.42-24.44,24.47a9.28,9.28,0,0,1-12.76,0q-6-5.64-11.68-11.61a9.65,9.65,0,0,1,13.72-13.56C209.86,140.92,211.07,142.39,212.64,144Z" transform="translate(0 -3.24)"/><path class="cls-2" d="M212.48,85.41c5.8-5.84,11.26-11.35,16.81-16.81a9.64,9.64,0,0,1,14.39,12.82c-.06.08-.13.15-.2.23q-12,12.5-24.5,24.4a9.18,9.18,0,0,1-12.76,0q-5.92-5.52-11.58-11.51a9.65,9.65,0,0,1,13.53-13.75A46.1,46.1,0,0,1,212.48,85.41Z" transform="translate(0 -3.24)"/><path class="cls-2" d="M212.44,26.91l14.07-14.1,2.87-2.91A9.68,9.68,0,0,1,243,23.65c-4.92,5-9.89,9.89-14.84,14.84-2.74,2.74-5.45,5.52-8.23,8.26a9.57,9.57,0,0,1-13.5,1,9.47,9.47,0,0,1-.95-1l-10.18-10a9.77,9.77,0,0,1-.61-13.79l.26-.28a9.57,9.57,0,0,1,13.54-.11c.17.17.34.34.5.53C210.18,24.2,211.23,25.53,212.44,26.91Z" transform="translate(0 -3.24)"/><path class="cls-2" d="M113.33,23.11H163.8a28.55,28.55,0,0,1,3.7,0,9.32,9.32,0,0,1-.74,18.6H119.2c-1.31,0-2-.26-2.23-1.66C115.85,34.44,114.61,28.88,113.33,23.11Z" transform="translate(0 -3.24)"/><path class="cls-2" d="M126.19,81.81h40.32a9.57,9.57,0,0,1,9.76,9,9.22,9.22,0,0,1-8.86,9.56H131.8c-1.18,0-1.66-.32-1.88-1.54C128.77,93.16,127.46,87.77,126.19,81.81Z" transform="translate(0 -3.24)"/><path class="cls-2" d="M139.11,140.38h27.62A9.35,9.35,0,1,1,167.82,159a9.91,9.91,0,0,1-1.09,0H143Z" transform="translate(0 -3.24)"/></svg>