<?xml version="1.0" encoding="utf-8"?>
<!-- Generator: Adobe Illustrator 23.0.6, SVG Export Plug-In . SVG Version: 6.00 Build 0)  -->
<svg version="1.1" id="Layer_1" xmlns="http://www.w3.org/2000/svg" xmlns:xlink="http://www.w3.org/1999/xlink" x="0px" y="0px"
	 viewBox="0 0 376 100" style="enable-background:new 0 0 376 100;" xml:space="preserve">
<style type="text/css">
	.st0{fill:#FFEBB8;stroke:#FFD05A;stroke-width:2.04;stroke-miterlimit:10;}
	.st1{fill:#CE9729;}
</style>
<circle class="st0" cx="40.5" cy="49.2" r="30.6"/>
<path class="st1" d="M54.5,64c0,0.6-0.3,1.1-0.9,1.3c-0.6,0.1-1.2-0.2-1.3-0.8c-0.5-1.4-1.3-2.6-2.4-3.6C44.5,55.8,36,56,30.8,61.4
	c-0.8,0.9-1.4,1.9-1.9,3c-0.4,0.8-0.9,1.1-1.6,0.9c-0.6-0.2-0.9-0.9-0.7-1.5c0-0.1,0-0.1,0.1-0.2c0.9-2.2,2.4-4.2,4.4-5.6
	c6.6-5,16-3.9,21.4,2.3c0.7,1,1.4,2.1,1.9,3.2C54.3,63.6,54.5,63.8,54.5,64z"/>
<path class="st1" d="M51,43.3c-2.4,0.2-4-1.1-5.5-2.7c-0.4-0.4-0.4-1.1,0-1.6c0.4-0.4,1.1-0.5,1.6-0.1c0.3,0.3,0.7,0.6,1,0.9
	c1.7,1.5,4.2,1.5,5.8,0c0.3-0.3,0.7-0.7,1-1c0.5-0.4,1.1-0.4,1.6,0.1c0.4,0.4,0.5,1.1,0.1,1.6C55,42.2,53.3,43.5,51,43.3z"/>
<path class="st1" d="M29.6,43.3c-2.1,0.1-3.7-1.2-5.2-2.7c-0.3-0.6-0.2-1.3,0.4-1.6c0.4-0.2,0.9-0.2,1.3,0c0.4,0.4,0.8,0.8,1.3,1.2
	c1.5,1.2,3.7,1.2,5.2,0c0.4-0.3,0.8-0.7,1.2-1.1c0.5-0.5,1.2-0.4,1.7,0s0.4,1.2,0,1.7l0,0C34,42.5,31.8,43.4,29.6,43.3z"/>
<circle class="st0" cx="114.2" cy="49.2" r="30.6"/>
<path class="st1" d="M102.6,41c-0.1,1.6-1.4,2.8-3,2.7c-1.5-0.1-2.6-1.2-2.7-2.7c-0.1-1.6,1.1-3,2.7-3.1s3,1.1,3.1,2.7
	C102.6,40.8,102.6,40.9,102.6,41z"/>
<path class="st1" d="M125.8,41c0-1.6,1.3-2.9,2.9-2.9c1.6,0,2.9,1.3,2.9,2.9c0,1.6-1.3,2.9-2.9,2.9l0,0
	C127.1,43.9,125.8,42.6,125.8,41L125.8,41z"/>
<path class="st1" d="M115.1,54.4c4.9,0.2,9.4,2.6,12.4,6.5c0.7,1,1.2,2,1.6,3.1c0.3,0.6,0,1.3-0.6,1.5c-0.1,0-0.1,0-0.2,0.1
	c-0.6,0.2-1.3-0.1-1.6-0.7l0,0c-1.6-4.1-4.9-6.4-9-7.4c-5.3-1.5-11,0.3-14.5,4.6c-0.6,0.8-1.2,1.7-1.6,2.7c-0.4,0.8-1,1.2-1.7,0.9
	c-0.7-0.2-1-0.9-0.8-1.6c0-0.1,0.1-0.1,0.1-0.2c1.3-3.2,3.8-5.9,6.9-7.4C109,55,112,54.3,115.1,54.4z"/>
<ellipse class="st0" cx="188" cy="50.8" rx="30.6" ry="30.6"/>
<path class="st1" d="M201,58c0,0.8-0.6,1.4-1.3,1.6c-3.1,1.1-6.2,2.2-9.3,3.3c-3.4,1.2-6.8,2.4-10.2,3.6c-0.3,0.1-0.6,0.2-0.9,0.2
	c-0.7,0.1-1.3-0.4-1.5-1.1c-0.2-0.6,0.1-1.3,0.7-1.6c0.1-0.1,0.3-0.1,0.4-0.2c6.6-2.3,13.2-4.7,19.8-7c1.1-0.4,1.9-0.1,2.1,0.8
	C201,57.8,201,57.9,201,58z"/>
<path class="st1" d="M176.4,42.7c-0.1,1.6-1.5,2.8-3.1,2.7c-1.5-0.1-2.6-1.3-2.7-2.7c-0.1-1.6,1.1-3,2.7-3.1c1.6-0.1,3,1.1,3.1,2.7
	C176.4,42.5,176.4,42.6,176.4,42.7z"/>
<path class="st1" d="M199.6,42.7c0-1.6,1.3-2.9,2.9-2.9s2.9,1.3,2.9,2.9c0,1.6-1.3,2.9-2.9,2.9l0,0
	C200.9,45.6,199.6,44.3,199.6,42.7L199.6,42.7z"/>
<circle class="st0" cx="261.8" cy="50.8" r="30.6"/>
<path class="st1" d="M250.1,42.7c-0.1,1.6-1.5,2.8-3.1,2.7c-1.5-0.1-2.6-1.3-2.7-2.7c-0.1-1.6,1.1-3,2.7-3.1s3,1.1,3.1,2.7
	C250.1,42.5,250.1,42.6,250.1,42.7z"/>
<path class="st1" d="M273.4,42.7c0-1.6,1.3-2.9,2.9-2.9s2.9,1.3,2.9,2.9c0,1.6-1.3,2.9-2.9,2.9l0,0
	C274.6,45.6,273.4,44.3,273.4,42.7L273.4,42.7z"/>
<path class="st1" d="M261.8,67.5c-4,0-7.9-1.4-11-4c-0.6-0.4-0.7-1.1-0.4-1.7c0.3-0.5,0.9-0.8,1.5-0.6c0.3,0.1,0.5,0.3,0.8,0.5
	c5.7,4.5,13.8,4.3,19.2-0.6c1.3-1.1,2.3-2.6,2.9-4.2c0.2-0.7,0.9-1.1,1.6-1h0.1c0.7,0.3,1,1,0.8,1.7c0,0.1,0,0.1-0.1,0.2
	c-1,2.4-2.6,4.6-4.8,6.1C269.2,66.3,265.5,67.5,261.8,67.5z"/>
<circle class="st0" cx="335.5" cy="50.8" r="30.6"/>
<path class="st1" d="M335.5,54.2h13.4c1.3,0,1.6,0.4,1.7,1.7c0.1,4.6-1.9,8-5.6,10.6c-6.4,4.3-15.6,3.6-21-1.7
	c-2.5-2.4-3.8-5.8-3.5-9.3c0-0.8,0.5-1.2,1.5-1.2C321.9,54.2,335.5,54.2,335.5,54.2z M322.9,56.7c0,0.3,0,0.6,0.1,0.9
	c0.3,2.5,1.7,4.7,3.7,6.2c5.2,3.9,12.3,3.9,17.5,0c1.6-1.2,2.8-2.9,3.4-4.8c0.2-0.7,0.3-1.5,0.4-2.2L322.9,56.7z"/>
<path class="st1" d="M353.1,44.2c-0.2,0.3-0.5,0.8-0.8,0.9c-0.4,0.1-0.9,0-1.3-0.2c-0.4-0.3-0.8-0.6-1.2-1c-1.7-1.5-4.3-1.5-6,0
	c-0.4,0.3-0.8,0.8-1.2,1.1c-0.5,0.4-1.2,0.4-1.7,0s-0.5-1.2-0.1-1.7l0,0c1.8-2.3,4.8-3.4,7.6-2.8c1.7,0.5,3.3,1.5,4.4,2.9
	C352.9,43.6,353,43.9,353.1,44.2z"/>
<path class="st1" d="M330.6,44.1c-0.2,0.4-0.5,0.7-0.8,1c-0.4,0.3-1,0.2-1.4-0.2s-0.8-0.8-1.3-1.2c-1.7-1.4-4.1-1.4-5.8,0
	c-0.5,0.4-0.9,0.8-1.3,1.2c-0.5,0.4-1.2,0.3-1.6-0.1c-0.4-0.4-0.5-1.1-0.1-1.6c1.9-2.5,5-3.6,8-2.8c1.6,0.5,3,1.5,4,2.8
	C330.4,43.5,330.5,43.8,330.6,44.1z"/>
</svg>
