<svg id="Layer_1" data-name="Layer 1" xmlns="http://www.w3.org/2000/svg" viewBox="0 0 280.05 130"><defs><style>.cls-1{fill:#ffebb8;stroke:#ffd05a;stroke-miterlimit:10;stroke-width:2.04px;}.cls-2{fill:#ce9729;}</style></defs><title>escala-likert_3</title><circle class="cls-1" cx="65.32" cy="64.15" r="30.58"/><path class="cls-2" d="M79.31,79a1.18,1.18,0,0,1-.93,1.26A1.14,1.14,0,0,1,77,79.42a9.49,9.49,0,0,0-2.38-3.6,13.49,13.49,0,0,0-19.07.48,15,15,0,0,0-1.91,3c-.41.78-.91,1.14-1.59.88a1.19,1.19,0,0,1-.61-1.7,12.51,12.51,0,0,1,4.37-5.58,15.79,15.79,0,0,1,21.4,2.34,21.45,21.45,0,0,1,1.9,3.17A1.8,1.8,0,0,1,79.31,79Z"/><path class="cls-2" d="M75.82,58.3c-2.37.19-4-1.11-5.54-2.71a1.13,1.13,0,0,1,0-1.57,1.15,1.15,0,0,1,1.57-.08c.35.29.67.6,1,.92a4.32,4.32,0,0,0,5.82,0c.34-.33.68-.66,1-1a1.16,1.16,0,0,1,1.63,1.63C79.87,57.18,78.2,58.48,75.82,58.3Z"/><path class="cls-2" d="M54.5,58.32c-2.09.13-3.74-1.16-5.22-2.74A1.15,1.15,0,0,1,50.9,54c.44.36.84.79,1.29,1.15a4.18,4.18,0,0,0,5.22,0c.42-.32.8-.71,1.19-1.07a1.17,1.17,0,1,1,1.64,1.67A6.84,6.84,0,0,1,54.5,58.32Z"/><circle class="cls-1" cx="140.02" cy="65.85" r="30.58"/><path class="cls-2" d="M153.08,73a1.65,1.65,0,0,1-1.29,1.56q-4.65,1.64-9.29,3.31c-3.4,1.21-6.79,2.43-10.19,3.63a3.78,3.78,0,0,1-.92.24,1.36,1.36,0,0,1-1.46-1.08,1.37,1.37,0,0,1,.72-1.62,2.14,2.14,0,0,1,.44-.18l19.77-7c1.06-.38,1.85-.06,2.14.84C153,72.81,153.06,72.94,153.08,73Z"/><path class="cls-2" d="M128.41,57.7a2.89,2.89,0,0,1-5.77,0,2.89,2.89,0,1,1,5.77,0Z"/><path class="cls-2" d="M151.64,57.68a2.89,2.89,0,1,1,2.84,2.91A2.87,2.87,0,0,1,151.64,57.68Z"/><circle class="cls-1" cx="214.72" cy="65.85" r="30.58"/><path class="cls-2" d="M214.66,69.2h13.39c1.3,0,1.64.38,1.68,1.69.15,4.61-1.94,8-5.65,10.56-6.4,4.33-15.65,3.55-21-1.73a11.52,11.52,0,0,1-3.51-9.3c0-.79.54-1.21,1.45-1.22h13.59Zm-12.54,2.53c0,.34,0,.61.06.88a9.27,9.27,0,0,0,3.73,6.22,14.66,14.66,0,0,0,17.53,0A9.47,9.47,0,0,0,226.87,74a20.81,20.81,0,0,0,.42-2.22Z"/><path class="cls-2" d="M232.33,59.16c-.25.29-.48.78-.83.9a1.87,1.87,0,0,1-1.32-.18,7.65,7.65,0,0,1-1.18-1,4.57,4.57,0,0,0-6-.05c-.42.34-.8.75-1.22,1.11a1.25,1.25,0,0,1-1.69,0,1.21,1.21,0,0,1-.07-1.74,7.53,7.53,0,0,1,7.61-2.78A8.32,8.32,0,0,1,232,58.29,3.07,3.07,0,0,1,232.33,59.16Z"/><path class="cls-2" d="M209.77,59.08a4.3,4.3,0,0,1-.83,1,1.09,1.09,0,0,1-1.39-.18c-.43-.38-.83-.79-1.28-1.15a4.55,4.55,0,0,0-5.83,0c-.46.38-.87.82-1.33,1.19a1.24,1.24,0,0,1-1.64-.1,1.26,1.26,0,0,1-.1-1.64,7.61,7.61,0,0,1,8-2.78,8.64,8.64,0,0,1,4,2.78A3.19,3.19,0,0,1,209.77,59.08Z"/></svg>