<?xml version="1.0" encoding="utf-8"?>
<!-- Generator: Adobe Illustrator 23.0.6, SVG Export Plug-In . SVG Version: 6.00 Build 0)  -->
<svg version="1.1" id="Layer_1" xmlns="http://www.w3.org/2000/svg" xmlns:xlink="http://www.w3.org/1999/xlink" x="0px" y="0px"
	 viewBox="0 0 100 100" style="enable-background:new 0 0 100 100;" xml:space="preserve">
<style type="text/css">
	.st0{fill:#444444;}
</style>
<path class="st0" d="M60.4,16.4c-14.3,0-25.8,11.6-25.8,25.8s11.6,25.8,25.8,25.8s25.8-11.6,25.8-25.8C86.3,28,74.7,16.4,60.4,16.4z
	 M79.2,42.3c0,10.4-8.4,18.8-18.8,18.8c-10.4,0-18.8-8.4-18.8-18.8S50,23.5,60.4,23.5c0,0,0,0,0,0C70.8,23.5,79.2,31.9,79.2,42.3z"
	/>
<path class="st0" d="M70.4,40.5h-8.2v-8.2c-0.1-1-0.9-1.7-1.9-1.6c-0.9,0.1-1.5,0.8-1.6,1.6v8.2h-8.2c-1,0-1.8,0.8-1.8,1.8
	c0,1,0.8,1.8,1.8,1.8h8.2v8.2c0.1,1,0.9,1.7,1.9,1.6c0.9-0.1,1.5-0.8,1.6-1.6V44h8.2c1,0,1.8-0.8,1.8-1.8
	C72.1,41.3,71.4,40.5,70.4,40.5z"/>
<path class="st0" d="M34.6,43.2c-0.4,0-0.7,0-1.1,0c-3.8,0.1-6.2,2.5-6.3,6.3c-0.1,3.3,0,6.7,0,10c0,2.3,1.4,3.8,3.4,3.8
	c2,0,3.3-1.5,3.3-3.9c0-3.1,0-6.2,0-9.6c0.6,0,1.2,0,1.8,0C35.1,47.7,34.7,45.5,34.6,43.2z"/>
<path class="st0" d="M60.8,68.1c0,0.5,0,1.1,0,1.6c0,4.3-2.7,7.1-7.1,7.1c-8.7,0-17.5,0-26.2,0c-4.3,0-7-2.7-7.1-7.1
	c-0.1-4.3,0-8.7,0-13.1s0-8.7,0-13.1c0-4.4,2.7-7.1,7-7.1h7.8c0.6-2.4,1.4-4.7,2.6-6.8c-3.4,0-6.9,0-10.3,0c-8,0-13.9,5.9-13.9,13.9
	c0,8.5,0,17,0,25.5c0,8.8,5.6,14.4,14.5,14.4h25.4c8.1,0,13.9-5.8,14-13.9c0-0.9,0-1.7,0-2.6C65.5,67.7,63.2,68,60.8,68.1z"/>
</svg>
