<svg id="Layer_1" data-name="Layer 1" xmlns="http://www.w3.org/2000/svg" viewBox="0 0 100 100"><defs><style>.cls-1{fill:#333;}</style></defs><title>icon_checklist</title><path class="cls-1" d="M30.44,17.5a5.16,5.16,0,0,1,5,4.18q2,9,4,18,2.9,13,5.78,26a3.25,3.25,0,0,1-.05,1.55c-1.4,4.64-2.84,9.27-4.26,13.9a1.67,1.67,0,0,1-1.24,1.36,1.65,1.65,0,0,1-1.62-.73c-3.24-3.61-6.51-7.2-9.74-10.82a3.45,3.45,0,0,1-.76-1.47q-4.94-22-9.82-44a5,5,0,0,1,3.8-6.07c2.57-.6,5.15-1.17,7.72-1.73A11.2,11.2,0,0,1,30.44,17.5ZM42.1,65.15c-2.8-12.58-5.6-25.09-8.4-37.66L21.88,30.13c2.82,12.6,5.61,25.11,8.41,37.66ZM33,24.56c-.17-.8-.33-1.51-.49-2.22a1.16,1.16,0,0,0,0-.18,2.06,2.06,0,0,0-2.44-1.58q-3.9.83-7.79,1.74a2.08,2.08,0,0,0-1.6,2.05,27,27,0,0,0,.53,2.83Zm8.66,43.8L32,70.52c1.43,1.58,2.76,3,4.12,4.5a.75.75,0,0,0,.58.17c.91-.18,1.82-.38,2.72-.61a.67.67,0,0,0,.43-.35C40.48,72.32,41.07,70.41,41.7,68.36Z"/><path class="cls-1" d="M71.87,61.62c1.78-1.79,3.49-3.52,5.22-5.24a3,3,0,0,1,4.23-.17,3,3,0,0,1,.23,4.26q-3.76,3.89-7.66,7.67a2.91,2.91,0,0,1-4,0Q68,66.37,66.23,64.5a3,3,0,0,1,4.3-4.25C71,60.66,71.38,61.12,71.87,61.62Z"/><path class="cls-1" d="M71.82,43.26c1.82-1.83,3.53-3.56,5.27-5.27a3,3,0,0,1,4.18-.21,3,3,0,0,1,.27,4.3Q77.76,46,73.86,49.73a2.88,2.88,0,0,1-4,0Q68,48,66.23,46.12a3,3,0,0,1,4.24-4.31C71,42.24,71.35,42.76,71.82,43.26Z"/><path class="cls-1" d="M71.81,24.92l4.41-4.42.9-.91a3,3,0,1,1,4.27,4.31c-1.54,1.56-3.1,3.1-4.65,4.65-.86.86-1.71,1.73-2.58,2.59a3,3,0,0,1-4.53,0L66.44,28a3.06,3.06,0,0,1-.11-4.41,3,3,0,0,1,4.4.13C71.1,24.07,71.43,24.49,71.81,24.92Z"/><path class="cls-1" d="M40.74,23.73H56.56c.39,0,.77-.05,1.16,0a2.92,2.92,0,0,1-.23,5.83H47.81c-1.74,0-3.49,0-5.23,0-.41,0-.61-.08-.7-.52C41.53,27.28,41.14,25.54,40.74,23.73Z"/><path class="cls-1" d="M44.77,42.13H56.08c.44,0,.89,0,1.33,0a3,3,0,0,1,3.06,2.83,2.89,2.89,0,0,1-2.86,3c-3.69,0-7.38,0-11.08,0-.37,0-.52-.1-.59-.48C45.58,45.69,45.17,44,44.77,42.13Z"/><path class="cls-1" d="M48.82,60.49h3l5.66,0a2.93,2.93,0,1,1,0,5.85l-6.82,0h-.61Z"/></svg>