<?xml version="1.0" encoding="utf-8"?>
<!-- Generator: Adobe Illustrator 23.0.6, SVG Export Plug-In . SVG Version: 6.00 Build 0)  -->
<svg version="1.1" id="Layer_1" xmlns="http://www.w3.org/2000/svg" xmlns:xlink="http://www.w3.org/1999/xlink" x="0px" y="0px"
	 viewBox="0 0 100 100" style="enable-background:new 0 0 100 100;" xml:space="preserve">
<style type="text/css">
	.st0{fill:#444444;}
</style>
<path class="st0" d="M60.8,18.7c-14.2,0-25.6,11.5-25.6,25.6s11.5,25.6,25.6,25.6s25.6-11.5,25.6-25.6
	C86.5,30.1,74.9,18.7,60.8,18.7z M80.5,44.3c0,11-8.8,19.7-19.7,19.7s-19.7-8.8-19.7-19.7s8.8-19.7,19.7-19.7l0,0
	C71.8,24.6,80.5,33.5,80.5,44.3z"/>
<path class="st0" d="M71.6,44c-0.1-1.2-1.2-2.2-2.4-2.2h-6.1v-6.1l0,0l0,0c-0.1-1.2-1.1-2.2-2.3-2.2c-0.1,0-0.1,0-0.3,0
	c-1.1,0.1-2,0.9-2.2,2.2l0,0l0,0v6.1h-6.1c-1.3,0-2.4,1.1-2.4,2.4s1.1,2.4,2.4,2.4h6.1v6.1l0,0l0,0c0.1,1.2,1.1,2.2,2.3,2.2
	c0.1,0,0.1,0,0.3,0c1.1-0.1,2-0.9,2.2-2.2l0,0l0,0v-6.2h6.1C70.5,46.6,71.6,45.5,71.6,44L71.6,44L71.6,44z"/>
<path class="st0" d="M60.8,73.1c-0.7,0-1.4,0-2-0.1c-1.3,2-3.5,3.3-6.5,3.3H26.6c-4.6,0-7.5-2.9-7.6-7.6c-0.1-2.8,0-5.7,0-8.6
	c0-1.4,0-2.9,0-4.3V42.8c0-4.6,2.9-7.6,7.5-7.6h0.7l0.3-4.2v-0.2l0.1-0.2l0.7-0.8h-1.7c-7.5,0-13,5.5-13,13v25
	c0,8.3,5.2,13.5,13.6,13.5h24.9c6,0,10.6-3.4,12.3-8.5C63.2,73,62,73.1,60.8,73.1z"/>
<g>
	<path class="st0" d="M40.2,64.4c-1.1,0-2.3,0-3.4,0c-3.6,0-5.9-2.3-6-6c-0.1-3.6,0-7.4,0-11.1c0-3.7,0-7.4,0-11.1
		c0-3.3,1.8-5.5,4.8-5.9c1.2-2.1,2.7-4.1,4.3-5.9c-1,0-2.1,0-3.1,0c-6.8,0-11.8,5-11.8,11.8c0,7.2,0,14.4,0,21.6
		C25,65.3,29.7,70,37.3,70h10.6C45.1,68.6,42.5,66.7,40.2,64.4z"/>
</g>
</svg>
