<svg id="Layer_1" data-name="Layer 1" xmlns="http://www.w3.org/2000/svg" viewBox="0 0 430 94"><defs><style>.cls-1{fill:#ee3244;}.cls-2{fill:#27aae1;}.cls-3{fill:#f6851f;}.cls-4{fill:#bcbec0;}</style></defs><title>logo-PIN-venda-mais</title><path class="cls-1" d="M215.94,21.24H180.75c-2.3,0-3.13,1.5-3.56,3.73-.37,1.89-.8,4.57-1.09,6.47s.59,2.51,2.27,2.51h14.09c.89,0,.34.31,0,.41-2.27.7-9.18,5-10.73,14.55-.27,1.67-3.47,21-3.47,21a7.83,7.83,0,0,0-.15,1.21c-.07,1.84,1,2.28,1.71,2.28h7.06l.65,0c2.76-.13,3.54-.72,4-3.52.65-4,5.54-33.59,5.9-35.85h8.29c3.8,0,8.36-.25,10.41,2.43s1.57,5.66.87,10l-3.84,23.49a7.83,7.83,0,0,0-.15,1.21c-.07,1.84,1,2.28,1.72,2.28h7.05l.65,0c2.77-.13,3.54-.72,4-3.52.17-1,4.91-29.55,5.25-31.6C233.92,24.86,221.26,21.24,215.94,21.24Z"/><path class="cls-2" d="M166.78,35.14H158.4c-.14,0-.25,0,.21-.06,4-.59,11.86-3.77,12.7-8.95.31-1.89.5-5.18-3.56-5.18h-6.4a3.36,3.36,0,0,0-3.25,2.67l-7.53,46.24c-.51,2.51.33,3.48,1.57,3.48h9.25A2.68,2.68,0,0,0,164,71.18l.95-5.53s2.43-15,4.47-27.52A2.43,2.43,0,0,0,166.78,35.14Z"/><path class="cls-2" d="M150.15,33.29c-1.32-9.65-10.63-12-15.54-12H99.42c-2.31,0-3.14,1.5-3.57,3.73-.36,1.89-.79,4.57-1.08,6.47S95.35,34,97,34h14.09c.9,0,.35.31,0,.41-2.26.7-9.18,5-10.72,14.55-.28,1.67-3.48,21-3.48,21a11.39,11.39,0,0,0-.15,1.21c-.07,1.84,1,2.28,1.72,2.28h7l.65,0c2.77-.13,3.54-.72,4-3.52.34-2.08,1.82-11,3.22-19.51a9.09,9.09,0,0,0,.7,2.1c.83,1.71,3.32,7.76,11.11,7.76H135.5c6.41,0,10.64-4.13,13.31-14.2C148.81,46,150.6,36.59,150.15,33.29Zm-13.84,8.35a6.63,6.63,0,0,1-2.23,4.48,7.13,7.13,0,0,1-4.26,1.44H113.91C115,40.79,116,34.91,116.15,34h8.29c3.8,0,8.36-.25,10.4,2.43a7.58,7.58,0,0,1,1.47,5.27Z"/><rect class="cls-3" x="27.21" y="21.57" width="16.36" height="16.36" rx="3.84" transform="translate(-10.67 33.74) rotate(-45)"/><path class="cls-2" d="M55,69.52,37.82,45a3,3,0,0,0-2.43-1.27h0A3,3,0,0,0,33,45L15.79,69.52A2.7,2.7,0,0,0,18,73.76h8.37a2.74,2.74,0,0,0,2.24-1.17l6.78-9.68,6.77,9.68a2.75,2.75,0,0,0,2.24,1.17h8.37A2.7,2.7,0,0,0,55,69.52Z"/><path class="cls-1" d="M257.27,41.14h6a2.68,2.68,0,0,1,1.58.44,2.43,2.43,0,0,1,.88,1.16l6.2,17.16c.28.75.57,1.57.85,2.45s.56,1.8.8,2.77c.21-1,.45-1.89.72-2.77s.54-1.7.8-2.45l6.16-17.16a2.54,2.54,0,0,1,2.42-1.6h6L276.85,73.19h-6.73Z"/><path class="cls-1" d="M297.49,50a11.77,11.77,0,0,1,4.15.7,9,9,0,0,1,3.23,2.05A9.22,9.22,0,0,1,307,56.07a11.92,11.92,0,0,1,.76,4.41,8.53,8.53,0,0,1-.07,1.25,1.89,1.89,0,0,1-.24.77.92.92,0,0,1-.47.4,2.31,2.31,0,0,1-.76.11H293a6.4,6.4,0,0,0,1.74,4.14,5.17,5.17,0,0,0,3.63,1.29,6.54,6.54,0,0,0,2-.29,11,11,0,0,0,1.53-.63c.44-.24.85-.45,1.23-.64a2.57,2.57,0,0,1,1.18-.29,1.41,1.41,0,0,1,1.23.6l2,2.44a10,10,0,0,1-2.28,2,12.22,12.22,0,0,1-2.51,1.19,13.83,13.83,0,0,1-2.57.59,19.34,19.34,0,0,1-2.45.16,12.82,12.82,0,0,1-4.5-.78,10.32,10.32,0,0,1-3.68-2.32,11,11,0,0,1-2.48-3.83,14.25,14.25,0,0,1-.92-5.32A12.05,12.05,0,0,1,287,57a10.57,10.57,0,0,1,2.24-3.59,10.71,10.71,0,0,1,3.54-2.44A11.73,11.73,0,0,1,297.49,50Zm.13,4.7a4.1,4.1,0,0,0-3.06,1.12,5.75,5.75,0,0,0-1.45,3.2h8.51a6,6,0,0,0-.2-1.59,3.77,3.77,0,0,0-.69-1.37,3.38,3.38,0,0,0-1.24-1A4.24,4.24,0,0,0,297.62,54.73Z"/><path class="cls-1" d="M309.9,73.19V50.38h4.22a1.89,1.89,0,0,1,1.07.28,1.61,1.61,0,0,1,.6.86l.4,1.32a16.1,16.1,0,0,1,1.36-1.14,7.88,7.88,0,0,1,1.51-.89,8.88,8.88,0,0,1,1.74-.57,9.24,9.24,0,0,1,2-.21,7.85,7.85,0,0,1,3.31.65,6.87,6.87,0,0,1,2.44,1.8,8,8,0,0,1,1.49,2.75,11.3,11.3,0,0,1,.51,3.46v14.5h-6.82V58.69a4,4,0,0,0-.77-2.6,2.76,2.76,0,0,0-2.27-.94,4.64,4.64,0,0,0-2.11.49,8.13,8.13,0,0,0-1.89,1.29V73.19Z"/><path class="cls-1" d="M349.67,73.19a1.92,1.92,0,0,1-1.07-.28,1.57,1.57,0,0,1-.6-.86l-.53-1.74A13.64,13.64,0,0,1,346,71.63a8.5,8.5,0,0,1-1.62,1,8.12,8.12,0,0,1-1.87.66,9.18,9.18,0,0,1-2.16.23,7,7,0,0,1-3.3-.79,7.6,7.6,0,0,1-2.62-2.29,11.51,11.51,0,0,1-1.73-3.66,17.68,17.68,0,0,1-.63-4.94,15.39,15.39,0,0,1,.71-4.74,11.54,11.54,0,0,1,2-3.78,9.32,9.32,0,0,1,3.09-2.5,8.78,8.78,0,0,1,4-.9,7.5,7.5,0,0,1,3,.52,8.35,8.35,0,0,1,2.22,1.35V40.26h6.82V73.19Zm-6.91-4.88a6.32,6.32,0,0,0,1.36-.14,4.63,4.63,0,0,0,2.06-1.07,8,8,0,0,0,.9-.93V56.49a4.41,4.41,0,0,0-1.69-1.19,5.15,5.15,0,0,0-1.88-.35,4,4,0,0,0-1.74.38,3.6,3.6,0,0,0-1.37,1.2,6.33,6.33,0,0,0-.91,2.14,12.87,12.87,0,0,0-.33,3.19,14.51,14.51,0,0,0,.26,3,6,6,0,0,0,.74,2A2.8,2.8,0,0,0,341.29,68,3.24,3.24,0,0,0,342.76,68.31Z"/><path class="cls-1" d="M373.17,73.19a3.3,3.3,0,0,1-1.47-.26,2,2,0,0,1-.82-1.1l-.48-1.26c-.58.49-1.13.91-1.65,1.28a10.81,10.81,0,0,1-1.64.94,8.88,8.88,0,0,1-1.81.57,11.48,11.48,0,0,1-2.12.18,9.37,9.37,0,0,1-2.84-.4,6.11,6.11,0,0,1-2.17-1.21,5.25,5.25,0,0,1-1.37-2,7.23,7.23,0,0,1-.48-2.73,5.7,5.7,0,0,1,.61-2.49,6.06,6.06,0,0,1,2.14-2.33,13.42,13.42,0,0,1,4.09-1.75,24.59,24.59,0,0,1,6.49-.71V59a4.26,4.26,0,0,0-.83-2.92,3,3,0,0,0-2.34-.9,6.06,6.06,0,0,0-2,.27,8.81,8.81,0,0,0-1.38.59c-.4.22-.79.42-1.17.59a3.19,3.19,0,0,1-1.37.27,2.12,2.12,0,0,1-1.2-.34,2.53,2.53,0,0,1-.78-.85l-1.23-2.13A13.78,13.78,0,0,1,362,50.83a16.18,16.18,0,0,1,5.4-.89,9.84,9.84,0,0,1,3.73.67,7.93,7.93,0,0,1,4.58,4.72,10,10,0,0,1,.62,3.61V73.19ZM365.34,69a5.38,5.38,0,0,0,2.31-.46,7.1,7.1,0,0,0,2-1.49V64a17.28,17.28,0,0,0-3.37.27,8.46,8.46,0,0,0-2.09.66,2.55,2.55,0,0,0-1.07.92,2.18,2.18,0,0,0-.29,1.1,1.93,1.93,0,0,0,.64,1.66A3.05,3.05,0,0,0,365.34,69Z"/><rect class="cls-4" x="221.23" y="49.63" width="46.12" height="1" transform="matrix(0.07, -1, 1, 0.07, 177.12, 290.3)"/><path class="cls-1" d="M389.26,25.66H388V22.08a4.62,4.62,0,0,1,4.62-4.62v1.29a3.34,3.34,0,0,0-3.33,3.33Z"/><path class="cls-1" d="M408.26,26.24H401.1V21.46a8.51,8.51,0,0,0-17,0v4.78h-7.16a8.51,8.51,0,1,0,0,17h7.16V48a8.51,8.51,0,0,0,17,0V43.26h7.16a8.51,8.51,0,0,0,0-17ZM384.08,40.87h-7.16a6.13,6.13,0,1,1,0-12.25h7.16Zm2.39-14.63V21.46a6.13,6.13,0,0,1,12.25,0V34.75H386.47V26.24Zm21.79,14.63H401.1V28.62h7.16a6.13,6.13,0,1,1,0,12.25Z"/></svg>