<svg id="Layer_1" data-name="Layer 1" xmlns="http://www.w3.org/2000/svg" viewBox="0 0 420 68"><defs><style>.cls-1{fill:none;stroke:#bbbdbf;stroke-miterlimit:10;}.cls-2{fill:#f48162;}.cls-3{fill:#25a9e0;}.cls-4{fill:#f5841f;}</style></defs><title>logo_PIN-fornecedores</title><line class="cls-1" x1="226.74" y1="10.82" x2="223.52" y2="56.83"/><path class="cls-2" d="M196.62,13.56H167.39c-1.91,0-2.6,1.25-3,3.1-.3,1.57-.66,3.8-.9,5.37s.49,2.09,1.88,2.09h11.7c.75,0,.29.26,0,.34-1.88.58-7.62,4.19-8.9,12.08l-2.89,17.4a7.53,7.53,0,0,0-.12,1c-.06,1.53.83,1.89,1.42,1.89h5.86a4.43,4.43,0,0,0,.54,0c2.3-.1,2.94-.6,3.32-2.93.55-3.32,4.61-27.89,4.91-29.76h6.88c3.16,0,6.94-.21,8.64,2s1.31,4.7.72,8.3c0,0-3.18,19.51-3.18,19.51a6.24,6.24,0,0,0-.13,1c-.06,1.53.83,1.89,1.43,1.89h5.86a4.25,4.25,0,0,0,.53,0c2.3-.1,3-.6,3.33-2.93.13-.82,4.07-24.53,4.35-26.24C211.55,16.57,201,13.56,196.62,13.56Z"/><path class="cls-3" d="M155.79,25.11h-6.95c-.13,0-.21,0,.16-.05,3.35-.49,9.85-3.14,10.55-7.43.26-1.57.41-4.31-3-4.31h-5.32a2.79,2.79,0,0,0-2.7,2.22l-6.25,38.39c-.42,2.1.28,2.9,1.3,2.9h7.69a2.22,2.22,0,0,0,2.14-1.8l.79-4.58s2-12.5,3.71-22.86A2,2,0,0,0,155.79,25.11Z"/><path class="cls-3" d="M142,23.57c-1.09-8-8.83-10-12.9-10H99.85c-1.91,0-2.6,1.25-3,3.1-.3,1.57-.66,3.8-.9,5.37s.49,2.09,1.88,2.09h11.7c.75,0,.29.26.05.34-1.89.58-7.63,4.19-8.91,12.08l-2.89,17.4a7.53,7.53,0,0,0-.12,1c-.06,1.53.83,1.89,1.42,1.89H105a4.43,4.43,0,0,0,.54,0c2.3-.1,2.94-.6,3.32-2.93.29-1.72,1.51-9.17,2.67-16.19a7.3,7.3,0,0,0,.59,1.74c.69,1.42,2.75,6.44,9.22,6.44h8.5c5.32,0,8.83-3.43,11.05-11.79C140.87,34.08,142.36,26.31,142,23.57Zm-11.49,6.94a5.49,5.49,0,0,1-1.85,3.71,5.93,5.93,0,0,1-3.54,1.2H111.89c.92-5.61,1.73-10.49,1.86-11.29h6.88c3.16,0,6.94-.21,8.64,2a6.34,6.34,0,0,1,1.22,4.38Z"/><rect class="cls-4" x="19.89" y="13.84" width="13.59" height="13.59" rx="3.19" transform="translate(-6.77 24.91) rotate(-45)"/><path class="cls-3" d="M43,53.66,28.71,33.31a2.48,2.48,0,0,0-2-1.05h0a2.45,2.45,0,0,0-2,1.05L10.41,53.66a2.24,2.24,0,0,0,1.83,3.52h7a2.28,2.28,0,0,0,1.86-1l5.63-8,5.63,8a2.3,2.3,0,0,0,1.86,1h6.95A2.24,2.24,0,0,0,43,53.66Z"/><path class="cls-2" d="M244.19,35.41h12.45v3.67H248.3v5.18H256v3.66H248.3v8.49h-4.11Z"/><path class="cls-2" d="M258.32,48.91a8.43,8.43,0,0,1,1.86-5.86A6.68,6.68,0,0,1,265.4,41a8,8,0,0,1,3.12.57,6,6,0,0,1,2.19,1.61,6.91,6.91,0,0,1,1.3,2.5,11.48,11.48,0,0,1,.44,3.24,8.5,8.5,0,0,1-1.85,5.87,6.62,6.62,0,0,1-5.2,2,7.83,7.83,0,0,1-3.12-.57,5.86,5.86,0,0,1-2.21-1.6,6.8,6.8,0,0,1-1.32-2.5A11.46,11.46,0,0,1,258.32,48.91Zm4,0a8.6,8.6,0,0,0,.18,1.83,5.1,5.1,0,0,0,.54,1.47,2.61,2.61,0,0,0,.94,1,2.72,2.72,0,0,0,1.4.35,2.57,2.57,0,0,0,2.28-1.12,6.38,6.38,0,0,0,.75-3.51,7,7,0,0,0-.69-3.34,2.45,2.45,0,0,0-2.34-1.28,2.68,2.68,0,0,0-2.25,1.08A6,6,0,0,0,262.34,48.91Z"/><path class="cls-2" d="M283.13,45.08a4.87,4.87,0,0,0-1.68-.34,2.77,2.77,0,0,0-1.76.56,2.65,2.65,0,0,0-.94,1.42v9.69h-3.9v-15h3l.45,2h.12a4.15,4.15,0,0,1,1.38-1.71,3.58,3.58,0,0,1,2-.6,6,6,0,0,1,1.77.33Z"/><path class="cls-2" d="M294.26,56.41V47.89a5,5,0,0,0-.53-2.64,2,2,0,0,0-1.78-.81,2.83,2.83,0,0,0-1.88.65,3.56,3.56,0,0,0-1.09,1.6v9.72h-3.9v-15h3.09l.45,2h.12a6.47,6.47,0,0,1,1.83-1.68,5.43,5.43,0,0,1,2.94-.72,6.06,6.06,0,0,1,2,.3,3.39,3.39,0,0,1,1.47,1,4.42,4.42,0,0,1,.9,1.87,12.08,12.08,0,0,1,.3,2.92v9.33Z"/><path class="cls-2" d="M313.13,55.12a7.46,7.46,0,0,1-2.45,1.22,10.67,10.67,0,0,1-3.28.49q-3.63,0-5.31-2.11a9.11,9.11,0,0,1-1.68-5.81q0-4,1.89-5.94a7,7,0,0,1,5.31-2,8.26,8.26,0,0,1,2.22.3,5.19,5.19,0,0,1,1.92,1,4.83,4.83,0,0,1,1.35,1.85,7.33,7.33,0,0,1,.51,2.91,13.49,13.49,0,0,1-.08,1.36c0,.47-.12,1-.22,1.5h-9a4.37,4.37,0,0,0,1,2.84,3.71,3.71,0,0,0,2.87,1,6.08,6.08,0,0,0,2.2-.37,6.55,6.55,0,0,0,1.49-.76Zm-5.58-11a2.74,2.74,0,0,0-2.27.91,4.5,4.5,0,0,0-.88,2.44H310a3.79,3.79,0,0,0-.5-2.49A2.21,2.21,0,0,0,307.55,44.12Z"/><path class="cls-2" d="M326.54,55.49a6.74,6.74,0,0,1-2.18,1,10,10,0,0,1-2.62.34,7.32,7.32,0,0,1-3.05-.57,5.08,5.08,0,0,1-2-1.6,6.67,6.67,0,0,1-1.13-2.5,14.29,14.29,0,0,1-.34-3.25,8.92,8.92,0,0,1,1.71-5.86,6.11,6.11,0,0,1,5-2.06,10.52,10.52,0,0,1,2.65.27,9.06,9.06,0,0,1,1.82.69l-.93,3.18a7.91,7.91,0,0,0-1.37-.51,6,6,0,0,0-1.54-.18,3,3,0,0,0-2.46,1.07,5.5,5.5,0,0,0-.84,3.4,7,7,0,0,0,.21,1.77,4.24,4.24,0,0,0,.63,1.41,3,3,0,0,0,1.09.95,3.44,3.44,0,0,0,1.58.34,4.88,4.88,0,0,0,1.68-.25,5.9,5.9,0,0,0,1.23-.62Z"/><path class="cls-2" d="M340.1,55.12a7.46,7.46,0,0,1-2.45,1.22,10.67,10.67,0,0,1-3.28.49q-3.63,0-5.31-2.11a9.11,9.11,0,0,1-1.68-5.81q0-4,1.89-5.94a7,7,0,0,1,5.31-2,8.26,8.26,0,0,1,2.22.3,5.19,5.19,0,0,1,1.92,1,4.83,4.83,0,0,1,1.35,1.85,7.33,7.33,0,0,1,.51,2.91,13.49,13.49,0,0,1-.08,1.36c-.05.47-.12,1-.22,1.5h-9a4.37,4.37,0,0,0,1,2.84,3.71,3.71,0,0,0,2.87,1,6.08,6.08,0,0,0,2.2-.37,6.55,6.55,0,0,0,1.49-.76Zm-5.58-11a2.74,2.74,0,0,0-2.27.91,4.5,4.5,0,0,0-.88,2.44H337a3.79,3.79,0,0,0-.5-2.49A2.21,2.21,0,0,0,334.52,44.12Z"/><path class="cls-2" d="M355.79,51.13c0,.84,0,1.69,0,2.53a21.76,21.76,0,0,0,.27,2.79H353.3l-.54-2h-.12a4.49,4.49,0,0,1-1.73,1.7,5.23,5.23,0,0,1-2.65.64A5.37,5.37,0,0,1,343.88,55c-1-1.23-1.56-3.18-1.56-5.81a9.22,9.22,0,0,1,1.74-6,6.2,6.2,0,0,1,5.1-2.13,9.08,9.08,0,0,1,1.53.11,6,6,0,0,1,1.2.34V35.41h3.9Zm-6.63,2.41A2.71,2.71,0,0,0,351,53a3,3,0,0,0,.93-1.61V45a3,3,0,0,0-.93-.49,4.36,4.36,0,0,0-1.32-.17,2.92,2.92,0,0,0-2.48,1.11,6.6,6.6,0,0,0-.82,3.81,6.22,6.22,0,0,0,.67,3.1A2.3,2.3,0,0,0,349.16,53.54Z"/><path class="cls-2" d="M358.19,48.91a8.43,8.43,0,0,1,1.86-5.86A6.68,6.68,0,0,1,365.27,41a8,8,0,0,1,3.12.57,6,6,0,0,1,2.19,1.61,6.91,6.91,0,0,1,1.3,2.5,11.48,11.48,0,0,1,.44,3.24,8.5,8.5,0,0,1-1.85,5.87,6.62,6.62,0,0,1-5.2,2,7.83,7.83,0,0,1-3.12-.57,5.86,5.86,0,0,1-2.21-1.6,6.8,6.8,0,0,1-1.32-2.5A11.46,11.46,0,0,1,358.19,48.91Zm4,0a8.6,8.6,0,0,0,.18,1.83,5.1,5.1,0,0,0,.54,1.47,2.61,2.61,0,0,0,.94,1,2.72,2.72,0,0,0,1.4.35,2.57,2.57,0,0,0,2.28-1.12,6.38,6.38,0,0,0,.75-3.51,7,7,0,0,0-.69-3.34,2.45,2.45,0,0,0-2.34-1.28A2.68,2.68,0,0,0,363,45.37,6,6,0,0,0,362.21,48.91Z"/><path class="cls-2" d="M383,45.08a4.87,4.87,0,0,0-1.68-.34,2.77,2.77,0,0,0-1.76.56,2.65,2.65,0,0,0-.94,1.42v9.69h-3.9v-15h3l.45,2h.12a4.15,4.15,0,0,1,1.38-1.71,3.58,3.58,0,0,1,2-.6,6,6,0,0,1,1.77.33Z"/><path class="cls-2" d="M397,55.12a7.46,7.46,0,0,1-2.45,1.22,10.67,10.67,0,0,1-3.28.49q-3.63,0-5.31-2.11a9.11,9.11,0,0,1-1.68-5.81q0-4,1.89-5.94a7,7,0,0,1,5.31-2,8.26,8.26,0,0,1,2.22.3,5.19,5.19,0,0,1,1.92,1,4.83,4.83,0,0,1,1.35,1.85,7.33,7.33,0,0,1,.51,2.91,13.49,13.49,0,0,1-.08,1.36c-.05.47-.12,1-.22,1.5h-9a4.37,4.37,0,0,0,1,2.84,3.71,3.71,0,0,0,2.87,1,6.08,6.08,0,0,0,2.2-.37,6.55,6.55,0,0,0,1.49-.76Zm-5.58-11a2.74,2.74,0,0,0-2.27.91,4.5,4.5,0,0,0-.88,2.44h5.58a3.79,3.79,0,0,0-.5-2.49A2.21,2.21,0,0,0,391.37,44.12Z"/><path class="cls-2" d="M406.1,52.28a1.12,1.12,0,0,0-.51-1,6.15,6.15,0,0,0-1.26-.65c-.5-.21-1.05-.41-1.65-.62a6.2,6.2,0,0,1-1.65-.87,4.77,4.77,0,0,1-1.26-1.41,4.28,4.28,0,0,1-.51-2.21,4.31,4.31,0,0,1,1.32-3.39A5.57,5.57,0,0,1,404.39,41a12.73,12.73,0,0,1,3.09.36,9.38,9.38,0,0,1,2.16.81L408.77,45c-.46-.18-1-.36-1.74-.57a7.71,7.71,0,0,0-2.13-.29c-1.16,0-1.74.44-1.74,1.34a1,1,0,0,0,.51.87,6.72,6.72,0,0,0,1.26.62l1.65.61a7.59,7.59,0,0,1,1.65.86,4.49,4.49,0,0,1,1.26,1.37A4.09,4.09,0,0,1,410,52a4.58,4.58,0,0,1-1.46,3.58,6.35,6.35,0,0,1-4.36,1.3,10.7,10.7,0,0,1-3-.4,9.55,9.55,0,0,1-2.26-.94L400,52.58a11.27,11.27,0,0,0,1.83.76,7.44,7.44,0,0,0,2.34.37,2.49,2.49,0,0,0,1.39-.33A1.2,1.2,0,0,0,406.1,52.28Z"/></svg>