<svg id="Layer_1" data-name="Layer 1" xmlns="http://www.w3.org/2000/svg" viewBox="0 0 500 200"><defs><style>.cls-1{fill:#25a9e0;}.cls-2{fill:#f5841f;}</style></defs><title>logo_inteliger</title><path class="cls-1" d="M105.62,53.51H121V132H105.62Z"/><path class="cls-1" d="M167.75,132V100.17c0-4.56-.66-7.85-2-9.87s-3.54-3-6.68-3a10.51,10.51,0,0,0-7,2.41,13.45,13.45,0,0,0-4.09,6V132H133.43V75.94H145l1.68,7.4h.45A24.31,24.31,0,0,1,154,77.06q4.26-2.69,11-2.69a22.89,22.89,0,0,1,7.41,1.12,12.61,12.61,0,0,1,5.49,3.7,16.82,16.82,0,0,1,3.37,7,45.79,45.79,0,0,1,1.12,10.94V132Z"/><path class="cls-1" d="M186.48,75.94h7.74V65.4l14.58-4.15V75.94h13.68V88.28H208.8v21.53q0,5.84,1.17,8.36a4.43,4.43,0,0,0,4.43,2.52,14.59,14.59,0,0,0,3.87-.45,26.16,26.16,0,0,0,3.65-1.34l2.58,11.21a37.07,37.07,0,0,1-7.07,2.47,33.77,33.77,0,0,1-8.19,1q-7.73,0-11.38-4t-3.64-13.07V88.28h-7.74Z"/><path class="cls-1" d="M273.51,127.2a28.73,28.73,0,0,1-9.14,4.54,40.15,40.15,0,0,1-12.28,1.85q-13.58,0-19.85-7.91T226,104q0-14.81,7.06-22.21t19.85-7.4a31.12,31.12,0,0,1,8.3,1.12,19.26,19.26,0,0,1,7.18,3.7,18.24,18.24,0,0,1,5,7A27.26,27.26,0,0,1,275.31,97c0,1.57-.1,3.25-.28,5s-.47,3.67-.85,5.61H240.54q.33,7.06,3.64,10.66t10.71,3.58a22.73,22.73,0,0,0,8.25-1.4,22.35,22.35,0,0,0,5.55-2.86ZM252.65,86c-3.81,0-6.64,1.15-8.47,3.43a17,17,0,0,0-3.31,9.14h20.87c.29-4-.32-7.14-1.86-9.31S255.94,86,252.65,86Z"/><path class="cls-1" d="M298.41,113.18a12.27,12.27,0,0,0,1,5.72,3.45,3.45,0,0,0,3.25,1.79,15.34,15.34,0,0,0,2.64-.22,16.14,16.14,0,0,0,3.19-1l1.57,11.44a27.62,27.62,0,0,1-5.49,1.79,32.19,32.19,0,0,1-7.63.9q-6.39,0-9.76-3t-3.36-9.82V53.51h14.58Z"/><path class="cls-1" d="M315.46,75.94H330V132H315.46Z"/><path class="cls-1" d="M389.48,132q0,12.22-6.62,18t-18.51,5.78a56.67,56.67,0,0,1-12.73-1.13,31.54,31.54,0,0,1-7-2.35l3-11.55q2.58,1,6,2a30.09,30.09,0,0,0,8.47,1q7.62,0,10.38-3.31t2.74-9.26v-3.59h-.45q-3.91,5.28-13.9,5.28-10.89,0-16.21-6.73t-5.33-21.09q0-15,7.18-22.77t20.86-7.73a73.9,73.9,0,0,1,12.84,1A54.49,54.49,0,0,1,389.48,78ZM364.8,121.25q4.26,0,6.56-1.9a12.06,12.06,0,0,0,3.54-5.73V88.39a22.46,22.46,0,0,0-8.64-1.46,10.3,10.3,0,0,0-8.75,4.21q-3.13,4.2-3.14,13.4,0,8.19,2.69,12.45A8.64,8.64,0,0,0,364.8,121.25Z"/><path class="cls-1" d="M444.77,127.2a28.73,28.73,0,0,1-9.14,4.54,40.15,40.15,0,0,1-12.28,1.85q-13.58,0-19.85-7.91T397.21,104q0-14.81,7.07-22.21t19.85-7.4a31.17,31.17,0,0,1,8.3,1.12,19.34,19.34,0,0,1,7.18,3.7,18.34,18.34,0,0,1,5.05,7A27.27,27.27,0,0,1,446.56,97a47.83,47.83,0,0,1-.28,5c-.18,1.8-.47,3.67-.84,5.61H411.79q.34,7.06,3.65,10.66c2.2,2.39,5.78,3.58,10.71,3.58a23.91,23.91,0,0,0,13.8-4.26ZM423.91,86c-3.82,0-6.64,1.15-8.47,3.43a17,17,0,0,0-3.31,9.14H433q.45-6.06-1.85-9.31T423.91,86Z"/><path class="cls-1" d="M485.59,89.62a19,19,0,0,0-6.28-1.23,10.24,10.24,0,0,0-6.56,2.08,10,10,0,0,0-3.53,5.32V132H454.64V75.94H466l1.68,7.4h.45A15.33,15.33,0,0,1,473.26,77a13.11,13.11,0,0,1,7.62-2.24,21.27,21.27,0,0,1,6.62,1.23Z"/><rect class="cls-2" x="316.82" y="54.38" width="11.86" height="11.86" rx="2.78" transform="translate(51.88 245.88) rotate(-45)"/><rect class="cls-2" x="31.59" y="47.09" width="26.22" height="26.22" rx="6.16" transform="translate(-29.47 49.24) rotate(-45)"/><path class="cls-1" d="M76.09,123.94,48.6,84.67a4.79,4.79,0,0,0-3.91-2h0a4.77,4.77,0,0,0-3.91,2L13.29,123.94a4.31,4.31,0,0,0,3.53,6.79H30.23a4.39,4.39,0,0,0,3.59-1.87l10.87-15.52,10.86,15.52a4.39,4.39,0,0,0,3.59,1.87H72.55A4.32,4.32,0,0,0,76.09,123.94Z"/></svg>