<svg id="Layer_1" data-name="Layer 1" xmlns="http://www.w3.org/2000/svg" viewBox="0 0 531 162"><defs><style>.cls-1{fill:#005b8f;}.cls-2{fill:#ee3a42;}</style></defs><title>logo_Nissei</title><path class="cls-1" d="M334.08,40.58a1.41,1.41,0,0,1-1.24,1.09h-.19a3.9,3.9,0,0,1-.62,0c-3.47-.54-7.09-1-10.7-1.23S314,40,310.36,40a22.61,22.61,0,0,0-8.64,1.28c-2.18.92-3.53,2.85-4,5.72-.39,2.41.15,4.15,1.59,5.2a33.42,33.42,0,0,0,5.49,3.05l12.45,5.51c5.55,2.43,9.65,5.61,12.18,9.45s3.33,8.51,2.4,14.23c-1.24,7.62-4.81,13.32-10.89,17.44s-13.9,6.19-23.24,6.19a115.93,115.93,0,0,1-15.3-1,132.17,132.17,0,0,1-13.81-2.58c-1.24-.27-1.69-.94-1.47-2.26L269,90.75c0-.16,0,.3.08-.38a1.21,1.21,0,0,1,1.43-1.12c.44.08.31,0,.44.06,3.79.54,8.13,1,12.86,1.22s9.14.41,13.08.41c4.23,0,7.34-.56,9.48-1.71a7.74,7.74,0,0,0,4-5.94,5.74,5.74,0,0,0-1.57-5.39,21.37,21.37,0,0,0-5.55-3.5l-11.73-5.19c-5.76-2.43-10.05-5.49-12.73-9.07s-3.52-8.14-2.57-14a26.62,26.62,0,0,1,3.91-10.54,24.94,24.94,0,0,1,7.26-7.21,31.4,31.4,0,0,1,10.11-4.19,53.78,53.78,0,0,1,12.32-1.36,98.91,98.91,0,0,1,13.35.88,52,52,0,0,1,11.14,2.65c.83.28,1.93.83,1.7,2.27l-1.88,11.51C334.14,40.35,334.28,39.87,334.08,40.58Zm67.46-14.17a51.83,51.83,0,0,0-11.14-2.65,98.91,98.91,0,0,0-13.35-.88,53.78,53.78,0,0,0-12.32,1.36,31.4,31.4,0,0,0-10.11,4.19,24.94,24.94,0,0,0-7.26,7.21,26.62,26.62,0,0,0-3.91,10.54c-.95,5.82-.11,10.39,2.57,14s7,6.64,12.73,9.07l11.73,5.19A21.37,21.37,0,0,1,376,77.9a5.77,5.77,0,0,1,1.58,5.39,7.78,7.78,0,0,1-4.05,5.94c-2.14,1.15-5.24,1.71-9.48,1.71-3.94,0-8.34-.14-13.08-.41s-9.07-.68-12.85-1.22c-.14,0,0,0-.45-.06a1.21,1.21,0,0,0-1.43,1.12c-.1.68,0,.22-.08.38l-1.87,11.5c-.22,1.32.23,2,1.47,2.26a132.17,132.17,0,0,0,13.81,2.58,116,116,0,0,0,15.31,1c9.33,0,17.15-2.09,23.23-6.19s9.65-9.82,10.89-17.44c.93-5.72.15-10.37-2.4-14.23s-6.63-7-12.18-9.45L372,55.24a33.42,33.42,0,0,1-5.49-3.05c-1.44-1-2-2.79-1.59-5.2.47-2.87,1.82-4.8,4-5.72A22.61,22.61,0,0,1,377.56,40c3.62,0,7.31.14,11,.41s7.23.69,10.7,1.23a3.9,3.9,0,0,0,.62,0H400a1.41,1.41,0,0,0,1.24-1.09c.2-.71.06-.23.09-.39l1.87-11.51C403.47,27.24,402.37,26.69,401.54,26.41ZM260,46.59H246.82c-.24,0-.4,0,.32-.09,6.34-.94,18.68-6,20-14.1.48-3,.78-8.17-5.61-8.17H251.45a5.28,5.28,0,0,0-5.11,4.21l-11.86,72.83c-.8,4,.52,5.49,2.46,5.49h14.58a4.24,4.24,0,0,0,4.07-3.41l1.49-8.7s3.83-23.7,7.05-43.35C264.62,48.29,262.63,46.59,260,46.59ZM517.44,32.4c.49-3,.78-8.17-5.6-8.17H501.75a5.28,5.28,0,0,0-5.11,4.21l-11.86,72.83c-.81,4,.52,5.49,2.46,5.49h14.58a4.24,4.24,0,0,0,4.07-3.41l1.49-8.7s3.82-23.7,7-43.35c.5-3-1.5-4.71-4.11-4.71h-13.2c-.23,0-.4,0,.32-.09C503.78,45.56,516.11,40.55,517.44,32.4ZM205.83,24.69c-8.37,0-49,0-55.43,0-3.63,0-4.94,2.36-5.62,5.87-.57,3-1.25,7.21-1.7,10.19-.43,2.77.92,4,3.57,4h22.19c1.41,0,.54.48.08.63-3.57,1.11-14.46,7.95-16.9,22.93-.43,2.63-5.47,33-5.47,33a13.52,13.52,0,0,0-.24,1.9c-.11,2.9,1.58,3.59,2.7,3.59h11.12l1,0c4.35-.2,5.58-1.14,6.3-5.56,1-6.3,8.73-52.9,9.3-56.45l13.06,0c6,0,13.16-.4,16.39,3.82s2.48,8.92,1.37,15.75c0,.1-6,37-6,37a13.52,13.52,0,0,0-.24,1.9c-.11,2.9,1.58,3.59,2.7,3.59h11.12l1,0c4.35-.2,5.58-1.14,6.3-5.56.26-1.56,7.73-46.53,8.26-49.77C234.15,30.39,214.2,24.69,205.83,24.69Zm278.1,32.24c-1,6-3.64,10.29-8.12,13.09S465.18,74.37,458,74.37c0,0-15.12.6-23.1-1.27-4.75-1.11-6-8.35-6.6-10.35a48.91,48.91,0,0,0-1.42,13.48c.12,5.76,2,9.92,5.71,12.37s8.59,3.56,15,3.56c4,0,8.22-.14,12.44-.41s6.64-.56,10.14-1l.5,0c.8,0,1.71.27,1.5,1.54l-1.66,10.2a1.83,1.83,0,0,1-1.49,1.6,93.75,93.75,0,0,1-13.26,2.6,108,108,0,0,1-13.44.88c-7.59,0-14-.9-19-2.68a25.27,25.27,0,0,1-11.52-7.73,25.69,25.69,0,0,1-5.24-12.46,55,55,0,0,1,.4-17l.82-5c1.95-12,6.71-21.57,14.13-28.44s18-10.3,31.57-10.3c12,0,20.54,3,25.48,8.89S485.58,46.79,483.93,56.93ZM461.61,43c-2.17-2.51-6-3.79-11.38-3.79a20.59,20.59,0,0,0-13.09,4.48c-3.74,3-6.51,8-8.24,15.07,0,0-.24,1.31-.4,2.16,0,0,13.64.19,24.29.18,6.27,0,9.9-1.67,10.92-7.14C464.6,49.27,463.78,45.56,461.61,43Z"/><path class="cls-2" d="M261.82,146.2c-3.91,0-5.63-1.56-5.11-4.63.64-3.7,3.59-5.43,10.21-6h0l0-.2a5.06,5.06,0,0,0,.13-2.33c-.22-.47-.83-.72-1.8-.72a11,11,0,0,0-5.8,1.94l-.68.41.62-3.62.21-.1a15.22,15.22,0,0,1,6.82-1.77c2.43,0,3.93.74,4.46,2.21.28.82.26,1.8-.1,3.89l-1.76,10.27-.95.1A45.57,45.57,0,0,1,261.82,146.2Zm4.63-7.62c-4.55.37-5.61,1.32-5.86,2.82-.23,1.31.42,1.89,2.08,1.89a19.53,19.53,0,0,0,3-.33Z"/><path class="cls-2" d="M273.86,145.94l2.82-16.47h4.06l-2.82,16.47ZM277,127l.72-4.18h4.26l-.71,4.18Z"/><path class="cls-2" d="M286.83,146.4a10.37,10.37,0,0,1-4.47-1l-.22-.1.69-4,.55.5a5.58,5.58,0,0,0,3.89,1.41c1.7,0,2.86-.64,3-1.66a1.5,1.5,0,0,0-.8-1.59,14.76,14.76,0,0,0-2.06-1.08c-2.87-1.39-3.76-2.64-3.4-4.76.51-3,3.45-5,7.32-5a9.08,9.08,0,0,1,4.21.91l.2.1-.62,3.65-.54-.38a5.68,5.68,0,0,0-3.54-1.14c-1.62,0-2.77.62-2.93,1.59-.13.78,0,1.12,2.37,2.21a7.8,7.8,0,0,1,3,2,3.53,3.53,0,0,1,.85,3.22C293.89,144.38,290.85,146.4,286.83,146.4Z"/><path class="cls-2" d="M314.53,154.05l1.41-8.23a12.69,12.69,0,0,1-3.07.35c-5.53,0-8.31-3-7.44-8.11,1-5.6,5.37-8.82,12.1-8.82a23.18,23.18,0,0,1,4.91.53l.29.06-4.15,24.22Zm2-21.67c-3.92,0-6.41,1.93-7,5.42s1,5.23,4.48,5.23a10.22,10.22,0,0,0,2.45-.27l1.76-10.25A8.47,8.47,0,0,0,316.54,132.38Z"/><path class="cls-2" d="M332.2,146.14c-2.69,0-4.41-.48-5.42-1.49s-1.31-2.34-.87-4.9l1.76-10.28h4.06L330,139.52c-.45,2.67.29,3.48,3.16,3.48a17.18,17.18,0,0,0,2.87-.23l2.27-13.3h4.06l-2.73,15.93-.32,0A41.11,41.11,0,0,1,332.2,146.14Z"/><path class="cls-2" d="M352.35,146.3c-5.53,0-8.31-3.07-7.43-8.21.91-5.31,4.94-8.88,10-8.88,2.76,0,4.82,1,5.8,2.92.69,1.23.8,2.67.38,5.12l-.18,1.1H348.78a.88.88,0,0,1-.1.22c-.45,2.87,1.24,4.59,4.56,4.59a9.82,9.82,0,0,0,5.72-1.77l.7-.45-.62,3.57-.18.11A12.75,12.75,0,0,1,352.35,146.3Zm5.08-11c0-2-1-3-3.05-3a5,5,0,0,0-4.66,3Z"/><path class="cls-2" d="M372.08,145.94l2.23-13h-2.72l.51-3h2.72l.05-.29c.61-3.56,1.61-5.52,3.55-7a8.92,8.92,0,0,1,5.42-1.85,8.2,8.2,0,0,1,1.71.17l.3.06-.52,3-.43,0a11.47,11.47,0,0,0-1.31-.1,3.81,3.81,0,0,0-3,1.2c-.85.89-1.27,2-1.69,4.45l-.06.36h4.28l-.52,3h-4.27l-2.23,13Z"/><path class="cls-2" d="M388.41,146.2c-3.92,0-5.63-1.56-5.11-4.63.64-3.7,3.59-5.43,10.21-6h0l0-.2a5.06,5.06,0,0,0,.13-2.33c-.22-.47-.83-.72-1.8-.72a11,11,0,0,0-5.8,1.94l-.68.41.62-3.62.21-.1a15.22,15.22,0,0,1,6.82-1.77c2.43,0,3.93.74,4.46,2.21.28.82.26,1.8-.1,3.89l-1.76,10.27-.95.1A45.57,45.57,0,0,1,388.41,146.2Zm4.63-7.62c-4.55.37-5.61,1.32-5.86,2.82-.23,1.31.41,1.89,2.08,1.89a19.53,19.53,0,0,0,3-.33Z"/><path class="cls-2" d="M400.46,145.94l2.63-15.35.25-.09a22,22,0,0,1,7.08-1.26,9.25,9.25,0,0,1,3,.44l.25.08-.57,3.31-.49-.2a6.54,6.54,0,0,0-2.6-.49,9.73,9.73,0,0,0-3.29.6l-2.21,13Z"/><path class="cls-2" d="M434.6,145.94l1.77-10.31c.4-2.37-.31-3.25-2.63-3.25a9.77,9.77,0,0,0-3.08.51,8.89,8.89,0,0,1-.19,2.48l-1.81,10.57H424.6l1.77-10.31c.41-2.4-.34-3.25-2.88-3.25a11.72,11.72,0,0,0-3.15.43l-2.25,13.13h-4l2.66-15.54.29-.07a30.11,30.11,0,0,1,7.6-1.09,8.18,8.18,0,0,1,4.48,1.06,16.06,16.06,0,0,1,5.7-1.06c2.37,0,4.17.63,5.07,1.78.82,1,1,2.17.64,4.29l-1.82,10.63Z"/><path class="cls-2" d="M247.29,145.94l1.77-10.31c.4-2.37-.31-3.25-2.63-3.25a9.77,9.77,0,0,0-3.08.51,8.89,8.89,0,0,1-.19,2.48l-1.81,10.57h-4.06l1.77-10.31c.41-2.4-.34-3.25-2.88-3.25a11.78,11.78,0,0,0-3.15.43l-2.24,13.13h-4.06l2.66-15.54.29-.07a30.12,30.12,0,0,1,7.61-1.09,8.14,8.14,0,0,1,4.47,1.06,16.1,16.1,0,0,1,5.7-1.06c2.37,0,4.18.63,5.08,1.78.81,1,1,2.17.63,4.29l-1.82,10.63Z"/><path class="cls-2" d="M448.45,146.2c-3.91,0-5.63-1.56-5.1-4.63.63-3.7,3.59-5.43,10.21-6h0l0-.2a5.06,5.06,0,0,0,.13-2.33c-.22-.47-.83-.72-1.8-.72a11,11,0,0,0-5.8,1.94l-.68.41.62-3.62.21-.1a15.18,15.18,0,0,1,6.82-1.77c2.43,0,3.93.74,4.45,2.21.29.82.27,1.8-.09,3.89l-1.76,10.27-1,.1A45.46,45.46,0,0,1,448.45,146.2Zm4.63-7.62c-4.54.37-5.6,1.32-5.86,2.82-.22,1.31.42,1.89,2.09,1.89a19.31,19.31,0,0,0,3-.33Zm-2.85-11,7.33-7,3.73.35L453.13,128Z"/><path class="cls-2" d="M468.19,146.27c-5.43,0-8.38-3.25-7.52-8.27a10.46,10.46,0,0,1,10.72-8.76,9.19,9.19,0,0,1,4.28.95l.2.09-.62,3.63-.54-.39a5.46,5.46,0,0,0-3.61-1.14,6.09,6.09,0,0,0-6.34,5.42c-.58,3.39,1.05,5.33,4.46,5.33a7.78,7.78,0,0,0,4.28-1.3l.67-.38-.61,3.57-.22.1A11.38,11.38,0,0,1,468.19,146.27Z"/><path class="cls-2" d="M476.7,145.94l2.82-16.47h4.06l-2.82,16.47ZM479.8,127l.72-4.18h4.27l-.72,4.18Z"/><path class="cls-2" d="M490.61,146.2c-3.91,0-5.63-1.56-5.1-4.63.63-3.7,3.59-5.43,10.2-6h0l0-.2a4.77,4.77,0,0,0,.13-2.33c-.22-.47-.82-.72-1.8-.72a11,11,0,0,0-5.79,1.94l-.68.41.62-3.62.21-.1a15.15,15.15,0,0,1,6.82-1.77c2.42,0,3.92.74,4.45,2.21.29.82.26,1.8-.09,3.89l-1.76,10.27-1,.1A45.57,45.57,0,0,1,490.61,146.2Zm4.63-7.62c-4.55.37-5.6,1.32-5.86,2.82-.22,1.31.42,1.89,2.08,1.89a19.41,19.41,0,0,0,3-.33Z"/><path class="cls-2" d="M104.87,69.43l-8.3,38.36c18.6-6.58,32.53-20.92,36.33-38.34Z"/><path class="cls-2" d="M110.53,44.65h20.81a51.48,51.48,0,0,0-16-22.32Z"/><path class="cls-2" d="M74.38,90.41c1.9-6.29,4.45-16.83,24.21-20.32,1.66-.29,1.48-.66.37-.66H35.54c.69-3.32,2.84-13.58,3.77-17.46,1.48-6.18,4.74-7.31,10.61-7.31H84.54l7.63-34.21A69.27,69.27,0,0,0,73.64,8C40.33,8,13.33,31.17,13.33,59.81c0,27.45,24.81,49.91,56.19,51.73Z"/></svg>