<svg id="Layer_1" data-name="Layer 1" xmlns="http://www.w3.org/2000/svg" viewBox="0 0 685 250"><defs><style>.cls-1{fill:none;stroke:#bcbec0;stroke-miterlimit:10;stroke-width:1.51px;}.cls-2{fill:#fcd800;}.cls-3{fill:#27aae1;}.cls-4{fill:#f6851f;}</style></defs><title>logo-pin</title><line class="cls-1" x1="201.92" y1="48.7" x2="201.92" y2="206.09"/><path class="cls-2" d="M639.59,48.78H539.86c-6.54,0-8.89,4.26-10.11,10.57-1,5.36-2.25,13-3.07,18.33-.76,5,1.66,7.14,6.43,7.14H573c2.54,0,1,.88.14,1.14-6.42,2-26,14.31-30.4,41.25-.77,4.73-9.83,59.37-9.83,59.37a20.79,20.79,0,0,0-.43,3.41c-.21,5.23,2.82,6.47,4.86,6.47h20l1.84-.08c7.83-.36,10-2,11.34-10,1.88-11.34,15.73-95.18,16.75-101.58h23.49c10.78,0,23.69-.72,29.5,6.87s4.45,16.06,2.45,28.33l-10.86,66.59a26.27,26.27,0,0,0-.43,3.41c-.2,5.23,2.84,6.47,4.86,6.47h20l1.83-.08c7.84-.36,10-2,11.34-10,.47-2.81,13.91-83.72,14.88-89.55C690.49,59,654.64,48.78,639.59,48.78Z"/><path class="cls-3" d="M500.26,88.22H476.51c-.42,0-.71,0,.58-.16,11.41-1.68,33.61-10.7,36-25.37C514,57.34,514.5,48,503,48H484.87c-3.76,0-8.47,2.83-9.2,7.57l-21.35,131c-1.45,7.14.94,9.88,4.43,9.88H485a7.63,7.63,0,0,0,7.33-6.13L495,174.65s6.87-42.64,12.66-78C508.54,91.22,505,88.22,500.26,88.22Z"/><path class="cls-3" d="M453.13,82.93C449.39,55.58,423,48.78,409.07,48.78H309.35c-6.54,0-8.88,4.26-10.1,10.57-1,5.36-2.27,13-3.08,18.33-.75,5,1.66,7.14,6.42,7.14h39.93c2.53,0,1,.88.15,1.14-6.43,2-26,14.31-30.41,41.25-.76,4.73-9.84,59.37-9.84,59.37A26.27,26.27,0,0,0,302,190c-.2,5.23,2.84,6.47,4.86,6.47h20l1.83-.08c7.84-.36,10-2,11.34-10,1-5.88,5.16-31.3,9.12-55.28a25.25,25.25,0,0,0,2,6c2.36,4.85,9.41,22,31.47,22h29c18.16,0,30.14-11.7,37.72-40.24C449.33,118.81,454.41,92.29,453.13,82.93ZM413.9,106.61c-.81,5.23-2.55,9.83-6.31,12.68a20.24,20.24,0,0,1-12.09,4.08H350.42c3.17-19.15,5.91-35.82,6.34-38.52h23.5c10.77,0,23.68-.72,29.49,6.87,3.45,4.5,4.37,9.28,4.14,15Z"/><rect class="cls-4" x="33.89" y="49.02" width="46.58" height="46.58" rx="10.94" transform="translate(-34.38 61.62) rotate(-45)"/><path class="cls-3" d="M113,185.55,64.11,115.8a8.43,8.43,0,0,0-7-3.61h0a8.47,8.47,0,0,0-7,3.61L1.39,185.55a7.66,7.66,0,0,0,6.28,12.07H31.49a7.81,7.81,0,0,0,6.38-3.31l19.31-27.57,19.29,27.57a7.81,7.81,0,0,0,6.38,3.31h23.83A7.67,7.67,0,0,0,113,185.55Z"/></svg>