<svg id="Layer_1" data-name="Layer 1" xmlns="http://www.w3.org/2000/svg" viewBox="0 0 100 100"><defs><style>.cls-1{fill:#333;}</style></defs><title>icon_events</title><path class="cls-1" d="M63.15,18h6.57a3.59,3.59,0,0,1,2.37,1.64,5.18,5.18,0,0,1,.37,1.64v3.11h4.2a6.67,6.67,0,0,1,2,.36,5.61,5.61,0,0,1,3.83,5.66V76a5.65,5.65,0,0,1-6,6H23.16c-2-.18-3.83-.91-4.75-2.74-.36-.73-.54-1.64-.91-2.37V29.64a.18.18,0,0,1,.18-.18c.55-2.74,2-4.38,4.75-4.75,1.28-.18,2.74,0,4-.18h1.09V21.24a2.83,2.83,0,0,1,1.65-2.74c.36-.18.73-.18.91-.36h6.57c2.19.73,2.74,1.46,2.74,3.83v2.56H60.22V21.24a2.83,2.83,0,0,1,1.65-2.74A6.62,6.62,0,0,1,63.15,18ZM77.21,43.52H22.61V75.84c0,.73,0,.73.92.73H76.47c.74,0,.74,0,.74-.73V43.52ZM72.46,32.93H60.59V29.64H39.78v3.29H27.72V29.64h-4c-.73,0-.73,0-.73.73V40.6H77.39V30.37a.49.49,0,0,0-.55-.55h-4.2A17,17,0,0,0,72.46,32.93ZM30.65,29.82h5.84V20.88H30.65Zm38.7-8.76H63.51v9h5.84Z"/><path class="cls-1" d="M56.94,61.78l1.46-1.1,4.2-3.1a1.38,1.38,0,0,0,.73-1.28A2.58,2.58,0,0,0,63,55a1.66,1.66,0,0,0-1.27-.55H54.2l-1.1-3.28-1.27-3.84a1.77,1.77,0,0,0-1.65-1.28h0a1.75,1.75,0,0,0-1.64,1.28L48,49.18,46.9,52.46l-.55,1.65-.18.36H38.68A1.75,1.75,0,0,0,37,55.75v.91A3.15,3.15,0,0,0,38,57.94c1.09.73,2,1.46,3.1,2.19a17.17,17.17,0,0,0,2.92,2c-.73,2.19-1.46,4.57-2.19,6.76l-.18.36a2,2,0,0,0,0,1.46,1.88,1.88,0,0,0,1.1.92h.73c.18,0,.18-.19.36-.19.18-.18.55-.18.73-.36C46,70,47.44,68.9,48.9,68l1.47-1.09.36.36,1.46,1.1,1.1.73c1.09.73,2,1.46,3.1,2.19.18.18.37.18.55.37a.18.18,0,0,1,.18.18h.55a1.7,1.7,0,0,0,1.09-2.19c0-.18-.18-.37-.18-.55V68.9l-.36-1.28c-.55-1.83-1.1-3.65-1.83-5.48a1.36,1.36,0,0,1,.55-.36Zm-4.2-.55c.55,1.46.91,2.92,1.46,4.38h0c-1.28-.91-2.56-1.82-3.65-2.74-.18,0-.18-.18-.55-.18a.68.68,0,0,0-.55.18c-1.28.92-2.37,1.83-3.65,2.74h0c.55-1.46.91-2.92,1.46-4.38a.8.8,0,0,0-.18-.91c-1.28-.92-2.56-1.83-3.65-2.74h4.74c.37,0,.55-.19.73-.55.55-1.46.92-2.92,1.47-4.38.54,1.46.91,2.92,1.46,4.38.18.36.36.55.73.55H57.3c-1.27.91-2.55,1.82-3.65,2.74C52.74,60.68,52.74,61.05,52.74,61.23Zm-10,9.86Zm7.12-4.75Z"/></svg>