<svg id="Layer_1" data-name="Layer 1" xmlns="http://www.w3.org/2000/svg" viewBox="0 0 50 50"><defs><style>.cls-1{fill:#738190;}</style></defs><title>icon_pin-map</title><path class="cls-1" d="M25.94,7.5c.79.13,1.59.22,2.38.39a14.66,14.66,0,0,1,7.86,23.8,15.07,15.07,0,0,1-1.1,1.16L25.94,42a1.12,1.12,0,0,1-1.87,0l-6.41-6.39c-.95-1-1.94-1.86-2.85-2.84a16.08,16.08,0,0,1-3.91-6.43A14.74,14.74,0,0,1,22.34,7.75c.57-.1,1.15-.17,1.73-.25ZM25,40a4.51,4.51,0,0,1,.33-.43c2.2-2.21,4.42-4.41,6.62-6.63.84-.85,1.7-1.69,2.47-2.61a12.13,12.13,0,0,0,2.71-10.94,12.5,12.5,0,1,0-24.28,5.95,13.56,13.56,0,0,0,3.67,6.07c2.68,2.76,5.44,5.46,8.16,8.19C24.78,39.66,24.85,39.77,25,40Z"/><path class="cls-1" d="M17.87,22A7.13,7.13,0,1,1,25,29.08,7.09,7.09,0,0,1,17.87,22ZM30,22A5,5,0,0,0,25,17,4.93,4.93,0,1,0,30,22Z"/></svg>