<svg id="Layer_1" data-name="Layer 1" xmlns="http://www.w3.org/2000/svg" viewBox="0 0 50 50"><defs><style>.cls-1{fill:#333;}</style></defs><title>icon_fornecedores</title><path class="cls-1" d="M38.68,11.87a1.14,1.14,0,0,1,.64.65l5.49,11.39c.34.71.24,1-.48,1.36l-4.24,2.09a2.26,2.26,0,0,0-.52.35A30,30,0,0,1,34.4,32c-1.6.92-3.25,1.75-4.89,2.58-2.21,1.12-4.47,2.15-6.66,3.29A2.33,2.33,0,0,1,19.35,36a2.53,2.53,0,0,1-2.53.26,2.23,2.23,0,0,1-1.28-2.12,2.37,2.37,0,0,1-1.86-3.75,6.6,6.6,0,0,1-.61-.81A2.21,2.21,0,0,1,14,26.5c1.2-.61,2.42-1.18,3.63-1.76a.69.69,0,0,1,1,.31.74.74,0,0,1-.41,1c-1.14.55-2.28,1.09-3.41,1.65a.89.89,0,0,0-.53,1,.8.8,0,0,0,.72.66,1.56,1.56,0,0,0,.7-.16L22,26.14a1.56,1.56,0,0,1,.5-.17.68.68,0,0,1,.72.44.73.73,0,0,1-.26.85,2.18,2.18,0,0,1-.37.2L15.46,31l-.22.11a.9.9,0,0,0-.42,1.17.89.89,0,0,0,1.2.39c.55-.25,1.09-.52,1.64-.79l6.54-3.21.32-.14a.72.72,0,0,1,.85.32.74.74,0,0,1-.17.92,3,3,0,0,1-.3.18l-7.26,3.57A.85.85,0,1,0,18.37,35l7.38-3.64a1.15,1.15,0,0,1,.59-.15.62.62,0,0,1,.62.53.7.7,0,0,1-.36.8c-.35.19-.71.36-1.07.54-1.36.67-2.73,1.33-4.08,2a.88.88,0,0,0-.54,1,.82.82,0,0,0,.73.66,1.15,1.15,0,0,0,.6-.11q4.82-2.35,9.62-4.73a23.3,23.3,0,0,0,5.84-4.26c.3-.3.78-.55.84-.89s-.29-.73-.47-1.1l-4.94-10.1c-.33-.67-.22-1,.43-1.29l4.84-2.39Zm4.79,12.34L38.24,13.56l-3.62,1.77L39.84,26Z"/><path class="cls-1" d="M15.63,15.25c-.63,1.82-1.25,3.61-1.86,5.4-.72,2.1-1.45,4.19-2.17,6.29-.22.63-.54.79-1.15.58L5.71,25.89c-.69-.23-.85-.56-.6-1.26q2.11-6,4.22-12a.8.8,0,0,1,1.2-.57l4.7,1.61c.54.19,1.07.41,1.62.55a2.27,2.27,0,0,0,1.69-.27,4.56,4.56,0,0,1,4-.25c3.08,1.1,6.18,2.14,9.27,3.2.64.22.81.49.7,1.17a6,6,0,0,1-.17.82A2.86,2.86,0,0,1,28.6,20.8c-1.25-.35-2.46-.81-3.69-1.22l-.34-.12-.36.74a5.87,5.87,0,0,1-4.52,3.29A7.55,7.55,0,0,1,16.11,23a.73.73,0,0,1-.44-.92.76.76,0,0,1,1-.45c.44.11.87.25,1.32.33,3.19.52,4.79-1.57,5.44-3.54.21-.63.5-.79,1.13-.57l4.15,1.41.44.12A1.45,1.45,0,0,0,31,18.12a2.44,2.44,0,0,0-.24-.1l-9.1-3.16a2.66,2.66,0,0,0-2.24.15A4.19,4.19,0,0,1,15.63,15.25ZM10.41,26l3.87-11.24-3.79-1.31L6.62,24.67Z"/><path class="cls-1" d="M41.86,23.83a.86.86,0,0,1-.87.82.88.88,0,0,1-.82-.88.85.85,0,0,1,.9-.82A.83.83,0,0,1,41.86,23.83Z"/><path class="cls-1" d="M9.91,23.91A.89.89,0,1,1,9,23,.85.85,0,0,1,9.91,23.91Z"/></svg>