<?xml version="1.0" encoding="utf-8"?>
<!-- Generator: Adobe Illustrator 23.0.6, SVG Export Plug-In . SVG Version: 6.00 Build 0)  -->
<svg version="1.1" id="Layer_1" xmlns="http://www.w3.org/2000/svg" xmlns:xlink="http://www.w3.org/1999/xlink" x="0px" y="0px"
	 viewBox="0 0 128 128" style="enable-background:new 0 0 128 128;" xml:space="preserve">
<style type="text/css">
	.st0{fill:#444444;}
</style>
<title>icon_add-fornecedor</title>
<path class="st0" d="M115.2,77c1.5,0,2.6,1.1,2.6,2.6l0,0c0,1.5-0.7,2.9-2.6,2.9c-1.5,0-2.9-0.7-2.9-2.6c0-0.4,0-0.4,0-0.7
	C112.3,78.1,113.8,77,115.2,77L115.2,77z"/>
<path class="st0" d="M12.8,82.8c-1.5,0-2.9-1.1-2.9-2.9S11,77,12.8,77l0,0c1.5,0,2.9,1.1,2.9,2.6l0,0C15.7,81.7,14.2,82.8,12.8,82.8
	L12.8,82.8z"/>
<g>
	<path class="st0" d="M84.5,67.5c-17.9,0-32.2-14.6-32.2-32.2c0-17.9,14.6-32.2,32.2-32.2s32.2,14.6,32.2,32.2
		C116.7,53.2,102.4,67.5,84.5,67.5z M84.5,7.6c-15.2,0-27.7,12.5-27.7,27.7S69.3,63,84.5,63s27.7-12.5,27.7-27.7
		C112.2,20.1,99.7,7.6,84.5,7.6z"/>
</g>
<path class="st0" d="M87.4,22.5v10.2h9.5v5.1h-9.5v10.2h-5.9V37.8H72v-5.1h9.5V22.5H87.4z"/>
<path class="st0" d="M127.7,80.3L111.6,47c-0.7,1.8-1.5,3.3-2.6,4.8L123.3,81l-11.7,5.9L98.8,61.2c-1.5,0.7-2.6,1.5-4,1.8l4.4,9.1
	l8.4,17.2c-1.5,1.1-2.6,2.6-4,3.7c-5.5,5.5-12.1,9.9-19,13.5l-28.9,13.9c-0.4,0.4-0.7,0.4-1.5,0.4c-1.1,0.4-2.2-0.4-2.9-1.1
	c-0.7-0.7-0.7-2.2,0-2.9c0.4-0.7,1.1-1.1,1.5-1.5c5.1-2.6,10.6-5.1,15.7-7.7c0.7-0.4,1.5-1.1,1.8-1.8c0.4-0.7,0-1.8-0.7-2.2
	c-0.7-0.7-1.8-0.7-2.9,0L53,110.3l-10.6,5.1c-0.4,0-0.4,0.4-0.7,0.4c-1.5,0.4-2.9-0.4-3.3-1.8c-0.4-1.5,0.4-2.9,1.8-3.3l23.4-11.3
	c1.1-0.4,1.8-1.8,1.1-3.3c-0.4-1.1-1.8-1.8-2.9-1.1l-0.7,0.4l-20.5,10.2c-1.8,0.7-3.7,1.8-5.5,2.6c-1.5,0.7-2.9,0.4-3.7-1.1
	c-0.7-1.1-0.7-2.6,0.4-3.3c0.4-0.4,0.7-0.7,1.5-1.1l23-11.3c0.4,0,0.7-0.4,1.1-0.7c1.1-0.7,1.1-1.8,0.7-2.9
	c-0.4-1.1-1.5-1.5-2.2-1.5c-0.7,0-1.1,0.4-1.5,0.4l-20.1,9.9c-0.7,0.4-1.5,0.4-2.2,0.4c-1.1,0-2.2-1.1-2.6-2.2
	c-0.4-1.5,0.4-2.6,1.8-2.9l11-5.5h0.4c1.1-0.7,1.8-1.8,1.1-3.3v-0.4c-0.7-1.1-2.2-1.5-3.3-0.7l-11.3,5.5c-0.7,0.4-1.5,0.7-1.8,1.5
	c-2.9,2.9-2.9,7.7,0,10.2c0.4,0.4,0.7,0.4,0.7,0.7c-3.7,5.5-1.1,10.2,5.9,12.4c0,2.9,1.5,5.5,4,6.6c2.6,1.1,5.9,0.7,8-0.7
	c0,1.1,0.4,2.2,1.1,3.3c2.2,3.7,6.6,4.8,9.9,2.6l29.6-14.6c5.9-2.9,11-6.2,15.7-10.2c2.9-2.2,5.5-4.8,8-7.3c0.4-0.4,1.1-0.7,1.5-1.1
	l13.9-7C128,83.2,128.4,82.1,127.7,80.3z"/>
<g>
	<path class="st0" d="M46.4,51.4c2.2-1.1,4.8-1.1,7-0.4l8,2.9c-1.5-1.8-2.9-4-4-6.2c-0.4,0-0.7-0.4-1.1-0.4c-4-1.8-8.8-1.5-12.8,0.7
		c-2.2,1.1-4.8,1.5-7.3,0.4c-1.5-0.4-2.6-1.1-3.7-1.5c-5.1-1.8-9.9-3.3-15-5.1c-2.2-0.7-2.9,0-3.7,1.8L0.3,82.5
		c-0.7,2.2-0.4,3.3,1.8,4l14.6,5.1c2.6,0.7,3.3,0.4,4-1.8c3.3-9.5,6.6-19.4,9.9-28.9l2.9-8C38,54.3,42.8,53.9,46.4,51.4z M17.2,86.5
		l-12.1-4l12.4-35.9l12.1,4L17.2,86.5z"/>
	<path class="st0" d="M84.5,64.9c-0.7,0-1.8,0-2.6,0C80.8,66,79,66.4,77.5,66c-0.7,0-1.1-0.4-1.8-0.4l-13.5-4.4
		c-1.8-0.7-2.6,0-3.3,1.8c-0.7,1.8-1.5,3.7-2.6,5.5c-2.6,4-7,6.6-11.7,6.2c-2.6-0.4-4.8-0.7-7.3-1.1c-1.1-0.4-2.6,0-3.3,1.5
		c0,0,0,0,0,0.4c-0.4,1.1,0.4,2.6,1.8,2.9c1.1,0.4,2.2,0.7,3.3,1.1c7.7,2.2,15.7-0.7,20.1-7c1.1-1.8,2.2-3.7,3.3-5.5l1.8,0.4
		C68,68.6,72,70,75.7,71.1c0.4,0,0.7,0.4,1.5,0.4c4.4,0.7,8.8-1.8,10.2-5.9C86.7,64.5,85.6,64.9,84.5,64.9z"/>
</g>
</svg>
