<?xml version="1.0" encoding="utf-8"?>
<!-- Generator: Adobe Illustrator 23.0.6, SVG Export Plug-In . SVG Version: 6.00 Build 0)  -->
<svg version="1.1" id="Layer_1" xmlns="http://www.w3.org/2000/svg" xmlns:xlink="http://www.w3.org/1999/xlink" x="0px" y="0px"
	 viewBox="0 0 128 128" style="enable-background:new 0 0 128 128;" xml:space="preserve">
<style type="text/css">
	.st0{fill:#444545;}
</style>
<title>home</title>
<g>
	<path class="st0" d="M103.6,60.9c2.3,1.9,4.5,3.7,6.5,5.2c0.3,0.3,0.4,0.7,0.4,1.1c0,14.8,0,29.6,0,44.4c0,2-1.6,3.7-3.7,3.7
		c-0.1,0-0.1,0-0.2,0c-8.8,0-17.5,0-26.3,0c-2,0.1-3.7-1.4-3.8-3.5c0-0.2,0-0.3,0-0.5c0-5.3,0-10.6,0-15.9c0.1-4.6-2.6-8.8-6.8-10.7
		c-6.1-3.2-13.7-0.8-16.9,5.3c-1,1.8-1.4,3.9-1.4,5.9c0,5,0,10,0,15c0,3.1-1.3,4.4-4.4,4.4c-8.4,0-16.8,0-25.2,0
		c-3.1,0-4.4-1.2-4.4-4.3c0-14.5,0-29,0-43.5c-0.1-0.7,0.3-1.4,0.9-1.8c2-1.5,3.9-3,6.1-4.8v45.4c0,1.9,0.3,2.2,2.2,2.2h15.9
		c1.6,0,2-0.4,2-2c0-3.7,0-7.3,0-11c0.3-9.3,7.1-17.2,16.3-18.7c10.4-1.6,20.2,5.5,21.8,15.9c0,0.2,0.1,0.4,0.1,0.7
		c0.3,4.2,0.4,8.4,0.3,12.6c0,2.1,0.3,2.4,2.3,2.4h15.4c2.2,0,2.5-0.3,2.5-2.4v-45H103.6z"/>
	<path class="st0" d="M125.1,60c-6.5-5.1-12.9-10.2-19.4-15.2c-1.1-0.8-1.7-2-1.6-3.3c0-7.9,0-15.9,0-23.8c0.3-2-0.7-4-2.6-4.9H87.1
		c-2,0.8-3.1,2.8-2.7,4.9c0,2.3,0,4.6,0,6.9c0,0.7-0.4,1.3-0.9,1.7c-0.6,0.1-1.3,0-1.8-0.4L67.8,15c-1-0.8-2-1.4-3-2.1h-1.4
		c-0.9,0.5-1.8,1-2.6,1.6L2.2,60.6c-1.1,0.9-1.8,2.1-2.1,3.4c-0.3,1.3,0.3,2.6,1.6,3.2c1.5,0.6,3.3,0.3,4.4-0.9l56.4-44.5
		c1.3-1.1,1.8-1.1,3.1,0l56.4,44.5c2.6,2,4.7,1.6,6.1-1.2v-1.6C127.4,62.1,126.4,60.9,125.1,60z M97.2,35.6c0,0.7-0.6,1.3-1.3,1.3
		c-0.3,0-0.5-0.1-0.8-0.3l-3.4-2.7c-0.3-0.2-0.5-0.6-0.5-1V21c0-0.7,0.5-1.3,1.2-1.3c0,0,0,0,0.1,0h3.4c0.7,0,1.2,0.6,1.2,1.2
		c0,0,0,0,0,0v7.5c0,1.2,0,2.5,0,3.7L97.2,35.6z"/>
</g>
</svg>
