<svg id="Layer_3" data-name="Layer 3" xmlns="http://www.w3.org/2000/svg" viewBox="0 0 30.37 31.44"><defs><style>.cls-1,.cls-2{fill:none;stroke:#444545;stroke-miterlimit:10;stroke-width:2px;}.cls-2{opacity:1;}</style></defs><title>home10</title><path class="cls-1" d="M14.7,26.19V37.72a2,2,0,0,0,2,2H33.63a2,2,0,0,0,2-2V26.19" transform="translate(-9.81 -9.28)"/><path class="cls-2" d="M37.18,25.16H12.82a2,2,0,0,1-2-2.39l2.2-10.89a2,2,0,0,1,2-1.6H35a2,2,0,0,1,2,1.6l2.2,10.89A2,2,0,0,1,37.18,25.16Z" transform="translate(-9.81 -9.28)"/><line class="cls-1" x1="15.19" y1="1" x2="15.19" y2="15.88"/><line class="cls-1" x1="20.37" y1="1" x2="24.05" y2="15.88"/><line class="cls-1" x1="10.23" y1="1" x2="6.56" y2="15.88"/><path class="cls-1" d="M28.8,39.49V32a1,1,0,0,0-1-1H22.4a1,1,0,0,0-1,1v7.47" transform="translate(-9.81 -9.28)"/></svg>