<svg id="Layer_1" data-name="Layer 1" xmlns="http://www.w3.org/2000/svg" viewBox="0 0 100 100"><defs><style>.cls-1{fill:#333;}</style></defs><title>icon_message</title><path class="cls-1" d="M50.31,77.82h-.75a4.77,4.77,0,0,1-3.08-2.58c-1.56-2.59-3.23-5.12-4.84-7.68a1.32,1.32,0,0,0-1.26-.7c-5.49,0-11,0-16.47,0a4.63,4.63,0,0,1-4.58-3.22A7,7,0,0,1,19,61.57c0-6.25,0-12.49,0-18.74V27.37c0-2.52,1.14-4.27,3.27-4.92a7.92,7.92,0,0,1,2.23-.26q25.52,0,51,0c.31,0,.63,0,.94,0A4.57,4.57,0,0,1,81,27V61.93a4.7,4.7,0,0,1-5,4.95c-5.43,0-10.85,0-16.28,0a1.61,1.61,0,0,0-1.55.88c-1.75,2.8-3.53,5.57-5.28,8.37a3.48,3.48,0,0,1-2,1.55Zm-.24-50.93H24.8c-.84,0-1,.18-1,1V61.1c0,.91.16,1.07,1,1.07h16c.52,0,1,0,1.57,0a2.22,2.22,0,0,1,1.85,1.09c1.49,2.37,3,4.72,4.51,7.08a7.06,7.06,0,0,0,.48.73c.41.5.76.52,1.2.06a4.7,4.7,0,0,0,.38-.5c1.45-2.27,2.95-4.51,4.33-6.82a3.22,3.22,0,0,1,3.13-1.7c5.64,0,11.28,0,16.91,0,.89,0,1.11-.22,1.11-1.1V28c0-1-.13-1.12-1.12-1.12Z"/></svg>