<svg id="Layer_1" data-name="Layer 1" xmlns="http://www.w3.org/2000/svg" viewBox="0 0 100 100"><defs><style>.cls-1{fill:#333;}</style></defs><title>icon_warning</title><path class="cls-1" d="M17.5,72.54a5.07,5.07,0,0,1,.16-1,18.31,18.31,0,0,1,1.2-3.12q12.5-21.73,25-43.41a9.15,9.15,0,0,1,2.38-2.8,6,6,0,0,1,7.6.09,9.74,9.74,0,0,1,2.37,2.89L79.84,66.1c.53.92,1.08,1.83,1.59,2.77a7.36,7.36,0,0,1,.88,5.38c-.67,2.63-2.53,4-5.07,4.59l-1.06.22H23.91l-1.12-.22a6.23,6.23,0,0,1-5-4.4c-.13-.44-.18-.9-.27-1.34Zm32.55,1.22H75a7.22,7.22,0,0,0,1.52-.21.73.73,0,0,0,.62-1A7.41,7.41,0,0,0,76.54,71c-2.22-3.88-4.46-7.74-6.7-11.62Q60.74,43.6,51.62,27.83a7.14,7.14,0,0,0-1.09-1.37.67.67,0,0,0-1,0,6.55,6.55,0,0,0-1,1.23Q35.93,49.4,23.41,71.13a5.76,5.76,0,0,0-.52,1.32c-.16.61,0,.92.61,1.09a6,6,0,0,0,1.58.21Z"/><path class="cls-1" d="M46,42.1a16.71,16.71,0,0,1,.15-2.52,4.09,4.09,0,0,1,5.79-3,3.55,3.55,0,0,1,1.93,3,18.72,18.72,0,0,1,.07,5.18c-.27,3.21-.53,6.41-.85,9.62a25.39,25.39,0,0,1-.7,4.17,2.44,2.44,0,0,1-3.08,1.74,2.06,2.06,0,0,1-1.73-1.51,22.85,22.85,0,0,1-.71-3.83C46.52,50.81,46.28,46.68,46,42.1Z"/><path class="cls-1" d="M46,66.65a4,4,0,0,1,4-4,4,4,0,0,1,4.05,4,3.94,3.94,0,0,1-4,4A3.9,3.9,0,0,1,46,66.65Z"/></svg>