<svg id="Layer_1" data-name="Layer 1" xmlns="http://www.w3.org/2000/svg" viewBox="0 0 50 50"><defs><style>.cls-1{fill:#73818f;}</style></defs><title>icon_notification</title><path class="cls-1" d="M24.53,7.5h.94l.25.07a3.78,3.78,0,0,1,2,1,3.83,3.83,0,0,1,1.07,3.32l0,0,.21.09a10.34,10.34,0,0,1,6.76,9.35c.11,1.51.1,3,.2,4.52a15.21,15.21,0,0,0,.86,4.32,5.32,5.32,0,0,0,1.76,2.5,3,3,0,0,1,1.15,3.13,3.19,3.19,0,0,1-3.25,2.63H30.38a.35.35,0,0,0-.41.3A5.09,5.09,0,0,1,26.7,42.2c-.38.14-.78.2-1.16.3H24.46a1.41,1.41,0,0,0-.22-.06A5.18,5.18,0,0,1,21.36,41a5.3,5.3,0,0,1-1.43-2.52H13.42a3.22,3.22,0,0,1-1.85-5.88,3.82,3.82,0,0,0,.65-.62,6.68,6.68,0,0,0,1.24-2.72,27.52,27.52,0,0,0,.69-6.14,22.17,22.17,0,0,1,.27-3.26A9.76,9.76,0,0,1,18.8,13.2c.76-.49,1.59-.88,2.42-1.33V11.8a3.72,3.72,0,0,1,1.53-3.57A4.63,4.63,0,0,1,24.53,7.5Zm11.15,25A15.19,15.19,0,0,1,34,26.11c-.11-1.44-.1-2.88-.19-4.32a8.28,8.28,0,0,0-4.39-7.27,8.51,8.51,0,0,0-7-.85,8.47,8.47,0,0,0-6.22,7.83c-.09,1.17-.07,2.36-.13,3.54a21,21,0,0,1-.88,5.34c-.22.71-.53,1.39-.8,2.09Zm-10.61,2c-4.07,0-8.14,0-12.2,0a.6.6,0,0,0-.65.49,1.18,1.18,0,0,0,.25,1.16,1.41,1.41,0,0,0,1.15.42H36.75a1.37,1.37,0,0,0,1.14-1.11.75.75,0,0,0-.76-.94Zm-3,4.09a3.22,3.22,0,0,0,3.07,2,3.17,3.17,0,0,0,2.78-2ZM26.8,11.32a1.66,1.66,0,0,0-.72-1.46,1.74,1.74,0,0,0-2-.13,1.77,1.77,0,0,0-1,1.59Z"/></svg>