<svg id="Layer_1" data-name="Layer 1" xmlns="http://www.w3.org/2000/svg" viewBox="0 0 50 50"><defs><style>.cls-1{fill:#666;}</style></defs><title>icon_thumb-up</title><path class="cls-1" d="M33.35,39.88c-.51,0-1-.08-1.54-.14a31.42,31.42,0,0,1-5.48-1.3c-2-.62-4-1.26-6-1.85a9.76,9.76,0,0,0-3.55-.29,7.45,7.45,0,0,1-.08.94,1.18,1.18,0,0,1-1.21,1H8.77A1.25,1.25,0,0,1,7.5,36.91v-15a1.29,1.29,0,0,1,1.43-1.44h6.32c1,0,1.42.4,1.53,1.41.28-.16.56-.29.81-.46a10.63,10.63,0,0,0,4.47-5.89,11.76,11.76,0,0,0,.23-1.89,3.81,3.81,0,0,1,1.73-3,3.5,3.5,0,0,1,5.2,2.07,6.32,6.32,0,0,1,.23,1.55c0,1.93,0,3.86,0,5.79v.35h.34c2.35,0,4.7,0,7.05,0a4.28,4.28,0,0,1,3.78,2,10.35,10.35,0,0,1,1.55,4,15.37,15.37,0,0,1-.64,8.52,7.62,7.62,0,0,1-3,3.85,7.33,7.33,0,0,1-3,1c-.6.08-1.2.12-1.8.17ZM16.76,34.41h1.9a1.54,1.54,0,0,1,.37,0c1,.22,2,.4,3,.69,2.15.64,4.27,1.36,6.42,2a16.78,16.78,0,0,0,7,.72,4.78,4.78,0,0,0,3.7-2.42,10,10,0,0,0,.88-2,13.69,13.69,0,0,0,.25-7,7.5,7.5,0,0,0-1.37-3.25,2.34,2.34,0,0,0-2-1c-2.73,0-5.45,0-8.18,0-.83,0-1.18-.34-1.18-1.18V14.26a2.68,2.68,0,0,0-.29-1.39A1.62,1.62,0,0,0,25.71,12a1.47,1.47,0,0,0-1.37,1,5.63,5.63,0,0,0-.21,1.1,16.66,16.66,0,0,1-.31,2,12,12,0,0,1-3.45,5.46A9.64,9.64,0,0,1,17,23.74a.34.34,0,0,0-.27.38c0,3.33,0,6.65,0,10ZM9.39,22.34v14h5.47v-14Z"/></svg>