<svg id="Layer_1" data-name="Layer 1" xmlns="http://www.w3.org/2000/svg" viewBox="0 0 50 50"><defs><style>.cls-1{fill:#9fc44e;}</style></defs><title>icon_comment-success</title><path class="cls-1" d="M25,9.31c4.83,0,9.65,0,14.48,0a4.15,4.15,0,0,1,1.44.24,2.32,2.32,0,0,1,1.56,2.34c0,6.68,0,13.36,0,20a2.56,2.56,0,0,1-2.18,2.52,6.07,6.07,0,0,1-.85.06h-9a.74.74,0,0,0-.71.4l-3,4.81a1.93,1.93,0,0,1-3.33,0q-1.51-2.37-3-4.75a.84.84,0,0,0-.82-.46H10.28a2.61,2.61,0,0,1-2.66-2,3.44,3.44,0,0,1-.11-.91q0-9.64,0-19.3A2.65,2.65,0,0,1,9.34,9.46a4.76,4.76,0,0,1,1.25-.15ZM25,12H10.8c-.5,0-.6.1-.6.59V31.28c0,.51.09.6.59.6h9.37l.57,0a1.29,1.29,0,0,1,1,.63c.87,1.38,1.76,2.76,2.64,4.14a.91.91,0,0,0,.28.35.64.64,0,0,0,.47,0c.13,0,.21-.21.3-.34.82-1.28,1.67-2.54,2.44-3.85a1.87,1.87,0,0,1,1.79-1c3.19,0,6.37,0,9.55,0,.5,0,.62-.12.62-.62V12.56c0-.5-.09-.6-.6-.6Z"/></svg>