<svg id="Layer_1" data-name="Layer 1" xmlns="http://www.w3.org/2000/svg" viewBox="0 0 50 50"><defs><style>.cls-1{fill:#333;}</style></defs><title>icon_comment</title><path class="cls-1" d="M7.5,32.07V11.83a.76.76,0,0,0,.06-.16,2.45,2.45,0,0,1,2-2.26,5,5,0,0,1,1-.09H39.46l.5,0A2.57,2.57,0,0,1,42.5,12V31.76a2.65,2.65,0,0,1-2.8,2.79c-3.05,0-6.1,0-9.16,0a.94.94,0,0,0-.91.5c-1,1.57-2,3.1-2.95,4.7a2,2,0,0,1-3.39,0c-1-1.62-2-3.19-3-4.78a.74.74,0,0,0-.71-.4c-3.1,0-6.2,0-9.3,0A2.67,2.67,0,0,1,7.74,32.9,8.64,8.64,0,0,1,7.5,32.07ZM25,12H10.77c-.47,0-.57.1-.57.58V31.29c0,.51.09.6.59.6h9.05c.3,0,.59,0,.89,0a1.25,1.25,0,0,1,1,.62c.87,1.38,1.76,2.76,2.64,4.14a2.35,2.35,0,0,0,.23.32.35.35,0,0,0,.58,0,1.83,1.83,0,0,0,.24-.31c.82-1.27,1.67-2.54,2.44-3.85a1.88,1.88,0,0,1,1.83-1c3.17,0,6.34,0,9.51,0,.5,0,.63-.12.63-.62V12.57c0-.5-.1-.59-.6-.59Z"/></svg>