<?xml version="1.0" encoding="utf-8"?>
<!-- Generator: Adobe Illustrator 23.0.6, SVG Export Plug-In . SVG Version: 6.00 Build 0)  -->
<svg version="1.1" id="Layer_1" xmlns="http://www.w3.org/2000/svg" xmlns:xlink="http://www.w3.org/1999/xlink" x="0px" y="0px"
	 viewBox="0 0 100 100" style="enable-background:new 0 0 100 100;" xml:space="preserve">
<style type="text/css">
	.st0{fill:#333333;}
</style>
<g>
	<title>menu-top-icon_score</title>
	<path class="st0" d="M13.5,45.7c0.1-0.1,0.1-0.2,0.1-0.3c0.3-0.7,0.9-1.1,1.6-1.2c0.2,0,0.3,0,0.5,0H27c0.2,0,0.4-0.1,0.4-0.3
		c0,0,0,0,0,0c1.2-3.7,2.3-7.3,3.5-11c0.2-1,1.3-1.7,2.3-1.4c0.3,0.1,0.6,0.2,0.9,0.5c0.3,0.3,0.5,0.6,0.6,1
		c1.2,3.5,2.3,7.1,3.4,10.6c0,0.2,0.1,0.4,0.2,0.6h11.8c1-0.1,1.8,0.6,2,1.5c0.2,0.8-0.1,1.6-0.8,2l-8.1,5.9
		c-0.4,0.3-0.8,0.6-1.2,0.9c-0.2,0.1-0.3,0.3-0.2,0.5c0,0,0,0,0,0l3.5,10.8c0.4,1,0,2.1-0.9,2.5c-0.1,0.1-0.3,0.1-0.5,0.1l0,0h-0.7
		c-0.4-0.2-0.7-0.4-1.1-0.6l-7.1-5.1l-2.3-1.7l-0.3,0.2c-2.9,2.1-5.8,4.2-8.7,6.3c-0.5,0.3-1,0.6-1.5,0.9h-0.7l0,0
		c-1-0.2-1.7-1.2-1.5-2.3c0-0.1,0.1-0.3,0.1-0.4c1.2-3.6,2.4-7.3,3.6-10.9c0.1-0.2,0-0.4-0.2-0.5c0,0,0,0,0,0l-9-6.5
		c-0.5-0.3-0.9-0.8-1.2-1.4L13.5,45.7z M20.4,47.7l0.3,0.3l7.1,5.1c0.2,0.1,0.3,0.3,0.2,0.5c0,0,0,0,0,0c-0.9,2.8-1.8,5.6-2.8,8.3
		l-0.1,0.4l7.6-5.6l7.7,5.6c0-0.2-0.1-0.2-0.1-0.3c-0.9-2.8-1.9-5.6-2.8-8.5c-0.1-0.2,0-0.4,0.2-0.5l7-5.1l0.4-0.3h-9.3l-2.9-8.9
		l0,0l-2.9,8.9L20.4,47.7z"/>
	<g>
		<path class="st0" d="M85.7,50.8H60.9c-1.5,0-2.8-1.2-2.8-2.8c0-1.5,1.2-2.8,2.8-2.8h24.8c1.5,0,2.8,1.2,2.8,2.8
			C88.5,49.5,87.2,50.8,85.7,50.8z"/>
	</g>
	<g>
		<path class="st0" d="M73.2,60.5H60.9c-1.5,0-2.8-1.2-2.8-2.8s1.2-2.8,2.8-2.8h12.3c1.5,0,2.8,1.2,2.8,2.8S74.7,60.5,73.2,60.5z"/>
	</g>
</g>
</svg>
