<?xml version="1.0" encoding="utf-8"?>
<!-- Generator: Adobe Illustrator 23.0.6, SVG Export Plug-In . SVG Version: 6.00 Build 0)  -->
<svg version="1.1" id="Layer_1" xmlns="http://www.w3.org/2000/svg" xmlns:xlink="http://www.w3.org/1999/xlink" x="0px" y="0px"
	 viewBox="0 0 128 128" style="enable-background:new 0 0 128 128;" xml:space="preserve">
<style type="text/css">
	.st0{fill:#444444;}
</style>
<title>icon_paper04</title>
<g>
	<path class="st0" d="M84.6,0c1.7,1.1,3.4,2.3,4.9,3.7c7.8,7.6,15.4,15.4,23.2,23.1c1.7,1.7,2.7,4,2.7,6.5c0,29,0,58,0,87
		c0,5.3-2.4,7.7-7.7,7.7H45.5c-3.5,0.4-6.8-2.1-7.2-5.7c-0.4-3.5,2.1-6.8,5.7-7.2c0.6-0.1,1.3-0.1,1.9,0.1h56.6V113
		c0-25.4,0-50.8,0-76.3c0-1.2-0.4-2.4-1.3-3.2c-6.5-6.4-12.9-12.9-19.4-19.3c-0.6-0.7-1.5-1.1-2.4-1.1c-17.3,0-34.6,0-51.9,0h-1.5
		v2.3c0,35,0,70.1,0,105.2c0.3,3.6-2.2,6.8-5.7,7.3c-3.5,0.5-6.8-2-7.3-5.5c0-0.1,0-0.1,0-0.2c0,0,0-0.2-0.2-0.3V6.1
		c0.5-3,2.7-5.3,5.6-6.1H84.6z"/>
	<path class="st0" d="M64.2,70.4H45.9c-3.6,0.3-6.7-2.4-6.9-6c-0.3-3.6,2.4-6.7,6-6.9c0.3,0,0.6,0,1,0h36.9c3.6-0.3,6.7,2.4,6.9,6
		c0.3,3.6-2.4,6.7-6,6.9c-0.3,0-0.6,0-1,0H64.2z"/>
	<path class="st0" d="M57.9,83.2c4.4,0,8.8,0,13.2,0c2.5,0,4.8,1.6,5.5,4c1,2.3,0.5,5-1.2,6.8c-1.3,1.4-3.1,2.1-5,2
		c-8.4,0-16.7,0-25.1,0c-3.6,0-6.4-2.9-6.4-6.4c0-3.6,2.9-6.4,6.4-6.4L57.9,83.2L57.9,83.2z"/>
	<path class="st0" d="M51.5,44.9h-6.7c-3.3,0-6.1-2.6-6.3-5.9c-0.4-3.3,2-6.3,5.2-6.7c5.1-0.3,10.2-0.3,15.3,0
		c3.3,0.5,5.6,3.5,5.1,6.8c0,0,0,0.1,0,0.1c-0.3,3.1-2.9,5.5-6,5.6C56,44.9,53.8,44.9,51.5,44.9z"/>
</g>
</svg>
