<?xml version="1.0" encoding="utf-8"?>
<!-- Generator: Adobe Illustrator 23.0.6, SVG Export Plug-In . SVG Version: 6.00 Build 0)  -->
<svg version="1.1" id="Layer_1" xmlns="http://www.w3.org/2000/svg" xmlns:xlink="http://www.w3.org/1999/xlink" x="0px" y="0px"
	 viewBox="0 0 128 128" style="enable-background:new 0 0 128 128;" xml:space="preserve">
<style type="text/css">
	.st0{fill:#444545;}
</style>
<title>icon_paper2</title>
<g>
	<path class="st0" d="M89.3,97.7c-1.6,1.6-2.9,3.1-4.4,4.4c-0.8,0.8-1.8,1.5-2.9,1.9c-6.4,2.6-12.8,5.2-19.3,7.8
		c-1.4,0.6-3.1,0.3-4.1-0.9c-1.3-1.3-1.6-3.2-0.7-4.8c1.4-3.7,3-7.5,4.5-11.3c1.1-2.8,2.2-5.6,3.3-8.3c0.3-0.5,0.6-1,1-1.5
		l40.8-40.8c0.9-1,2.3-1.6,3.7-1.5c1.5,0,3,0,4.5,0c1.4-0.1,2.7,0.5,3.7,1.5c2,2,4,4,5.9,5.9c1,0.9,1.6,2.3,1.5,3.7
		c0,7.9,0.8,5.7-4.6,11c-7.8,7.9-15.7,15.8-23.6,23.6c-0.8,0.7-1.2,1.7-1.1,2.7c0,8.2,0,16.3,0,24.5c0.3,5.7-3.5,10.8-9.1,12
		c-1.1,0.3-2.3,0.4-3.5,0.4H14c-6.6,0.4-12.3-4.6-12.7-11.2c0-0.5,0-0.9,0-1.4V12.9C0.8,7,4.7,1.7,10.4,0.4C11.6,0.1,12.8,0,14,0
		h51.8c3.3-0.1,6.5,1.3,8.8,3.7l19.8,19.8c1.7,1.6,2.7,3.9,2.9,6.2c0,4.9,0,9.8,0,14.6c0,2-1.6,3.7-3.6,3.7c-0.1,0-0.2,0-0.3,0
		c-2,0.2-3.8-1.3-3.9-3.4c0-0.2,0-0.3,0-0.5c0-4,0-8,0-12c0.1-0.6,0.1-1.2,0-1.8c-0.1-1.4-1.2-2.4-2.6-2.3c-0.1,0-0.1,0-0.2,0h-8.7
		c-4.5,0.2-8.3-3.3-8.5-7.8c0-0.3,0-0.6,0-0.8v-8.4c0.2-1.5-0.9-2.8-2.4-3c-0.1,0-0.1,0-0.2,0c-0.5,0-0.9,0-1.4,0H14.1
		c-3.7,0-4.9,1.3-4.9,4.9v102.5c0,3.7,1.3,4.9,4.9,4.9h70.3c3.7,0,4.8-1.3,4.8-4.8v-16C89.3,99,89.3,98.6,89.3,97.7z M68.6,101.4
		l10-4.4c0.3-0.2,0.6-0.4,0.8-0.7l38.3-37.2c1.3-0.9,1.6-2.7,0.7-3.9c-0.2-0.3-0.4-0.5-0.7-0.7l-2.1-2c-1.1-1.1-2.8-1.1-3.9,0
		c0,0,0,0,0,0L73.7,90.2c-0.4,0.4-0.7,0.8-1,1.3L68.6,101.4z"/>
	<path class="st0" d="M43.4,52.1H25.5c-2,0.3-3.9-1.1-4.2-3.1c-0.1-0.4,0-0.9,0.1-1.3c0-1.8,1.3-3.4,3.1-3.7c0.5,0,1,0,1.5,0h34.8
		c3.2,0,5,2,4.5,4.9c-0.3,2-2.1,3.3-4,3.1L43.4,52.1z"/>
	<path class="st0" d="M39.5,40.1c-4.7,0-9.3,0-14,0c-2,0.3-3.9-1.1-4.2-3.1c-0.1-0.5,0-1,0.1-1.5c0.2-1.7,1.4-3,3.1-3.3
		c0.5,0,0.9,0,1.4,0c9,0,18,0,27,0c3.3,0,4.9,2,4.4,5c-0.3,1.8-1.9,3-3.7,3c-3.7,0-7.1,0-10.7,0h-3.3L39.5,40.1z"/>
</g>
</svg>
