<svg id="Layer_1" data-name="Layer 1" xmlns="http://www.w3.org/2000/svg" viewBox="0 0 100 100"><defs><style>.cls-1{fill:#73818f;}</style></defs><title>icon_messages</title><path class="cls-1" d="M87.82,24.76A4.86,4.86,0,0,0,83,19.64c-.33,0-.67,0-1,0H27.27a8.3,8.3,0,0,0-1.93.15,4.65,4.65,0,0,0-3.87,4.3,1.15,1.15,0,0,1-.11.31v6.85h5.12V25.76c0-.93.19-1.11,1.15-1.11H81.69c1,0,1.14.18,1.14,1.12V61.26c0,1-.24,1.19-1.18,1.19H76.59v5h5.93a5,5,0,0,0,5.31-5.3Q87.83,43.47,87.82,24.76Z"/><path class="cls-1" d="M45.74,88.39h-.81a5.1,5.1,0,0,1-3.3-2.76c-1.67-2.78-3.46-5.48-5.19-8.23a1.43,1.43,0,0,0-1.35-.75c-5.89,0-11.78,0-17.66,0a5.08,5.08,0,0,1-5-3.5c-.12-.4-.2-.81-.3-1.22V33.56a1.15,1.15,0,0,0,.11-.31A4.63,4.63,0,0,1,16.15,29a8.3,8.3,0,0,1,1.93-.16q27.36,0,54.72,0l1,0a4.87,4.87,0,0,1,4.82,5.12q0,18.72,0,37.43a5,5,0,0,1-5.31,5.3c-5.82,0-11.64,0-17.45,0a1.72,1.72,0,0,0-1.67.94c-1.87,3-3.78,6-5.65,9a3.79,3.79,0,0,1-2.19,1.66ZM45.4,33.83h-27c-1,0-1.15.18-1.15,1.11V70.49c0,1,.17,1.14,1.13,1.14H36.21c.36,0,.72,0,1.08,0a2.47,2.47,0,0,1,2,1.18c1.66,2.64,3.34,5.25,5,7.87.15.25.3.56.54.67a1.17,1.17,0,0,0,.88,0c.24-.1.41-.41.56-.65,1.57-2.43,3.19-4.82,4.65-7.3a3.5,3.5,0,0,1,3.4-1.88c6,0,12.09,0,18.14,0,.94,0,1.18-.24,1.18-1.18V35c0-.94-.19-1.13-1.14-1.13Z"/></svg>