<svg id="Layer_1" data-name="Layer 1" xmlns="http://www.w3.org/2000/svg" viewBox="0 0 128 128"><defs><style>.cls-1{fill:#FFF;}</style></defs><title>icons</title><path class="cls-1" d="M18.79,29c.12-1.38.21-2.76.37-4.13a25.46,25.46,0,0,1,.45-2.73,8.52,8.52,0,0,1,7.22-6.89,12.23,12.23,0,0,0,1.74-.71A6.5,6.5,0,0,1,30.39,14c2.22-.06,4.45,0,6.67,0a3.15,3.15,0,1,1,0,6.3c-2.25,0-4.51,0-6.76,0a3.09,3.09,0,0,1-.9-.15,3.77,3.77,0,0,0-5.06,2.72,24.41,24.41,0,0,0-.61,4,54.17,54.17,0,0,0,3.44,24,1.57,1.57,0,0,0,1.07,1.12,4,4,0,0,1,2.33,2.36A40.76,40.76,0,0,0,37.67,65.3a19.42,19.42,0,0,0,5.63,4.31,9.66,9.66,0,0,0,9.06-.14,20.21,20.21,0,0,0,7.3-6.56c1.7-2.44,3.16-5.06,4.65-7.64a5.27,5.27,0,0,1,2.26-2.34,1.61,1.61,0,0,0,.67-.8,53.59,53.59,0,0,0,4-23.77,40.59,40.59,0,0,0-.63-5.4,3.54,3.54,0,0,0-3.49-3,1.14,1.14,0,0,0-.45,0c-2.88.86-5.82.31-8.73.35a3,3,0,0,1-2.82-3.21,3.14,3.14,0,0,1,3-3c2.35,0,4.69,0,7,0a5.15,5.15,0,0,1,1.64.53,15.74,15.74,0,0,0,1.88.85C73,16.54,75,19,75.62,23.74a59.3,59.3,0,0,1-3.83,29.75,2,2,0,0,0,0,1.73,3.31,3.31,0,0,1,0,2.88c-2.92,6.13-6.54,11.76-12,16C58.28,75.18,56.58,76,55,77a2.17,2.17,0,0,0-.84.86A8.11,8.11,0,0,1,50.42,82a.91.91,0,0,0-.43.73c1.55,9.66,6,17.68,14.08,23.31,6.87,4.77,14.37,4.18,21.07-1.28A35.72,35.72,0,0,0,96,88.87l-.94-.58a9.28,9.28,0,1,1,6.54,1.22,1.3,1.3,0,0,0-1.18,1,39.91,39.91,0,0,1-11.09,16.91,23.9,23.9,0,0,1-13.74,6.42,1.66,1.66,0,0,0-.35.13H72.11a2,2,0,0,0-.43-.14,21.16,21.16,0,0,1-10.51-4c-9.12-6.64-14.3-15.66-16-26.78a1.51,1.51,0,0,0-.65-1,8.32,8.32,0,0,1-3.92-4.38,2.31,2.31,0,0,0-.86-1c-1.42-.93-3-1.69-4.28-2.73-5.7-4.46-9.44-10.41-12.35-16.92A7.18,7.18,0,0,1,23,54.64a5.44,5.44,0,0,0-.11-1.57,63.82,63.82,0,0,1-3.41-12.73c-.29-2-.48-4-.72-5.94Zm81,57.06A5.77,5.77,0,1,0,94,80.31,5.78,5.78,0,0,0,99.76,86.09Z"/></svg>