<?xml version="1.0" encoding="utf-8"?>
<!-- Generator: Adobe Illustrator 23.0.6, SVG Export Plug-In . SVG Version: 6.00 Build 0)  -->
<svg version="1.1" id="Layer_1" xmlns="http://www.w3.org/2000/svg" xmlns:xlink="http://www.w3.org/1999/xlink" x="0px" y="0px"
	 viewBox="0 0 128 128" style="enable-background:new 0 0 128 128;" xml:space="preserve">
<style type="text/css">
	.st0{fill:#444545;}
</style>
<title>icon_paper</title>
<path class="st0" d="M10.7,62.7v-58c-0.1-2.2,1.4-4.1,3.4-4.7c0.6-0.1,1.2-0.1,1.8,0h96c2.8-0.1,5.2,2.1,5.3,5c0,0.1,0,0.2,0,0.3
	c0,38.4,0,76.8,0,115.3c0.2,3.4-2.4,6.4-5.8,6.6c-1.5,0.1-2.9-0.3-4.1-1.2l-10.1-7.1c-0.4-0.4-1.1-0.4-1.5,0l-11.6,7.8
	c-2.3,1.8-5.6,1.8-7.9,0l-11.6-7.8c-0.4-0.3-0.9-0.3-1.3,0c-3.9,2.6-7.9,5.2-11.8,7.8c-2.2,1.7-5.4,1.7-7.6,0
	c-3.9-2.6-7.8-5.2-11.7-7.8c-0.4-0.4-1.1-0.4-1.5,0c-3.4,2.3-6.8,4.7-10.2,7c-2.8,2-6.6,1.4-8.6-1.4c-0.6-0.8-0.9-1.7-1.1-2.6
	c-0.1-0.6-0.1-1.2,0-1.8L10.7,62.7z M47.8,117.7l12.2-7.9c0.5-0.4,1.1-0.7,1.7-1c1.9-0.9,4.2-0.6,5.9,0.6l12.6,8.3l0.7-0.4l11.6-7.8
	c2.3-1.7,5.4-1.7,7.7,0l6.7,4.5l0.7,0.4V9.4H20v105.2l0.7-0.4l6.6-4.5c2.4-1.9,5.7-1.9,8.1,0L47.8,117.7z"/>
<path class="st0" d="M88.6,65.6c2.2-0.2,4.2,1.1,4.9,3.1c0.8,2.5-0.6,5.2-3.1,6c-0.4,0.1-0.7,0.2-1.1,0.2h-50
	c-2.3,0.2-4.4-1.4-5-3.7c-0.5-2.5,1.1-5,3.7-5.5c0.1,0,0.2,0,0.4-0.1C41,65.7,88.6,65.6,88.6,65.6z"/>
<path class="st0" d="M39.3,95c-2.2,0.2-4.3-1.2-5-3.4c-0.7-2.5,0.7-5.2,3.3-5.9c0.2-0.1,0.5-0.1,0.7-0.1h50.1
	c2.3-0.2,4.5,1.4,5.1,3.7c0.6,2.5-1,5.1-3.5,5.7C89.8,95,89.6,95,89.3,95C86.8,95,39.3,95,39.3,95z"/>
<path class="st0" d="M38.7,55.1c-2.5-0.1-4.5-2.2-4.5-4.7c0-2.6,2-4.7,4.6-4.8h24.9c2.3-0.1,4.4,1.4,4.9,3.7c0.6,2.5-1,5-3.5,5.5
	c-0.2,0-0.4,0.1-0.7,0.1C60.1,54.9,43,55.1,38.7,55.1z"/>
<path class="st0" d="M64.3,25.8c2.3,0.1,4.1,1.9,4.4,4.2c0.2,2.4-1.4,4.5-3.7,5.1c-0.5,0.1-0.9,0.1-1.4,0H39.2
	c-2.6,0.1-4.9-1.9-5.1-4.5c0-0.2,0-0.4,0-0.6c0.2-2.2,2-3.9,4.2-4.1C42.7,25.8,60,25.8,64.3,25.8z"/>
</svg>
