<?xml version="1.0" encoding="utf-8"?>
<!-- Generator: Adobe Illustrator 23.0.6, SVG Export Plug-In . SVG Version: 6.00 Build 0)  -->
<svg version="1.1" id="Layer_1" xmlns="http://www.w3.org/2000/svg" xmlns:xlink="http://www.w3.org/1999/xlink" x="0px" y="0px"
	 viewBox="0 0 128 128" style="enable-background:new 0 0 128 128;" xml:space="preserve">
<style type="text/css">
	.st0{fill:#444545;}
</style>
<title>icon_notification</title>
<path class="st0" d="M62.1,0H66l0.8,0.3c4.6,0.9,8.5,4.1,10.2,8.5c1,2.4,1.3,5.1,0.8,7.7l1,0.4c4.7,1.9,9,4.5,12.7,7.9
	c7.7,7.4,12.1,17.6,12.2,28.3c0.3,5.5,0.4,11,0.8,16.5c0.3,4.9,1.4,9.7,3.1,14.3c1.1,3.4,3.3,6.4,6.2,8.5c1.1,0.8,1.9,1.7,2.6,2.9
	c0.9,1.9,1.4,4.1,2.1,6.1v0.7c0,0.7-0.3,1.3-0.4,1.9c-1.1,5.6-6.1,9.6-11.9,9.5c-7.3,0-15,0-22.4,0c-0.8-0.1-1.5,0.4-1.6,1.1
	c0,0,0,0,0,0c-1.8,6-6.6,10.7-12.6,12.5c-1,0.3-2.1,0.5-3.1,0.8h-4.9c0,0-0.3-0.2-0.5-0.2c-7.3-1.1-13.2-6.3-15.3-13.4
	c-0.3-1-0.7-1.1-1.6-1.1c-7.6,0-15.2,0-22.8,0c-3.9,0-7.6-1.9-9.7-5.2c-1.1-1.9-1.8-3.9-2.1-6.1v-1c0.1-0.2,0.2-0.4,0.2-0.5
	c0.3-3.7,2.4-7,5.5-9c0.7-0.6,1.4-1.2,2-1.9c2.3-3,3.9-6.6,4.6-10.3c1.7-7.8,2.6-15.8,2.5-23.8c0-3.1,0.3-6.2,0.7-9.2
	c1.6-11.8,8.9-22,19.4-27.4c1.8-1,3.7-1.8,5.7-2.7c-0.9-5.5,1.6-11,6.3-13.9C58.2,1.3,60.1,0.6,62.1,0z M102.9,91.4
	c-0.7-1.7-1.5-3.2-2.1-4.8c-2.7-7.8-4.1-15.9-4.2-24.1c-0.2-4.1-0.2-8.3-0.5-12.5c-0.5-4.9-2-9.7-4.6-13.9
	c-7.3-10.7-20.1-16.2-32.9-14.4c-8.8,1.6-16.5,6.6-21.5,13.9c-3.4,5.6-5.3,12.1-5.3,18.7c-0.3,6-0.4,12.1-1.1,18.1
	c-0.5,6.4-2.3,12.6-5.1,18.3c-0.1,0.2-0.2,0.5-0.3,0.7L102.9,91.4z M64.2,98.7H19.7c-1.2-0.2-2.2,0.6-2.4,1.8c0,0.1,0,0.1,0,0.2
	c-0.4,1.5,0,3,1,4.1c1.1,1.1,2.6,1.6,4.1,1.4h84.1c2.1-0.1,3.8-1.5,4.5-3.4c0.6-1.5,0-3.2-1.5-3.8c-0.4-0.2-0.9-0.3-1.3-0.2
	L64.2,98.7z M74.6,113.8H53.3c2,4.4,6.5,7.2,11.3,7.1c4.5-0.3,8.4-3.1,10-7.2L74.6,113.8z M70.5,14.2c0.3-2.3-0.8-4.6-2.8-5.8
	c-3.1-2-7.2-1.1-9.3,2c-0.7,1.1-1.1,2.5-1.1,3.8C61.7,13.5,66.1,13.5,70.5,14.2z"/>
</svg>
