<?xml version="1.0" encoding="utf-8"?>
<!-- Generator: Adobe Illustrator 23.0.6, SVG Export Plug-In . SVG Version: 6.00 Build 0)  -->
<svg version="1.1" id="Layer_1" xmlns="http://www.w3.org/2000/svg" xmlns:xlink="http://www.w3.org/1999/xlink" x="0px" y="0px"
	 viewBox="0 0 128 128" style="enable-background:new 0 0 128 128;" xml:space="preserve">
<style type="text/css">
	.st0{fill:#444545;}
</style>
<title>icon_paper3</title>
<path class="st0" d="M108.4,115.1l-7.8,6.3l-3.4,2.6c-2,1.8-5,1.8-7,0l-10.7-8.2l-0.9-0.7l-8.7,6.8l-2.9,2.3c-1.8,1.5-4.5,1.5-6.4,0
	l-11.2-9.1l-8.4,6.5c-1.1,0.9-2.2,1.8-3.4,2.6c-1.9,1.5-4.5,1.5-6.4,0c-3.7-2.8-7.3-5.6-11-8.5c-0.4-0.4-1-0.5-1.5-0.1
	c0,0-0.1,0.1-0.1,0.1c-3.7,2.8-7.3,5.7-11,8.5c-2.1,1.7-5.1,1.4-6.8-0.7c-0.5-0.6-0.8-1.3-1-2.1c-0.1-0.4-0.1-0.9,0-1.3V7.6
	C-0.1,5,1.9,2.7,4.5,2.6c0.2,0,0.5,0,0.7,0h118c2.3-0.3,4.5,1.4,4.7,3.8c0,0.4,0,0.8,0,1.2c0,0.4,0,0.8,0,1.2c0,36.9,0,73.8,0,110.8
	c0,0.8,0,1.6-0.2,2.3c-0.7,2.6-3.3,4.1-5.8,3.4c-0.7-0.2-1.3-0.5-1.8-0.9L108.4,115.1z M118.8,110.5V12.3H10.3v97.8h0.3l6.1-4.9
	c1.8-1.7,4.6-1.7,6.4,0l5,3.9l6.9,5.1l11.3-8.8c1.9-1.8,4.9-1.8,6.9,0c3.7,2.7,7,5.4,10.4,8.2c0.4,0.5,1.2,0.6,1.7,0.1
	c0,0,0.1-0.1,0.1-0.1c3.5-2.9,7.1-5.7,10.7-8.5c1.8-1.5,4.4-1.5,6.2,0l2.6,2l9.1,7.1l0.3-0.3l11-8.7c1.9-1.7,4.8-1.7,6.8,0l2,1.6
	L118.8,110.5z"/>
<path class="st0" d="M36.8,85.1c-1.1-0.2-2.2-0.4-3.1-0.7c-4.4-1.3-8.1-4.5-9.9-8.8c-1.1-2.5,0-5.4,2.5-6.5c2.5-1.1,5.4,0,6.5,2.5
	c0.9,2.3,3.2,3.8,5.7,3.7h7.1c3.1-0.2,5.5-2.9,5.3-6c-0.2-2.8-2.3-5-5.1-5.3c-2.4,0-4.7,0-7.1,0c-8.6,0.1-15.6-6.7-15.8-15.3
	c0-0.2,0-0.3,0-0.5c-0.1-7.9,5.9-14.5,13.7-15.2h0.5c0-1.8,0-3.7,0-5.4c-0.2-2.7,1.8-5.1,4.5-5.3c2.7-0.2,5.1,1.8,5.3,4.5
	c0,0.3,0,0.6,0,0.8c0,1.8,0,3.7,0,5.3c4.1,0.3,7.9,2.3,10.6,5.5c1.1,1.5,2,3.1,2.6,4.9c0.9,2.4-0.4,5.1-2.8,6c-0.1,0-0.1,0-0.2,0.1
	c-2.4,1-5.1-0.1-6.2-2.4c-0.9-2.7-3.6-4.4-6.4-4.1c-2.2,0-4.4,0-6.5,0c-3.1,0-5.6,2.4-5.6,5.5c0,0,0,0,0,0c0,3.1,2.5,5.6,5.6,5.7
	h7.3C53.9,54.1,60.9,61,61,69.5c0.1,7.8-5.6,14.3-13.3,15.4c-0.8,0-1.1,0.5-1.1,1.3c0,1.4,0,2.8,0,4.2c0,2.7-2.2,4.9-4.9,4.9
	s-4.9-2.2-4.9-4.9l0,0L36.8,85.1z"/>
<path class="st0" d="M87.9,30.7c4.2,0,8.5,0,12.7,0c2.3-0.1,4.3,1.4,4.9,3.7c0.5,2.2-0.6,4.4-2.6,5.4c-0.8,0.4-1.6,0.5-2.5,0.5
	c-8.3,0-16.5,0-24.8,0c-2.7,0-4.9-2.2-4.9-4.9s2.2-4.9,4.9-4.9C79.7,30.7,83.8,30.7,87.9,30.7z"/>
<path class="st0" d="M87.9,87.3c-4.1,0-8.2,0-12.3,0c-2.7,0.2-5-1.9-5.2-4.6c0-0.1,0-0.2,0-0.3c-0.1-2.6,2-4.8,4.7-4.9
	c0.1,0,0.2,0,0.4,0c8.4,0,16.7,0,25.1,0c2.7-0.2,5.1,1.8,5.3,4.5c0.2,2.7-1.8,5.1-4.5,5.3c-0.3,0-0.6,0-0.8,0
	C96.3,87.3,92.1,87.3,87.9,87.3z"/>
<path class="st0" d="M88.1,54.2H101c2.7,0.1,4.8,2.3,4.7,5c0,1.4-0.7,2.7-1.7,3.5c-0.9,0.6-2,1-3.1,1.1c-8.5,0-17.1,0-25.6,0
	c-2.7,0-4.8-2.1-4.9-4.8c0,0,0,0,0-0.1c0-2.5,2-4.6,4.5-4.7C79.4,54.2,83.7,54.2,88.1,54.2z"/>
</svg>
