<svg id="Layer_1" data-name="Layer 1" xmlns="http://www.w3.org/2000/svg" viewBox="0 0 50 50"><defs><style>.cls-1{fill:#888;}</style></defs><title>icon_plano-acao</title><path class="cls-1" d="M13.74,7.5H29.43a1.71,1.71,0,0,0,.21.26c2.76,2.77,5.53,5.53,8.28,8.3a.62.62,0,0,1,.2.42V40.3A2.17,2.17,0,0,1,36,42.5H14.08c-1.74,0-2.2-.73-2.2-1.81V9.37A1.63,1.63,0,0,1,13.23,7.5,1.46,1.46,0,0,1,13.74,7.5ZM35.92,18.44H29.59a3.54,3.54,0,0,1-.73-.07,2.15,2.15,0,0,1-1.67-2.2V9.71H14.08V40.29H35.92Zm-6.53-2.21h5.49l-5.49-5.5Z"/></svg>