<svg id="Layer_1" data-name="Layer 1" xmlns="http://www.w3.org/2000/svg" viewBox="0 0 50 50"><defs><style>.cls-1{fill:#f86c6b;}</style></defs><title>icon_comment-danger</title><path class="cls-1" d="M25,9.31H39.48a4.15,4.15,0,0,1,1.44.24,2.31,2.31,0,0,1,1.56,2.34v20a2.57,2.57,0,0,1-2.18,2.52,6.07,6.07,0,0,1-.85.06h-9a.75.75,0,0,0-.71.4l-3,4.81a1.93,1.93,0,0,1-2.64.69,2,2,0,0,1-.69-.69q-1.52-2.37-3-4.75a.83.83,0,0,0-.82-.46H10.28a2.61,2.61,0,0,1-2.66-2,3.49,3.49,0,0,1-.11-.91V12.26a2.64,2.64,0,0,1,1.83-2.8,4.41,4.41,0,0,1,1.25-.15ZM25,12H10.8c-.5,0-.6.1-.6.59V31.28c0,.51.09.6.59.6h9.94a1.29,1.29,0,0,1,1,.63c.87,1.38,1.76,2.76,2.64,4.14a.87.87,0,0,0,.28.35.64.64,0,0,0,.47,0c.13,0,.21-.21.3-.34.82-1.28,1.67-2.54,2.44-3.85a1.87,1.87,0,0,1,1.79-1H39.2c.5,0,.62-.12.62-.62V12.56c0-.5-.09-.6-.6-.6Z"/></svg>