<svg id="Layer_1" data-name="Layer 1" xmlns="http://www.w3.org/2000/svg" viewBox="0 0 128 128"><defs><style>.cls-1{fill:#333;}</style></defs><title>icon_text</title><path class="cls-1" d="M55.16,41V86.14c1.54,0,3.07,0,4.59,0A4.5,4.5,0,0,1,62.69,94a4.39,4.39,0,0,1-3,1.2c-6.05,0-12.09,0-18.14,0a4.51,4.51,0,0,1,0-9c1.47,0,2.94,0,4.49,0V41c-.26,0-.56,0-.86,0H32.93A4.52,4.52,0,0,0,28,45.66a4.51,4.51,0,0,1-9-.13q0-4.52,0-9A4.46,4.46,0,0,1,23.56,32q27.09,0,54.16,0a4.46,4.46,0,0,1,4.48,4.49q0,4.52,0,9a4.51,4.51,0,0,1-9,.11A4.51,4.51,0,0,0,68.43,41Z"/><path class="cls-1" d="M99.9,39a21.32,21.32,0,0,1,4.47-2,25.63,25.63,0,0,1,4.63-.42V32.79a16,16,0,0,0-10.94,2.64,1.26,1.26,0,0,1-1.73,0A15.91,15.91,0,0,0,85.42,32.8v3.91c.93,0,1.8,0,2.67,0a11,11,0,0,1,6.53,2.34,1.46,1.46,0,0,1,.6.89c.06,1.5,0,3,0,4.64h-.06v7h0V62.37H91.35v4h3.84v9.54h.06v9.79h0c0,1.08,0,2.12,0,3.15a1.16,1.16,0,0,1-.53.81A28.9,28.9,0,0,1,90,91.74a24.65,24.65,0,0,1-4.59.41V96a16.13,16.13,0,0,0,11-2.7,1.09,1.09,0,0,1,1.54,0,16,16,0,0,0,11,2.68V92c-1,0-2,0-3,0a10.76,10.76,0,0,1-6.21-2.34,1.62,1.62,0,0,1-.57-1c-.06-1.43,0-2.87,0-4.49h.08V66.37H103v-4H99.25V48.62h0v-4h-.08c0-1.48-.06-2.84,0-4.2A1.91,1.91,0,0,1,99.9,39Z"/></svg>