<svg id="Layer_1" data-name="Layer 1" xmlns="http://www.w3.org/2000/svg" viewBox="0 0 50 50"><defs><style>.cls-1{fill:#333;}</style></defs><title>icon_export</title><path class="cls-1" d="M23.92,9.17a.85.85,0,0,0,.17.06,2.06,2.06,0,0,1,1.47,2.16,2,2,0,0,1-2,1.84h-12V38.41H36.77V26.55a2,2,0,1,1,4.06-.15c0,1.74,0,3.48,0,5.22V39A3.47,3.47,0,0,1,37.3,42.5H11.07a3.48,3.48,0,0,1-3.52-2.86.24.24,0,0,0,0-.1V12.13A1,1,0,0,0,7.56,12,3.48,3.48,0,0,1,9.92,9.33l.54-.16Z"/><path class="cls-1" d="M41.87,8.14a2.31,2.31,0,0,0-1.68-.64H36.57l-5.47,0a2,2,0,0,0-1.73.82A2,2,0,0,0,31,11.51H35.7L28,19.21l-1.53,1.54-.84.84a2,2,0,0,0,0,2.82A1.94,1.94,0,0,0,27,25a2,2,0,0,0,1.41-.58l.84-.84L30.82,22l2.8-2.8,4.9-4.9V19a1.92,1.92,0,0,0,.79,1.66,2,2,0,0,0,1.17.4,2,2,0,0,0,.9-.22,1.94,1.94,0,0,0,1.09-1.88c0-1.09,0-2.19,0-3.28,0-1.92,0-3.89,0-5.84A2.33,2.33,0,0,0,41.87,8.14Z"/></svg>