<svg id="Layer_1" data-name="Layer 1" xmlns="http://www.w3.org/2000/svg" viewBox="0 0 128 128"><defs><style>.cls-1{fill:#333;}</style></defs><title>icon</title><path class="cls-1" d="M64.29,9.6a55,55,0,1,0,55,55A55,55,0,0,0,64.29,9.6Zm0,101.86A46.86,46.86,0,1,1,111.14,64.6,46.86,46.86,0,0,1,64.29,111.46Z"/><path class="cls-1" d="M78.75,50.14,58.58,70.31,50,61.75a3.93,3.93,0,0,0-5.7,0h0a4,4,0,0,0,0,5.71L55.94,79.07a3.93,3.93,0,0,0,5.7,0l23-23a3.93,3.93,0,0,0,0-5.7h0A4,4,0,0,0,78.75,50.14Z"/></svg>