<?xml version="1.0" encoding="utf-8"?>
<!-- Generator: Adobe Illustrator 23.0.6, SVG Export Plug-In . SVG Version: 6.00 Build 0)  -->
<svg version="1.1" id="Layer_1" xmlns="http://www.w3.org/2000/svg" xmlns:xlink="http://www.w3.org/1999/xlink" x="0px" y="0px"
	 viewBox="0 0 50 50" style="enable-background:new 0 0 50 50;" xml:space="preserve">
<style type="text/css">
	.st0{fill:#333333;}
	.st1{fill:none;stroke:#333333;stroke-width:3;stroke-miterlimit:10;}
</style>
<path class="st0" d="M18.5,34H8.9c-0.7,0-1.3,0.6-1.3,1.3s0.6,1.3,1.3,1.3h10.8C19.2,35.8,18.8,34.9,18.5,34z"/>
<path class="st0" d="M18,26.5H8.9c-0.7,0-1.3,0.6-1.3,1.3c0,0.7,0.6,1.3,1.3,1.3H18C18,29.1,18,26.5,18,26.5z"/>
<path class="st0" d="M20.8,20.4c0-0.5,0-0.9,0-1.4H8.9c-0.7,0-1.3,0.6-1.3,1.3c0,0.7,0.6,1.3,1.3,1.3h10.4
	C19.7,21.1,20.2,20.7,20.8,20.4z"/>
<path class="st0" d="M33.5,29.6c0,0.9-0.8,3.3-1.7,3.3c-0.9,0-1.7-2.4-1.7-3.3c0-0.9,0.8-1.7,1.7-1.7C32.8,27.9,33.5,28.6,33.5,29.6
	C33.5,29.6,33.5,29.6,33.5,29.6z"/>
<path class="st1" d="M34.8,38.2h-5.7c-3.6,0-6.5-2.9-6.5-6.5v-6.5c0-0.8,0.6-1.4,1.4-1.4h15.9c0.8,0,1.4,0.6,1.4,1.4v6.5
	C41.3,35.3,38.4,38.2,34.8,38.2z"/>
<path class="st0" d="M35.5,16.3L38,15c-1.4-2-3.6-3.2-6.1-3.2c-2.8-0.1-5.3,1.4-6.6,3.9c-0.8,1.3-1.1,3.1-1.1,6.6h-0.5c0,0,0,0,0,0
	h3c0-2.5,0.2-4.3,0.7-5.1c0.8-1.7,2.5-2.7,4.4-2.6C33.2,14.5,34.6,15.2,35.5,16.3z"/>
</svg>
