<svg id="Layer_1" data-name="Layer 1" xmlns="http://www.w3.org/2000/svg" viewBox="0 0 100 100"><defs><style>.cls-1{fill:#383838;}</style></defs><title>icon_download</title><path class="cls-1" d="M77.57,64.87a3.5,3.5,0,0,0-3.5,3.5V78H25.93V68.37a3.5,3.5,0,1,0-7,0V81.51A3.49,3.49,0,0,0,22.43,85H77.57a3.49,3.49,0,0,0,3.49-3.49V68.37A3.5,3.5,0,0,0,77.57,64.87Z"/><path class="cls-1" d="M47.48,72.25a4.51,4.51,0,0,0,.54.44l.26.14a3.65,3.65,0,0,0,.34.18,3.58,3.58,0,0,0,.35.11c.1,0,.2.07.3.09a4,4,0,0,0,.69.06,3.91,3.91,0,0,0,.68-.06,2.63,2.63,0,0,0,.3-.09l.35-.11a3.65,3.65,0,0,0,.34-.18l.26-.14a3.34,3.34,0,0,0,.54-.44L68.79,55.89A3.49,3.49,0,1,0,63.85,51L53.45,61.34V18.49a3.5,3.5,0,0,0-7,0V61.34L36.06,51a3.49,3.49,0,0,0-4.94,4.94Z"/></svg>