<svg id="Layer_1" data-name="Layer 1" xmlns="http://www.w3.org/2000/svg" viewBox="0 0 50 50"><defs><style>.cls-1{fill:#20a8d8;}</style></defs><title>icon_camera-primary</title><path class="cls-1" d="M7.5,19.79A10.53,10.53,0,0,1,8.17,18a4.19,4.19,0,0,1,3.66-2.13c1.17,0,2.35,0,3.52,0a.47.47,0,0,0,.5-.31c.55-1.13,1.11-2.26,1.67-3.38A3.61,3.61,0,0,1,21,10h8A3.56,3.56,0,0,1,32.19,12a1.37,1.37,0,1,1-2.37,1.35,1,1,0,0,0-.92-.54h-8a1,1,0,0,0-1,.67c-.55,1.13-1.12,2.25-1.68,3.38a2.91,2.91,0,0,1-2.87,1.78c-1.07,0-2.15,0-3.23,0a1.72,1.72,0,0,0-1.91,1.91q0,7.44,0,14.87a1.71,1.71,0,0,0,1.88,1.87H37.87a1.72,1.72,0,0,0,1.9-1.89V20.49a1.72,1.72,0,0,0-1.89-1.9H30.61a2.22,2.22,0,0,1-.68-.08,1.35,1.35,0,0,1,.41-2.64H38A4.42,4.42,0,0,1,42.48,20c0,.15,0,.31,0,.47V35.34a4.36,4.36,0,0,1-2.85,4.3,5.09,5.09,0,0,1-1.73.31Q25,40,12.08,40a4.39,4.39,0,0,1-4.52-3.75.84.84,0,0,0-.06-.14Z"/><path class="cls-1" d="M17.12,26.74a7.88,7.88,0,1,1,7.47,8.09A7.9,7.9,0,0,1,17.12,26.74ZM25,21.83A5.16,5.16,0,1,0,30.15,27,5.18,5.18,0,0,0,25,21.83Z"/><path class="cls-1" d="M34.82,21.77a1.58,1.58,0,0,1,3.15,0,1.58,1.58,0,1,1-3.15,0Z"/></svg>