<?xml version="1.0" encoding="utf-8"?>
<!-- Generator: Adobe Illustrator 23.0.6, SVG Export Plug-In . SVG Version: 6.00 Build 0)  -->
<svg version="1.1" id="Layer_1" xmlns="http://www.w3.org/2000/svg" xmlns:xlink="http://www.w3.org/1999/xlink" x="0px" y="0px"
	 viewBox="0 0 50 50" style="enable-background:new 0 0 50 50;" xml:space="preserve">
<style type="text/css">
	.st0{fill:#333333;}
	.st1{fill:none;stroke:#333333;stroke-width:3;stroke-miterlimit:10;}
</style>
<path class="st0" d="M9.3,34.5C8.6,34.4,8,35,7.9,35.7s0.5,1.3,1.2,1.4c0.1,0,0.2,0,0.2,0h10.8c-0.6-0.9-1-1.7-1.2-2.6
	C18.9,34.5,9.3,34.5,9.3,34.5z"/>
<path class="st0" d="M9.2,29.5h9.2V27H9.3c-0.7-0.1-1.3,0.5-1.4,1.2c-0.1,0.6,0.4,1.2,1.1,1.3C9.1,29.5,9.2,29.5,9.2,29.5z"/>
<path class="st0" d="M7.9,20.7c-0.1,0.7,0.5,1.3,1.2,1.4c0.1,0,0.2,0,0.2,0h10.4c0.4-0.5,0.9-0.9,1.4-1.2c0-0.5,0-0.9,0-1.4H9.3
	C8.6,19.4,8,20,7.9,20.7z"/>
<path class="st0" d="M33.6,29.6c0,0.9-0.8,3.3-1.7,3.3s-1.7-2.4-1.7-3.3c0-0.9,0.8-1.7,1.7-1.7C32.9,27.9,33.6,28.6,33.6,29.6
	C33.6,29.6,33.6,29.6,33.6,29.6z"/>
<path class="st1" d="M34.8,38.2h-5.7c-3.6,0-6.5-2.9-6.5-6.5v-6.5c0-0.8,0.6-1.4,1.4-1.4H40c0.8,0,1.4,0.6,1.4,1.4v6.5
	C41.4,35.3,38.5,38.2,34.8,38.2z"/>
<path class="st0" d="M26.8,22.3c0-2.5,0.2-4.3,0.7-5.1c0.8-1.7,2.5-2.7,4.4-2.6c1.8-0.1,3.5,0.9,4.3,2.5c0.6,1,0.8,2.4,0.8,5.2h2.7
	c0-3.3-0.2-4.8-1.1-6.5c-1.2-2.5-3.8-4-6.6-4c-2.8-0.1-5.3,1.4-6.6,3.9c-0.8,1.3-1.1,3.1-1.1,6.6h-0.5c0,0,0,0,0,0H26.8z"/>
</svg>
