<svg id="Layer_1" data-name="Layer 1" xmlns="http://www.w3.org/2000/svg" viewBox="0 0 128 128"><defs><style>.cls-1{fill:#333;}</style></defs><title>icon</title><path class="cls-1" d="M128,18.09v25h-5.57V23.65H103V18.09h25Zm-103,0v5.56H5.57V43.13H0v-25H25Zm91.83,11.13V98.78h-8.35V29.22Zm-11.13,0V98.78H103V29.22Zm-5.57,0V98.78H86.26V29.22Zm-16.69,0V98.78H80.7V29.22Zm-5.57,0V98.78H75.13V29.22Zm-5.56,0V98.78H69.57V29.22Zm-5.57,0V98.78H55.65V29.22Zm-13.91,0V98.78H50.09V29.22Zm-5.57,0V98.78H39V29.22Zm-11.13,0V98.78H33.39V29.22Zm-5.56,0V98.78H25V29.22Zm-8.35,0V98.78H19.48V29.22Zm-5.56,0V98.78H11.13V29.22ZM128,84.87v25H103v-5.56h19.47V84.87Zm-122.43,0v19.48H25v5.56H0v-25Z"/></svg>