<svg id="Layer_1" data-name="Layer 1" xmlns="http://www.w3.org/2000/svg" viewBox="0 0 50 50"><defs><style>.cls-1{fill:#333;}</style></defs><title>icon_events</title><path class="cls-1" d="M18.3,45H17.17a16.89,16.89,0,0,1-7.06-1.52,4.23,4.23,0,0,1-.86-.59,2,2,0,0,1,.8-3.48,8.92,8.92,0,0,1,3.45-.2l.74.07L16.5,26.12c-.59-.19-1.16-.33-1.7-.56a6.6,6.6,0,0,1-3.64-4.46,10.36,10.36,0,0,1,.09-6.28C12,12.4,12.75,10,13.49,7.55c.25-.79.53-1,1.34-.83l11.49,2c.77.13,1,.41,1,1.2-.1,2.68-.18,5.36-.32,8A9.84,9.84,0,0,1,23.57,25a5.91,5.91,0,0,1-4.78,1.44l-.52-.07L16,39.57a1.41,1.41,0,0,1,.48.12c.94.33,1.9.63,2.82,1a2.52,2.52,0,0,1,1.39,1.42,1.92,1.92,0,0,1-1.08,2.51l-.06,0-.43.19Zm6.9-27.56H25l-.27.1a6,6,0,0,1-6.39-1.18,4.53,4.53,0,0,0-5.15-.9.74.74,0,0,0-.46.54A8.46,8.46,0,0,0,13,21.1a4.62,4.62,0,0,0,4,3.27c.59.07,1.18.2,1.78.3a4.28,4.28,0,0,0,3.89-1.28,8.16,8.16,0,0,0,2.39-4.61c.05-.45.07-.9.11-1.35Zm-11.63-4a6.53,6.53,0,0,1,6.13,1.67,4,4,0,0,0,2.37,1,5.82,5.82,0,0,0,2.82-.55.5.5,0,0,0,.4-.58,9.91,9.91,0,0,1,0-1.09c0-1.17.08-2.34.13-3.53L15.05,8.57ZM19.07,43l.1-.36-.86-.39A15.58,15.58,0,0,0,11.4,41a5,5,0,0,0-1.14.28l-.11.33.9.41a16,16,0,0,0,6.77,1.25,6.57,6.57,0,0,0,1.25-.33Z"/><path class="cls-1" d="M40.47,37.84a5.83,5.83,0,0,0-1.77-.18,15.74,15.74,0,0,0-1.92.24Q35.43,32.83,34,27.74l.45-.15a4.63,4.63,0,0,0,2.92-2.68,7.71,7.71,0,0,0,.07-6c-.8-2-1.64-4-2.47-6a.73.73,0,0,0-.88-.54l-.12,0-7.4,2c0,.43-.06.93-.11,1.48l7.41-2,1.53,3.7H34.12a5.3,5.3,0,0,0-3.5,1.67,3.77,3.77,0,0,1-3.92,1.11.39.39,0,0,1-.26-.24c-.08-.55-.16-1.1-.23-1.65a36.41,36.41,0,0,1-.84,4.13,8.06,8.06,0,0,0,2.7,4.51,4.68,4.68,0,0,0,3.27,1.18,12.31,12.31,0,0,0,1.36-.16c.92,3.38,1.83,6.77,2.74,10.14-.47.17-.89.31-1.28.49A7.15,7.15,0,0,0,33,39.4a3.19,3.19,0,0,0-.85.83,1.48,1.48,0,0,0,.37,2.05,1.82,1.82,0,0,0,.31.16l.56.21.68.05h.29a12.78,12.78,0,0,0,6-1.75,2.75,2.75,0,0,0,.84-.79,1.44,1.44,0,0,0-.18-2A1.46,1.46,0,0,0,40.47,37.84Zm-9-11a2.72,2.72,0,0,1-2-.51,6.46,6.46,0,0,1-2.77-4.24V21.9a16.07,16.07,0,0,0,1.7,0,4.9,4.9,0,0,0,3.16-1.55,4,4,0,0,1,4.31-1.14.56.56,0,0,1,.43.41,6.47,6.47,0,0,1-.15,4.76,2.8,2.8,0,0,1-1.62,1.68,22.88,22.88,0,0,1-3.08.82Zm8.16,12.85a12,12,0,0,1-5.35,1.54,3.81,3.81,0,0,1-1-.13V41a3.57,3.57,0,0,1,.52-.44A11.67,11.67,0,0,1,39.36,39a3.39,3.39,0,0,1,.72.13v.15a4,4,0,0,1-.47.45Z"/><path class="cls-1" d="M28.31,10.61A.67.67,0,0,1,28,9.83l1.34-4.36A.66.66,0,0,1,30.15,5a.66.66,0,0,1,.44.83l-1.34,4.36a.65.65,0,0,1-.82.44h0Z"/><path class="cls-1" d="M31.22,11.56a.74.74,0,0,1-.38-.3.66.66,0,0,1,.22-.91h0L35.7,7.56a.66.66,0,1,1,.69,1.13h0l-4.69,2.8A.71.71,0,0,1,31.22,11.56Z"/></svg>