<svg id="Layer_1" data-name="Layer 1" xmlns="http://www.w3.org/2000/svg" viewBox="0 0 50 50"><defs><style>.cls-1{fill:#444545;}</style></defs><title>icon_gift</title><path class="cls-1" d="M28.74,7.51H30l.16,0a5.84,5.84,0,0,1,4.43,8.37l-.17.33c1.76,0,3.47,0,5.18,0a2.91,2.91,0,0,1,2.76,2.06l.12.38v3.85a.76.76,0,0,0-.06.16,2.88,2.88,0,0,1-2.11,2.19c-.24.07-.49.09-.75.14V39.53a2.89,2.89,0,0,1-3,3H13.38a2.48,2.48,0,0,1-.47,0,2.89,2.89,0,0,1-2.48-3V25A3,3,0,0,1,7.5,21.94a25.44,25.44,0,0,0,0-2.62,3,3,0,0,1,3.09-3.07c1.93,0,3.86,0,5.8,0h.35a5.36,5.36,0,0,1-.48-2.2,5.08,5.08,0,0,1,.49-2.2,4.7,4.7,0,0,1,1.38-1.74A5.12,5.12,0,0,1,24.56,10l.14-.18a5.76,5.76,0,0,1,3.14-2.15C28.13,7.63,28.44,7.57,28.74,7.51ZM23.53,25H13.36V39.56H23.53Zm3,0V39.56H36.65V25Zm-3-2.93v-2.9H10.44v2.9Zm16,0V19.19H26.48v2.88Zm-13-5.82c.95,0,1.91,0,2.87,0a2.92,2.92,0,0,0,0-5.83,2.83,2.83,0,0,0-2.85,2.45C26.43,14,26.51,15.1,26.51,16.25Zm-3,0a23.91,23.91,0,0,0,0-2.54,2.1,2.1,0,0,0-2.21-1.79A2.21,2.21,0,0,0,19.18,14,2.11,2.11,0,0,0,21,16.19,23.52,23.52,0,0,0,23.5,16.21Z"/></svg>