<?xml version="1.0" encoding="utf-8"?>
<!-- Generator: Adobe Illustrator 23.0.6, SVG Export Plug-In . SVG Version: 6.00 Build 0)  -->
<svg version="1.1" id="Layer_1" xmlns="http://www.w3.org/2000/svg" xmlns:xlink="http://www.w3.org/1999/xlink" x="0px" y="0px"
	 viewBox="0 0 50 50" style="enable-background:new 0 0 50 50;" xml:space="preserve">
<style type="text/css">
	.st0{fill:#333333;}
</style>
<title>icon_trash02</title>
<path class="st0" d="M42.6,12.4c-0.2-0.4-0.6-0.6-1-0.7c-0.2-0.1-0.4-0.1-0.5-0.1h-9.9l0-2.9c-0.1-0.8-0.7-1.4-1.6-1.4h-9.4
	c-0.5,0-0.8,0.2-1.1,0.6c-0.3,0.4-0.4,0.8-0.3,1.1v2.6H8.7c-0.8,0-1.4,0.5-1.5,1.3c-0.1,0.4,0.1,0.8,0.3,1.1c0.2,0.4,0.6,0.6,1,0.7
	c0.2,0.1,0.4,0.1,0.5,0.1h1.6c0,0.7,0.1,1.4,0.2,2.2c0.1,1.2,0.2,2.5,0.3,3.8c0.1,1.3,0.2,2.5,0.3,3.8l0.5,6.7
	c0.1,0.6,0.1,1.1,0.1,1.7c0,0.6,0.1,1.2,0.1,1.7c0.1,1.4,0.2,2.8,0.3,4.2c0.1,2.1,1.9,3.8,4.1,3.9h0l17-0.1c2.1,0,3.9-1.7,4-3.8
	l0.2-2.3c0-0.1,0.5-5.6,0.6-7.9l1-12.7c0-0.2,0-0.4,0.1-0.6c0-0.2,0-0.3,0.1-0.6v0h1.8c0.7,0,1.3-0.5,1.5-1.2
	C42.9,13.2,42.8,12.8,42.6,12.4z M22.1,11.6v-1.1H28v1.1H22.1z M36.1,14.9c0,0.1,0,0.2,0,0.3c0,0.2,0,0.4-0.1,0.5
	c-0.1,1.3-0.2,2.5-0.3,3.8c-0.1,1.3-0.2,2.5-0.3,3.8l-0.6,7.6c-0.1,1.2-0.2,2.5-0.3,3.8c-0.1,1.4-0.2,2.7-0.3,4.1
	c0,0.5-0.4,0.8-0.8,0.8H16.7c-0.8,0-1.1-0.3-1.1-1l-1.4-18.4c-0.1-1-0.1-2-0.2-2.9c-0.1-0.8-0.1-1.6-0.2-2.3H36.1z"/>
</svg>
