<svg id="Layer_1" data-name="Layer 1" xmlns="http://www.w3.org/2000/svg" viewBox="0 0 100 100"><defs><style>.cls-1{fill:#333;}</style></defs><title>icon_email02</title><path class="cls-1" d="M13,71.88V32.12a1.4,1.4,0,0,0,.13-.34A8.19,8.19,0,0,1,16.91,26a24.06,24.06,0,0,1,3.77-1.55H79.41s.08.08.12.09c5.1,1.26,7.46,4.28,7.46,9.52V58.66c0,4,0,8.08,0,12.12a8.71,8.71,0,0,1-6.79,8.56c-.26.06-.52.15-.78.22H20.68a3.45,3.45,0,0,0-.42-.14,8.76,8.76,0,0,1-6.91-6.26C13.21,72.74,13.11,72.31,13,71.88Zm69.19-42A5.49,5.49,0,0,0,78,28.05H22c-.2,0-.41,0-.61,0a4.94,4.94,0,0,0-3.5,1.79l.56.59L47.06,59.13c2,2,4,2,5.95,0L81.65,30.42C81.82,30.25,82,30.06,82.19,29.84ZM62,55.29l-.06,0L55.25,62a7.28,7.28,0,0,1-10.51,0l-6.18-6.17c-.17-.17-.35-.32-.45-.41L18.64,74.85a4.7,4.7,0,0,0,3.05,1.09q28.37,0,56.75,0a4.54,4.54,0,0,0,3-1.13ZM83.42,71.37V33.93L64.58,52.77Zm-48-18.56L16.71,34.09V71.24Z"/></svg>