<svg id="Layer_1" data-name="Layer 1" xmlns="http://www.w3.org/2000/svg" viewBox="0 0 50 50"><defs><style>.cls-1{fill:#444;}</style></defs><title>icon_empty</title><path class="cls-1" d="M16.22,36.26c-.32.33-.68.71-2.94,3a1.75,1.75,0,0,1-1.94.51,1.77,1.77,0,0,1-.79-2.8c.09-.11.2-.21.3-.31,2.44-2.45,2.78-2.75,2.89-2.83a14.26,14.26,0,0,1,20-20c.09-.1.8-.87,3.29-3.35A1.78,1.78,0,1,1,39.56,13l-3.32,3.32A14.16,14.16,0,0,1,39,27.62a13.93,13.93,0,0,1-4.5,8A14.27,14.27,0,0,1,16.22,36.26Zm0-5.17L31.06,16.26A10.65,10.65,0,0,0,16.23,31.09Zm2.63,2.64A10.63,10.63,0,0,0,33.67,18.91Z"/></svg>