<svg id="Layer_1" data-name="Layer 1" xmlns="http://www.w3.org/2000/svg" viewBox="0 0 100 100"><defs><style>.cls-1{fill:#f86c6b;}</style></defs><title>icon_trash_red</title><path class="cls-1" d="M35.29,80.27A6.7,6.7,0,0,1,28.73,74c-.17-2.42-.36-4.84-.54-7.26q-.24-3-.46-6-.45-5.82-.88-11.6-.51-6.51-1-13c-.17-1.37-.27-2.75-.38-4.2H22.22a4.9,4.9,0,0,1-.77-.06,2.32,2.32,0,0,1,.28-4.6H39.64v-5a2.28,2.28,0,0,1,.51-1.65,2.33,2.33,0,0,1,1.56-.85H58a2.32,2.32,0,0,1,2.32,2.1,3.53,3.53,0,0,1,0,.46v5H78a4.26,4.26,0,0,1,.8.08,2.32,2.32,0,0,1-.57,4.57H74.57l0,.48c0,.66-.1,1.29-.15,1.95q-.48,5.93-.92,11.85l-.77,10.18C72.39,60.26,71.62,70,71.62,70c-.1,1.34-.21,2.67-.29,4a6.61,6.61,0,0,1-6.49,6.22H35.29ZM30.12,32c.24,3.22.49,6.45.75,9.67q.6,7.8,1.22,15.58.63,8.09,1.25,16.16c.13,1.6.81,2.22,2.43,2.22H64.63A2,2,0,0,0,66.5,73.8Q67,67,67.5,60.17L68.5,47q.5-6.55,1-13.11c.07-.61.12-1.23.16-1.86ZM55.5,27.21v-2.8H44.4v2.8Z"/><path class="cls-1" d="M42,20.2H58a1.83,1.83,0,0,1,1.82,1.65,2.16,2.16,0,0,1,0,.36v5.54H78a3.23,3.23,0,0,1,.69.07,1.82,1.82,0,0,1-.46,3.58H74.11c-.08,1-.16,1.93-.23,2.89q-.47,5.93-.92,11.85c-.26,3.4-.51,6.79-.77,10.18q-.45,5.85-.91,11.7c-.15,2-.33,4-.45,6a6.09,6.09,0,0,1-6,5.75H35.29a6.17,6.17,0,0,1-6.06-5.83c-.31-4.43-.68-8.85-1-13.27q-.45-5.81-.88-11.6-.51-6.51-1-13c-.19-1.53-.3-3.07-.42-4.66H22.22a5.36,5.36,0,0,1-.7-.05,1.82,1.82,0,0,1,.23-3.61H40.14V22.21a1.82,1.82,0,0,1,1.62-2H42m1.95,7.51H56v-3.8H43.9v3.8m26.29,3.78H29.62a4.34,4.34,0,0,0,0,.51c.24,3.23.49,6.47.75,9.7q.6,7.8,1.22,15.58.63,8.09,1.25,16.16c.15,1.86,1.06,2.68,2.93,2.68H64.63A2.49,2.49,0,0,0,67,73.84Q67.52,67,68,60.2L69,47q.5-6.55,1-13.11c.09-.77.14-1.57.19-2.4M42,19.2l-.29,0a2.82,2.82,0,0,0-2.52,3v4.49H21.75a2.81,2.81,0,0,0-2.69,2.33,2.82,2.82,0,0,0,2.29,3.26,5.19,5.19,0,0,0,.87.07H25c.1,1.29.2,2.53.36,3.78.32,4.28.65,8.62,1,13q.43,5.79.88,11.6c.15,2,.3,4,.46,6,.18,2.43.37,4.85.54,7.28a7.2,7.2,0,0,0,7,6.76H64.83a7.12,7.12,0,0,0,7-6.69c.08-1.32.19-2.67.29-4,0-.67.11-1.34.16-2q.45-5.84.91-11.69c.13-1.77.26-3.53.4-5.29s.24-3.26.37-4.89q.45-5.92.92-11.85l.15-2h3.14a2.81,2.81,0,0,0,2.74-2.1,2.76,2.76,0,0,0-.29-2.14,2.8,2.8,0,0,0-1.72-1.31,4.42,4.42,0,0,0-.94-.1H60.83v-4.5a4.17,4.17,0,0,0,0-.5A2.83,2.83,0,0,0,58,19.2H42Zm2.95,5.71H55v1.8H44.9v-1.8ZM30.66,32.49H69.12c0,.45-.06.87-.11,1.28-.35,4.41-.68,8.78-1,13.16L67,60.12c-.32,4.52-.65,9.11-1,13.64a1.49,1.49,0,0,1-1.41,1.36H35.77c-1.36,0-1.83-.43-1.93-1.76q-.63-8.07-1.25-16.16Q32,49.41,31.37,41.62c-.25-3-.48-6.09-.71-9.13Z"/></svg>