<?xml version="1.0" encoding="utf-8"?>
<!-- Generator: Adobe Illustrator 23.0.6, SVG Export Plug-In . SVG Version: 6.00 Build 0)  -->
<svg version="1.1" id="Layer_1" xmlns="http://www.w3.org/2000/svg" xmlns:xlink="http://www.w3.org/1999/xlink" x="0px" y="0px"
	 viewBox="0 0 100 100" style="enable-background:new 0 0 100 100;" xml:space="preserve">
<style type="text/css">
	.st0{fill:#333333;}
</style>
<title>icon_target</title>
<path class="st0" d="M49.6,90c-0.6-0.3-0.9-1-0.9-1.7c0-4.8,0-9.5,0-14.3c0-0.9,0.4-1.4,1.1-1.5c0.7-0.1,1.3,0.3,1.4,1
	c0,0,0,0.1,0,0.1c0,0.2,0,0.4,0,0.6c0,4.7,0,9.4,0,14.1c0.1,0.7-0.2,1.4-0.8,1.7H49.6z"/>
<path class="st0" d="M10,49.6c0.3-0.6,1-0.9,1.7-0.8c4.7,0,9.4,0,14.2,0c0.2,0,0.4,0,0.7,0c0.7,0.1,1.1,0.8,0.9,1.5
	c-0.1,0.5-0.5,0.8-0.9,0.9c-0.2,0-0.4,0-0.7,0c-4.7,0-9.4,0-14.2,0c-0.7,0.1-1.3-0.3-1.7-0.9V49.6z"/>
<path class="st0" d="M58.1,37.9l-1.4,1.4c-1.4-0.9-3-1.5-4.7-1.8c-6.9-1.1-13.5,3.6-14.6,10.5S41,61.5,47.9,62.6
	c6.9,1.1,13.5-3.6,14.6-10.5c0-0.2,0.1-0.4,0.1-0.7c0.3-2.6-0.3-5.2-1.5-7.5c-0.2-0.2-0.1-0.5,0.1-0.7c0,0,0,0,0,0
	c0.3-0.3,0.7-0.7,1-1.1c4.4,6.8,2.5,15.9-4.3,20.3s-15.9,2.5-20.3-4.3s-2.5-15.9,4.3-20.3C46.8,34.6,53.2,34.6,58.1,37.9L58.1,37.9z
	"/>
<path class="st0" d="M52.6,49.5c0.4,0,0.5-0.1,0.7-0.1c0.6-0.1,1.2,0.3,1.3,0.9c0.1,0.6-0.2,1.2-0.8,1.4c-1.8,0.5-3.7,0.9-5.5,1.3
	c-0.6,0.1-1.3-0.2-1.4-0.9c-0.1-0.2,0-0.4,0-0.7c0.5-1.8,1.1-3.6,1.6-5.4c0.2-0.6,0.8-0.9,1.4-0.7c0.6,0.1,1.1,0.8,0.9,1.4
	c0,0.2-0.1,0.5-0.2,0.9c0.3-0.2,0.4-0.4,0.6-0.5c5-5.1,10.1-10.2,15.1-15.2c0.4-0.3,0.5-0.8,0.5-1.2c-0.2-2.1-0.3-4.2-0.5-6.4
	c-0.1-0.5,0.1-1.1,0.5-1.5c2.8-2.6,5.6-5.3,8.4-7.9c0.3-0.4,0.9-0.6,1.4-0.5c0.5,0.2,0.9,0.7,0.9,1.3c0.3,1.6,0.7,3.3,0.9,4.9
	c0,0.4,0.3,0.7,0.7,0.8c1.7,0.3,3.3,0.7,5,1c0.5,0.1,1,0.4,1.1,0.9c0.1,0.5-0.1,1.1-0.5,1.4c-2.9,2.7-5.8,5.4-8.7,8.1
	c-0.4,0.4-0.9,0.5-1.4,0.5c-1.8-0.1-3.6-0.3-5.5-0.3c-0.3,0-0.6,0.1-0.9,0.3C63.4,38.5,58.2,43.8,53,49.1L52.6,49.5z M69.3,29
	c0.1-0.1,0.2-0.1,0.2-0.1l6.7-6.7c0.1-0.1,0.2-0.3,0.2-0.4c-0.2-1.2-0.5-2.4-0.7-3.6c-2.2,2.1-4.4,4.1-6.5,6.2
	c-0.1,0.1-0.2,0.3-0.2,0.5C69,26.1,69.1,27.5,69.3,29z M81.7,24.4c-1.1-0.2-2.1-0.4-3-0.6c-0.3-0.1-0.7,0-0.9,0.3
	c-2,2.1-4,4.1-6,6.1c-0.1,0.2-0.3,0.3-0.4,0.5c1,0.1,1.9,0.2,2.9,0.2c0.3,0,0.7-0.1,0.9-0.4c1.6-1.4,3.2-2.9,4.7-4.4L81.7,24.4z"/>
<path class="st0" d="M17.7,53.8h2.5c1.8,13.6,12.4,24.2,26,26v2.5C31.3,80.5,19.5,68.7,17.7,53.8z"/>
<path class="st0" d="M46.2,17.8v2.4C31.6,23,23,31.6,20.1,46.2h-2.3C18.8,33.4,29.8,19.6,46.2,17.8z"/>
<path class="st0" d="M81.2,51.2h-7c-0.2,0-0.5,0-0.7,0c-0.7-0.1-1.1-0.7-1-1.4c0.1-0.5,0.5-0.9,1-1c0.2,0,0.4,0,0.7,0h14.1
	c0.2,0,0.4,0,0.6,0c0.7,0.1,1.2,0.7,1.1,1.4c-0.1,0.6-0.5,1-1.1,1.1c-0.2,0-0.4,0-0.7,0L81.2,51.2z"/>
<path class="st0" d="M51.2,18.7v7.3c0,0.9-0.5,1.4-1.2,1.4c-0.6,0-1.1-0.4-1.2-1c0-0.2,0-0.4,0-0.5V11.6c0-0.1,0-0.2,0-0.3
	c-0.1-0.7,0.4-1.3,1.1-1.4c0,0,0.1,0,0.1,0c0.7,0,1.2,0.5,1.3,1.4L51.2,18.7L51.2,18.7z"/>
<path class="st0" d="M78.5,34.4c2,3.7,3.3,7.7,3.8,11.8h-2.5c-0.5-3.6-1.6-7.2-3.4-10.4L78.5,34.4z"/>
<path class="st0" d="M64.9,21.2l-1.2,2.2c-3.1-1.6-6.5-2.7-10-3.1v-2.5C57.7,18.2,61.4,19.3,64.9,21.2z"/>
<path class="st0" d="M82.4,53.8h-2.5c-1.8,13.6-12.4,24.2-26,26v2.5C68.9,80.5,80.6,68.7,82.4,53.8z"/>
<path class="st0" d="M21.7,34.4c-2,3.7-3.3,7.7-3.8,11.8h2.5c0.5-3.6,1.6-7.2,3.3-10.4L21.7,34.4z"/>
</svg>
