<svg id="Layer_1" data-name="Layer 1" xmlns="http://www.w3.org/2000/svg" viewBox="0 0 50 50"><defs><style>.cls-1{fill:#f86c6b;}</style></defs><title>icon_camera-danger</title><path class="cls-1" d="M7.5,19.79A10.43,10.43,0,0,1,8.17,18a4.2,4.2,0,0,1,3.66-2.13h3.52a.46.46,0,0,0,.5-.31c.55-1.13,1.11-2.26,1.67-3.38A3.6,3.6,0,0,1,21,10h8a3.55,3.55,0,0,1,3.19,2A1.37,1.37,0,1,1,30,13.58a1.71,1.71,0,0,1-.13-.23,1,1,0,0,0-.92-.54h-8a1,1,0,0,0-1,.67c-.55,1.13-1.12,2.25-1.68,3.38a2.91,2.91,0,0,1-2.87,1.78H12.12a1.72,1.72,0,0,0-1.91,1.51,1.34,1.34,0,0,0,0,.4V35.42a1.71,1.71,0,0,0,1.53,1.87H37.87a1.73,1.73,0,0,0,1.9-1.52,2.29,2.29,0,0,0,0-.37V20.49a1.73,1.73,0,0,0-1.52-1.9,2.29,2.29,0,0,0-.37,0H30.61a2.22,2.22,0,0,1-.68-.08A1.35,1.35,0,0,1,29,16.82a1.33,1.33,0,0,1,1.3-1H38A4.41,4.41,0,0,1,42.48,20V35.34a4.36,4.36,0,0,1-2.85,4.3A5.09,5.09,0,0,1,37.9,40Q25,40,12.08,40a4.4,4.4,0,0,1-4.52-3.75l-.06-.14Z"/><path class="cls-1" d="M17.12,26.74a7.88,7.88,0,1,1,7.66,8.1h-.19A7.9,7.9,0,0,1,17.12,26.74ZM25,21.83A5.16,5.16,0,1,0,30.15,27,5.16,5.16,0,0,0,25,21.83Z"/><path class="cls-1" d="M34.82,21.77a1.58,1.58,0,1,1,0,.25A1,1,0,0,1,34.82,21.77Z"/></svg>