<svg id="Layer_1" data-name="Layer 1" xmlns="http://www.w3.org/2000/svg" viewBox="0 0 128 128"><defs><style>.cls-1{fill:#333;}</style></defs><title>icon_directory</title><path class="cls-1" d="M106.33,47.37H98.91V43.23A5.22,5.22,0,0,0,93.69,38H65.77V35.74a9.16,9.16,0,0,0-9.16-9.13H28.16A9.24,9.24,0,0,0,19,35.9l.1,56.6c0,2.29,0,8.35,5,8.85a1.92,1.92,0,0,0,.38,0h78.62A5.87,5.87,0,0,0,109,95.52V50A2.68,2.68,0,0,0,106.33,47.37ZM34.44,90.46V52.71h69.23V95.52a.52.52,0,0,1-.52.52H34.25A47,47,0,0,0,34.44,90.46ZM24.34,42.6V35.9A3.89,3.89,0,0,1,28.16,32H56.61a3.8,3.8,0,0,1,3.82,3.78v2.39a5.22,5.22,0,0,0,5.22,5.22H93.57v4H31.76A2.68,2.68,0,0,0,29.09,50V90.48c0,.65,0,1.26.05,1.84.09,2.15.09,3.31-.7,4.26a2.5,2.5,0,0,1-1.59.52,1.93,1.93,0,0,1-1.44-.58c-.48-.49-1-1.59-1-4v0Z"/><path class="cls-1" d="M48.39,90.12H46.46a1,1,0,0,1,0-1.93h1.93a1,1,0,0,1,0,1.93Z"/><path class="cls-1" d="M91.23,90.12H87.66a1,1,0,0,1,0-1.93h3.57a1,1,0,0,1,0,1.93Zm-7.14,0H80.52a1,1,0,0,1,0-1.93h3.57a1,1,0,0,1,0,1.93Zm-7.14,0H73.38a1,1,0,0,1,0-1.93H77a1,1,0,0,1,0,1.93Zm-7.14,0H66.24a1,1,0,0,1,0-1.93h3.57a1,1,0,0,1,0,1.93Zm-7.14,0H59.1a1,1,0,0,1,0-1.93h3.57a1,1,0,0,1,0,1.93Zm-7.14,0H52a1,1,0,0,1,0-1.93h3.57a1,1,0,0,1,0,1.93Z"/><path class="cls-1" d="M96.73,90.12H94.8a1,1,0,0,1,0-1.93h1v-1a1,1,0,1,1,1.93,0v1.92A1,1,0,0,1,96.73,90.12Z"/><path class="cls-1" d="M96.73,84.62a1,1,0,0,1-1-1V80.09a1,1,0,1,1,1.93,0v3.57A1,1,0,0,1,96.73,84.62Zm0-7.14a1,1,0,0,1-1-1V73a1,1,0,1,1,1.93,0v3.57A1,1,0,0,1,96.73,77.48Zm0-7.14a1,1,0,0,1-1-1V65.81a1,1,0,1,1,1.93,0v3.57A1,1,0,0,1,96.73,70.34Z"/><path class="cls-1" d="M96.73,63.2a1,1,0,0,1-1-1V60.31a1,1,0,0,1,1.93,0v1.93A1,1,0,0,1,96.73,63.2Z"/></svg>