<svg id="Layer_1" data-name="Layer 1" xmlns="http://www.w3.org/2000/svg" viewBox="0 0 408.01 409.71"><defs><style>.cls-1{fill:#e8e8e8;}</style></defs><title>empty-state-imagens-instagram</title><path class="cls-1" d="M288.39,166.9H251.23l-15.08-46.27a2,2,0,0,0-1.9-1.38,2.05,2.05,0,0,0-.49.06l-1.08.27c-.64.15-1.2.29-1.76.45l-22,6.3c-22.14,6.33-45,12.88-67.54,19.34-8.77,2.52-17.65,5.13-26.25,7.66l-11.91,3.49a2,2,0,0,0-1.44,1.92v.68a2,2,0,0,0,.16.79c.15.35.31.69.47,1a19.16,19.16,0,0,1,.79,1.89q6.39,19.63,12.75,39.29l6.15,19c2.23,6.88,4.47,13.76,6.73,20.7l3.09,9.51a2,2,0,0,0,2.44,1.31l12.74-3.56,3.21-.9v16.74a2,2,0,0,0,2,2H288.39a2,2,0,0,0,2-2V168.9A2,2,0,0,0,288.39,166.9Zm-138.24,1.85v3.92q0,7.14,0,14.27c0,13.66,0,27.78.12,41.67,0,2.49-.46,3.1-2.75,3.44a24.57,24.57,0,0,0-3.6.89l-11.14-34.32-9.89-30.46,101.22-29,1.62,5L233,166.75H152.15A2,2,0,0,0,150.15,168.75Zm123,14.73v67.33H167.66V183.48Z" transform="translate(-45.99 -45.15)"/><path class="cls-1" d="M182.85,243.56h79.93a2,2,0,0,0,1.64-3.15l-7-10-21.56-30.69a2,2,0,0,0-1.61-.85h0a2,2,0,0,0-1.6.8L225,209.8l-8,10.69-3.47-3.65L209.77,213a2,2,0,0,0-1.45-.62h0a2,2,0,0,0-1.45.63l-25.47,27.19a2,2,0,0,0,1.46,3.37Z" transform="translate(-45.99 -45.15)"/><path class="cls-1" d="M192.75,212.08h.33a12.46,12.46,0,0,0,8.76-3.67,11.09,11.09,0,0,0,3.35-7.91c0-6.25-5.46-11.36-12.09-11.4H193c-6.79,0-12,4.85-12.05,11.29S186.07,211.9,192.75,212.08Z" transform="translate(-45.99 -45.15)"/><path class="cls-1" d="M441,379.13,334.93,273.05a153.91,153.91,0,1,0-63.24,62.21h0l106.6,106.6A44.35,44.35,0,0,0,441,379.13ZM108.76,290.24A128.92,128.92,0,1,1,199.92,328,128.06,128.06,0,0,1,108.76,290.24ZM290.7,323.38h0Zm132.64,100.8a19.36,19.36,0,0,1-27.38,0L293.25,321.47h0a154.83,154.83,0,0,0,27.59-27.15l102.5,102.49A19.39,19.39,0,0,1,423.34,424.18Z" transform="translate(-45.99 -45.15)"/></svg>