<svg id="Layer_1" data-name="Layer 1" xmlns="http://www.w3.org/2000/svg" viewBox="0 0 128 50"><defs><style>.cls-1{fill:#333;}</style></defs><title>timeline-horizontal</title><path class="cls-1" d="M30.2,25A12.75,12.75,0,1,1,17.4,12.3,12.72,12.72,0,0,1,30.2,25ZM9.7,25a7.7,7.7,0,1,0,7.7-7.7A7.7,7.7,0,0,0,9.7,25Z"/><path class="cls-1" d="M123.3,25a12.75,12.75,0,1,1-12.8-12.7A12.72,12.72,0,0,1,123.3,25Zm-20.5,0a7.7,7.7,0,1,0,7.7-7.7A7.7,7.7,0,0,0,102.8,25Z"/><rect class="cls-1" x="34.3" y="22" width="4" height="6"/><path class="cls-1" d="M82.4,22v6H75V22ZM67.7,22v6H60.4V22ZM53,22v6H45.7V22Z"/><rect class="cls-1" x="89.7" y="22" width="4" height="6"/></svg>