<?xml version="1.0" encoding="utf-8"?>
<!-- Generator: Adobe Illustrator 23.0.6, SVG Export Plug-In . SVG Version: 6.00 Build 0)  -->
<svg version="1.1" id="Layer_1" xmlns="http://www.w3.org/2000/svg" xmlns:xlink="http://www.w3.org/1999/xlink" x="0px" y="0px"
	 viewBox="0 0 50 128" style="enable-background:new 0 0 50 128;" xml:space="preserve">
<style type="text/css">
	.st0{fill:#333333;}
</style>
<g>
	<path class="st0" d="M25,30.2c-7,0-12.7-5.7-12.7-12.7S18,4.7,25,4.7s12.7,5.7,12.7,12.7S32,30.2,25,30.2z M25,9.7
		c-4.3,0-7.7,3.5-7.7,7.7s3.5,7.7,7.7,7.7s7.7-3.5,7.7-7.7S29.3,9.7,25,9.7z"/>
</g>
<g>
	<path class="st0" d="M25,123.3c-7,0-12.7-5.7-12.7-12.7S18,97.8,25,97.8s12.7,5.7,12.7,12.7S32,123.3,25,123.3z M25,102.8
		c-4.3,0-7.7,3.5-7.7,7.7s3.5,7.7,7.7,7.7s7.7-3.5,7.7-7.7S29.3,102.8,25,102.8z"/>
</g>
<g>
	<g>
		<rect x="22" y="34.3" class="st0" width="6" height="4"/>
	</g>
	<g>
		<path class="st0" d="M28,82.4h-6V75h6V82.4z M28,67.7h-6v-7.3h6V67.7z M28,53h-6v-7.3h6V53z"/>
	</g>
	<g>
		<rect x="22" y="89.7" class="st0" width="6" height="4"/>
	</g>
</g>
</svg>
