<?xml version="1.0" encoding="utf-8"?>
<!-- Generator: Adobe Illustrator 23.0.6, SVG Export Plug-In . SVG Version: 6.00 Build 0)  -->
<svg version="1.1" id="Layer_1" xmlns="http://www.w3.org/2000/svg" xmlns:xlink="http://www.w3.org/1999/xlink" x="0px" y="0px"
	 viewBox="0 0 100 100" style="enable-background:new 0 0 100 100;" xml:space="preserve">
<style type="text/css">
	.st0{fill:#333333;}
</style>
<title>icon_tie</title>
<path class="st0" d="M44.6,10h0.7c0.5,0.2,1,0.5,1.5,0.9c3.9,3.8,7.7,7.7,11.5,11.5c1,0.8,1.1,2.2,0.4,3.2c-0.1,0.1-0.2,0.2-0.4,0.4
	c-1.6,1.6-3.1,3.1-4.7,4.7c-0.2,0.2-0.3,0.5-0.3,0.9c0.3,1.5,0.6,2.9,0.8,4.4c0.1,0.5,0.3,0.9,0.7,1.1c4.8,3.7,9.7,7.4,14.5,11.1
	c0.5,0.4,0.9,0.9,1.1,1.5c0.4,2.4,0.7,4.9,1,7.4c0.2,1.2-0.6,2.2-1.8,2.4c0,0-0.1,0-0.1,0c-2.3,0.3-4.6,0.7-6.9,0.9
	c-0.5,0-1-0.1-1.5-0.3c-0.8-0.4-1.6-1-2.5-1.5c0,0.2,0,0.4,0.1,0.7c0.9,4.5,1.7,9,2.6,13.5c0.3,1-0.1,2.1-0.8,2.8
	c-4.4,4.3-8.8,8.7-13.2,13.2c-0.5,0.6-1.2,1.1-2,1.3h-0.3c-0.6-0.2-1.1-0.5-1.6-0.8c-4.7-4.6-9.3-9.3-13.9-13.9
	c-0.6-0.6-0.9-1.5-0.7-2.3c2.7-13.8,5.3-27.6,8-41.4c0-0.3-0.1-0.7-0.3-0.9c-1.5-1.5-3-3.1-4.6-4.6c-1.3-1.3-1.3-2.5,0-3.8
	c3.7-3.7,7.3-7.3,11-10.9C43.4,10.9,44,10.4,44.6,10z M41,32.6l-3.9,20h6.3c0.7,0,1.4,0,2.1,0c1.2,0,2.2,1.1,2.1,2.3
	c0,1.2-1.1,2.2-2.3,2.1l0,0c-2.8,0-5.6,0-8.5,0c-0.5,0-0.7,0.1-0.8,0.7c0,0.1,0,0.3-0.1,0.4c-0.2,1.1-0.4,2.2-0.6,3.4h5.3
	c0.4,0,0.8,0.1,1.1,0.1c1,0.4,1.6,1.4,1.4,2.5C43.1,65.2,42.1,66,41,66c-1.9,0-3.8,0-5.7,0h-0.7c-0.4,2.3-0.9,4.4-1.2,6.6
	c0,0.3,0.1,0.6,0.4,0.8c3.4,3.4,6.7,6.8,10.1,10.1c0.4,0.4,0.7,0.8,1.1,1.1c0.1-0.1,0.2-0.2,0.4-0.3c3.7-3.7,7.5-7.5,11.2-11.2
	c0.2-0.2,0.2-0.4,0.2-0.7c-0.1-0.9-0.3-1.8-0.5-2.7l-6.2-32.6c-0.3-1.5-0.6-3-0.9-4.6L41,32.6z M53.7,24.3L45,15.6l-8.7,8.7
	c1.1,1.2,2.4,2.5,3.7,3.7c0.1,0.1,0.3,0.1,0.5,0.1c3,0,6,0,9,0c0.2,0,0.5-0.1,0.6-0.2C51.3,26.7,52.5,25.5,53.7,24.3z M66.7,55.4
	c-0.2-1.3-0.3-2.6-0.5-3.9c0-0.2-0.2-0.4-0.4-0.5l-9.7-7.4c-0.1-0.1-0.3-0.2-0.4-0.2c0,0.1,0,0.2,0,0.3c0.5,2.6,1,5.3,1.5,7.9
	c0.1,0.2,0.2,0.4,0.4,0.6c1.6,1.2,3.1,2.4,4.7,3.6c0.1,0.1,0.3,0.2,0.5,0.2C64,55.8,65.3,55.6,66.7,55.4z"/>
</svg>
