<svg id="Layer_1" data-name="Layer 1" xmlns="http://www.w3.org/2000/svg" viewBox="0 0 128 128"><defs><style>.cls-1{fill:#FFF;}</style></defs><title>icons</title><path class="cls-1" d="M95,108.22q0-10.9,0-21.81V71.77a13,13,0,0,0-10.34-13,14,14,0,0,0-3.06-.3q-17.58,0-35.17,0A13,13,0,0,0,33.2,69.26c-.05.24-.1.48-.16.72l-.07.31V109.5a3.12,3.12,0,0,0,2,2H93C94.44,111,95,110,95,108.22ZM68.82,63.54l0,.44c.14,1.75-1.76,3.25-4.42,3.49a4.89,4.89,0,0,1-.54,0c-2.46,0-4.66-1.52-4.83-3.43l0-.53ZM66.17,81.92c1.13,2.77,2.27,5.55,3.42,8.31a1.3,1.3,0,0,1-.39,1.69C68,93,66.85,94,65.66,95.09L64,96.6l-1.45-1.31c-1.36-1.22-2.68-2.4-4-3.6a1.14,1.14,0,0,1-.28-1.14c1.51-3.72,3-7.45,4.61-11.25l1-2.41L64.51,78a3.68,3.68,0,0,1,.23.42ZM38,106.4v-1.47q0-4.74,0-9.48c0-7.66,0-15.59,0-23.38a8.54,8.54,0,0,1,2.56-6.28,8.11,8.11,0,0,1,6-2.29c1.55.07,3.15,0,4.7,0l2.17,0h.43l0,.43a8.79,8.79,0,0,0,6,7.88l.45.18-.75,1.84-1.52,3.72L52.85,90.49a2.64,2.64,0,0,0,.81,3.59L62,101.62a2.56,2.56,0,0,0,3.9,0L74.38,94a2.6,2.6,0,0,0,.79-3.46L68.1,73.37l-.24-.63L67.58,72l.44-.17a8.8,8.8,0,0,0,6-7.75l0-.43h.43c.9,0,1.8,0,2.7,0a47.37,47.37,0,0,1,6.07.11,7.7,7.7,0,0,1,6.64,7.44c0,.41,0,.82,0,1.23v34Z"/><path class="cls-1" d="M64,54.53h0a19,19,0,0,0,0-38h0a19,19,0,0,0,0,38ZM54.15,25.59a13.79,13.79,0,0,1,9.79-4.05H64a14,14,0,1,1,0,27.93H63.9a14,14,0,0,1-9.75-23.88Z"/></svg>