<?xml version="1.0" encoding="utf-8"?>
<!-- Generator: Adobe Illustrator 23.0.6, SVG Export Plug-In . SVG Version: 6.00 Build 0)  -->
<svg version="1.1" id="Layer_1" xmlns="http://www.w3.org/2000/svg" xmlns:xlink="http://www.w3.org/1999/xlink" x="0px" y="0px"
	 viewBox="0 0 100 100" style="enable-background:new 0 0 100 100;" xml:space="preserve">
<style type="text/css">
	.st0{fill:#444444;}
</style>
<title>icon_add-cargo</title>
<path class="st0" d="M68.3,20.9c-13.2,0-23.9,10.6-23.9,23.8S55,68.6,68.2,68.6S92.1,58,92.1,44.8l0,0
	C92.1,31.5,81.5,20.9,68.3,20.9z M86.9,44.8c0,10.3-8.3,18.6-18.6,18.6s-18.6-8.3-18.6-18.6S58,26.2,68.3,26.2
	C78.6,26.2,86.8,34.4,86.9,44.8C86.9,44.7,86.9,44.7,86.9,44.8z"/>
<path class="st0" d="M77.7,43.1h-7.7v-7.7c-0.1-1-0.9-1.6-1.8-1.5c-0.8,0.1-1.5,0.7-1.5,1.5v7.7h-7.8c-1,0.1-1.6,0.9-1.5,1.8
	c0.1,0.8,0.7,1.5,1.5,1.5h7.8v7.8c-0.1,1,0.6,1.7,1.5,1.8c1,0.1,1.7-0.6,1.8-1.5c0-0.1,0-0.2,0-0.3v-7.8h7.7c1,0.1,1.7-0.6,1.8-1.5
	c0.1-1-0.6-1.7-1.5-1.8C77.9,43.1,77.8,43.1,77.7,43.1z"/>
<path class="st0" d="M83.9,83.3c-0.1-1-0.1-2.1-0.1-3.1c-0.1-2.1-0.1-4.2-0.5-6.4c-0.1-1.1-0.5-2.3-1.1-3.5
	c-0.2-0.3-0.5-0.6-0.9-0.6c-0.1,0-0.3,0-0.4,0.1c-1.5,0.7-2.9,1.4-4.6,1.8c-0.3,0.1-0.6,0.4-0.7,0.7c-0.1,0.3,0,0.7,0.2,0.9
	c0.6,0.7,1,1.6,1,2.6c0,0,0,0,0,0.1c0.1,0.9,0,1.8,0,2.8c0,0.2,0,0.4,0,0.5H23.2V76c0.1-2.2,1.2-3.5,3.6-4.2c1.3-0.4,2.8-0.7,4.1-1
	l0.4-0.1c0,0,0,0,0.1,0l0.8-0.2c3.3-0.8,6.7-1.7,9.7-3.9c2.6-1.8,3.8-5.1,3-8.3c0,0,0,0,0-0.1c-0.4-1.2-0.9-2.5-1.6-3.7
	c-2.5-5.1-5.1-11.2-4.8-18c0-2.7,1.1-5.4,2.9-7.5c1.6-1.7,3.5-2.7,5.6-3.1c0.2,0,0.4-0.1,0.6-0.3c1.7-1.9,3.7-3.5,6-4.9
	c0.4-0.2,0.5-0.6,0.5-1s-0.4-0.7-0.8-0.8c-1.1-0.2-2.1-0.3-3.2-0.3c-7.6,0-14.4,4.5-17.2,11.5C31,34.8,31,40,32.6,46
	c1.2,4.4,2.9,8.6,5.1,12.6c0.9,1.8,0.3,2.5-0.8,3.1c-1.4,0.6-2.7,1.2-4,1.4c0,0,0,0-0.1,0c-1.2,0.3-2.4,0.7-3.6,1
	c-1.9,0.5-3.9,1.1-5.9,1.7c-3.6,1.1-6.1,4.2-6.6,7.9c-0.3,2.1-0.4,4.2-0.4,6.3c0,1-0.1,2.1-0.2,3.1c0,0.6,0,1.5,0.5,2.1
	c0.6,0.6,1.4,0.7,2.1,0.7H50h31.3c0.7,0,1.5-0.1,2.1-0.7C83.9,84.7,83.9,83.9,83.9,83.3z"/>
</svg>
